<svg width="120" height="80" viewBox="0 0 120 80" fill="none" xmlns="http://www.w3.org/2000/svg">
<g clip-path="url(#clip0_2329_2)">
<path d="M109.664 28.5747C113.245 24.21 115.327 19.3402 115.689 14.491L116 10.3037C116.004 10.2431 115.987 10.1829 115.954 10.1321C115.92 10.0813 115.871 10.0425 115.813 10.0214C115.756 10.0004 115.693 9.99823 115.634 10.0153C115.575 10.0323 115.523 10.0676 115.486 10.116L112.975 13.5047C107.734 20.5824 95.5555 27.7523 81.2087 32.2091C80.2661 32.5026 79.3096 32.7824 78.3463 33.052L77.155 33.3933C73.0116 34.4171 67.1002 35.0689 60.5121 35.0689C53.924 35.0689 47.9954 34.4239 43.8692 33.3933L42.6779 33.052C41.718 32.7824 40.7616 32.5026 39.819 32.2091C25.4584 27.7523 13.28 20.5824 8.03511 13.5047L5.52486 10.116C5.4885 10.0667 5.43682 10.0305 5.37771 10.0129C5.31859 9.99527 5.25526 9.99724 5.19739 10.0185C5.13951 10.0398 5.09025 10.0791 5.05711 10.1306C5.02397 10.1821 5.00877 10.2429 5.01383 10.3037L5.32804 14.4876C5.67333 19.3368 7.76924 24.2066 11.3499 28.5713C12.4723 29.9306 13.847 31.0657 15.4001 31.9156C14.3643 31.5448 13.3457 31.158 12.3443 30.7554L10.3934 29.9705C10.3472 29.9519 10.2968 29.9457 10.2473 29.9526C10.1978 29.9595 10.1511 29.9791 10.1118 30.0096C10.0726 30.0401 10.0422 30.0804 10.0237 30.1262C10.0052 30.1721 9.99938 30.2219 10.0067 30.2708L10.2898 32.3183C10.7422 35.6046 13.6046 38.7749 18.5768 41.4845L16.3393 41.1876C16.3012 41.1828 16.2625 41.1881 16.2272 41.2031C16.1919 41.2182 16.1613 41.2423 16.1387 41.273C16.1161 41.3037 16.1023 41.3399 16.0987 41.3777C16.0951 41.4155 16.1019 41.4536 16.1183 41.4879L17.1542 43.6174C18.2488 45.8697 20.6658 47.6579 24.1877 48.8421L23.2106 49.0059C23.174 49.0125 23.1399 49.0284 23.1114 49.052C23.083 49.0756 23.0613 49.1061 23.0484 49.1406C23.0355 49.175 23.0319 49.2121 23.0379 49.2483C23.044 49.2846 23.0594 49.3186 23.0828 49.3471L24.5848 51.0534C25.6448 52.2615 27.1917 53.1215 29.1944 53.6197L28.3657 59.2675C28.3601 59.3016 28.3631 59.3364 28.3745 59.369C28.3859 59.4016 28.4053 59.4309 28.431 59.4542C28.4567 59.4776 28.4878 59.4943 28.5216 59.5028C28.5554 59.5113 28.5908 59.5114 28.6247 59.503L33.4 58.3837C34.1562 58.2096 34.9228 58.0424 35.6824 57.8752L38.1236 57.3531L38.6622 53.391C38.7244 53.4593 38.79 53.5241 38.8556 53.589C39.704 54.3973 40.84 54.8435 42.0184 54.8312C42.2495 54.8309 42.4802 54.815 42.709 54.7834C44.2801 54.5684 45.8684 54.3807 47.4222 54.2271L49.8392 54.0087C50.699 53.9371 51.5657 53.8756 52.4462 53.821L53.9033 53.7391L55.6021 53.6675L56.5655 53.6333C57.3355 53.6094 58.1089 53.5958 58.8685 53.5856L60.5328 53.5651L62.1937 53.5856C62.9671 53.5856 63.744 53.6129 64.4864 53.6333L66.6375 53.7187C67.8978 53.7767 69.1858 53.8552 70.4599 53.9507C71.0878 54.0022 71.7199 53.9327 72.321 53.746C72.896 54.0353 73.5197 54.218 74.1614 54.2851C75.6634 54.4421 77.1827 54.6264 78.6743 54.8346C78.771 54.8346 78.8677 54.8619 78.9643 54.8687C79.3511 55.5069 79.87 56.0569 80.4871 56.4828C81.1043 56.9086 81.8056 57.2005 82.545 57.3394C84.2024 57.6534 85.8736 58.0049 87.5206 58.3871L92.2925 59.4996C92.3262 59.5071 92.3613 59.5064 92.3947 59.4975C92.4281 59.4887 92.4589 59.472 92.4844 59.4488C92.5098 59.4257 92.5292 59.3968 92.5409 59.3646C92.5526 59.3325 92.5562 59.298 92.5515 59.2641L91.7297 53.6709C93.8014 53.1795 95.3656 52.3058 96.4429 51.0807L97.9449 49.3744C97.9693 49.3465 97.9857 49.3126 97.9925 49.2764C97.9993 49.2401 97.9962 49.2026 97.9836 49.1679C97.9709 49.1332 97.9492 49.1024 97.9205 49.0787C97.8919 49.0551 97.8574 49.0393 97.8206 49.0332L96.8434 48.8694C100.365 47.6852 102.779 45.897 103.877 43.6447L104.913 41.5152C104.929 41.4809 104.936 41.4428 104.932 41.405C104.929 41.3672 104.915 41.331 104.892 41.3003C104.87 41.2696 104.839 41.2455 104.804 41.2304C104.769 41.2154 104.73 41.2101 104.692 41.2149L102.458 41.5118C107.423 38.8022 110.289 35.6319 110.745 32.3456L111.028 30.2981C111.034 30.2491 111.028 30.1993 111.009 30.1535C110.99 30.1078 110.959 30.0678 110.92 30.0374C110.88 30.0071 110.834 29.9874 110.784 29.9805C110.735 29.9735 110.684 29.9795 110.638 29.9978L108.687 30.7827C107.69 31.1853 106.673 31.5721 105.634 31.9429C107.183 31.085 108.551 29.9416 109.664 28.5747Z" fill="#D9D9D9"/>
<path d="M60.4983 21.1763C55.513 21.1763 50.6396 22.6373 46.4945 25.3747C42.3494 28.112 39.1187 32.0027 37.2109 36.5548C35.3031 41.1068 34.8039 46.1158 35.7765 50.9482C36.7491 55.7807 39.1497 60.2195 42.6749 63.7035C46.2 67.1875 50.6913 69.5601 55.5808 70.5214C60.4703 71.4826 65.5384 70.9893 70.1442 69.1037C74.75 67.2182 78.6867 64.0252 81.4564 59.9285C84.226 55.8317 85.7044 51.0153 85.7044 46.0882C85.7044 39.4811 83.0487 33.1447 78.3217 28.4728C73.5946 23.8009 67.1833 21.1763 60.4983 21.1763Z" fill="#DCDDDE"/>
<path d="M60.4983 29.2743C63.8631 29.2736 67.1526 30.2592 69.9508 32.1063C72.7489 33.9534 74.9299 36.5791 76.2181 39.6514C77.5063 42.7236 77.8437 46.1044 77.1876 49.3662C76.5316 52.628 74.9116 55.6243 72.5325 57.9761C70.1534 60.3279 67.1221 61.9296 63.8219 62.5786C60.5218 63.2276 57.101 62.8949 53.9921 61.6224C50.8833 60.3499 48.2262 58.1948 46.3567 55.4297C44.4872 52.6646 43.4893 49.4137 43.4893 46.0881C43.4948 41.6311 45.2885 37.3581 48.477 34.2061C51.6655 31.0542 55.9886 29.2806 60.4983 29.2743Z" fill="#F36F20"/>
<path d="M60.4983 63.7449C64.0318 63.7455 67.4862 62.7106 70.4246 60.7708C73.363 58.8311 75.6534 56.0737 77.0061 52.8474C78.3588 49.6212 78.7131 46.0709 78.0241 42.6456C77.3352 39.2203 75.6339 36.0738 73.1356 33.6041C70.6372 31.1345 67.4539 29.4525 63.9883 28.7709C60.5227 28.0894 56.9304 28.4388 53.6658 29.7751C50.4011 31.1114 47.6108 33.3745 45.6476 36.2782C43.6843 39.1819 42.6365 42.5958 42.6365 46.0881C42.642 50.7687 44.5255 55.2561 47.8739 58.5661C51.2224 61.8761 55.7624 63.7385 60.4983 63.7449ZM44.3215 48.9103C46.5037 53.6129 51.0028 57.1517 56.4618 58.3393C56.3416 58.6821 56.148 58.9953 55.8941 59.2573C55.6403 59.5194 55.3322 59.7243 54.9909 59.8579C54.1507 60.2294 53.2154 60.3366 52.3115 60.1651C50.228 58.9806 48.4328 57.3589 47.0523 55.4143C45.6718 53.4698 44.7396 51.2496 44.3215 48.9103ZM51.9178 32.2433C54.3422 30.7683 57.1143 29.9449 59.9596 29.8545V57.667C59.1922 57.6411 58.4275 57.5647 57.6704 57.4384C57.6462 55.4864 56.4895 53.2307 53.8411 49.8898C51.2583 46.6341 50.1914 44.4774 49.7667 41.6552C49.304 38.6521 49.6527 34.6764 51.9075 32.233L51.9178 32.2433ZM69.1029 32.2433C71.3542 34.673 71.7063 38.6487 71.254 41.6586C70.8293 44.4808 69.7624 46.6376 67.1796 49.8932C64.5278 53.2341 63.3814 55.4898 63.3469 57.4418C62.5898 57.5683 61.825 57.6446 61.0576 57.6705V29.8579C63.8995 29.9444 66.6693 30.7632 69.0925 32.233L69.1029 32.2433ZM65.5602 60.8442C65.8851 60.991 66.224 61.1053 66.5719 61.1854C64.8102 61.8751 62.9411 62.2584 61.0473 62.3184V58.7591C61.8569 58.7376 62.6642 58.6646 63.4643 58.5407C63.6127 59.056 63.8775 59.5314 64.2388 59.931C64.6 60.3306 65.0483 60.644 65.5498 60.8476L65.5602 60.8442ZM57.5564 58.5372C58.3565 58.6609 59.1639 58.7339 59.9734 58.7557V62.3116C58.0796 62.2512 56.2106 61.8679 54.4488 61.1786C54.7972 61.1 55.1362 60.9856 55.4605 60.8373C55.9616 60.6359 56.4098 60.3244 56.7711 59.9265C57.1324 59.5286 57.3974 59.0547 57.5461 58.5407L57.5564 58.5372ZM68.6989 60.1616C67.795 60.3332 66.8596 60.226 66.0194 59.8545C65.6778 59.7209 65.3692 59.5161 65.1148 59.254C64.8604 58.992 64.6661 58.6788 64.5451 58.3359C70.0041 57.1483 74.5032 53.6061 76.6889 48.9035C76.2705 51.2449 75.3372 53.467 73.9548 55.4129C72.5724 57.3588 70.7747 58.981 68.6885 60.1651L68.6989 60.1616ZM76.865 44.5491C75.9327 50.6917 70.8535 55.7219 64.4553 57.2234C64.5692 55.5751 65.6603 53.5651 68.0428 50.5654C70.7257 47.1836 71.8893 44.8152 72.3417 41.819C72.687 39.4302 72.5765 36.5056 71.5199 34.0315C74.5703 36.7531 76.4743 40.5083 76.8546 44.5525L76.865 44.5491ZM49.4905 34.0349C48.4304 36.509 48.3096 39.4472 48.6687 41.8224C49.1175 44.8187 50.2812 47.187 52.9641 50.5689C55.3466 53.5685 56.4411 55.5819 56.5551 57.2268C50.1534 55.7253 45.0777 50.6815 44.1419 44.5491C44.5278 40.5055 46.4368 36.7528 49.4905 34.0349Z" fill="#374EA2"/>
<path d="M52.9779 26.3805L54.3763 25.8276L54.359 25.7491L53.917 24.6605C53.8763 24.5629 53.7988 24.4848 53.7008 24.4428C53.6028 24.4007 53.4921 24.398 53.3922 24.4353L50.2846 25.6638L50.5125 26.2269L53.3542 25.1007L53.5338 25.5444L50.6299 26.6944L50.8543 27.2507L52.2666 26.691L52.4323 27.0937L51.0201 27.6534L51.248 28.2164L54.1518 27.0664L54.397 27.6704L55.0289 27.4213L54.7078 26.6296C54.6684 26.5347 54.5942 26.4581 54.5001 26.415C54.4059 26.372 54.2988 26.3657 54.2002 26.3975H54.1795L53.1436 26.8002L52.9779 26.3805Z" fill="#374EA2"/>
<path d="M48.389 27.1142C48.3242 27.0374 48.2328 26.9871 48.1326 26.9733C48.0324 26.9594 47.9305 26.9829 47.8469 27.0391L45.7095 28.6669L45.5196 28.4212L44.9844 28.8273L45.3815 29.3665L45.5369 29.5678L45.82 29.3528C45.8102 29.582 45.881 29.8075 46.0203 29.991C46.208 30.2019 46.47 30.3343 46.7529 30.3613C47.0359 30.3883 47.3186 30.3078 47.5437 30.1362C47.7687 29.9646 47.9193 29.7147 47.9647 29.4374C48.0101 29.16 47.947 28.876 47.7882 28.643C47.6429 28.4688 47.442 28.3484 47.2185 28.3018L47.9919 27.7114L49.342 29.4381L47.4222 30.8987L47.108 30.5268L46.5728 30.9363L46.9664 31.4447C47.0366 31.5283 47.1364 31.5823 47.2455 31.5956C47.3546 31.6089 47.4647 31.5806 47.5534 31.5164L50.2121 29.4927L49.9393 29.1515L49.0519 28.0185L49.4559 27.7148L49.0796 27.2336L48.679 27.5407L48.389 27.1142ZM47.1528 29.6463C47.0842 29.6987 47.0013 29.7298 46.9148 29.7357C46.8282 29.7415 46.7419 29.7219 46.6666 29.6792C46.5913 29.6366 46.5306 29.5728 46.492 29.496C46.4535 29.4192 46.4388 29.3328 46.4499 29.2478C46.461 29.1627 46.4974 29.0828 46.5545 29.0183C46.6115 28.9537 46.6867 28.9073 46.7705 28.8849C46.8542 28.8625 46.9428 28.8652 47.025 28.8926C47.1072 28.92 47.1793 28.9709 47.2323 29.0389C47.2695 29.0843 47.2971 29.1367 47.3134 29.193C47.3296 29.2492 47.3341 29.3081 47.3267 29.3662C47.3193 29.4242 47.3001 29.4802 47.2702 29.5306C47.2403 29.5811 47.2004 29.6251 47.1528 29.66V29.6463Z" fill="#374EA2"/>
<path d="M70.8846 26.0425C70.9174 25.9504 70.9156 25.8497 70.8795 25.7588C70.8433 25.668 70.7753 25.593 70.6878 25.5477L67.5802 24.285L67.3488 24.8447L70.1767 25.9947L69.9316 26.5783L68.9613 26.1824L69.1167 25.8071L68.395 25.5136L68.2397 25.889L66.9655 25.3702L66.7342 25.9265L67.5215 26.2473C67.3177 26.3429 67.1567 26.5093 67.0691 26.7148C66.8309 27.2881 67.2003 27.9843 67.8909 28.2641C68.5815 28.5439 69.3411 28.3119 69.5794 27.7386C69.6605 27.5299 69.6605 27.2989 69.5794 27.0902L70.3183 27.3905L70.5496 26.8342L70.8846 26.0425ZM68.1222 27.7215C68.016 27.6784 67.9252 27.6051 67.8611 27.5109C67.7971 27.4167 67.7628 27.3058 67.7626 27.1924C67.7623 27.0789 67.7962 26.9679 67.8598 26.8734C67.9235 26.779 68.014 26.7053 68.1201 26.6618C68.2261 26.6182 68.3428 26.6068 68.4555 26.6288C68.5681 26.6509 68.6716 26.7055 68.7528 26.7857C68.834 26.8659 68.8893 26.9682 68.9116 27.0795C68.934 27.1908 68.9224 27.3062 68.8784 27.411C68.8494 27.4816 68.8063 27.5458 68.7518 27.5997C68.6974 27.6537 68.6325 27.6964 68.5612 27.7253C68.4898 27.7543 68.4133 27.7688 68.3361 27.7682C68.259 27.7675 68.1828 27.7516 68.1119 27.7215H68.1222Z" fill="#374EA2"/>
<path d="M58.0709 23.8449C58.0548 23.7451 58.0016 23.6549 57.9218 23.5918C57.842 23.5287 57.7413 23.4973 57.6393 23.5036L55.8472 23.6538L55.899 24.2578L57.3769 24.1315L57.4425 24.8413C57.4712 25.0049 57.4634 25.1726 57.4195 25.3328C57.3756 25.493 57.2968 25.6418 57.1885 25.7686C57.0802 25.8955 56.9451 25.9973 56.7927 26.0671C56.6404 26.1368 56.4744 26.1727 56.3065 26.1722L55.9853 26.203L56.0406 26.807L56.4342 26.7729C56.6895 26.7667 56.9405 26.7067 57.1704 26.5969C57.4004 26.4871 57.6039 26.33 57.7674 26.1361C57.9308 25.9422 58.0505 25.716 58.1183 25.4727C58.1862 25.2294 58.2006 24.9746 58.1607 24.7253L58.0847 23.8653L58.0709 23.8449Z" fill="#374EA2"/>
<path d="M59.1171 23.3602C59.0139 23.3755 58.9206 23.4293 58.8563 23.5106C58.7921 23.5918 58.7618 23.6944 58.7718 23.797L59.0273 26.7455L59.7179 26.6909L59.4797 23.9335L60.0667 23.8824L60.0149 23.2817L59.1378 23.3534L59.1171 23.3602Z" fill="#374EA2"/>
<path d="M61.1301 25.792L61.0511 26.3866L64.8215 26.8759L64.9005 26.2813L61.1301 25.792Z" fill="#374EA2"/>
<path d="M63.7164 24.4797C64.0631 24.8647 64.5388 25.1131 65.0561 25.1792L65.4739 25.2441L65.5533 24.6469L65.0975 24.5752C64.5244 24.466 64.1273 24.1793 64.1894 23.7323L64.217 23.5037H64.1652L63.5437 23.4218H63.4919L63.4609 23.647C63.3987 24.0974 62.9395 24.2681 62.3594 24.2271L61.8794 24.1759L61.7966 24.7697L62.2385 24.8209C62.7566 24.8853 63.2808 24.7642 63.7164 24.4797Z" fill="#374EA2"/>
<path d="M73.2774 30.0285C72.7526 29.4415 72.7491 28.7521 73.4121 27.8273L73.5778 27.5953L73.602 27.5646L73.7021 27.4247L73.4086 27.2199L73.1186 27.0151L73.0185 27.1551L72.9977 27.1858L72.832 27.4178C72.169 28.3426 71.5061 28.5679 70.7603 28.2744L70.4391 28.8409C70.7073 28.9966 71.0115 29.0812 71.3225 29.0866C71.6334 29.092 71.9405 29.0179 72.2139 28.8716C72.1652 29.1751 72.1965 29.486 72.3048 29.7741C72.4131 30.0622 72.5946 30.3179 72.832 30.5165L72.9287 30.6086L72.7353 30.8816L73.2878 31.2706L74.9072 29.0115L75.3906 29.3528L75.7359 28.8579L75.028 28.3631C74.9423 28.305 74.8374 28.2815 74.7347 28.2973C74.632 28.3132 74.5393 28.3672 74.4756 28.4484L73.312 30.0728L73.2774 30.0285Z" fill="#374EA2"/>
<path d="M41.1759 58.469L43.7552 56.6262L44.3733 57.4725C44.5629 57.6963 44.6722 57.976 44.684 58.2677C44.6651 58.4608 44.5791 58.6414 44.4406 58.7789C44.3021 58.9164 44.1197 59.0023 43.9244 59.0219C43.784 59.0293 43.6449 58.9923 43.5273 58.9161C43.579 59.0572 43.579 59.2118 43.5273 59.3529C43.4727 59.504 43.3712 59.6342 43.2373 59.7248C43.1376 59.8064 43.0208 59.8649 42.8954 59.8962C42.7699 59.9275 42.639 59.9307 42.5122 59.9057C42.2401 59.8229 42.0065 59.6476 41.8527 59.4109L41.1759 58.469ZM42.6641 58.1653L41.9735 58.6635L42.2843 59.0901C42.3517 59.1931 42.4548 59.2683 42.5743 59.3017C42.6304 59.3117 42.688 59.3099 42.7434 59.2964C42.7987 59.2829 42.8505 59.2579 42.8954 59.2232C42.9481 59.1958 42.9938 59.1568 43.0289 59.1092C43.064 59.0617 43.0877 59.0068 43.098 58.9488C43.1083 58.8909 43.1051 58.8313 43.0885 58.7748C43.072 58.7182 43.0425 58.6661 43.0025 58.6226L42.6641 58.1653ZM43.0405 57.8957L43.3098 58.2643C43.4997 58.5134 43.6965 58.5612 43.9071 58.4144C43.9563 58.3848 43.998 58.3445 44.0291 58.2966C44.0602 58.2488 44.0799 58.1945 44.0867 58.138C44.0821 58.0061 44.0322 57.8797 43.9451 57.7797L43.6896 57.4384L43.0405 57.8957Z" fill="#374EA2"/>
<path d="M44.8083 61.8133L44.0487 61.0387L43.4306 61.3424L42.9645 60.8715L46.0306 59.4825L46.4346 59.892L44.9361 62.8849L44.4768 62.414L44.8083 61.8133ZM44.5459 60.7896L45.0707 61.3253L45.6612 60.2367L44.5459 60.7896Z" fill="#374EA2"/>
<path d="M47.3186 63.6835C47.3543 63.6429 47.3798 63.5945 47.393 63.5423C47.4062 63.4901 47.4067 63.4356 47.3946 63.3831C47.3431 63.2273 47.2661 63.0809 47.1667 62.9497C47.0622 62.7979 46.972 62.6368 46.8974 62.4686C46.8197 62.3226 46.7857 62.1579 46.7991 61.9936C46.8126 61.8292 46.873 61.6721 46.9733 61.5403C47.0719 61.4111 47.208 61.3147 47.3635 61.2639C47.5292 61.2161 47.7053 61.2161 47.8711 61.2639C48.0635 61.3131 48.2434 61.4015 48.3994 61.5233C48.5582 61.6423 48.688 61.7951 48.7792 61.9703C48.8598 62.1285 48.8933 62.306 48.8759 62.4822C48.857 62.6589 48.7862 62.8262 48.6721 62.9634L48.1818 62.588C48.223 62.5419 48.2535 62.4875 48.2714 62.4286C48.2893 62.3697 48.2941 62.3077 48.2854 62.2468C48.2588 62.1174 48.1819 62.0034 48.0713 61.9294C47.9749 61.847 47.8533 61.7989 47.726 61.7929C47.6751 61.7945 47.6251 61.8073 47.5797 61.8303C47.5344 61.8534 47.4947 61.886 47.4636 61.926C47.431 61.9669 47.41 62.0156 47.4027 62.0672C47.3954 62.1187 47.4021 62.1713 47.4222 62.2195C47.4759 62.3694 47.5515 62.5108 47.6466 62.6392C47.8231 62.8726 47.9414 63.1439 47.9919 63.4309C48.0049 63.5437 47.9951 63.6578 47.9631 63.7668C47.9311 63.8757 47.8775 63.9773 47.8055 64.0657C47.7335 64.1652 47.6387 64.2464 47.5289 64.3028C47.4191 64.3591 47.2973 64.389 47.1736 64.3899C46.8873 64.3812 46.6129 64.2751 46.3967 64.0896C46.2219 63.9601 46.0791 63.7933 45.9789 63.6016C45.8836 63.4352 45.8412 63.2443 45.8573 63.0538C45.8733 62.8633 45.9469 62.682 46.0687 62.5334L46.5659 62.9122C46.3483 63.1886 46.4001 63.4446 46.7143 63.6869C46.8106 63.769 46.9325 63.8159 47.0596 63.82C47.1109 63.8204 47.1614 63.8081 47.2067 63.7842C47.2519 63.7604 47.2904 63.7257 47.3186 63.6835Z" fill="#374EA2"/>
<path d="M49.6458 64.6526L49.1831 64.8096L48.7377 65.5945L48.1956 65.2907L49.7598 62.5607L50.3019 62.8644L49.594 64.1032L50.0257 63.8984L51.21 63.3729L51.8764 63.7448L50.2466 64.4274L50.3399 66.4749L49.6942 66.1132L49.6458 64.6526Z" fill="#374EA2"/>
<path d="M53.451 66.2667L52.3357 65.8367L52.0284 66.6216L53.337 67.1233L53.1437 67.6113L51.2515 66.8844L52.4047 63.953L54.29 64.6765L54.0966 65.1679L52.7949 64.6526L52.5221 65.3351L53.6374 65.7617L53.451 66.2667Z" fill="#374EA2"/>
<path d="M57.1663 65.9084L56.2616 65.707L55.6781 68.2631L55.0704 68.1266L55.6539 65.5705L54.7631 65.3726L54.8805 64.8607L57.2802 65.3965L57.1663 65.9084Z" fill="#374EA2"/>
<path d="M57.7014 68.6214L57.9328 65.4852L58.9893 65.5603C59.2848 65.562 59.5714 65.6604 59.8042 65.8401C59.939 65.9798 60.0217 66.1606 60.0386 66.3529C60.0556 66.5452 60.0058 66.7374 59.8975 66.898C59.8108 67.011 59.6898 67.0936 59.5522 67.1335C59.6961 67.1798 59.8185 67.2755 59.8975 67.4031C59.98 67.5408 60.0151 67.7013 59.9976 67.8604C59.9999 67.9914 59.9715 68.1213 59.9146 68.2397C59.8577 68.3581 59.7738 68.4619 59.6696 68.5429C59.4301 68.695 59.1437 68.758 58.8616 68.7204L57.7014 68.6214ZM58.4231 67.3007L58.3609 68.147L58.8927 68.1846C59.0145 68.1989 59.1373 68.1685 59.238 68.0993C59.3011 68.0425 59.3462 67.9689 59.3679 67.8874C59.3896 67.8058 59.387 67.7198 59.3604 67.6397C59.3337 67.5596 59.2842 67.4889 59.2177 67.436C59.1513 67.3831 59.0708 67.3503 58.9859 67.3417L58.4231 67.3007ZM58.4576 66.8434L58.9168 66.8776C59.2311 66.8776 59.3968 66.7752 59.4141 66.5363C59.4238 66.4801 59.4202 66.4225 59.4034 66.368C59.3866 66.3135 59.3572 66.2636 59.3174 66.2223C59.2124 66.1427 59.0837 66.0995 58.9514 66.0995L58.5025 66.0517L58.4576 66.8434Z" fill="#374EA2"/>
<path d="M62.5942 68.0208L61.5065 68.0958L61.3443 68.7545L60.6848 68.8022L61.5825 65.5876L62.1591 65.5466L63.5092 68.618L62.8497 68.6657L62.5942 68.0208ZM61.6343 67.5601L62.3905 67.5089L61.9278 66.3588L61.6343 67.5601Z" fill="#374EA2"/>
<path d="M64.9111 67.8058L66.2059 67.5328L66.3129 68.0412L64.4138 68.4439L63.7474 65.3726L64.3586 65.2429L64.9111 67.8058Z" fill="#374EA2"/>
<path d="M67.6527 67.079L68.8992 66.649L69.0753 67.1404L67.2383 67.7752L66.2025 64.8096L66.7894 64.6049L67.6527 67.079Z" fill="#374EA2"/>
<path d="M72.7457 64.0315C72.8203 64.1626 72.868 64.307 72.8857 64.4563C72.9035 64.6057 72.8911 64.7571 72.8493 64.9017C72.7514 65.1953 72.5423 65.4399 72.2657 65.5842C72.121 65.6798 71.9552 65.7399 71.7823 65.7595C71.6093 65.7791 71.4342 65.7576 71.2713 65.6968C70.8978 65.5426 70.5911 65.2636 70.4046 64.9085L70.3045 64.7413C70.1583 64.5086 70.063 64.2482 70.0248 63.9769C69.9865 63.7446 70.0215 63.5063 70.1249 63.2944C70.2512 63.0568 70.4487 62.8637 70.6905 62.7415C70.9322 62.6193 71.2062 62.574 71.475 62.6119C71.7778 62.6865 72.0413 62.8703 72.2139 63.1272L71.6822 63.4445C71.5985 63.3054 71.4676 63.2002 71.3127 63.1476C71.2366 63.1345 71.1587 63.1364 71.0834 63.1534C71.0081 63.1704 70.9369 63.2021 70.8742 63.2466C70.7928 63.2878 70.724 63.3496 70.6749 63.4258C70.6257 63.502 70.598 63.5897 70.5945 63.68C70.6074 63.9304 70.6899 64.1724 70.8328 64.3796L70.9536 64.5843C71.0723 64.8133 71.2497 65.0074 71.4681 65.1474C71.5504 65.1897 71.6428 65.2088 71.7353 65.2028C71.8279 65.1968 71.917 65.1658 71.9929 65.1133C72.0632 65.0792 72.1257 65.0313 72.1767 64.9727C72.2278 64.914 72.2662 64.8458 72.2899 64.772C72.3201 64.6184 72.2918 64.4592 72.2105 64.325L72.7457 64.0315Z" fill="#374EA2"/>
<path d="M74.3478 63.4957L75.3837 62.6733L75.7117 63.0793L74.1993 64.2874L72.2036 61.8372L72.687 61.4515L74.3478 63.4957Z" fill="#374EA2"/>
<path d="M75.5771 58.7317L77.0894 60.165C77.2041 60.2628 77.297 60.3831 77.3624 60.5182C77.4278 60.6532 77.4641 60.8002 77.4692 60.9499C77.4668 61.1026 77.4331 61.2534 77.3702 61.3929C77.3073 61.5325 77.2165 61.6581 77.1032 61.7621C76.9021 61.9934 76.6167 62.1369 76.3091 62.1613C76.1583 62.1633 76.0087 62.1339 75.8701 62.0751C75.7316 62.0163 75.607 61.9295 75.5045 61.8201L73.9749 60.3697L74.4031 59.9261L75.9189 61.3628C76.0285 61.4855 76.182 61.5614 76.347 61.5744C76.4191 61.5701 76.4895 61.5516 76.5542 61.52C76.6188 61.4883 76.6764 61.4442 76.7234 61.3901C76.7807 61.3404 76.8257 61.2783 76.8549 61.2087C76.8841 61.139 76.8966 61.0637 76.8916 60.9884C76.8866 60.9132 76.8642 60.8401 76.826 60.7749C76.7879 60.7096 76.735 60.6539 76.6716 60.612L75.1454 59.1924L75.5771 58.7317Z" fill="#374EA2"/>
<path d="M78.6156 60.0183L76.0156 58.2062L76.6267 57.3497C76.783 57.1024 77.0154 56.911 77.2897 56.8037C77.4079 56.7723 77.5318 56.7687 77.6517 56.793C77.7716 56.8172 77.8841 56.8688 77.9803 56.9436C78.1013 57.0294 78.1948 57.1479 78.2496 57.2848C78.3019 57.4139 78.3116 57.5561 78.2772 57.6909C78.3921 57.5921 78.5392 57.5375 78.6916 57.5374C78.8538 57.5373 79.0115 57.5901 79.1404 57.6875C79.2512 57.7542 79.3453 57.8446 79.4158 57.9521C79.4864 58.0596 79.5315 58.1815 79.5479 58.3086C79.5561 58.5894 79.4631 58.864 79.2854 59.0833L78.6156 60.0183ZM77.4658 58.4622L77.7316 58.0902C77.9066 57.8354 77.8893 57.6341 77.6799 57.4862C77.6357 57.4489 77.5835 57.4221 77.5272 57.408C77.4709 57.3938 77.4121 57.3925 77.3553 57.4043C77.2322 57.4528 77.129 57.5405 77.0618 57.6534L76.8097 57.9946L77.4658 58.4622ZM77.8421 58.7284L78.5327 59.2164L78.84 58.7864C78.9181 58.6899 78.9574 58.5684 78.9505 58.4451C78.9425 58.3894 78.9223 58.3361 78.8913 58.289C78.8603 58.2418 78.8192 58.2019 78.771 58.1721C78.7281 58.1313 78.6763 58.1009 78.6196 58.0831C78.5629 58.0653 78.5028 58.0607 78.4441 58.0696C78.3853 58.0785 78.3293 58.1007 78.2806 58.1345C78.2319 58.1682 78.1918 58.2126 78.1633 58.2642L77.8421 58.7284Z" fill="#374EA2"/>
<path d="M109.122 32.1818C103.691 34.3283 98.0743 35.9834 92.3408 37.1266C91.9955 37.1983 91.6502 37.2631 91.3049 37.328L87.2961 37.171L86.0531 37.1232C92.8933 35.4783 99.2604 33.3421 104.291 30.9328C105.925 30.154 107.365 29.0298 108.511 27.6396C111.881 23.5445 113.738 19.0706 114.16 14.8697C114.161 14.84 114.154 14.8105 114.137 14.7855C114.121 14.7605 114.097 14.7413 114.069 14.7307C114.041 14.72 114.01 14.7185 113.981 14.7263C113.952 14.7341 113.926 14.7509 113.908 14.7742C108.514 21.729 96.5499 29.0047 81.6576 33.6287C79.5858 34.268 77.5417 34.8368 75.5252 35.335L75.3837 35.3691C72.2968 36.0118 69.1694 36.4462 66.0229 36.6693C65.3556 36.7203 64.7203 36.9729 64.2032 37.3928L64.0651 36.642H56.9694L56.8313 37.3928C56.2937 36.9552 55.6278 36.7003 54.9322 36.6659C51.7981 36.4352 48.6834 35.9951 45.6094 35.3487L45.4678 35.3145C43.4468 34.8186 41.4026 34.2498 39.3355 33.6082C24.4467 28.9842 12.4789 21.7085 7.08899 14.7537C7.07075 14.7288 7.04474 14.7106 7.01498 14.7018C6.98521 14.693 6.95335 14.6941 6.92429 14.705C6.89524 14.7158 6.8706 14.7359 6.85419 14.7619C6.83778 14.788 6.8305 14.8187 6.83348 14.8492C7.25473 19.0501 9.11583 23.5138 12.4824 27.6191C13.6317 29.0188 15.0795 30.1502 16.7225 30.9328C21.7534 33.3421 28.1171 35.4783 34.9607 37.1232L32.9131 37.2051L29.7089 37.3314C29.3636 37.2631 29.0183 37.1983 28.673 37.1266C22.9383 35.9836 17.3204 34.3285 11.8885 32.1818C11.877 32.1765 11.8642 32.1745 11.8515 32.176C11.8389 32.1774 11.8269 32.1823 11.8169 32.1901C11.8069 32.1978 11.7993 32.2082 11.7949 32.22C11.7904 32.2318 11.7894 32.2445 11.7918 32.2568C12.2476 35.0995 15.0237 37.891 19.3882 40.2491C20.5977 40.9084 21.9147 41.3531 23.2796 41.563C24.6377 41.7723 26.0246 41.9452 27.4403 42.0817C29.0804 42.2421 30.6929 42.341 32.2744 42.3991L32.3434 42.5321L32.2226 43.3682C27.6936 43.6842 23.1443 43.5642 18.6389 43.0099C18.6258 43.008 18.6124 43.0096 18.6002 43.0146C18.588 43.0196 18.5774 43.0278 18.5696 43.0384C18.5618 43.0489 18.557 43.0614 18.5558 43.0744C18.5547 43.0875 18.5571 43.1005 18.5629 43.1123C19.692 45.2895 22.4026 46.9139 26.1904 47.907C27.2673 48.1858 28.3902 48.2461 29.4913 48.0844C30.1819 47.9889 30.8725 47.8763 31.5631 47.7432L31.3904 48.9103C29.4982 49.3812 27.6406 49.7703 25.8313 50.0774C25.8183 50.0788 25.8061 50.0838 25.7959 50.0917C25.7857 50.0997 25.778 50.1104 25.7736 50.1225C25.7693 50.1346 25.7685 50.1477 25.7714 50.1603C25.7743 50.1728 25.7807 50.1843 25.7898 50.1934C26.8775 51.3708 28.6316 52.1147 30.869 52.4491L30.1059 57.6397L33.0374 56.9572C33.804 56.7763 34.5809 56.6159 35.3474 56.4384L36.7631 56.1381L37.319 52.1488C37.8991 51.712 38.4965 51.2752 39.0973 50.8418C39.1571 51.4773 39.4435 52.0712 39.9052 52.5174C40.4737 53.0536 41.2326 53.3478 42.0184 53.3364C42.1802 53.3368 42.3417 53.3254 42.5018 53.3023C44.0901 53.0839 45.6992 52.8962 47.2806 52.7358L49.6976 52.5174C50.5678 52.4457 51.4586 52.3843 52.3425 52.3297L53.81 52.2478C54.3832 52.2171 54.9598 52.1932 55.5365 52.1727L56.5067 52.1386C57.2848 52.1136 58.0605 52.0976 58.834 52.0908L60.519 52.0669L62.2005 52.0908C62.9774 52.0908 63.7612 52.1181 64.5278 52.142L66.6927 52.2239C67.9772 52.2819 69.2755 52.3638 70.56 52.4594H70.8397C71.3999 52.4634 71.9516 52.3247 72.4418 52.0567C72.9839 52.4643 73.6289 52.7169 74.3064 52.787C75.8222 52.9474 77.3587 53.1282 78.8745 53.3432C79.038 53.3674 79.203 53.38 79.3683 53.3808C79.5501 53.3804 79.7314 53.3644 79.9104 53.333C80.1207 53.973 80.5011 54.5455 81.012 54.9903C81.5229 55.4352 82.1454 55.7362 82.8143 55.8617C84.4889 56.1757 86.1843 56.5442 87.852 56.923L90.7801 57.6056L90.0239 52.456C92.3097 52.1318 94.1052 51.381 95.2032 50.1866C95.2113 50.177 95.2166 50.1656 95.2188 50.1534C95.221 50.1412 95.22 50.1286 95.2158 50.1169C95.2117 50.1053 95.2045 50.0948 95.195 50.0867C95.1855 50.0786 95.1741 50.073 95.1618 50.0706C93.318 49.76 91.4189 49.3607 89.4887 48.8761L89.3195 47.7193C90.0584 47.8467 90.7905 47.9604 91.5156 48.0605C92.6167 48.2221 93.7396 48.1618 94.8165 47.8831C98.6147 46.89 101.315 45.2656 102.44 43.0884C102.446 43.0769 102.448 43.0642 102.447 43.0515C102.446 43.0388 102.442 43.0267 102.435 43.0162C102.427 43.0058 102.417 42.9975 102.405 42.9922C102.394 42.9869 102.381 42.9848 102.368 42.986C97.672 43.5642 92.929 43.6717 88.2112 43.3068L88.7049 42.3752C90.3001 42.3206 91.923 42.2182 93.5769 42.0578C94.9903 41.9213 96.3715 41.7484 97.7204 41.5391C99.0864 41.3297 100.405 40.885 101.615 40.2252C105.969 37.8671 108.745 35.0756 109.212 32.233C109.21 32.2235 109.206 32.2145 109.2 32.2066C109.194 32.1987 109.187 32.1922 109.178 32.1873C109.17 32.1825 109.16 32.1795 109.151 32.1785C109.141 32.1776 109.131 32.1787 109.122 32.1818Z" fill="#374EA2"/>
<path d="M58.6821 38.4644C57.9915 42.2728 57.2491 46.096 56.455 49.9341C57.2422 49.909 58.0283 49.892 58.8133 49.8829C58.9284 49.2163 59.0435 48.5508 59.1586 47.8865C60.0793 47.8865 60.9932 47.8865 61.9002 47.8865C62.0072 48.552 62.1211 49.2174 62.2454 49.8829C63.0327 49.8829 63.8188 49.8999 64.6038 49.9341C63.8096 46.096 63.0661 42.2728 62.3732 38.4644H58.6821ZM59.49 45.9413C59.8422 44.3124 60.1875 42.6857 60.5259 41.0613C60.862 42.6857 61.2073 44.3124 61.5618 45.9413H59.49Z" fill="url(#paint0_linear_2329_2)"/>
<path d="M54.7354 38.4849C53.2852 38.4985 51.835 38.5145 50.3847 38.5327C50.1019 38.523 49.8251 38.6153 49.606 38.7924C49.3868 38.9694 49.2402 39.2191 49.1935 39.495C48.938 42.8234 48.6836 46.1507 48.4304 49.4768C48.389 49.999 48.8965 50.3743 49.563 50.3197C50.4573 50.2447 51.3481 50.1832 52.2424 50.1252L53.551 49.6952L53.7271 50.0365C54.3107 50.0092 54.8908 49.9819 55.4743 49.9614C55.5434 47.8388 55.6136 45.7162 55.6849 43.5935C54.6813 43.6163 53.6765 43.6436 52.6706 43.6754C52.4035 44.2851 52.1354 44.8971 51.866 45.5114L53.185 45.4568L53.0504 48.2244C52.3598 48.2585 51.6761 48.2972 50.9994 48.3404L51.4966 40.2731L53.4751 40.2355C53.4359 40.9886 53.3991 41.7428 53.3646 42.4981C54.1703 42.0567 54.9702 41.6256 55.7643 41.2047C55.7816 40.5973 55.8023 39.9932 55.823 39.3858C55.8403 38.8876 55.3535 38.4815 54.7354 38.4849Z" fill="url(#paint1_linear_2329_2)"/>
<path d="M86.4985 46.2622C85.2831 45.3521 84.0804 44.4842 82.8903 43.6584C82.7729 42.754 82.6555 41.8531 82.545 40.9488C83.0905 40.9795 86.3431 41.2388 86.8887 41.29C87.2961 40.5563 87.7036 39.8056 88.1007 39.0343C86.7368 38.9831 82.1341 38.7988 81.2536 38.7715C81.1208 38.7586 80.9868 38.7747 80.8609 38.8186C80.7351 38.8625 80.6206 38.9331 80.5254 39.0256C80.4302 39.118 80.3567 39.2299 80.3101 39.3535C80.2635 39.4771 80.245 39.6093 80.2557 39.7407C80.4422 41.2787 80.6275 42.8166 80.8116 44.3545C80.8324 44.4821 80.8792 44.6042 80.9493 44.7133C81.0193 44.8225 81.1111 44.9163 81.2191 44.9893C82.4897 45.8675 83.7742 46.7866 85.0725 47.7466C85.2682 49.1981 85.4638 50.6474 85.6595 52.0943L83.9054 51.7735C83.8225 51.1433 83.7408 50.5097 83.6603 49.8727C82.0685 48.7909 81.2881 48.2995 81.2881 48.3063C81.4539 49.685 81.6208 51.0637 81.7888 52.4424C81.8622 52.7557 82.0274 53.0407 82.2639 53.2616C82.5003 53.4826 82.7975 53.6297 83.1182 53.6845C84.8285 54.0076 86.5296 54.3659 88.2215 54.7595L87.1615 47.204C87.0743 46.8162 86.8362 46.4778 86.4985 46.2622Z" fill="url(#paint2_linear_2329_2)"/>
<path d="M71.5303 45.293C71.4997 45.1264 71.4296 44.9694 71.3258 44.8347C71.222 44.7001 71.0873 44.5917 70.9329 44.5184C69.7819 43.8063 68.631 43.1124 67.48 42.4367C67.4455 41.7542 67.4144 41.0716 67.3799 40.3891L69.0338 40.4198C69.0338 40.6382 69.058 40.8532 69.0718 41.0716C69.8073 41.5153 70.5531 41.9657 71.3024 42.4367C71.2299 41.4607 71.1608 40.4847 71.0883 39.5087C71.0423 39.234 70.8968 38.9852 70.6789 38.8087C70.461 38.6323 70.1855 38.5402 69.9039 38.5498L66.2784 38.5122C65.6603 38.5122 65.1735 38.9149 65.1908 39.42L65.3151 43.2079C65.3222 43.3206 65.3574 43.4297 65.4177 43.5256C65.4779 43.6215 65.5613 43.7011 65.6604 43.7574C66.8666 44.4672 68.09 45.1963 69.3308 45.9448C69.3791 46.74 69.424 47.5351 69.4723 48.3336L67.7114 48.2415C67.6941 47.8559 67.6768 47.4702 67.6561 47.0846C66.1403 46.2656 65.3945 45.8868 65.3945 45.8936C65.429 46.955 65.467 48.0197 65.5015 49.0844C65.5188 49.5895 66.0712 50.0195 66.7411 50.0502C68.0509 50.1116 69.3572 50.1924 70.6601 50.2925C71.3265 50.3437 71.8376 49.9683 71.7961 49.4461C71.7202 48.0493 71.6315 46.6649 71.5303 45.293Z" fill="url(#paint3_linear_2329_2)"/>
<path d="M42.3879 39.6861L41.1863 50.2651C41.1241 50.8214 41.611 51.1899 42.2739 51.1012C43.8853 50.8737 45.4966 50.6826 47.108 50.5279C47.1632 49.8772 47.2173 49.2254 47.2702 48.5725C46.0594 48.6771 44.8475 48.7977 43.6344 48.9342C43.7621 47.7023 43.8864 46.4703 44.0142 45.2384C44.8636 45.1701 45.713 45.1064 46.5624 45.0473L47.4049 43.0304C46.3414 43.085 45.2814 43.143 44.2213 43.2113C44.3077 42.3513 44.3974 41.505 44.4838 40.6314C45.6347 40.5881 46.7857 40.5472 47.9366 40.5085C47.9873 39.8556 48.0414 39.2038 48.0989 38.5531L43.6102 38.6452C43.3154 38.6501 43.0317 38.7568 42.8084 38.947C42.5851 39.1372 42.4363 39.3987 42.3879 39.6861Z" fill="url(#paint4_linear_2329_2)"/>
<path d="M78.8539 38.693L76.5163 38.6384C76.8754 42.1125 77.2356 45.5865 77.597 49.0605C76.9363 48.9854 76.278 48.9149 75.6219 48.8489C75.2997 45.4363 74.9797 42.0237 74.662 38.6111C73.8817 38.5952 73.1013 38.5816 72.321 38.5702L73.2015 49.5587C73.2567 50.0774 73.823 50.5415 74.4825 50.6132C76.0271 50.7747 77.5694 50.9624 79.1094 51.1763C79.7723 51.2718 80.2557 50.9033 80.1936 50.3436C79.7447 46.4601 79.2981 42.5766 78.8539 38.693Z" fill="url(#paint5_linear_2329_2)"/>
<path d="M40.0641 38.751C39.0766 38.7783 33.8489 38.9831 32.8924 39.0206C33.293 39.7919 33.6981 40.5438 34.1078 41.2763C34.6189 41.2422 38.1443 40.9658 38.6311 40.9351C38.3825 42.8734 38.1328 44.8072 37.8818 46.7365C37.1913 47.2325 36.5076 47.7387 35.8308 48.2551C36.061 46.5807 36.2912 44.9062 36.5214 43.2318L34.2839 43.4331L32.6783 54.7731C33.4587 54.5888 34.239 54.4137 35.0194 54.2476C35.1713 53.1146 35.3267 51.9816 35.4786 50.835C36.6112 49.9682 37.7403 49.1287 38.8556 48.3404C39.5461 47.8456 40.1573 47.3883 40.2609 46.5249C40.5302 44.2499 40.8007 41.9748 41.0723 39.6997C41.0807 39.5688 41.06 39.4377 41.0116 39.3156C40.9632 39.1935 40.8883 39.0833 40.7922 38.9928C40.6961 38.9024 40.5811 38.8339 40.4553 38.7921C40.3295 38.7503 40.1959 38.7363 40.0641 38.751Z" fill="url(#paint6_linear_2329_2)"/>
</g>
<defs>
<linearGradient id="paint0_linear_2329_2" x1="60.519" y1="38.42" x2="60.519" y2="49.9852" gradientUnits="userSpaceOnUse">
<stop offset="0.15" stop-color="white"/>
<stop offset="1" stop-color="#00AEEF"/>
</linearGradient>
<linearGradient id="paint1_linear_2329_2" x1="52.125" y1="38.519" x2="52.125" y2="49.9819" gradientUnits="userSpaceOnUse">
<stop offset="0.15" stop-color="white"/>
<stop offset="1" stop-color="#00AEEF"/>
</linearGradient>
<linearGradient id="paint2_linear_2329_2" x1="84.2369" y1="38.9626" x2="84.2369" y2="53.8313" gradientUnits="userSpaceOnUse">
<stop offset="0.15" stop-color="white"/>
<stop offset="1" stop-color="#00AEEF"/>
</linearGradient>
<linearGradient id="paint3_linear_2329_2" x1="68.5193" y1="38.8637" x2="68.5193" y2="50.0741" gradientUnits="userSpaceOnUse">
<stop offset="0.15" stop-color="white"/>
<stop offset="1" stop-color="#00AEEF"/>
</linearGradient>
<linearGradient id="paint4_linear_2329_2" x1="44.646" y1="38.6657" x2="44.646" y2="50.9442" gradientUnits="userSpaceOnUse">
<stop offset="0.15" stop-color="white"/>
<stop offset="1" stop-color="#00AEEF"/>
</linearGradient>
<linearGradient id="paint5_linear_2329_2" x1="76.2607" y1="38.6657" x2="76.2607" y2="50.8794" gradientUnits="userSpaceOnUse">
<stop offset="0.15" stop-color="white"/>
<stop offset="1" stop-color="#00AEEF"/>
</linearGradient>
<linearGradient id="paint6_linear_2329_2" x1="36.8667" y1="39.0616" x2="36.8667" y2="54.1828" gradientUnits="userSpaceOnUse">
<stop offset="0.15" stop-color="white"/>
<stop offset="1" stop-color="#00AEEF"/>
</linearGradient>
<clipPath id="clip0_2329_2">
<rect width="111" height="61" fill="white" transform="translate(5 10)"/>
</clipPath>
</defs>
</svg>
