<svg width="120" height="80" viewBox="0 0 120 80" fill="none" xmlns="http://www.w3.org/2000/svg">
<g clip-path="url(#clip0_385_1525)">
<path d="M26.3057 39.9999C26.3057 33.3358 28.2819 26.8214 31.9842 21.2804C35.6866 15.7394 40.9489 11.4207 47.1058 8.8705C53.2626 6.32026 60.0374 5.653 66.5734 6.9531C73.1095 8.25321 79.1132 11.4623 83.8254 16.1745C88.5377 20.8867 91.7467 26.8905 93.0468 33.4265C94.3469 39.9626 93.6797 46.7374 91.1294 52.8942C88.5792 59.051 84.2605 64.3133 78.7195 68.0157C73.1785 71.7181 66.6641 73.6942 60 73.6942C51.0637 73.6942 42.4935 70.1443 36.1746 63.8254C29.8557 57.5065 26.3057 48.9362 26.3057 39.9999Z" fill="#001F5B"/>
<path d="M59.9998 6.30585C66.6639 6.30585 73.1784 8.28199 78.7194 11.9844C84.2603 15.6867 88.579 20.9491 91.1293 27.1059C93.6795 33.2627 94.3468 40.0375 93.0467 46.5735C91.7466 53.1096 88.5375 59.1133 83.8253 63.8255C79.113 68.5378 73.1093 71.7468 66.5732 73.0469C60.0372 74.347 53.2624 73.6798 47.1056 71.1295C40.9488 68.5793 35.6864 64.2606 31.9841 58.7196C28.2817 53.1786 26.3056 46.6642 26.3056 40.0001C26.3056 31.0638 29.8555 22.4936 36.1744 16.1747C42.4933 9.85577 51.0636 6.30585 59.9998 6.30585ZM59.9998 5.00011C51.9034 4.99882 44.057 7.80478 37.7975 12.9399C31.5379 18.0751 27.2524 25.2217 25.6712 33.1622C24.09 41.1027 25.3109 49.3458 29.1258 56.4871C32.9408 63.6284 39.1137 69.2261 46.593 72.3264C54.0723 75.4267 62.3952 75.8379 70.1436 73.4899C77.8921 71.1418 84.5867 66.1799 89.087 59.4493C93.5872 52.7188 95.6146 44.6362 94.8238 36.5785C94.0329 28.5208 90.4727 20.9866 84.7498 15.2595C81.5078 11.9976 77.651 9.41124 73.4026 7.65019C69.1543 5.88915 64.5987 4.9884 59.9998 5.00011Z" fill="#B5B5B6"/>
<path d="M60 71.515C77.4052 71.515 91.5149 57.4052 91.5149 40C91.5149 22.5948 77.4052 8.48511 60 8.48511C42.5948 8.48511 28.4851 22.5948 28.4851 40C28.4851 57.4052 42.5948 71.515 60 71.515Z" fill="url(#paint0_radial_385_1525)"/>
<path d="M88.7356 38.8218C87.8062 37.917 86.6891 37.2277 85.4636 36.8028C84.2382 36.3778 82.9342 36.2276 81.6442 36.3627C80.9723 34.2829 80.1268 32.2633 79.1166 30.3252C81.9644 29.6537 84.4639 29.1874 86.5065 28.864C86.2515 28.2588 85.9759 27.663 85.6795 27.0764C83.6525 27.4122 81.1063 27.9003 78.1777 28.6091C77.2336 26.9596 76.1794 25.3757 75.0222 23.868C75.2955 23.7024 75.5601 23.5229 75.815 23.3302C77.2668 22.2421 78.6596 20.4856 78.3767 17.8461C77.582 17.174 76.7517 16.5451 75.8896 15.9621C77.043 18.471 76.6575 20.3363 74.6896 21.8162C74.4159 22.0219 74.1293 22.2099 73.8315 22.3789C69.275 16.9551 63.1597 13.0649 56.316 11.2366C54.7135 11.4158 53.1288 11.7277 51.578 12.1692C57.7087 13.0615 65.4872 15.788 71.9755 23.1499C69.1402 24.0048 65.8883 23.5789 62.9379 23.0597L61.427 22.7923C55.5201 21.7291 49.3893 20.6317 43.5228 22.2576C39.6491 23.3302 35.8532 25.724 32.8406 28.8796C32.1411 30.5461 31.6008 32.2751 31.2271 34.0435C34.165 29.2651 39.0274 25.4691 44.0296 24.095C49.4795 22.5872 55.3833 23.6442 61.0943 24.667L62.6084 24.9375C66.2644 25.581 70.0231 25.9448 73.2719 24.7168C74.3624 26.1003 75.3605 27.5543 76.2595 29.0692C72.1912 30.129 68.1858 31.4171 64.2623 32.9274C52.3801 37.5037 41.8938 43.8676 33.0614 51.8544C33.3287 52.4575 33.6179 53.0513 33.9225 53.6326C48.6339 40.168 65.4157 33.7761 77.214 30.7698L77.3166 30.9625C78.2914 32.8026 79.1099 34.7213 79.7633 36.6985C75.246 38.1161 72.2118 43.3639 68.7516 49.3548C64.6136 56.5053 59.9285 64.5884 51.6339 68.0797C52.6027 68.3589 53.5854 68.5872 54.5781 68.7637C62.0799 64.6568 66.4727 57.0773 70.3931 50.303C73.6605 44.6604 76.5114 39.7327 80.3415 38.5358C82.2597 45.5184 82.1074 53.0668 79.8752 61.0785C80.8291 60.1609 81.7193 59.1793 82.5395 58.1405C83.2932 54.5887 83.6281 50.9607 83.5375 47.3309C83.45 44.2545 83.0056 41.1987 82.2131 38.2249C84.8339 38.0944 86.9852 39.2322 88.7418 41.6758C88.7698 41.1628 88.7822 40.6468 88.7822 40.1214C88.7822 39.683 88.7822 39.2478 88.7511 38.8156" fill="#005225"/>
<path d="M47.2442 22.3227L45.4348 23.7497L42.5684 20.1029L44.3871 18.6729L45.2016 18.7723L47.3499 21.5082L47.2442 22.3227ZM44.67 19.4687L43.7373 20.2118L45.6027 22.5932L46.5353 21.8501L44.67 19.4687Z" fill="white"/>
<path d="M51.0961 20.0969L49.0318 21.1228L46.9706 16.9662L49.0349 15.9434L49.8121 16.2045L50.409 17.4045L50.2443 17.8895L50.7293 18.0543L51.351 19.3196L51.0961 20.0969ZM49.1655 16.7797L48.0867 17.3144L48.5655 18.2813L49.6442 17.7465L49.1655 16.7797ZM49.9987 18.4616L48.923 18.9963L49.4328 20.0285L50.5116 19.4937L49.9987 18.4616Z" fill="white"/>
<path d="M57.8082 16.5123L56.3564 16.702L56.5864 18.4772L55.7532 18.586L55.1563 13.9848L57.4414 13.6895L58.0911 14.19L58.3088 15.8657L57.8082 16.5123ZM57.2859 14.5195L56.0952 14.675L56.2538 15.903L57.4476 15.7507L57.2859 14.5195Z" fill="white"/>
<path d="M62.2819 18.3217L61.713 16.4874L61.1565 16.447L61.029 18.2346L60.1927 18.1755L60.5036 13.5464L62.8042 13.7112L63.3421 14.3329L63.2208 16.018L62.599 16.5558L63.1959 18.3932L62.2819 18.3217ZM62.5027 14.4946L61.3026 14.4107L61.2156 15.6107L62.4156 15.6946L62.5027 14.4946Z" fill="white"/>
<path d="M66.7339 19.2605L65.0737 18.7941L64.6727 18.076L65.6053 14.7277L66.3204 14.3267L67.9805 14.793L68.3816 15.508L67.4489 18.8594L66.7339 19.2605ZM67.5204 15.4987L66.3608 15.1723L65.5432 18.0884L66.6997 18.4149L67.5204 15.4987Z" fill="white"/>
<path d="M71.7485 21.5736L71.0335 21.1912L72.1682 19.046L70.8003 20.1963L70.4273 19.9974L70.62 18.2191L69.479 20.3611L68.7547 19.9756L70.9402 15.8843L71.618 16.2449L71.3537 18.7072L73.2564 17.1185L73.9341 17.4791L71.7485 21.5736Z" fill="white"/>
<path d="M75.6253 22.1954L74.4004 23.6473L73.7631 23.1094L74.9849 21.6544L75.7404 18.7041L76.4896 19.3383L75.8958 21.2379L77.6492 20.3207L78.3798 20.9363L75.6253 22.1954Z" fill="white"/>
<path d="M37.1465 50.6045L36.7299 49.6501L35.5609 50.1568L35.3247 49.6097L38.3496 48.2915L39.0056 49.7962L38.7911 50.3403L37.6874 50.8253L37.1465 50.6045ZM38.39 49.8553L38.0481 49.0687L37.2397 49.42L37.5817 50.2066L38.39 49.8553Z" fill="white"/>
<path d="M37.6625 54.1734L38.4926 53.0884L38.2874 52.7496L37.1993 53.4118L36.8884 52.9019L39.7051 51.1858L40.56 52.5848L40.4201 53.1537L39.3942 53.7755L38.8284 53.6356L38.0076 54.7393L37.6625 54.1734ZM39.9725 52.7247L39.5279 51.9941L38.7973 52.4387L39.2419 53.1693L39.9725 52.7247Z" fill="white"/>
<path d="M39.8543 57.1579L39.0802 56.2066L39.1393 55.6253L41.0606 54.0708L41.6419 54.1299L42.416 55.0812L42.3539 55.6626L40.4357 57.217L39.8543 57.1579ZM41.8533 55.2926L41.3124 54.6304L39.6398 55.989L40.1808 56.6543L41.8533 55.2926Z" fill="white"/>
<path d="M44.1415 61.1871L42.8513 60.1736L44.8938 57.5808L46.184 58.5943L46.2524 59.1726L45.6617 59.9218L45.298 59.9653L45.3415 60.3291L44.7198 61.1187L44.1415 61.1871ZM44.8565 59.9778L44.185 59.4493L43.6752 60.0928L44.3498 60.6213L44.8565 59.9778ZM45.6835 58.9301L45.0089 58.3984L44.5332 59.0047L45.2078 59.5332L45.6835 58.9301Z" fill="white"/>
<path d="M47.1602 63.149L47.3716 62.3313L46.6597 61.9148L46.0721 62.5085L45.556 62.1977L48.0432 59.8318L48.5157 60.1085L47.6577 63.435L47.1602 63.149ZM47.782 60.8018L47.0545 61.5261L47.496 61.7842L47.782 60.8018Z" fill="white"/>
<path d="M50.3686 64.6567L49.1064 64.1313L48.9665 63.7862L49.1002 63.466L50.409 64.0163L50.7013 63.3106L49.7655 62.9188L49.5448 62.3779L49.9707 61.3613L50.5085 61.1375L51.7707 61.666L51.9106 62.0111L51.7801 62.3313L50.4712 61.781L50.1945 62.4401L51.1334 62.8318L51.351 63.3759L50.9096 64.436L50.3686 64.6567Z" fill="white"/>
<path d="M54.1926 65.8318L53.9563 63.9509L53.0609 64.6535L52.8464 65.4867L52.2682 65.3375L53.0889 62.1384L53.6703 62.2877L53.2817 63.7924L54.8143 62.583L55.4921 62.7571L54.5159 63.5374L54.7926 65.9841L54.1926 65.8318Z" fill="white"/>
<path d="M56.1232 66.1956L56.4807 62.9126L58.5264 63.1364L58.4642 63.7085L57.0186 63.5468L56.9346 64.3209L57.9139 64.4297L57.8486 65.0235L56.8693 64.9178L56.7854 65.692L58.231 65.8505L58.1689 66.4194L56.1232 66.1956Z" fill="white"/>
<path d="M61.6881 63.6992L60.8332 63.7179L60.8923 66.4475L60.2953 66.4599L60.2332 63.7303L59.3782 63.7552L59.3658 63.1769L61.6757 63.1272L61.6881 63.6992Z" fill="white"/>
<path d="M64.738 66.0589L63.1182 66.3138L62.6053 63.0526L64.2281 62.8008L64.6975 63.1428L64.8468 64.0754L64.6323 64.3708L64.9245 64.5853L65.0799 65.5801L64.738 66.0589ZM64.1317 63.3946L63.2861 63.5252L63.4042 64.2837L64.2499 64.1532L64.1317 63.3946ZM64.34 64.7128L63.4944 64.8464L63.6188 65.6548L64.4644 65.5242L64.34 64.7128Z" fill="white"/>
<path d="M68.2355 65.1603L67.7816 64.4515L66.9888 64.6878L67.0261 65.5241L66.451 65.695L66.4043 62.2752L66.9297 62.1167L68.7951 65.008L68.2355 65.1603ZM66.9453 63.1053L66.9826 64.125L67.4707 63.9789L66.9453 63.1053Z" fill="white"/>
<path d="M70.0138 64.5136L68.6614 61.5041L69.2086 61.2585L70.3247 63.7488L71.534 63.2047L71.7703 63.727L70.0138 64.5136Z" fill="white"/>
<path d="M73.0139 63.0587L71.2946 60.242L71.8045 59.9312L73.2284 62.2597L74.36 61.5664L74.6585 62.0576L73.0139 63.0587Z" fill="white"/>
<path d="M78.7 58.7279L77.8575 59.5331L77.273 59.5176L75.5663 57.7237L75.5818 57.1424L76.4243 56.3372L77.0088 56.3527L77.1207 56.4677L76.1103 57.4284L77.5964 58.989L78.6068 58.0315L78.7156 58.1465L78.7 58.7279Z" fill="white"/>
<path d="M79.9716 57.3818L77.4099 55.2957L77.7891 54.8325L79.9063 56.5549L80.7426 55.5289L81.1872 55.8895L79.9716 57.3818Z" fill="white"/>
<path d="M82.8722 53.3278L82.2286 54.3724L81.6597 54.5092L79.2006 52.9952L79.5146 52.4853L81.8369 53.9154L82.2877 53.1848L79.9622 51.7547L80.2762 51.2449L82.7354 52.7589L82.8722 53.3278Z" fill="white"/>
<path d="M84.4888 50.0605L83.8297 51.5652L80.8047 50.2377L81.4638 48.7361L82.0079 48.5247L82.8815 48.907L83.0152 49.2459L83.3541 49.1153L84.2867 49.5195L84.4888 50.0605ZM81.9146 49.1278L81.5695 49.9112L82.2753 50.2221L82.6172 49.4387L81.9146 49.1278ZM83.1364 49.6625L82.7945 50.446L83.5437 50.7755L83.8888 49.9921L83.1364 49.6625Z" fill="white"/>
<path d="M60 11.2365C65.6889 11.2365 71.25 12.9235 75.9802 16.0841C80.7103 19.2446 84.397 23.7369 86.5741 28.9927C88.7511 34.2486 89.3207 40.032 88.2109 45.6116C87.101 51.1911 84.3616 56.3163 80.3389 60.339C76.3162 64.3616 71.1911 67.1011 65.6115 68.2109C60.0319 69.3208 54.2485 68.7512 48.9927 66.5741C43.7368 64.3971 39.2446 60.7104 36.084 55.9802C32.9234 51.2501 31.2365 45.689 31.2365 40.0001C31.2365 32.3715 34.2669 25.0554 39.6611 19.6612C45.0553 14.267 52.3714 11.2365 60 11.2365ZM60 10.0769C54.0818 10.0769 48.2964 11.8319 43.3756 15.1199C38.4547 18.4079 34.6194 23.0812 32.3546 28.549C30.0898 34.0167 29.4972 40.0333 30.6518 45.8378C31.8064 51.6423 34.6563 56.9741 38.8411 61.1589C43.026 65.3438 48.3578 68.1937 54.1623 69.3483C59.9668 70.5029 65.9834 69.9103 71.4511 67.6455C76.9189 65.3807 81.5922 61.5453 84.8802 56.6245C88.1682 51.7037 89.9232 45.9183 89.9232 40.0001C89.9141 32.0667 86.7586 24.4609 81.1489 18.8512C75.5392 13.2415 67.9333 10.086 60 10.0769Z" fill="white"/>
<path d="M68.8821 32.4828H49.2121C49.0472 32.4828 48.8891 32.5483 48.7725 32.6649C48.6558 32.7815 48.5903 32.9397 48.5903 33.1046V40.9483L47.7012 42.1048C47.6776 42.1282 47.6589 42.1561 47.6461 42.1868C47.6333 42.2174 47.6267 42.2503 47.6267 42.2836C47.6267 42.3168 47.6333 42.3497 47.6461 42.3804C47.6589 42.4111 47.6776 42.4389 47.7012 42.4623L48.5903 43.6189V50.8502C48.5908 50.8744 48.5983 50.898 48.6117 50.9182C48.6252 50.9384 48.6441 50.9544 48.6663 50.9642C48.6885 50.9739 48.7131 50.9772 48.7371 50.9735C48.761 50.9699 48.7835 50.9594 48.8017 50.9434L52.1469 47.9154V43.8147H68.1205L71.4128 40.8333C71.4962 40.7579 71.5628 40.6658 71.6084 40.5629C71.6539 40.4601 71.6773 40.3488 71.677 40.2364V35.2621C71.6768 35.0487 71.5918 34.844 71.4408 34.6932L69.4604 32.7128C69.3094 32.5621 69.1049 32.4771 68.8915 32.4766M68.1205 40.4478H52.1376V35.8746H68.1111L68.1205 40.4478Z" fill="#007F41"/>
<path d="M48.7054 51.3164C48.64 51.3164 48.5754 51.3027 48.5157 51.276C48.4331 51.2388 48.363 51.1785 48.314 51.1024C48.2649 51.0262 48.2388 50.9375 48.239 50.847V43.7307L47.4307 42.683C47.3304 42.5735 47.2748 42.4304 47.2748 42.2819C47.2748 42.1335 47.3304 41.9904 47.4307 41.8809L48.239 40.8301V33.1045C48.239 32.8464 48.3415 32.5989 48.524 32.4164C48.7065 32.2339 48.954 32.1314 49.2121 32.1314H68.8821C69.0329 32.1304 69.1824 32.1597 69.3217 32.2173C69.4611 32.275 69.5875 32.3599 69.6935 32.4671L71.6739 34.4475C71.7811 34.5537 71.8663 34.6801 71.9244 34.8194C71.9826 34.9586 72.0126 35.108 72.0128 35.2589V40.2332C72.0125 40.3938 71.9786 40.5525 71.9133 40.6992C71.848 40.846 71.7527 40.9774 71.6335 41.085L68.2448 44.1535H52.4796V48.0614L49.0225 51.192C48.937 51.2689 48.8265 51.312 48.7116 51.3133M47.9934 42.2788L48.9261 43.4944V50.3589L51.7925 47.7598V43.4695H67.9805L71.1734 40.5783C71.2213 40.5351 71.2597 40.4824 71.2859 40.4235C71.3121 40.3645 71.3257 40.3008 71.3257 40.2363V35.262C71.3251 35.1394 71.2759 35.022 71.1889 34.9356L69.2086 32.9552C69.1209 32.8705 69.004 32.8226 68.8821 32.8215H49.2121C49.1745 32.8215 49.1374 32.8289 49.1027 32.8433C49.0679 32.8577 49.0364 32.8788 49.0099 32.9053C48.9833 32.9319 48.9622 32.9634 48.9479 32.9981C48.9335 33.0328 48.9261 33.07 48.9261 33.1076V41.0632L47.9934 42.2788ZM68.4624 40.7834H51.7987V35.5294H68.4624V40.7834ZM52.4858 40.0964H67.7753V36.2134H52.4796L52.4858 40.0964Z" fill="#001A54"/>
<path d="M48.8328 43.6156C48.8335 43.5825 48.8272 43.5496 48.8144 43.519C48.8015 43.4885 48.7824 43.461 48.7582 43.4384L47.8691 42.2819L48.7582 41.1253C48.7822 41.1019 48.8011 41.0738 48.814 41.0428C48.8268 41.0118 48.8332 40.9786 48.8328 40.945V33.1044C48.8328 33.0043 48.8724 32.9083 48.9428 32.8373C49.0133 32.7662 49.109 32.7259 49.209 32.7251H68.8821C69.0289 32.7256 69.1695 32.7836 69.2739 32.8868L71.2542 34.8702C71.3061 34.9213 71.3472 34.9823 71.375 35.0496C71.4028 35.1169 71.4167 35.1891 71.4159 35.262V40.2362C71.4165 40.3135 71.4008 40.39 71.3697 40.4607C71.3386 40.5314 71.2929 40.5948 71.2356 40.6466L68.0148 43.5627H52.1376C52.0708 43.5627 52.0068 43.5893 51.9595 43.6365C51.9123 43.6837 51.8858 43.7478 51.8858 43.8145V47.8002L48.8328 50.564V43.6156ZM52.1376 35.6226C52.0708 35.6226 52.0068 35.6491 51.9595 35.6964C51.9123 35.7436 51.8858 35.8076 51.8858 35.8744V40.4414C51.8858 40.5082 51.9123 40.5722 51.9595 40.6195C52.0068 40.6667 52.0708 40.6932 52.1376 40.6932H68.1111C68.1779 40.6932 68.242 40.6667 68.2892 40.6195C68.3364 40.5722 68.3629 40.5082 68.3629 40.4414V35.8744C68.3629 35.8076 68.3364 35.7436 68.2892 35.6964C68.242 35.6491 68.1779 35.6226 68.1111 35.6226H52.1376Z" fill="#001F5B"/>
<path d="M48.696 50.8749V43.6156C48.6961 43.6006 48.6931 43.5856 48.6872 43.5717C48.6813 43.5578 48.6727 43.5453 48.6618 43.5348L47.7074 42.2913L48.6743 41.0477C48.6851 41.0372 48.6938 41.0247 48.6996 41.0108C48.7055 40.9969 48.7085 40.982 48.7085 40.9669V33.1045C48.7085 32.9676 48.7629 32.8363 48.8596 32.7395C48.9564 32.6428 49.0877 32.5884 49.2246 32.5884H68.8946C69.0749 32.5913 69.2469 32.665 69.3733 32.7936L71.3537 34.7739C71.4179 34.8379 71.4689 34.914 71.5035 34.9978C71.5382 35.0816 71.556 35.1714 71.5558 35.262V40.2363C71.5564 40.333 71.5364 40.4287 71.4973 40.5171C71.4582 40.6055 71.4008 40.6846 71.3288 40.7492L68.0707 43.6996H52.1376C52.1224 43.6992 52.1072 43.7018 52.0931 43.7075C52.0789 43.7131 52.0661 43.7216 52.0553 43.7323C52.0445 43.7431 52.0361 43.7559 52.0305 43.7701C52.0248 43.7842 52.0221 43.7994 52.0226 43.8146V47.8562L48.696 50.8749ZM48.8546 43.3638C48.9233 43.4358 48.9612 43.5317 48.9603 43.6312V50.2687L51.7397 47.7567V43.8146C51.7397 43.7113 51.7805 43.6121 51.8533 43.5387C51.9261 43.4654 52.0249 43.4237 52.1283 43.4229H67.9526L71.133 40.5472C71.176 40.5076 71.2104 40.4596 71.234 40.4061C71.2575 40.3525 71.2697 40.2947 71.2698 40.2363V35.262C71.2697 35.1524 71.2261 35.0473 71.1485 34.9698L69.1682 32.9894C69.1298 32.95 69.0839 32.9186 69.0331 32.8972C68.9824 32.8759 68.9279 32.8649 68.8728 32.8651H49.2121C49.1478 32.8651 49.0861 32.8906 49.0406 32.9361C48.9952 32.9816 48.9696 33.0433 48.9696 33.1076V40.9513C48.97 41.0516 48.9322 41.1483 48.8639 41.2218L48.0432 42.2882L48.8546 43.3638ZM68.1018 40.8456H52.1376C52.0345 40.8456 51.9357 40.8047 51.8628 40.7318C51.7899 40.6589 51.749 40.5601 51.749 40.457V35.8745C51.749 35.7714 51.7899 35.6726 51.8628 35.5997C51.9357 35.5268 52.0345 35.4859 52.1376 35.4859H68.1111C68.2145 35.4859 68.3136 35.5267 68.387 35.5995C68.4604 35.6723 68.502 35.7711 68.5029 35.8745V40.4415C68.502 40.5448 68.4604 40.6437 68.387 40.7164C68.3136 40.7892 68.2145 40.8301 68.1111 40.8301M52.1376 35.7595C52.1071 35.7595 52.0778 35.7716 52.0563 35.7932C52.0347 35.8147 52.0226 35.844 52.0226 35.8745V40.4415C52.0226 40.472 52.0347 40.5012 52.0563 40.5228C52.0778 40.5444 52.1071 40.5565 52.1376 40.5565H68.1111C68.1416 40.5565 68.1709 40.5444 68.1925 40.5228C68.214 40.5012 68.2262 40.472 68.2262 40.4415V35.8745C68.2262 35.844 68.214 35.8147 68.1925 35.7932C68.1709 35.7716 68.1416 35.7595 68.1111 35.7595H52.1376Z" fill="#001A54"/>
<path d="M68.1111 45.0396V48.9599H52.3397L48.8235 52.1372C48.8049 52.1545 48.792 52.1769 48.7862 52.2016C48.7805 52.2263 48.7822 52.2521 48.7912 52.2758C48.8002 52.2995 48.8161 52.32 48.8368 52.3346C48.8575 52.3492 48.8821 52.3574 48.9074 52.3579H68.8821C69.0955 52.3574 69.3 52.2724 69.4511 52.1217L71.4314 50.1413C71.5065 50.0661 71.5659 49.9769 71.6065 49.8788C71.647 49.7806 71.6678 49.6755 71.6677 49.5693V44.2593C71.6675 44.0458 71.5825 43.8412 71.4314 43.6903L70.648 42.9069C70.6247 42.8841 70.5935 42.8713 70.5609 42.8713C70.5284 42.8713 70.4971 42.8841 70.4739 42.9069L68.1111 45.0396Z" fill="#007F41"/>
<path d="M68.8821 52.6905H48.9074C48.8129 52.6897 48.7209 52.6603 48.6433 52.6064C48.5657 52.5524 48.5062 52.4762 48.4726 52.3879C48.439 52.2995 48.4329 52.2031 48.455 52.1112C48.4771 52.0193 48.5264 51.9362 48.5966 51.8728L52.2122 48.6023H67.7567V44.8716L70.2438 42.6301C70.333 42.5492 70.4499 42.5058 70.5703 42.5087C70.6906 42.5116 70.8052 42.5606 70.8905 42.6456L71.6739 43.4321C71.7811 43.5384 71.8663 43.6647 71.9244 43.804C71.9826 43.9433 72.0126 44.0926 72.0128 44.2436V49.5816C72.013 49.733 71.9832 49.883 71.925 50.0228C71.8669 50.1626 71.7815 50.2895 71.6739 50.3961L69.6842 52.3796C69.5782 52.4868 69.4518 52.5717 69.3124 52.6294C69.1731 52.687 69.0236 52.7162 68.8728 52.7153M49.4764 52.0127H68.8852C68.9458 52.0132 69.0058 52.0016 69.0619 51.9786C69.1179 51.9557 69.1688 51.9218 69.2117 51.879L71.192 49.8987C71.2795 49.8113 71.3287 49.6928 71.3288 49.5691V44.2591C71.3282 44.1365 71.2791 44.0191 71.192 43.9327L70.5703 43.2954L68.4749 45.1918V49.2986H52.4734L49.4764 52.0127Z" fill="#001A54"/>
<path d="M49.2339 52.1061L52.4361 49.2055H68.1111C68.1779 49.2055 68.242 49.1789 68.2892 49.1317C68.3364 49.0845 68.363 49.0204 68.363 48.9536V45.1514L70.5547 43.168L71.2542 43.8675C71.3057 43.9188 71.3465 43.9799 71.3743 44.0471C71.402 44.1144 71.4162 44.1865 71.4159 44.2592V49.5816C71.4167 49.6544 71.4028 49.7267 71.375 49.794C71.3472 49.8613 71.3061 49.9223 71.2542 49.9734L69.2739 51.9537C69.2229 52.0059 69.1619 52.0474 69.0946 52.0757C69.0274 52.104 68.9551 52.1185 68.8821 52.1185L49.2339 52.1061Z" fill="#001F5B"/>
<path d="M68.8821 52.2428H48.8795L52.3832 49.0686H68.1111C68.1416 49.0686 68.1709 49.0565 68.1925 49.0349C68.214 49.0133 68.2262 48.9841 68.2262 48.9536V45.0892L70.5578 42.9783L71.3506 43.771C71.4148 43.835 71.4657 43.9111 71.5004 43.9949C71.5351 44.0787 71.5529 44.1685 71.5527 44.2591V49.5816C71.5529 49.6722 71.5351 49.762 71.5004 49.8458C71.4657 49.9296 71.4148 50.0057 71.3506 50.0697L69.3733 52.0407C69.3093 52.1049 69.2333 52.1559 69.1495 52.1905C69.0657 52.2252 68.9759 52.243 68.8852 52.2428M49.5945 51.9661H68.8852C68.9401 51.9668 68.9945 51.9565 69.0453 51.9356C69.096 51.9148 69.1421 51.8839 69.1806 51.8449L71.161 49.8645C71.2385 49.787 71.2821 49.6819 71.2822 49.5722V44.2591C71.2821 44.1495 71.2385 44.0444 71.161 43.9669L70.5392 43.3451L68.4935 45.2105V48.9411C68.4927 49.0445 68.4511 49.1433 68.3777 49.2161C68.3043 49.2889 68.2052 49.3298 68.1018 49.3298H52.4889L49.5945 51.9661Z" fill="#001A54"/>
<path d="M64.0229 27.6669C63.8719 27.5161 63.6674 27.4312 63.454 27.4306H61.4581L60.3171 26.529C60.2937 26.5055 60.2659 26.4867 60.2352 26.4739C60.2045 26.4612 60.1716 26.4546 60.1384 26.4546C60.1051 26.4546 60.0722 26.4612 60.0415 26.4739C60.0108 26.4867 59.983 26.5055 59.9596 26.529L58.8186 27.4306H54.6403C54.4754 27.4306 54.3172 27.4961 54.2006 27.6127C54.084 27.7293 54.0185 27.8875 54.0185 28.0524V56.7569C54.0185 56.9218 54.084 57.0799 54.2006 57.1965C54.3172 57.3132 54.4754 57.3787 54.6403 57.3787H58.8186L59.9596 58.1963C60.0077 58.2425 60.0717 58.2683 60.1384 58.2683C60.205 58.2683 60.2691 58.2425 60.3171 58.1963L61.4581 57.3787H63.4229C63.5385 57.3793 63.6531 57.3567 63.7599 57.3124C63.8666 57.2681 63.9635 57.2029 64.0447 57.1206L65.9815 55.1869C66.1454 55.0213 66.238 54.7981 66.2396 54.5651V30.4494C66.24 30.2704 66.205 30.0932 66.1367 29.9278C66.0684 29.7624 65.9682 29.6121 65.8416 29.4856L64.0229 27.6669ZM62.683 53.9931H57.5968V30.8349H62.683V53.9931Z" fill="#007F41"/>
<path d="M60.1368 58.6285C59.9907 58.6292 59.8498 58.5748 59.742 58.4762L58.7067 57.7394H54.6372C54.3796 57.7386 54.1329 57.6357 53.9511 57.4533C53.7693 57.2709 53.6672 57.0238 53.6672 56.7663V28.0618C53.6672 27.8043 53.7693 27.5572 53.9511 27.3748C54.1329 27.1924 54.3796 27.0896 54.6372 27.0887H58.6974L59.7357 26.2649C59.8482 26.1694 59.9909 26.1169 60.1384 26.1169C60.2859 26.1169 60.4285 26.1694 60.5409 26.2649L61.5793 27.0856H63.4447C63.5954 27.0854 63.7446 27.1149 63.8839 27.1726C64.0231 27.2302 64.1496 27.3147 64.2561 27.4214L66.0748 29.2401C66.2343 29.3977 66.3607 29.5856 66.4467 29.7928C66.5326 29.9999 66.5764 30.2221 66.5753 30.4464V54.5745C66.5756 54.7358 66.5438 54.8955 66.4819 55.0444C66.42 55.1933 66.3292 55.3284 66.2147 55.4419L64.281 57.3757C64.1674 57.4902 64.0323 57.581 63.8834 57.6429C63.7345 57.7048 63.5748 57.7365 63.4136 57.7363H61.5482L60.513 58.4731C60.4042 58.5721 60.2621 58.6265 60.115 58.6254M54.6372 27.7758C54.5613 27.7758 54.4885 27.8059 54.4349 27.8596C54.3813 27.9132 54.3511 27.986 54.3511 28.0618V56.7663C54.3511 56.8039 54.3585 56.8411 54.3729 56.8758C54.3873 56.9105 54.4083 56.942 54.4349 56.9685C54.4615 56.9951 54.493 57.0162 54.5277 57.0306C54.5624 57.0449 54.5996 57.0523 54.6372 57.0523H58.9274L60.1368 57.9166L61.3493 57.0523H63.4229C63.4935 57.0527 63.5635 57.0389 63.6287 57.0117C63.6939 56.9844 63.7529 56.9443 63.8022 56.8938L65.739 54.9569C65.7896 54.9076 65.8297 54.8486 65.8569 54.7834C65.8842 54.7183 65.898 54.6483 65.8976 54.5776V30.4495C65.8965 30.3146 65.8685 30.1813 65.8151 30.0574C65.7617 29.9335 65.684 29.8216 65.5867 29.7282L63.7773 27.9095C63.7345 27.8667 63.6836 27.8328 63.6275 27.8099C63.5715 27.7869 63.5114 27.7753 63.4509 27.7758H61.3368L60.1337 26.8245L58.9337 27.7758H54.6372ZM63.0312 54.3351H57.2486V30.4899H63.025L63.0312 54.3351ZM57.9419 53.6481H62.3441V31.1801H57.9388L57.9419 53.6481Z" fill="#001A54"/>
<path d="M58.9958 57.217C58.9484 57.1708 58.8848 57.1451 58.8186 57.1455H54.6371C54.5371 57.1446 54.4414 57.1043 54.371 57.0333C54.3005 56.9622 54.261 56.8662 54.261 56.7662V28.0617C54.261 27.9619 54.3006 27.8663 54.3712 27.7957C54.4417 27.7252 54.5374 27.6855 54.6371 27.6855H58.8186C58.8523 27.6853 58.8857 27.6783 58.9167 27.665C58.9476 27.6516 58.9756 27.6322 58.9989 27.6078L60.1399 26.7031L61.2778 27.6078C61.3008 27.6325 61.3288 27.6521 61.3598 27.6655C61.3908 27.6789 61.4243 27.6857 61.4581 27.6855H63.4664C63.5392 27.6849 63.6114 27.6989 63.6787 27.7267C63.746 27.7544 63.807 27.7954 63.8581 27.8472L65.6768 29.6628C65.8802 29.8737 65.992 30.1564 65.9877 30.4493V54.5775C65.9882 54.6601 65.9722 54.7419 65.9408 54.8183C65.9093 54.8946 65.8629 54.9639 65.8043 55.0221L63.8675 56.9589C63.8095 57.0181 63.7403 57.065 63.664 57.0971C63.5877 57.1291 63.5057 57.1455 63.4229 57.1455H61.4581C61.3919 57.1451 61.3282 57.1708 61.2809 57.217L60.1368 58.0937L58.9958 57.217ZM57.5968 30.583C57.53 30.583 57.466 30.6096 57.4188 30.6568C57.3715 30.704 57.345 30.7681 57.345 30.8349V53.993C57.345 54.0598 57.3715 54.1239 57.4188 54.1711C57.466 54.2183 57.53 54.2449 57.5968 54.2449H62.683C62.7498 54.2449 62.8138 54.2183 62.861 54.1711C62.9083 54.1239 62.9348 54.0598 62.9348 53.993V30.8349C62.9348 30.7681 62.9083 30.704 62.861 30.6568C62.8138 30.6096 62.7498 30.583 62.683 30.583H57.5968Z" fill="#001F5B"/>
<path d="M60.1834 58.2305H60.1368C60.0902 58.2305 60.0902 58.2305 58.9119 57.3258C58.89 57.3053 58.861 57.2942 58.831 57.2947H54.6371C54.5008 57.2939 54.3703 57.2392 54.2742 57.1425C54.1781 57.0458 54.1242 56.915 54.1242 56.7787V28.0618C54.1242 27.9254 54.1781 27.7946 54.2742 27.6979C54.3703 27.6012 54.5008 27.5465 54.6371 27.5457H58.8186C58.8489 27.5451 58.8779 27.5328 58.8994 27.5115L60.1275 26.5415L61.371 27.5239C61.3815 27.5348 61.394 27.5434 61.4079 27.5493C61.4218 27.5551 61.4368 27.5582 61.4518 27.5581H63.4664C63.5571 27.5579 63.6469 27.5757 63.7307 27.6104C63.8144 27.645 63.8905 27.696 63.9545 27.7602L65.7732 29.5789C65.889 29.6948 65.9808 29.8325 66.0432 29.9841C66.1056 30.1356 66.1375 30.2979 66.137 30.4618V54.59C66.1376 54.691 66.1181 54.7911 66.0797 54.8845C66.0413 54.9779 65.9846 55.0627 65.9131 55.1341L63.9669 57.0429C63.8958 57.1149 63.8111 57.172 63.7177 57.2109C63.6243 57.2499 63.5241 57.2699 63.4229 57.2699H61.4581C61.4432 57.2692 61.4283 57.2717 61.4144 57.277C61.4005 57.2824 61.3879 57.2905 61.3772 57.301L60.1834 58.2305ZM59.086 57.1144L60.1368 57.9196L61.1907 57.1144C61.2259 57.0796 61.2677 57.052 61.3135 57.0334C61.3594 57.0147 61.4085 57.0053 61.4581 57.0056H63.4229C63.4875 57.006 63.5516 56.9936 63.6113 56.969C63.6711 56.9445 63.7254 56.9083 63.7711 56.8626L65.7079 54.9258C65.7538 54.8802 65.79 54.8259 65.8146 54.7661C65.8392 54.7063 65.8515 54.6422 65.8509 54.5776V30.4494C65.8519 30.3215 65.8271 30.1948 65.7779 30.0767C65.7288 29.9587 65.6563 29.8517 65.5649 29.7623L63.7493 27.9436C63.7084 27.9034 63.6598 27.8719 63.6064 27.851C63.5529 27.8302 63.4958 27.8204 63.4384 27.8224H61.4425C61.3412 27.8221 61.244 27.7819 61.172 27.7104L60.1399 26.8866L59.0891 27.7167C59.0172 27.7881 58.92 27.8283 58.8186 27.8286H54.6371C54.5737 27.8286 54.5128 27.8538 54.4679 27.8987C54.423 27.9436 54.3978 28.0045 54.3978 28.068V56.7724C54.3978 56.8359 54.423 56.8968 54.4679 56.9417C54.5128 56.9866 54.5737 57.0118 54.6371 57.0118H58.8186C58.9184 57.0124 59.0141 57.0514 59.086 57.1206M62.683 54.3879H57.5968C57.4935 54.3879 57.3943 54.3471 57.3209 54.2743C57.2475 54.2015 57.2059 54.1027 57.2051 53.9993V30.8349C57.2059 30.7315 57.2475 30.6327 57.3209 30.5599C57.3943 30.4871 57.4935 30.4463 57.5968 30.4463H62.683C62.7863 30.4463 62.8855 30.4871 62.9589 30.5599C63.0322 30.6327 63.0739 30.7315 63.0747 30.8349V53.9931C63.0739 54.0964 63.0322 54.1953 62.9589 54.2681C62.8855 54.3409 62.7863 54.3817 62.683 54.3817M57.5968 30.7199C57.5663 30.7199 57.537 30.732 57.5155 30.7536C57.4939 30.7751 57.4818 30.8044 57.4818 30.8349V53.9931C57.4818 54.0236 57.4939 54.0529 57.5155 54.0744C57.537 54.096 57.5663 54.1081 57.5968 54.1081H62.683C62.7135 54.1081 62.7427 54.096 62.7643 54.0744C62.7859 54.0529 62.798 54.0236 62.798 53.9931V30.8349C62.798 30.8044 62.7859 30.7751 62.7643 30.7536C62.7427 30.732 62.7135 30.7199 62.683 30.7199H57.5968Z" fill="#001A54"/>
<path d="M69.7184 31.6152H50.0453C49.8804 31.6152 49.7222 31.6807 49.6056 31.7973C49.489 31.914 49.4235 32.0721 49.4235 32.237V40.0808L48.5437 41.2466C48.5201 41.27 48.5014 41.2979 48.4886 41.3285C48.4758 41.3592 48.4692 41.3921 48.4692 41.4254C48.4692 41.4586 48.4758 41.4915 48.4886 41.5222C48.5014 41.5529 48.5201 41.5807 48.5437 41.6041L49.4328 42.7606V49.992C49.4325 50.0162 49.4393 50.04 49.4524 50.0605C49.4655 50.0809 49.4842 50.0971 49.5064 50.107C49.5285 50.1169 49.5531 50.1201 49.577 50.1162C49.601 50.1124 49.6232 50.1016 49.6411 50.0852L52.9894 47.0571V42.9596H68.963L72.2553 39.9813C72.3385 39.905 72.405 39.8123 72.4504 39.709C72.4959 39.6057 72.5195 39.4941 72.5195 39.3813V34.407C72.5197 34.3008 72.4989 34.1957 72.4583 34.0975C72.4178 33.9993 72.3583 33.9101 72.2833 33.835L70.2873 31.8608C70.1358 31.7109 69.9316 31.6261 69.7184 31.6246M68.9474 39.5958H52.9739V35.0195H68.9474V39.5958Z" fill="#008F43"/>
<path d="M49.5417 50.3402C49.4936 50.3402 49.4461 50.3307 49.4018 50.3122C49.341 50.2856 49.2892 50.2422 49.2523 50.1872C49.2154 50.1321 49.195 50.0676 49.1935 50.0014V42.8509L48.3572 41.7659C48.2788 41.6809 48.2335 41.5705 48.2297 41.455C48.233 41.3393 48.2783 41.2288 48.3572 41.1441L49.1935 40.056V32.2837C49.1935 32.0578 49.2832 31.8411 49.443 31.6814C49.6027 31.5216 49.8194 31.4319 50.0453 31.4319H69.7184C69.8543 31.4326 69.9886 31.4605 70.1135 31.5139C70.2385 31.5673 70.3515 31.6451 70.4459 31.7428L72.4232 33.7231C72.5213 33.8173 72.5994 33.9302 72.6528 34.0552C72.7062 34.1802 72.7338 34.3147 72.7341 34.4506V39.4249C72.7345 39.5687 72.7048 39.711 72.647 39.8427C72.5892 39.9745 72.5045 40.0926 72.3983 40.1897L69.0438 43.2239H53.2071V47.1567L49.7873 50.2501C49.7234 50.3079 49.6403 50.3401 49.5541 50.3402M50.0577 31.8391C49.9497 31.8391 49.8461 31.8821 49.7698 31.9584C49.6934 32.0348 49.6505 32.1384 49.6505 32.2464V40.1679L48.696 41.4115C48.6946 41.4149 48.6938 41.4186 48.6938 41.4223C48.6938 41.4261 48.6946 41.4298 48.696 41.4332C48.6947 41.4361 48.6939 41.4393 48.6939 41.4425C48.6939 41.4458 48.6947 41.449 48.696 41.4519L48.7147 41.4736L49.6474 42.6923V49.7837L52.7563 46.9671V42.7421H68.8697L72.0967 39.8228C72.157 39.7674 72.2052 39.7001 72.2384 39.6252C72.2715 39.5504 72.2889 39.4694 72.2895 39.3876V34.4133C72.2895 34.3365 72.2745 34.2605 72.2451 34.1896C72.2158 34.1186 72.1728 34.0542 72.1185 33.9998L70.1381 32.0195C70.028 31.9105 69.8796 31.849 69.7246 31.8485L50.0577 31.8391ZM69.1837 39.8104H52.75V34.7957H69.1713L69.1837 39.8104ZM53.2071 39.3658H68.7516V35.2403H53.2071V39.3658Z" fill="#001A54"/>
<path d="M49.579 49.9081V42.7576C49.5793 42.7363 49.5754 42.7151 49.5674 42.6954C49.5594 42.6756 49.5475 42.6577 49.5323 42.6426L48.5997 41.4332L49.5323 40.2146C49.5628 40.1828 49.5795 40.1404 49.579 40.0964V32.2464C49.579 32.1228 49.6281 32.0042 49.7156 31.9167C49.803 31.8292 49.9216 31.7801 50.0453 31.7801H69.7184C69.8028 31.7788 69.8865 31.7946 69.9646 31.8267C70.0426 31.8588 70.1133 31.9064 70.1723 31.9666L72.1527 33.947C72.2125 34.0071 72.2597 34.0784 72.2918 34.1568C72.3238 34.2353 72.3399 34.3193 72.3392 34.404V39.3783C72.3399 39.4682 72.3217 39.5573 72.2858 39.6397C72.2499 39.7222 72.1972 39.7962 72.1309 39.857L68.8852 42.7918H52.9739C52.9302 42.7918 52.8883 42.8092 52.8574 42.8401C52.8265 42.871 52.8091 42.9129 52.8091 42.9566V46.9826L49.579 49.9081ZM49.6629 42.5245C49.7227 42.5887 49.756 42.6731 49.7562 42.7607V49.5102L52.6319 46.908V42.9597C52.6319 42.869 52.6679 42.782 52.7321 42.7179C52.7962 42.6538 52.8832 42.6177 52.9739 42.6177H68.8293L72.0221 39.7265C72.0703 39.6828 72.1088 39.6296 72.135 39.5701C72.1613 39.5107 72.1747 39.4464 72.1745 39.3814V34.4071C72.175 34.3461 72.1635 34.2856 72.1405 34.229C72.1176 34.1725 72.0837 34.121 72.0408 34.0776L70.0604 32.0972C69.9727 32.0103 69.8544 31.9612 69.7309 31.9604H50.0453C49.9686 31.9604 49.8951 31.9909 49.8409 32.0451C49.7866 32.0993 49.7562 32.1729 49.7562 32.2496V40.0933C49.7566 40.1811 49.7232 40.2657 49.6629 40.3296L48.8173 41.4301L49.6629 42.5245ZM68.9381 39.9285H52.9739C52.8832 39.9285 52.7962 39.8925 52.7321 39.8284C52.6679 39.7642 52.6319 39.6773 52.6319 39.5866V35.0196C52.6319 34.9289 52.6679 34.8419 52.7321 34.7778C52.7962 34.7136 52.8832 34.6776 52.9739 34.6776H68.9474C68.9923 34.6776 69.0368 34.6865 69.0783 34.7036C69.1198 34.7208 69.1575 34.746 69.1892 34.7778C69.221 34.8095 69.2462 34.8472 69.2634 34.8887C69.2806 34.9302 69.2894 34.9747 69.2894 35.0196V39.5866C69.2894 39.6315 69.2806 39.6759 69.2634 39.7174C69.2462 39.7589 69.221 39.7966 69.1892 39.8284C69.1575 39.8601 69.1198 39.8853 69.0783 39.9025C69.0368 39.9197 68.9923 39.9285 68.9474 39.9285M52.9739 34.8579C52.9524 34.8575 52.9311 34.8614 52.9111 34.8693C52.8911 34.8773 52.8729 34.8891 52.8576 34.9042C52.8422 34.9192 52.83 34.9372 52.8217 34.957C52.8134 34.9768 52.8091 34.9981 52.8091 35.0196V39.5866C52.8091 39.6303 52.8265 39.6722 52.8574 39.7031C52.8883 39.734 52.9302 39.7513 52.9739 39.7513H68.9474C68.9911 39.7513 69.033 39.734 69.0639 39.7031C69.0948 39.6722 69.1122 39.6303 69.1122 39.5866V35.0196C69.1122 34.9981 69.1079 34.9768 69.0996 34.957C69.0913 34.9372 69.0791 34.9192 69.0638 34.9042C69.0484 34.8891 69.0302 34.8773 69.0102 34.8693C68.9903 34.8614 68.9689 34.8575 68.9474 34.8579H52.9739Z" fill="white"/>
<path d="M68.9474 44.1846V48.0987H53.176L49.6598 51.2823C49.6412 51.2995 49.6283 51.3219 49.6225 51.3466C49.6168 51.3713 49.6185 51.3972 49.6275 51.4209C49.6365 51.4446 49.6524 51.465 49.6731 51.4797C49.6938 51.4943 49.7184 51.5024 49.7437 51.503H69.7184C69.9316 51.5014 70.1358 51.4166 70.2874 51.2667L72.2677 49.2863C72.4188 49.1355 72.5038 48.9309 72.504 48.7174V43.4074C72.5041 43.3012 72.4833 43.196 72.4428 43.0979C72.4022 42.9997 72.3428 42.9105 72.2677 42.8354L71.4843 42.0519C71.4607 42.0299 71.4296 42.0176 71.3972 42.0176C71.3649 42.0176 71.3338 42.0299 71.3102 42.0519L68.9474 44.1846Z" fill="#008F43"/>
<path d="M69.7184 51.7238H49.7437C49.6735 51.7236 49.6049 51.7022 49.547 51.6624C49.4891 51.6226 49.4446 51.5662 49.4194 51.5006C49.3941 51.435 49.3894 51.3633 49.4056 51.2949C49.4219 51.2266 49.4585 51.1647 49.5106 51.1175L53.0889 47.878H68.7267V44.0852L71.161 41.881C71.2256 41.8198 71.3113 41.7856 71.4003 41.7856C71.4894 41.7856 71.5751 41.8198 71.6397 41.881L72.4263 42.6675C72.5239 42.762 72.6018 42.875 72.6551 42.9999C72.7085 43.1248 72.7364 43.2592 72.7372 43.395V48.705C72.7362 48.8404 72.7082 48.9742 72.6548 49.0986C72.6014 49.223 72.5237 49.3354 72.4263 49.4294L70.4459 51.4098C70.3515 51.5074 70.2385 51.5852 70.1135 51.6386C69.9886 51.692 69.8543 51.7199 69.7184 51.7207M49.9925 51.2761H69.7184C69.7952 51.2765 69.8714 51.2616 69.9424 51.2322C70.0134 51.2028 70.0778 51.1596 70.1319 51.1051L72.1123 49.1247C72.1664 49.071 72.2094 49.0071 72.2388 48.9366C72.2681 48.8662 72.2832 48.7906 72.2833 48.7143V43.4075C72.2835 43.3307 72.2685 43.2546 72.2391 43.1836C72.2098 43.1126 72.1667 43.0482 72.1123 42.994L71.391 42.2727L69.1713 44.2966V48.3382H53.2599L49.9925 51.2761Z" fill="#001A54"/>
<path d="M49.6691 42.7608C49.6691 42.7278 49.6624 42.6951 49.6496 42.6647C49.6368 42.6342 49.6181 42.6067 49.5945 42.5836L48.7054 41.4271L49.5945 40.2705C49.642 40.2225 49.6688 40.1578 49.6691 40.0902V32.2465C49.6691 32.1464 49.7087 32.0504 49.7791 31.9794C49.8496 31.9083 49.9453 31.868 50.0453 31.8672H69.7184C69.7913 31.8675 69.8635 31.8822 69.9307 31.9105C69.998 31.9388 70.0589 31.98 70.1101 32.032L72.0905 34.0123C72.1419 34.0638 72.1826 34.1249 72.2103 34.1921C72.2381 34.2593 72.2523 34.3313 72.2522 34.4041V39.3783C72.2527 39.4563 72.2365 39.5335 72.2049 39.6048C72.1733 39.676 72.1269 39.7398 72.0688 39.7918L68.851 42.7048H52.9739C52.9071 42.7048 52.843 42.7313 52.7958 42.7786C52.7486 42.8258 52.7221 42.8899 52.7221 42.9566V46.9423L49.6691 49.7061V42.7608ZM52.9739 34.7678C52.9071 34.7678 52.843 34.7943 52.7958 34.8416C52.7486 34.8888 52.7221 34.9528 52.7221 35.0196V39.5866C52.7221 39.6534 52.7486 39.7174 52.7958 39.7647C52.843 39.8119 52.9071 39.8384 52.9739 39.8384H68.9474C69.0142 39.8384 69.0783 39.8119 69.1255 39.7647C69.1727 39.7174 69.1992 39.6534 69.1992 39.5866V35.0196C69.1992 34.9528 69.1727 34.8888 69.1255 34.8416C69.0783 34.7943 69.0142 34.7678 68.9474 34.7678H52.9739Z" fill="white"/>
<path d="M50.0702 51.2511L53.2723 48.3505H68.9474C69.0142 48.3505 69.0783 48.3239 69.1255 48.2767C69.1727 48.2295 69.1992 48.1654 69.1992 48.0987V44.2965L71.391 42.313L72.0905 43.0156C72.1419 43.0671 72.1826 43.1282 72.2103 43.1954C72.2381 43.2626 72.2523 43.3346 72.2522 43.4073V48.7173C72.2514 48.864 72.1934 49.0045 72.0905 49.109L70.1101 51.0894C70.0056 51.1923 69.8651 51.2503 69.7184 51.2511H50.0702Z" fill="white"/>
<path d="M69.7184 51.3383H49.8401L53.2381 48.2636H68.9474C68.9911 48.2636 69.033 48.2462 69.0639 48.2153C69.0948 48.1844 69.1122 48.1425 69.1122 48.0988V44.2562L71.3941 42.1919L72.1527 42.9505C72.2125 43.0105 72.2597 43.0818 72.2918 43.1603C72.3238 43.2387 72.3399 43.3227 72.3392 43.4075V48.7175C72.3406 48.8018 72.3247 48.8856 72.2926 48.9636C72.2606 49.0416 72.213 49.1123 72.1527 49.1714L70.1723 51.1517C70.1133 51.212 70.0426 51.2596 69.9646 51.2917C69.8865 51.3237 69.8028 51.3396 69.7184 51.3383ZM50.3002 51.1611H69.7184C69.7797 51.1615 69.8405 51.1497 69.8971 51.1262C69.9537 51.1027 70.005 51.068 70.048 51.0243L72.0283 49.0439C72.1108 48.961 72.1586 48.8499 72.162 48.733V43.4075C72.1625 43.3464 72.151 43.2859 72.1281 43.2294C72.1051 43.1728 72.0712 43.1213 72.0283 43.0779L71.3848 42.4313L69.2894 44.3277V48.0926C69.2894 48.1375 69.2806 48.182 69.2634 48.2235C69.2462 48.2649 69.221 48.3026 69.1892 48.3344C69.1575 48.3662 69.1198 48.3913 69.0783 48.4085C69.0368 48.4257 68.9923 48.4346 68.9474 48.4346H53.3065L50.3002 51.1611Z" fill="white"/>
<path d="M52.6444 39.6332V35.4797H52.4609C52.3941 35.4797 52.3301 35.5063 52.2829 35.5535C52.2356 35.6007 52.2091 35.6648 52.2091 35.7316V40.2985C52.2091 40.3653 52.2356 40.4294 52.2829 40.4766C52.3301 40.5238 52.3941 40.5504 52.4609 40.5504H68.4407C68.5075 40.5504 68.5715 40.5238 68.6187 40.4766C68.666 40.4294 68.6925 40.3653 68.6925 40.2985V39.8944H52.8962C52.8294 39.8944 52.7653 39.8678 52.7181 39.8206C52.6709 39.7734 52.6444 39.7093 52.6444 39.6425" fill="#007F41"/>
<path d="M72.0905 34.0123L70.1101 32.032C70.0589 31.98 69.998 31.9388 69.9307 31.9105C69.8635 31.8822 69.7914 31.8675 69.7184 31.8672H50.0453C49.9453 31.868 49.8496 31.9083 49.7791 31.9794C49.7087 32.0504 49.6691 32.1464 49.6691 32.2465V32.5232H69.2832C69.3562 32.5231 69.4284 32.5377 69.4957 32.566C69.563 32.5943 69.6239 32.6357 69.6749 32.6879L71.6553 34.6683C71.7072 34.7194 71.7483 34.7804 71.7761 34.8477C71.8038 34.915 71.8177 34.9872 71.8169 35.06V40.0343L72.0688 39.8073C72.1263 39.7548 72.1723 39.691 72.2038 39.6198C72.2354 39.5487 72.2519 39.4717 72.2522 39.3938V34.4196C72.2523 34.3469 72.2381 34.2749 72.2103 34.2076C72.1826 34.1404 72.1419 34.0793 72.0905 34.0279" fill="#007F41"/>
<path d="M52.2091 43.5909V47.3215L52.6444 46.9267V43.3359H52.4609C52.3939 43.3368 52.3298 43.364 52.2827 43.4117C52.2355 43.4594 52.2091 43.5238 52.2091 43.5909Z" fill="#007F41"/>
<path d="M68.5899 49.0065C68.6567 49.0065 68.7207 48.98 68.768 48.9328C68.8152 48.8856 68.8417 48.8215 68.8417 48.7547V48.3381H53.3501L50.1448 51.2387H50.437L52.9241 48.9941L68.5899 49.0065Z" fill="#007F41"/>
<path d="M48.8826 41.5512L48.7924 41.4331L49.7251 40.2642V40.4041C49.7232 40.482 49.6921 40.5563 49.638 40.6124L48.8826 41.5512Z" fill="#007F41"/>
<path d="M71.3879 42.4031L69.2117 44.3866V44.6477L70.9682 43.059L71.6677 43.7617C71.7196 43.8127 71.7607 43.8737 71.7885 43.941C71.8163 44.0083 71.8302 44.0806 71.8294 44.1534V49.4696L72.1029 49.1991C72.2058 49.0946 72.2638 48.9541 72.2646 48.8074V43.4974C72.2647 43.4247 72.2505 43.3527 72.2228 43.2855C72.195 43.2182 72.1543 43.1572 72.1029 43.1057L71.3879 42.4031Z" fill="#007F41"/>
<path d="M49.579 49.9081V42.7576C49.5793 42.7363 49.5754 42.7151 49.5674 42.6954C49.5594 42.6756 49.5475 42.6577 49.5323 42.6426L48.5997 41.4332L49.5323 40.2146C49.5628 40.1828 49.5795 40.1404 49.579 40.0964V32.2464C49.579 32.1228 49.6281 32.0042 49.7156 31.9167C49.803 31.8292 49.9216 31.7801 50.0453 31.7801H69.7184C69.8028 31.7788 69.8865 31.7946 69.9646 31.8267C70.0426 31.8588 70.1133 31.9064 70.1723 31.9666L72.1527 33.947C72.2125 34.0071 72.2597 34.0784 72.2918 34.1568C72.3238 34.2353 72.3399 34.3193 72.3392 34.404V39.3783C72.3399 39.4682 72.3217 39.5573 72.2858 39.6397C72.2499 39.7222 72.1972 39.7962 72.1309 39.857L68.8852 42.7918H52.9739C52.9302 42.7918 52.8883 42.8092 52.8574 42.8401C52.8265 42.871 52.8091 42.9129 52.8091 42.9566V46.9826L49.579 49.9081ZM49.6629 42.5245C49.7227 42.5887 49.756 42.6731 49.7562 42.7607V49.5102L52.6319 46.908V42.9597C52.6319 42.869 52.6679 42.782 52.7321 42.7179C52.7962 42.6538 52.8832 42.6177 52.9739 42.6177H68.8293L72.0221 39.7265C72.0703 39.6828 72.1088 39.6296 72.135 39.5701C72.1613 39.5107 72.1747 39.4464 72.1745 39.3814V34.4071C72.175 34.3461 72.1635 34.2856 72.1405 34.229C72.1176 34.1725 72.0837 34.121 72.0408 34.0776L70.0604 32.0972C69.9727 32.0103 69.8544 31.9612 69.7309 31.9604H50.0453C49.9686 31.9604 49.8951 31.9909 49.8409 32.0451C49.7866 32.0993 49.7562 32.1729 49.7562 32.2496V40.0933C49.7566 40.1811 49.7232 40.2657 49.6629 40.3296L48.8173 41.4301L49.6629 42.5245ZM68.9381 39.9285H52.9739C52.8832 39.9285 52.7962 39.8925 52.7321 39.8284C52.6679 39.7642 52.6319 39.6773 52.6319 39.5866V35.0196C52.6319 34.9289 52.6679 34.8419 52.7321 34.7778C52.7962 34.7136 52.8832 34.6776 52.9739 34.6776H68.9474C68.9923 34.6776 69.0368 34.6865 69.0783 34.7036C69.1198 34.7208 69.1575 34.746 69.1892 34.7778C69.221 34.8095 69.2462 34.8472 69.2634 34.8887C69.2806 34.9302 69.2894 34.9747 69.2894 35.0196V39.5866C69.2894 39.6315 69.2806 39.6759 69.2634 39.7174C69.2462 39.7589 69.221 39.7966 69.1892 39.8284C69.1575 39.8601 69.1198 39.8853 69.0783 39.9025C69.0368 39.9197 68.9923 39.9285 68.9474 39.9285M52.9739 34.8579C52.9524 34.8575 52.9311 34.8614 52.9111 34.8693C52.8911 34.8773 52.8729 34.8891 52.8576 34.9042C52.8422 34.9192 52.83 34.9372 52.8217 34.957C52.8134 34.9768 52.8091 34.9981 52.8091 35.0196V39.5866C52.8091 39.6303 52.8265 39.6722 52.8574 39.7031C52.8883 39.734 52.9302 39.7513 52.9739 39.7513H68.9474C68.9911 39.7513 69.033 39.734 69.0639 39.7031C69.0948 39.6722 69.1122 39.6303 69.1122 39.5866V35.0196C69.1122 34.9981 69.1079 34.9768 69.0996 34.957C69.0913 34.9372 69.0791 34.9192 69.0638 34.9042C69.0484 34.8891 69.0302 34.8773 69.0102 34.8693C68.9903 34.8614 68.9689 34.8575 68.9474 34.8579H52.9739Z" fill="white"/>
<path d="M69.7184 51.3383H49.8401L53.2381 48.2636H68.9474C68.9911 48.2636 69.033 48.2462 69.0639 48.2153C69.0948 48.1844 69.1122 48.1425 69.1122 48.0988V44.2562L71.3941 42.1919L72.1527 42.9505C72.2125 43.0105 72.2597 43.0818 72.2918 43.1603C72.3238 43.2387 72.3399 43.3227 72.3392 43.4075V48.7175C72.3406 48.8018 72.3247 48.8856 72.2926 48.9636C72.2606 49.0416 72.213 49.1123 72.1527 49.1714L70.1723 51.1517C70.1133 51.212 70.0426 51.2596 69.9646 51.2917C69.8865 51.3237 69.8028 51.3396 69.7184 51.3383ZM50.3002 51.1611H69.7184C69.7797 51.1615 69.8405 51.1497 69.8971 51.1262C69.9537 51.1027 70.005 51.068 70.048 51.0243L72.0283 49.0439C72.1108 48.961 72.1586 48.8499 72.162 48.733V43.4075C72.1625 43.3464 72.151 43.2859 72.1281 43.2294C72.1051 43.1728 72.0712 43.1213 72.0283 43.0779L71.3848 42.4313L69.2894 44.3277V48.0926C69.2894 48.1375 69.2806 48.182 69.2634 48.2235C69.2462 48.2649 69.221 48.3026 69.1892 48.3344C69.1575 48.3662 69.1198 48.3913 69.0783 48.4085C69.0368 48.4257 68.9923 48.4346 68.9474 48.4346H53.3065L50.3002 51.1611Z" fill="white"/>
<path d="M58.0911 30.3252H58.0041C57.937 30.326 57.873 30.3532 57.8258 30.401C57.7787 30.4487 57.7523 30.5131 57.7523 30.5801V39.3659H58.0911V30.3252Z" fill="#007F41"/>
<path d="M66.5753 54.105C66.6258 54.055 66.6659 53.9955 66.6931 53.9298C66.7203 53.8642 66.7342 53.7937 66.7339 53.7227V51.7236H66.3888V54.2947L66.5753 54.105Z" fill="#007F41"/>
<path d="M58.0911 53.1382V43.1897H57.7523V53.7444C57.7523 53.8112 57.7788 53.8753 57.826 53.9225C57.8732 53.9697 57.9373 53.9962 58.0041 53.9962H63.0933C63.1601 53.9962 63.2242 53.9697 63.2714 53.9225C63.3186 53.8753 63.3452 53.8112 63.3452 53.7444V53.4895H58.43C58.3398 53.4887 58.2537 53.4523 58.1902 53.3882C58.1267 53.3242 58.0911 53.2377 58.0911 53.1475" fill="#007F41"/>
<path d="M66.4354 28.8734L64.6167 27.0547C64.5523 26.9898 64.4701 26.9454 64.3804 26.9272H64.3089H62.2384C62.1692 26.9155 62.1052 26.8829 62.055 26.8339L60.9793 25.9541L59.8943 26.8122C59.8441 26.8612 59.7801 26.8937 59.7109 26.9054H55.4734H55.4113C55.3471 26.9201 55.2898 26.9561 55.2486 27.0074C55.2074 27.0588 55.1847 27.1225 55.1843 27.1883V27.6267C55.2471 27.5823 55.322 27.5585 55.3988 27.5583H59.2166C59.2503 27.5584 59.2838 27.5516 59.3148 27.5382C59.3458 27.5249 59.3738 27.5052 59.3969 27.4806L60.5409 26.5759L61.6788 27.4806C61.7019 27.5052 61.7298 27.5249 61.7609 27.5382C61.7919 27.5516 61.8253 27.5584 61.8591 27.5583H63.855C63.9278 27.558 63.9998 27.5722 64.0671 27.5999C64.1343 27.6277 64.1954 27.6685 64.2468 27.72L66.0655 29.5356C66.2688 29.7464 66.3806 30.0292 66.3764 30.3221V31.376H66.7214V29.576C66.7204 29.4411 66.6923 29.3078 66.639 29.1839C66.5856 29.06 66.5079 28.9481 66.4106 28.8547" fill="#007F41"/>
<path d="M66.824 51.7237H66.7339V53.7227C66.7342 53.7938 66.7203 53.8642 66.6931 53.9299C66.6659 53.9955 66.6258 54.0551 66.5753 54.1051L66.3888 54.2947L64.6416 56.0419C64.591 56.0925 64.5309 56.1326 64.4647 56.1598C64.3985 56.1871 64.3276 56.2009 64.2561 56.2005H62.2944C62.2506 56.2002 62.2072 56.2086 62.1666 56.2251C62.1261 56.2417 62.0892 56.266 62.0581 56.2969L60.9793 57.1269L59.8943 56.2969C59.8632 56.266 59.8263 56.2417 59.7858 56.2251C59.7452 56.2086 59.7018 56.2002 59.658 56.2005H55.4734C55.3968 56.2005 55.3232 56.17 55.269 56.1158C55.2148 56.0616 55.1843 55.988 55.1843 55.9114V43.1804H55.0071V55.9114C55.0071 56.035 55.0562 56.1537 55.1437 56.2411C55.2311 56.3286 55.3498 56.3777 55.4734 56.3777H59.6518C59.6733 56.3779 59.6946 56.3824 59.7143 56.391C59.7341 56.3995 59.7519 56.4119 59.7668 56.4274C60.9327 57.3228 60.9327 57.3228 60.9638 57.3228H60.9948L62.1607 56.4274C62.1756 56.4119 62.1934 56.3995 62.2132 56.391C62.2329 56.3824 62.2542 56.3779 62.2757 56.3777H64.2374C64.4282 56.3781 64.6114 56.3033 64.7473 56.1694L66.6841 54.2326C66.818 54.0967 66.8928 53.9135 66.8924 53.7227V51.7237H66.8054H66.824Z" fill="white"/>
<path d="M63.74 31.3946H63.8612V29.9956C63.8604 29.9054 63.824 29.8193 63.76 29.7558C63.6959 29.6923 63.6094 29.6567 63.5193 29.6567H58.43C58.3401 29.6567 58.2539 29.6924 58.1904 29.756C58.1268 29.8195 58.0911 29.9057 58.0911 29.9956V39.3814H58.2683V29.9956C58.2683 29.9527 58.2854 29.9116 58.3157 29.8813C58.346 29.851 58.3871 29.8339 58.43 29.8339H63.5193C63.5408 29.8335 63.5621 29.8374 63.5821 29.8453C63.6021 29.8533 63.6203 29.8651 63.6356 29.8802C63.6509 29.8952 63.6631 29.9132 63.6714 29.933C63.6798 29.9528 63.684 29.9741 63.684 29.9956V31.4102L63.74 31.3946Z" fill="white"/>
<path d="M66.5753 28.752L64.7566 26.9364C64.6972 26.8764 64.6265 26.8288 64.5486 26.7962C64.4707 26.7637 64.3871 26.7469 64.3027 26.7467H62.3068C62.2625 26.7461 62.2201 26.7283 62.1887 26.697L60.9793 25.7363L59.7824 26.6845C59.7509 26.7158 59.7086 26.7337 59.6642 26.7343H55.4734C55.3498 26.7343 55.2311 26.7834 55.1437 26.8709C55.0562 26.9583 55.0071 27.0769 55.0071 27.2006V39.3595H55.1843V27.1975C55.1847 27.1317 55.2074 27.0679 55.2486 27.0166C55.2898 26.9652 55.3471 26.9293 55.4113 26.9146H59.6518H59.7078C59.777 26.9029 59.841 26.8704 59.8912 26.8213L60.9793 25.954L62.0581 26.812C62.1083 26.861 62.1723 26.8936 62.2415 26.9053H62.2975H64.312H64.3836C64.4732 26.9235 64.5554 26.9679 64.6198 27.0327L66.4385 28.8515C66.5359 28.9448 66.6135 29.0568 66.6669 29.1806C66.7203 29.3045 66.7484 29.4378 66.7494 29.5727V31.3728H66.9266V29.5727C66.9191 29.2642 66.7934 28.9704 66.5753 28.752Z" fill="white"/>
<path d="M58.0911 53.1382C58.0911 53.2283 58.1267 53.3149 58.1902 53.3789C58.2536 53.4429 58.3398 53.4793 58.43 53.4802H63.5193C63.6097 53.4793 63.6962 53.4431 63.7602 53.3791C63.8241 53.3151 63.8604 53.2286 63.8612 53.1382V51.7236H63.684V53.1382C63.684 53.1597 63.6798 53.1809 63.6714 53.2008C63.6631 53.2206 63.6509 53.2386 63.6356 53.2536C63.6203 53.2687 63.6021 53.2805 63.5821 53.2884C63.5621 53.2964 63.5408 53.3003 63.5193 53.2998H58.43C58.3871 53.2998 58.346 53.2828 58.3157 53.2525C58.2854 53.2222 58.2683 53.1811 58.2683 53.1382V43.1897H58.0911V53.1382Z" fill="white"/>
<path d="M63.5193 29.8184H58.43C58.3871 29.8184 58.346 29.8354 58.3157 29.8657C58.2854 29.896 58.2683 29.9372 58.2683 29.98V39.3658H58.6538V30.2039H63.2985V31.3946H63.684V29.9956C63.6841 29.9741 63.6798 29.9528 63.6714 29.933C63.6631 29.9132 63.6509 29.8952 63.6356 29.8801C63.6203 29.8651 63.6021 29.8532 63.5821 29.8453C63.5621 29.8374 63.5408 29.8335 63.5193 29.8339" fill="#001A54"/>
<path d="M63.5193 51.7237H63.2985V52.9175H58.6538V43.1804H58.2683V53.1289C58.2683 53.1718 58.2854 53.2129 58.3157 53.2432C58.346 53.2735 58.3871 53.2906 58.43 53.2906H63.5193C63.5622 53.2906 63.6033 53.2735 63.6336 53.2432C63.6639 53.2129 63.6809 53.1718 63.6809 53.1289V51.7143L63.5193 51.7237Z" fill="#001A54"/>
<path d="M63.5193 35.2402H63.2954V47.8779H63.5193H63.6809V35.2402H63.5193Z" fill="#001A54"/>
<path d="M67.0759 51.7237H66.9111V53.7227C66.9115 53.9135 66.8366 54.0967 66.7028 54.2326L64.7659 56.1694C64.63 56.3033 64.4468 56.3781 64.2561 56.3777H62.2944C62.2729 56.3779 62.2516 56.3824 62.2318 56.391C62.2121 56.3995 62.1942 56.4119 62.1793 56.4274L61.0135 57.3228H60.9793C60.9482 57.3228 60.9482 57.3228 59.7824 56.4274C59.7675 56.4119 59.7496 56.3995 59.7299 56.391C59.7101 56.3824 59.6889 56.3779 59.6673 56.3777H55.4734C55.3498 56.3777 55.2311 56.3286 55.1437 56.2411C55.0562 56.1537 55.0071 56.035 55.0071 55.9114V43.1804H54.6216V55.9114C54.6216 56.1373 54.7114 56.354 54.8711 56.5137C55.0309 56.6735 55.2475 56.7632 55.4734 56.7632H59.5803L60.6529 57.528C60.7405 57.6077 60.8546 57.6519 60.9731 57.6519C61.0915 57.6519 61.2057 57.6077 61.2933 57.528L62.3659 56.7632H64.2561C64.548 56.7666 64.8294 56.6549 65.0395 56.4523L66.9733 54.5155C67.0739 54.4123 67.1532 54.2902 67.2066 54.1563C67.2599 54.0224 67.2863 53.8793 67.2842 53.7351V51.7361L67.0759 51.7237Z" fill="#001A54"/>
<path d="M66.8334 28.4753L65.0209 26.6566C64.9268 26.5593 64.8143 26.4817 64.6899 26.4284C64.5656 26.375 64.4318 26.3469 64.2965 26.3458H62.3783L61.2902 25.5063C61.2026 25.4242 61.087 25.3784 60.9669 25.3784C60.8467 25.3784 60.7311 25.4242 60.6435 25.5063L59.5679 26.3551H55.4734C55.2475 26.3551 55.0309 26.4448 54.8711 26.6046C54.7114 26.7643 54.6216 26.981 54.6216 27.2069V39.3658H55.0071V27.1976C55.0071 27.0739 55.0562 26.9553 55.1437 26.8678C55.2311 26.7804 55.3498 26.7313 55.4734 26.7313H59.6518C59.6961 26.7306 59.7385 26.7128 59.7699 26.6815L60.9793 25.7364L62.1793 26.6908C62.2108 26.7221 62.2531 26.7399 62.2975 26.7406H64.2934C64.378 26.7397 64.4618 26.756 64.5399 26.7886C64.6179 26.8212 64.6885 26.8694 64.7473 26.9302L66.5753 28.752C66.7989 28.9779 66.9241 29.283 66.9235 29.6008V31.4008H67.309V29.6008C67.3096 29.3929 67.269 29.1869 67.1894 28.9948C67.1099 28.8027 66.9931 28.6283 66.8458 28.4816" fill="#001A54"/>
<path d="M67.0759 35.2402H66.9111V47.8779H67.0759H67.2966V35.2402H67.0759Z" fill="#001A54"/>
<path d="M63.5193 53.4802H63.3452V53.7351C63.3452 53.8019 63.3186 53.866 63.2714 53.9132C63.2242 53.9604 63.1601 53.987 63.0934 53.987H58.0041C57.9373 53.987 57.8732 53.9604 57.826 53.9132C57.7788 53.866 57.7523 53.8019 57.7523 53.7351V43.1804H55.1843V55.9114C55.1843 55.988 55.2148 56.0616 55.269 56.1158C55.3232 56.17 55.3968 56.2005 55.4734 56.2005H59.6518C59.6956 56.2002 59.739 56.2086 59.7795 56.2251C59.8201 56.2417 59.857 56.266 59.8881 56.2969L60.9731 57.1269L62.0581 56.2969C62.0892 56.266 62.1261 56.2417 62.1666 56.2251C62.2072 56.2086 62.2506 56.2002 62.2944 56.2005H64.2561C64.3276 56.2009 64.3985 56.1871 64.4647 56.1598C64.5309 56.1326 64.591 56.0926 64.6416 56.0419L66.3888 54.2947V51.7237H63.8613V53.1382C63.8604 53.2287 63.8242 53.3152 63.7602 53.3791C63.6962 53.4431 63.6097 53.4794 63.5193 53.4802Z" fill="white"/>
<path d="M66.0655 29.5542L64.2468 27.7386C64.1955 27.6866 64.1346 27.6454 64.0673 27.6171C64.0001 27.5888 63.928 27.5741 63.855 27.5738H61.8591C61.8255 27.5745 61.7922 27.5683 61.7611 27.5554C61.7301 27.5426 61.7021 27.5234 61.6788 27.4992L60.5409 26.5945L59.3969 27.5085C59.3736 27.5327 59.3456 27.5519 59.3146 27.5647C59.2835 27.5776 59.2501 27.5838 59.2166 27.5831H55.3988C55.3217 27.5844 55.2468 27.6093 55.1843 27.6546V39.3752H57.7523V30.577C57.7531 30.5104 57.7799 30.4469 57.8269 30.3998C57.874 30.3528 57.9375 30.326 58.0041 30.3252H58.0911V29.9956C58.0911 29.9055 58.1267 29.8189 58.1902 29.7549C58.2537 29.6909 58.3398 29.6545 58.43 29.6536H63.5193C63.6097 29.6545 63.6962 29.6907 63.7602 29.7547C63.8242 29.8187 63.8604 29.9052 63.8613 29.9956V31.4102H66.3888V30.3563C66.393 30.0633 66.2813 29.7806 66.0779 29.5697" fill="white"/>
<path d="M66.3888 35.2402H63.8613V47.8748H66.3888V35.2402Z" fill="white"/>
<path d="M66.7339 35.2402H66.3888V47.8748H66.7339V35.2402Z" fill="#007F41"/>
<path d="M63.7711 35.2402H63.74H63.6809V47.8779H63.74H63.7711H63.8613V35.2402H63.7711Z" fill="white"/>
<path d="M66.852 35.2402H66.824H66.7339V47.8779H66.824H66.852H66.9111V35.2402H66.852Z" fill="white"/>
<path d="M60.9171 23.6441L59.7078 24.4959C59.6956 24.5058 59.6804 24.5114 59.6647 24.5119C59.649 24.5123 59.6336 24.5076 59.6209 24.4984C59.6081 24.4892 59.5988 24.476 59.5943 24.461C59.5897 24.4459 59.5903 24.4298 59.5958 24.4151L60.056 23.0285C60.0602 23.0138 60.0597 22.9982 60.0547 22.9837C60.0497 22.9693 60.0404 22.9567 60.028 22.9477L58.8373 22.0648C58.8244 22.056 58.8147 22.0433 58.8097 22.0286C58.8047 22.0138 58.8047 21.9978 58.8096 21.983C58.8146 21.9683 58.8242 21.9555 58.837 21.9467C58.8499 21.9379 58.8652 21.9335 58.8808 21.9342H60.3575C60.3726 21.9338 60.3872 21.9288 60.3995 21.92C60.4117 21.9111 60.4209 21.8987 60.4259 21.8845L60.8954 20.4855C60.8998 20.4708 60.9089 20.458 60.9212 20.4489C60.9335 20.4397 60.9484 20.4348 60.9638 20.4348C60.9791 20.4348 60.994 20.4397 61.0063 20.4489C61.0186 20.458 61.0277 20.4708 61.0322 20.4855L61.4892 21.8845C61.4942 21.8987 61.5034 21.9111 61.5156 21.92C61.5278 21.9288 61.5425 21.9338 61.5576 21.9342H63.0623C63.0778 21.9335 63.0932 21.9379 63.1061 21.9467C63.1189 21.9555 63.1285 21.9683 63.1335 21.983C63.1384 21.9978 63.1383 22.0138 63.1333 22.0286C63.1284 22.0433 63.1187 22.056 63.1058 22.0648L61.8622 22.9477C61.8494 22.957 61.84 22.9702 61.8355 22.9854C61.831 23.0006 61.8316 23.0169 61.8374 23.0317L62.3255 24.4213C62.3298 24.4359 62.3295 24.4515 62.3248 24.466C62.32 24.4804 62.3109 24.4931 62.2987 24.5022C62.2865 24.5114 62.2718 24.5166 62.2566 24.5171C62.2414 24.5176 62.2264 24.5135 62.2135 24.5053L61.0042 23.6441C60.9922 23.6348 60.9774 23.6297 60.9622 23.6297C60.947 23.6297 60.9322 23.6348 60.9202 23.6441" fill="#001A54"/>
<path d="M62.683 22.1238H61.3524L60.9482 20.8833L60.5285 22.1238H59.2352L60.2953 22.9072L59.8881 24.1352L60.9575 23.3829L62.0208 24.1352L61.5887 22.9072L62.683 22.1238Z" fill="#E94709"/>
<path d="M62.1389 24.297L60.9575 23.4545L59.7731 24.2908L60.2239 22.9322L59.0549 22.0617H60.485L60.9482 20.6907L61.3959 22.0617H62.8695L61.6602 22.9322L62.1389 24.297ZM59.4186 22.1829L60.3513 22.8856L59.9876 23.983L60.942 23.3084L61.8747 23.9768L61.4923 22.8856L62.4716 22.1829H61.284L60.9202 21.0731L60.5472 22.1829H59.4186Z" fill="white"/>
</g>
<defs>
<radialGradient id="paint0_radial_385_1525" cx="0" cy="0" r="1" gradientUnits="userSpaceOnUse" gradientTransform="translate(59.7754 39.885) scale(31.4245)">
<stop stop-color="#009633"/>
<stop offset="0.77" stop-color="#006328"/>
<stop offset="1" stop-color="#005225"/>
</radialGradient>
<clipPath id="clip0_385_1525">
<rect width="70" height="70" fill="white" transform="translate(25 5)"/>
</clipPath>
</defs>
</svg>
