<svg xmlns="http://www.w3.org/2000/svg" width="500.52774pt" height="524.99994pt" viewBox="0 0 500.52774 524.99995"><defs><mask id="c" width="1610.5183" height="1734.3389" x="-1952.2017" y="1319.3023" maskContentUnits="userSpaceOnUse" maskUnits="userSpaceOnUse"><path fill="none" stroke="#fff" stroke-miterlimit="10" stroke-width="50" d="m0 0 378.499-378.499" transform="matrix(.931 0 0 1.25814 -1323.134 2424.573)"/></mask><mask id="d" width="1610.5183" height="1734.3389" x="-1840.5259" y="1319.3023" maskContentUnits="userSpaceOnUse" maskUnits="userSpaceOnUse"><path fill="none" stroke="#fff" stroke-miterlimit="10" stroke-width="50" d="m0 0 378.499-378.499" transform="matrix(.931 0 0 1.25814 -1211.458 2424.573)"/></mask><mask id="e" width="1610.5183" height="1734.3389" x="-1728.8504" y="1319.3023" maskContentUnits="userSpaceOnUse" maskUnits="userSpaceOnUse"><path fill="none" stroke="#fff" stroke-miterlimit="10" stroke-width="50" d="m0 0 378.499-378.499" transform="matrix(.931 0 0 1.25814 -1099.783 2424.573)"/></mask><mask id="f" width="1610.5183" height="1734.3389" x="-1617.1748" y="1319.3023" maskContentUnits="userSpaceOnUse" maskUnits="userSpaceOnUse"><path fill="none" stroke="#fff" stroke-miterlimit="10" stroke-width="50" d="m0 0 378.499-378.499" transform="matrix(.931 0 0 1.25814 -988.107 2424.573)"/></mask><mask id="g" width="1610.5183" height="1734.3389" x="-1505.4992" y="1319.3023" maskContentUnits="userSpaceOnUse" maskUnits="userSpaceOnUse"><path fill="none" stroke="#fff" stroke-miterlimit="10" stroke-width="50" d="m0 0 378.499-378.499" transform="matrix(.931 0 0 1.25814 -876.431 2424.573)"/></mask><mask id="h" width="1610.5183" height="1734.3389" x="-1393.8236" y="1319.3023" maskContentUnits="userSpaceOnUse" maskUnits="userSpaceOnUse"><path fill="none" stroke="#fff" stroke-miterlimit="10" stroke-width="50" d="m0 0 378.499-378.499" transform="matrix(.931 0 0 1.25814 -764.756 2424.573)"/></mask><mask id="i" width="1610.5183" height="1734.3389" x="-1282.148" y="1319.3023" maskContentUnits="userSpaceOnUse" maskUnits="userSpaceOnUse"><path fill="none" stroke="#fff" stroke-miterlimit="10" stroke-width="50" d="m0 0 378.499-378.499" transform="matrix(.931 0 0 1.25814 -653.08 2424.573)"/></mask><mask id="j" width="1610.5183" height="1734.3389" x="-1170.4723" y="1319.3023" maskContentUnits="userSpaceOnUse" maskUnits="userSpaceOnUse"><path fill="none" stroke="#fff" stroke-miterlimit="10" stroke-width="50" d="m0 0 378.499-378.499" transform="matrix(.931 0 0 1.25814 -541.404 2424.573)"/></mask><mask id="k" width="1610.5183" height="1734.3389" x="-1058.7966" y="1319.3023" maskContentUnits="userSpaceOnUse" maskUnits="userSpaceOnUse"><path fill="none" stroke="#fff" stroke-miterlimit="10" stroke-width="50" d="m0 0 378.499-378.499" transform="matrix(.931 0 0 1.25814 -429.729 2424.573)"/></mask><mask id="l" width="1610.5183" height="1734.3389" x="-947.121" y="1319.3023" maskContentUnits="userSpaceOnUse" maskUnits="userSpaceOnUse"><path fill="none" stroke="#fff" stroke-miterlimit="10" stroke-width="50" d="m0 0 378.499-378.499" transform="matrix(.931 0 0 1.25814 -318.053 2424.573)"/></mask><mask id="m" width="1610.5183" height="1734.3389" x="-835.44546" y="1319.3023" maskContentUnits="userSpaceOnUse" maskUnits="userSpaceOnUse"><path fill="none" stroke="#fff" stroke-miterlimit="10" stroke-width="50" d="m0 0 378.499-378.499" transform="matrix(.931 0 0 1.25814 -206.378 2424.573)"/></mask><mask id="n" width="1610.5183" height="1734.3389" x="-723.7698" y="1319.3023" maskContentUnits="userSpaceOnUse" maskUnits="userSpaceOnUse"><path fill="none" stroke="#fff" stroke-miterlimit="10" stroke-width="50" d="m0 0 378.499-378.499" transform="matrix(.931 0 0 1.25814 -94.702 2424.573)"/></mask><mask id="o" width="1610.5183" height="1734.3389" x="-612.0941" y="1319.3023" maskContentUnits="userSpaceOnUse" maskUnits="userSpaceOnUse"><path fill="none" stroke="#fff" stroke-miterlimit="10" stroke-width="50" d="m0 0 378.499-378.499" transform="matrix(.931 0 0 1.25814 16.974 2424.573)"/></mask><mask id="p" width="1610.5183" height="1734.3389" x="-500.41853" y="1319.3023" maskContentUnits="userSpaceOnUse" maskUnits="userSpaceOnUse"><path fill="none" stroke="#fff" stroke-miterlimit="10" stroke-width="50" d="m0 0 378.499-378.499" transform="matrix(.931 0 0 1.25814 128.65 2424.573)"/></mask><mask id="q" width="1610.5183" height="1734.3389" x="-388.74287" y="1319.3023" maskContentUnits="userSpaceOnUse" maskUnits="userSpaceOnUse"><path fill="none" stroke="#fff" stroke-miterlimit="10" stroke-width="50" d="m0 0 378.499-378.499" transform="matrix(.931 0 0 1.25814 240.325 2424.573)"/></mask><mask id="r" width="1610.5183" height="1734.3389" x="-277.06727" y="1319.3023" maskContentUnits="userSpaceOnUse" maskUnits="userSpaceOnUse"><path fill="none" stroke="#fff" stroke-miterlimit="10" stroke-width="50" d="m0 0 378.499-378.499" transform="matrix(.931 0 0 1.25814 352 2424.573)"/></mask><mask id="s" width="1610.5183" height="1734.3389" x="-165.39154" y="1319.3023" maskContentUnits="userSpaceOnUse" maskUnits="userSpaceOnUse"><path fill="none" stroke="#fff" stroke-miterlimit="10" stroke-width="50" d="m0 0 378.499-378.499" transform="matrix(.931 0 0 1.25814 463.676 2424.573)"/></mask><mask id="t" width="1610.5193" height="1734.3389" x="-53.716066" y="1319.3023" maskContentUnits="userSpaceOnUse" maskUnits="userSpaceOnUse"><path fill="none" stroke="#fff" stroke-miterlimit="10" stroke-width="50" d="m0 0 378.5-378.499" transform="matrix(.931 0 0 1.25814 575.352 2424.573)"/></mask><mask id="u" width="1610.5183" height="1734.3389" x="57.959596" y="1319.3023" maskContentUnits="userSpaceOnUse" maskUnits="userSpaceOnUse"><path fill="none" stroke="#fff" stroke-miterlimit="10" stroke-width="50" d="m0 0 378.499-378.499" transform="matrix(.931 0 0 1.25814 687.027 2424.573)"/></mask><clipPath id="a"><path d="M93.31 2379.689h491v-407h-491Z"/></clipPath><clipPath id="b"><path d="M118.487 1972.829s-25.072 0-25.072 25.071v355.298s0 25.07 25.072 25.07h438.777s25.071 0 25.071-25.07V1997.9s0-25.071-25.071-25.071z"/></clipPath></defs><path fill="#2c292a" d="M1599.55 2873.87c0 119.363-92.255 216.171-206.057 216.171-113.826 0-206.11-96.808-206.11-216.172 0-119.363 92.284-216.147 206.11-216.147 113.802 0 206.056 96.784 206.056 216.147" style="stroke-width:6.09741" transform="translate(-1441.934 -3227.487) scale(1.21438)"/><path fill="#eab146" d="M1572.744 2873.87c0 103.857-80.242 188.038-179.257 188.038-99.017 0-179.277-84.18-179.277-188.038 0-103.876 80.26-188.02 179.276-188.02s179.258 84.144 179.258 188.02" style="stroke-width:6.09742" transform="translate(-1441.934 -3227.487) scale(1.21438)"/><path fill="#2c292a" d="M1448.367 2796.594c-2.628 1.78-5.402 3.567-8.347 5.243l104.156 120.565h-25.72l-92.96-113.492c-2.635 1.061-5.202 2.067-8.03 3.043l117.143 140.442h-23.122L1398.35 2818.63c-3.323-1.805-6.561-1.762-9.726 0l-113.168 133.765h-23.115l117.113-140.442a163.265 163.265 0 0 1-7.988-3.043l-93.034 113.492h-25.676l104.138-120.565c-2.945-1.676-5.69-3.463-8.28-5.268l-82.499 99.632h-22.944l93.187-109.29c-2.14-1.994-4.092-3.957-5.952-5.847l-65.315 79.577h-23.975l78.571-92.955c-1.579-2.305-3.006-4.482-4.11-6.42l-35.944 42.437h-22.792s21.792-27.292 41.103-49.486c13.231-15.354 22.896-28.238 33.212-28.238 10.238 0 14.53 6.793 14.53 13.488 0 12.012-14.53 12.012-14.53 15.25 0 7.14 34.591 38.37 43.115 38.37 1.348 0 2.671-.371 3.897-1.036 4.268-18.231 5.121-39.048 6.579-58.26-17.713 0-23.725 1.414-23.725 1.414s-3.476-18.487 20.444-18.487c4.647 0 8.146 7.39 9.92 7.39 3.879 0 5.037-6.848 12.915-6.848 4.402 0 18.085-.085 18.085-.085 0 10.616-8.006 7.92-8.939 13.177-.786 4.786 9.256 40.968 17.939 62.571.445.043.83.165 1.293.165 8.5 0 43.096-31.231 43.096-38.371 0-3.238-14.524-3.238-14.524-15.25 0-6.695 4.232-13.487 14.524-13.487 10.323 0 19.97 12.884 33.206 28.237 19.305 22.195 41.128 49.487 41.128 49.487h-22.774l-35.963-42.438c-1.146 1.939-2.549 4.115-4.128 6.42l78.578 92.955h-23.975l-65.34-79.577a193.386 193.386 0 0 1-5.915 5.847l93.175 109.29h-22.933zm-35.25 199.379s-7.737-2.616-7.737-14.993c0-32.073 32.603-41.03 32.603-85.139 0-26.914-24.036-39.743-24.036-39.743s2.805 8.585 2.805 15.39c0 21.414-47.676 59.767-47.676 105.223 0 15.427 6.933 33.378 6.933 33.378s-17.548-5.988-17.548-41.487c0-45.768 47.316-70.999 47.316-112.504 0-11.53-6.555-23.963-12.287-29.895-20.34 50.444-74.95 61.54-74.95 126.582 0 53.889 43.2 82.54 74.95 82.54 30.64 0 74.279-36.395 74.279-82.54 0-26.127-11.201-51.182-18.713-59.053 0 59.053-31.871 55.614-35.938 102.241m-100.303-75.29s-27.316 17.115-27.316 44.913c0 41.883 52.993 59.419 52.993 59.419s-33.036-33.767-33.036-70.572c0-17.085 7.36-33.76 7.36-33.76m168.66 33.76c0 36.804-33.06 70.572-33.06 70.572s53.029-17.536 53.029-59.42c0-27.797-27.31-44.913-27.31-44.913s7.34 16.677 7.34 33.762" style="stroke-width:6.09742" transform="translate(-1441.934 -3227.487) scale(1.21438)"/></svg>