<svg width="120" height="80" viewBox="0 0 120 80" fill="none" xmlns="http://www.w3.org/2000/svg">
<g clip-path="url(#clip0_385_1919)">
<path d="M53.4141 61.439C53.5405 61.0863 53.6266 60.7199 53.6708 60.3471C53.9236 58.3057 53.2216 54.6918 48.4323 48.9442C48.3039 48.775 36.355 32.9508 50.7458 15.2773C45.7904 17.3065 41.4834 20.694 38.3024 25.0642C35.1214 29.4344 33.1907 34.6166 32.7243 40.0363C32.5405 42.1892 32.5861 44.3561 32.8601 46.499L32.9469 46.4683C39.0497 54.0613 45.896 59.0631 53.4141 61.439Z" fill="#F09712"/>
<path d="M52.3989 62.9729C52.5977 62.8048 52.774 62.6109 52.9235 62.3962C46.3753 60.0895 39.5404 55.5914 33.03 47.6216C33.8023 52.2308 35.6536 56.5827 38.427 60.3086L38.4647 60.2587C38.5478 60.3009 47.2849 66.8982 52.3989 62.9729Z" fill="#F09712"/>
<path d="M49.6437 47.9407C51.9611 50.719 53.5651 53.2692 54.4558 55.5913V14.0701C53.5651 14.3007 52.6819 14.566 51.8139 14.8851C37.6344 31.7743 49.172 47.3294 49.6437 47.9407Z" fill="#F09712"/>
<path d="M54.4558 62.9076C54.1704 63.432 53.7856 63.8933 53.3235 64.2648C48.5908 67.894 42.2276 63.7573 39.5139 61.6543C43.3207 66.2286 48.4156 69.5007 54.1086 71.0273L54.4671 70.4545L54.4558 62.9076Z" fill="#F09712"/>
<path d="M55.2106 60.62C55.1568 61.0482 55.0594 61.4695 54.92 61.8772C56.093 62.1991 57.2824 62.4558 58.4828 62.6461C62.9438 52.4157 68.0993 34.2809 61.8154 13.1897C59.3361 13.1543 56.8626 13.4437 54.4558 14.0508V55.5913C55.1258 57.1741 55.3857 58.9056 55.2106 60.62Z" fill="#F09712"/>
<path d="M82.5996 40.9322C80.1992 51.8354 70.2468 56.9179 69.3901 57.3523C66.2122 59.0747 64.6799 61.1623 64.2346 63.0692C65.9643 63.0518 67.6913 62.9234 69.4052 62.6847C75.6713 61.7715 81.6904 59.5729 87.0983 56.222C90.5888 49.3915 91.3136 41.4399 89.1174 34.0715C86.9212 26.7032 81.9788 20.5044 75.3494 16.8037C81.6749 25.6001 84.3206 33.1277 82.5996 40.9322Z" fill="#F09712"/>
<path d="M54.4558 62.9076V70.4545C55.7635 68.2985 56.9407 66.0633 57.9808 63.7611C56.7948 63.5348 55.6208 63.2473 54.4633 62.8999L54.4558 62.9076Z" fill="#F09712"/>
<path d="M62.5551 65.1222C62.514 64.8677 62.4875 64.6109 62.4758 64.3533C61.487 64.2918 60.4869 64.188 59.4565 64.0342C58.3627 66.5795 57.1018 69.0469 55.6824 71.4196C56.7646 71.6431 57.8583 71.8048 58.9583 71.904C62.2154 72.1943 65.4971 71.9226 68.6654 71.1005C66.6727 70.3816 63.1627 68.6938 62.5551 65.1222Z" fill="#F09712"/>
<path d="M64.0723 64.4031C64.0723 64.5761 64.0723 64.7452 64.1138 64.9067C64.5214 68.1284 68.8126 70.1815 70.0128 70.6966C76.3079 68.6893 81.7484 64.5663 85.4453 59.0015C81.3654 61.2044 73.4888 64.6107 64.0723 64.4031Z" fill="#F09712"/>
<path d="M59.9774 62.8462C60.8228 62.9384 61.6757 63.0077 62.54 63.0423C62.8985 60.601 64.6196 57.9867 68.5145 56.0221L68.5635 55.9759L68.6201 55.9567C68.7334 55.8991 78.9575 50.7896 81.4183 40.4093C83.1544 33.1431 80.7616 25.0311 74.3078 16.2578C71.0805 14.6232 67.5801 13.6216 63.9893 13.3052C63.4986 13.2629 63.0118 13.2321 62.5249 13.2129C69.0013 34.2696 64.3101 52.3621 59.9774 62.8462Z" fill="#F09712"/>
<path d="M17.0918 20.3098C24.3985 26.4342 24.5344 32.3894 24.5344 32.3894C24.5344 32.4894 21.466 50.2666 21.4245 50.4973C20.062 56.3603 9 66.6445 9 66.6445C12.744 65.345 38.4836 56.1757 49.6551 55.9604C50.8007 56.4565 51.9951 56.8264 53.2179 57.0638C54.2485 57.2724 55.2931 57.401 56.3429 57.4483C57.8185 57.5175 60.0264 57.2291 63.0872 56.5602C64.412 56.491 65.3517 56.6294 65.6914 56.7947C68.4428 58.2095 72.4849 59.9972 76.1005 60.5201C78.2851 61.0203 80.5454 61.0738 82.7505 60.6777C82.7505 60.6777 84.4678 60.274 85.2377 59.978C86.219 59.5936 88.1098 58.8746 88.1098 58.8746C91.6236 57.702 96.4356 57.3368 100.414 58.6016C95.092 55.3107 94.1485 53.3192 95.092 48.8557C96.0053 44.5498 93.2917 42.12 93.2917 42.12C99.5191 27.7298 111 26.6303 111 26.6303C96.4846 21.5708 88.8684 24.8502 84.4074 26.8033C78.3084 29.4714 82.2486 26.5188 82.2486 26.5188C75.157 29.0139 65.4008 34.4847 65.4008 34.4847C65.4008 34.4847 57.8525 29.5175 49.7683 30.4633C54.0444 32.8354 52.6517 33.8811 49.3456 32.2357C49.3569 32.2357 31.6109 23.7238 17.0918 20.3098Z" fill="#231815"/>
<path d="M98.7529 25.796C95.5298 25.5845 91.8122 26.1804 88.4721 27.1877C85.2188 28.1834 81.4711 29.8789 78.6594 32.2318C78.6594 32.2318 73.753 36.2416 74.3795 42.2738C74.6663 48.0406 83.8148 47.9445 82.0674 52.581C81.2145 54.8147 78.6443 55.1069 77.0402 54.8878C77.0402 54.8878 72.749 54.684 72.2018 51.0663C72.5188 46.5643 73.0283 39.9478 73.2737 36.7607C73.2797 36.763 73.2865 36.763 73.2925 36.7607C73.2925 33.216 78.1423 30.1288 78.1423 30.1288C67.62 34.527 66.1858 36.4031 66.1858 36.4031L64.8837 52.4849C64.0044 52.0428 63.208 51.716 63.208 50.3435L63.8911 43.6847L56.1466 43.1119C56.7208 43.406 57.1915 43.874 57.4942 44.4515C57.797 45.029 57.9168 45.6878 57.8374 46.3375C57.8374 46.3375 57.2411 50.528 57.0826 51.3931C55.5427 51.4238 54.3577 50.9663 53.5613 50.0321C52.0932 48.3213 52.2819 45.4993 52.5272 43.9692C52.8555 41.9316 53.6972 40.3399 54.9728 39.3557C56.1655 38.4369 57.694 38.0793 59.5018 38.3062C62.0041 38.6253 63.9666 40.932 63.9666 40.932C63.9666 40.932 65.1291 37.5565 64.2761 36.0071C63.4231 34.4578 54.3124 31.9511 54.3124 31.9511C54.3124 31.9511 57.9355 33.4697 55.2635 34.3309C52.9777 34.6453 50.8064 35.5403 48.9493 36.9337C47.7315 37.8648 46.7162 39.043 45.9677 40.3938C45.4129 40.6706 44.5071 41.0204 43.8429 40.7552L37.1438 39.6018L37.8043 33.4197L43.3409 35.2382C45.6054 36.3724 44.8166 37.445 44.8166 37.445L48.4775 34.1886C48.4775 34.1886 33.4527 27.1493 23.2323 24.4004C23.2323 24.4004 27.9613 27.7874 27.2555 32.0895L24.1343 51.1547C23.3984 55.6682 18.2504 60.3355 17.171 61.2659C22.5114 59.409 38.9063 54.0266 49.9796 53.9612C51.1196 54.4878 52.3168 54.8749 53.5462 55.1146C54.4817 55.2982 55.4289 55.4125 56.3806 55.4568C57.9506 55.5336 60.5321 55.0723 62.7778 54.5802C63.6458 54.5225 65.4951 54.4802 66.5519 55.0262C69.0013 56.2833 72.968 58.1018 76.4062 58.5593C78.8896 59.0706 81.5088 59.2475 84.7697 58.0403C88.0359 56.8511 90.7146 54.4054 92.2312 51.2277C93.7408 47.9752 93.1785 45.6608 91.2197 43.6539C89.6648 42.0623 87.5965 41.3895 85.5585 40.6898C85.3849 40.6321 83.211 39.8325 83.0902 38.1947C82.9355 36.2186 86.2718 35.6111 87.2418 35.442C89.8837 34.9845 91.5858 36.0686 93.2804 37.1759C95.4845 33.8926 101.112 27.3607 104.98 26.5687C102.932 26.12 100.847 25.8614 98.7529 25.796ZM41.8464 51.5045L35.8644 51.593L36.7173 43.5771L41.4652 43.9615C43.6127 44.0307 44.326 45.1149 44.56 45.8838C44.5321 47.1303 44.773 48.3679 45.2657 49.5092C44.8393 50.3858 43.8882 51.5045 41.8464 51.5045Z" fill="url(#paint0_linear_385_1919)"/>
<path d="M64.2082 42.57L64.9139 35.9996C59.4829 31.6437 52.4593 31.2554 52.4593 31.2554C56.0107 32.7932 55.6824 33.5852 55.6824 33.5891C55.6824 33.5929 55.6295 33.8582 55.1615 33.9043C50.3873 34.3272 47.183 37.3221 46.2697 39.0983C46.0558 39.5167 45.7211 39.8581 45.3108 40.0767C44.9005 40.2953 44.4343 40.3805 43.975 40.3209L37.6533 39.2214C37.7212 38.5486 38.1137 34.8847 38.2081 34.0312C39.0686 34.3118 42.6805 35.4575 42.6805 35.4575C45.0582 36.2264 44.8846 39.0906 44.8846 39.0906C46.0909 37.0018 47.8344 35.2883 49.9268 34.135C49.7758 34.062 33.1205 26.2921 22.3756 23.6509C22.3756 23.6509 26.5535 27.8991 26.3158 32.0166L23.1983 51.0818C23.1983 51.0818 21.8547 57.4715 15.1103 62.4925C19.9563 60.8047 38.8346 54.515 49.9344 54.4189C51.0736 54.9439 52.2694 55.331 53.4971 55.5723C54.4364 55.7582 55.3873 55.8764 56.3429 55.926C57.6864 55.9913 59.8641 55.6953 62.8231 55.0494C63.5779 55.0033 65.3668 54.9495 66.333 55.4339C68.9749 56.8025 72.8811 58.5403 76.3081 59.0132C79.1353 59.6887 82.0953 59.5015 84.8188 58.4749C88.3184 57.2969 91.2241 54.7663 92.9105 51.4278C94.4806 48.2061 94.1145 45.6302 91.7594 43.3274C90.1139 41.7203 86.6417 40.5631 85.9095 40.2786C84.9433 39.8941 83.0525 39.5097 83.4035 38.0219C83.7809 36.4648 85.9095 35.6805 87.4003 35.6613C90.1894 35.6267 91.884 36.6109 93.537 38.2448C95.8506 32.9586 102.92 27.3032 106.218 26.6266C103.199 25.5962 98.7642 25.3348 98.7642 25.3348C95.2346 25.2541 91.7141 25.7327 88.3287 26.7534C86.0642 27.4416 82.075 29.0256 78.8066 31.8782C78.6065 32.0359 73.5228 36.1073 74.1304 42.3278C74.2814 45.4342 76.7723 46.9412 78.9575 48.2522C81.3126 49.667 82.3542 50.559 81.6409 52.4236C80.7427 54.7841 77.6932 54.5304 77.0931 54.4497H77.0554C76.8968 54.4497 72.6509 54.1805 72.6509 51.4624C72.9642 47.0412 73.7228 36.8031 73.7228 36.8031C73.7228 36.8031 73.9945 33.2123 79.2896 29.2909C70.0543 32.8855 65.7782 36.1803 65.7782 36.1803C65.7782 36.1803 64.646 49.6632 64.5214 51.0357C63.7062 50.6897 63.71 49.7209 63.7062 48.9712C63.7062 48.8943 64.3969 43.2505 64.3969 43.2505L55.3993 42.7968C55.4899 42.8237 57.4185 44.3346 57.4185 45.9993C57.424 46.0915 57.424 46.1839 57.4185 46.2761C57.4185 46.3069 56.9429 49.6017 56.7278 50.9165C55.5088 50.8665 54.5577 50.4821 53.9198 49.7324C53.0669 48.7367 52.8291 47.2988 52.8291 46.0108C52.8328 45.3501 52.8871 44.6907 52.9914 44.0386C53.3009 42.1163 54.0859 40.6285 55.2559 39.7212C56.3504 38.8753 57.7695 38.5678 59.4641 38.76C59.4376 38.76 63.5854 39.4597 64.2082 42.57ZM25.2741 25.477C34.2075 28.1682 45.613 33.1277 47.9567 34.2081C46.8964 34.9173 45.9601 35.8022 45.1865 36.8262C44.9525 35.2884 42.9446 34.6425 42.9446 34.6425L37.4155 32.8163L36.6607 39.9826L43.741 41.209C43.741 41.209 45.7602 41.6165 46.7037 40.1364C47.3142 39.0042 48.1811 38.0368 49.2324 37.3145C51.0297 35.968 53.1312 35.1045 55.3427 34.804C56.7127 34.6386 56.5731 33.5891 56.5731 33.5891C56.5731 33.2046 56.1957 32.8202 55.5578 32.4357C61.6946 34.1273 64.0836 36.2803 64.0836 36.2803L63.7062 40.0287C62.5822 38.8742 61.1295 38.1101 59.5547 37.845C57.6185 37.6066 55.9843 37.9949 54.6898 38.9984C53.3235 40.0518 52.4253 41.7434 52.0743 43.8963C51.8177 45.5072 51.6252 48.4867 53.2065 50.3475C54.0935 51.3817 55.3918 51.8853 57.075 51.8623H57.4525L57.5204 51.5009C57.6902 50.6282 58.2752 46.5875 58.2752 46.4145C58.291 46.287 58.2998 46.1586 58.3016 46.0301C58.3289 45.6049 58.2692 45.1787 58.1263 44.7783C57.9834 44.3779 57.7603 44.0121 57.4713 43.7041C59.532 43.8271 62.7363 44.0886 63.3816 44.1385C63.3024 44.9613 62.8231 50.0015 62.8231 50.0015C62.8231 51.3394 63.8874 51.9814 65.1479 52.6043C65.1479 52.6043 66.5934 37.0799 66.6236 36.6763C67.2086 36.2495 69.4203 34.4887 75.5985 31.7129C74.0889 33.0739 73.0095 34.604 72.8472 36.7878L71.764 51.5932C71.764 54.9956 76.6704 55.3608 77.0063 55.3877C79.0858 55.6415 81.6145 55.0879 82.4901 52.7657C83.5167 50.0746 81.5353 48.752 79.4104 47.4679C77.2856 46.1839 75.1419 44.9036 75.0173 42.2778C74.4663 36.5609 79.3123 32.6664 79.3614 32.6202C82.0752 30.3396 85.2179 28.648 88.5967 27.6492C92.1368 26.5689 95.7298 26.0806 98.7227 26.2729C100.178 26.3327 101.63 26.4726 103.071 26.6919C100.221 27.8069 95.7713 31.8321 93.1747 36.2418C91.0008 34.8808 89.31 34.4118 87.1361 34.6117C86.0869 34.7117 82.792 35.4421 82.2976 38.1526C81.9768 39.8788 84.2489 40.6708 85.6302 41.2282C86.8002 41.7011 89.4685 42.5469 90.8838 44.0002C92.8577 46.0185 93.1483 48.1946 91.8123 51.0511C90.3565 54.1297 87.7634 56.4961 84.5999 57.633C82.0017 58.6002 79.1829 58.7739 76.4892 58.1328H76.459C73.1491 57.6791 69.3486 55.9875 66.7482 54.6457C65.6159 54.0575 63.7515 54.0844 62.74 54.1498H62.6759C59.8188 54.7765 57.6449 55.0802 56.3919 55.0187C55.4644 54.9742 54.5412 54.8625 53.6292 54.6842C52.4349 54.4507 51.2719 54.0739 50.1646 53.5616L50.0702 53.5154H49.9721C39.9593 53.5808 25.5081 58.0097 19.0241 60.1742C21.0055 58.1981 24.0173 54.6996 24.5834 51.2548L27.7009 32.1897C28.3085 28.9756 25.2741 25.477 25.2741 25.477Z" fill="white"/>
<path d="M36.272 43.5232L35.3624 52.0582L41.8539 51.9582C44.1184 51.9582 45.194 50.7164 45.6847 49.6707L45.7753 49.4823L45.6884 49.2862C45.2206 48.2058 44.9925 47.0336 45.0204 45.853V45.7762L44.994 45.7108C44.7449 44.915 43.9599 43.5694 41.4878 43.4886L36.7588 43.1042L36.3399 43.085L36.272 43.5232ZM37.1211 44.0653L41.4312 44.4036C43.2277 44.469 43.8806 45.2571 44.1109 45.9415C44.1053 47.1441 44.3296 48.3363 44.7713 49.4516C44.209 50.5088 43.2277 51.0547 41.8464 51.0547L36.3701 51.1393C36.4607 50.2743 37.0419 44.8035 37.1211 44.0653Z" fill="white"/>
<path d="M44.1939 45.8108C44.1939 45.8108 43.5108 51.0432 48.7417 52.1466C48.7417 52.1466 45.5111 51.1778 45.0166 45.8531" fill="white"/>
<path d="M74.689 53.9498C74.689 53.9498 69.9071 52.2582 68.6503 49.9514C68.6503 49.9514 69.6694 53.4999 74.6059 54.8571L74.689 53.9498Z" fill="white"/>
<path d="M75.591 27.4146C75.9275 27.4009 76.2501 27.2743 76.5088 27.0547C76.7674 26.835 76.9476 26.5344 77.0214 26.1997L79.8331 10.7484C79.8727 10.6075 79.8798 10.4592 79.8537 10.315C79.8277 10.1709 79.7693 10.0349 79.683 9.91756C79.5967 9.80027 79.485 9.70492 79.3565 9.63896C79.228 9.573 79.0863 9.53822 78.9424 9.53735H48.0397C47.6916 9.53906 47.354 9.65913 47.0805 9.87853C46.8071 10.0979 46.6133 10.4041 46.5301 10.7484L43.4428 26.1997C43.4035 26.3454 43.3985 26.4986 43.4283 26.6467C43.458 26.7948 43.5216 26.9336 43.6139 27.052C43.7061 27.1703 43.8245 27.2649 43.9594 27.3279C44.0943 27.3909 44.2419 27.4206 44.3901 27.4146H75.591Z" fill="#034196"/>
<path d="M57.8752 15.8964L56.6712 21.8477C56.6712 21.8477 55.8598 25.2732 60.2868 25.2732C60.2868 25.2732 64.178 25.4078 65.2536 22.2553L65.6084 20.4906H62.5891L62.306 21.8939C62.2125 22.2289 62.0071 22.5201 61.7253 22.7173C61.4435 22.9145 61.1029 23.0054 60.7624 22.9742C60.7624 22.9742 59.4716 23.1087 59.7547 22.0284L60.9851 15.8964C60.9851 15.8964 61.019 14.8814 62.4155 14.7699C62.4155 14.7699 63.676 14.7699 63.5477 15.7579L63.2382 17.2958H66.2575L66.567 15.7579C66.567 15.7579 67.1633 12.467 62.8419 12.5593C62.8382 12.5593 58.6942 12.74 57.8752 15.8964Z" fill="white"/>
<path d="M67.118 15.8964L65.9179 21.8477C65.9179 21.8477 65.1026 25.2732 69.5297 25.2732C69.5297 25.2732 73.4208 25.4078 74.5003 22.2553L74.8513 20.4906H71.8168L71.5413 21.8939C71.4464 22.2288 71.2401 22.5197 70.9578 22.7167C70.6756 22.9138 70.3348 23.0048 69.9939 22.9742C69.9939 22.9742 68.7032 23.1087 68.9825 22.0284L70.2166 15.8964C70.2166 15.8964 70.2506 14.8814 71.647 14.7699C71.647 14.7699 72.9076 14.7699 72.7792 15.7579L72.4735 17.2958H75.4929L75.7986 15.7579C75.7986 15.7579 76.3987 12.467 72.081 12.5593C72.0848 12.5593 67.9408 12.74 67.118 15.8964Z" fill="white"/>
<path d="M62.0682 9.57593H58.5507L52.3498 16.4654L53.3349 11.9749L50.1306 11.9711L47.3868 24.9542H50.5911L51.3346 21.3326L52.1611 20.3561L53.2632 24.9542H56.441L54.5992 17.8879L62.0682 9.57593Z" fill="white"/>
<path d="M64.3855 7H60.8605L58.5507 9.57586H62.0607L64.3855 7Z" fill="#E51F1F"/>
<path d="M45.0204 46.5374C45.0226 43.8322 45.8596 41.1961 47.4132 39.0021L47.1339 38.1562L46.1904 39.2289C44.9676 41.1512 44.1448 41.3126 44.0769 45.6032L45.0204 46.5374Z" fill="white"/>
<path d="M46.681 38.3831C45.6937 39.5292 44.9567 40.8759 44.5189 42.3341C44.081 43.7922 43.9522 45.3284 44.141 46.8411L44.8619 46.695C44.8619 46.695 44.5147 41.5356 47.5038 38.6483L46.681 38.3831Z" fill="white"/>
<path d="M44.843 39.0981C44.843 39.0981 43.1937 40.932 43.0843 45.7646L44.0467 45.8569C44.0832 43.5288 44.7351 41.2537 45.9338 39.2711L44.843 39.0981Z" fill="#231815"/>
<path d="M44.2882 40.0249C44.2882 40.0249 43.3673 41.7319 43.073 45.242C43.073 45.242 42.956 44.6691 42.0841 44.45C42.3778 43.0087 42.7868 41.5943 43.307 40.221C43.6459 40.256 43.9874 40.1878 44.2882 40.0249Z" fill="white"/>
<path d="M42.2691 40.9744C42.5663 41.0411 42.8752 41.0306 43.1673 40.9436C42.8517 41.8422 42.6463 42.7771 42.5559 43.7271C42.5559 43.7271 42.3672 43.4887 41.586 43.4656L42.2691 40.9744Z" fill="#0081C4"/>
</g>
<defs>
<linearGradient id="paint0_linear_385_1919" x1="61.0719" y1="35.3343" x2="61.0719" y2="47.1871" gradientUnits="userSpaceOnUse">
<stop stop-color="#00A0DF"/>
<stop offset="1" stop-color="#0069B4"/>
</linearGradient>
<clipPath id="clip0_385_1919">
<rect width="102" height="65" fill="white" transform="translate(9 7)"/>
</clipPath>
</defs>
</svg>
