<svg width="122" height="80" viewBox="0 0 122 80" fill="none" xmlns="http://www.w3.org/2000/svg">
<path d="M27.4305 56.3054V56.6592C27.4252 56.7844 27.4525 56.9088 27.5098 57.0203C27.5421 57.0665 27.5863 57.1031 27.6378 57.1262C27.6892 57.1493 27.746 57.158 27.802 57.1514C27.8533 57.1544 27.9047 57.1467 27.9528 57.1288C28.001 57.1109 28.0449 57.0833 28.0819 57.0475C28.1158 57.0125 28.1423 56.9711 28.1597 56.9256C28.1772 56.8801 28.1852 56.8315 28.1834 56.7829C28.1842 56.6969 28.1677 56.6117 28.1349 56.5323C28.1022 56.4528 28.0538 56.3807 27.9927 56.3203C27.8127 56.143 27.6171 55.9824 27.4082 55.8404L27.3117 55.7686L27.168 55.6499C27.0392 55.5509 26.9377 55.4644 26.8584 55.3902C26.7753 55.3168 26.7013 55.2338 26.638 55.1428C26.5708 55.0458 26.519 54.939 26.4845 54.8261C26.4453 54.6911 26.4261 54.5511 26.4275 54.4106C26.412 54.2255 26.4362 54.0393 26.4986 53.8644C26.561 53.6895 26.66 53.5299 26.7891 53.3963C27.0843 53.1627 27.4559 53.0472 27.8317 53.0723C28.2049 53.0427 28.5755 53.1549 28.8694 53.3864C28.9839 53.5021 29.0728 53.6405 29.1303 53.7926C29.1879 53.9447 29.2129 54.1072 29.2037 54.2696V54.7025H28.1784V54.4551C28.1824 54.3246 28.1588 54.1948 28.1091 54.0741C28.083 54.0247 28.0425 53.9843 27.993 53.9583C27.9435 53.9322 27.8873 53.9217 27.8317 53.9282C27.731 53.923 27.6322 53.9577 27.5568 54.0247C27.5225 54.0588 27.4957 54.0998 27.4782 54.145C27.4607 54.1902 27.4529 54.2385 27.4553 54.2869C27.4631 54.3609 27.4855 54.4327 27.5212 54.4981C27.5569 54.5635 27.6052 54.6212 27.6633 54.6678C27.8634 54.8492 28.0734 55.0193 28.2924 55.1774L28.3691 55.2368L28.5598 55.3951C28.663 55.4725 28.7622 55.555 28.857 55.6425C28.9363 55.7216 29.0061 55.8095 29.065 55.9047C29.1353 56.0202 29.1887 56.1451 29.2235 56.2757C29.2661 56.4413 29.2861 56.6119 29.283 56.7829C29.2819 56.9194 29.255 57.0545 29.2037 57.1811C29.1494 57.3294 29.0651 57.465 28.9561 57.5794C28.8253 57.714 28.6663 57.8179 28.4905 57.8837C28.267 57.9656 28.0301 58.005 27.7921 57.9999C27.5662 58.0059 27.3411 57.9699 27.1284 57.8936C26.9617 57.8309 26.8105 57.733 26.6851 57.6066C26.4822 57.394 26.3695 57.1112 26.3706 56.8175V56.3054H27.4305Z" fill="white"/>
<path d="M32.1211 53.1541H34.5654V54.0743H33.2207V55.0192H34.3946V55.937H33.2207V56.9982H34.6174V57.916H32.1211V53.1541Z" fill="white"/>
<path d="M37.4977 54.4575C37.4847 54.2684 37.5124 54.0786 37.5791 53.9011C37.6457 53.7236 37.7497 53.5624 37.884 53.4285C38.178 53.2006 38.5396 53.0769 38.9118 53.0769C39.2839 53.0769 39.6455 53.2006 39.9395 53.4285C40.0747 53.5619 40.1794 53.7229 40.2465 53.9006C40.3136 54.0782 40.3415 54.2681 40.3283 54.4575V56.622C40.3382 56.8071 40.3093 56.9922 40.2437 57.1655C40.178 57.3388 40.077 57.4966 39.947 57.6288C39.6559 57.8687 39.2903 57.9999 38.913 57.9999C38.5357 57.9999 38.1701 57.8687 37.879 57.6288C37.749 57.4966 37.648 57.3388 37.5823 57.1655C37.5167 56.9922 37.4878 56.8071 37.4977 56.622V54.4575ZM38.5972 56.7185C38.5947 56.7638 38.5947 56.8092 38.5972 56.8546C38.6006 56.9019 38.6132 56.9481 38.6344 56.9906C38.653 57.0381 38.6859 57.0787 38.7285 57.1069C38.7826 57.1404 38.8458 57.1559 38.9093 57.1514C38.9719 57.1557 39.0344 57.1402 39.0876 57.1069C39.1294 57.0772 39.1627 57.0371 39.1842 56.9906C39.2012 56.9468 39.2129 56.9011 39.2189 56.8546C39.2189 56.81 39.2189 56.7655 39.2189 56.7185V54.361C39.2189 54.2992 39.2189 54.2473 39.2189 54.2027C39.2132 54.1585 39.2015 54.1152 39.1842 54.0741C39.1625 54.0297 39.1291 53.9921 39.0876 53.9652C39.0318 53.9376 38.9703 53.9232 38.908 53.9232C38.8457 53.9232 38.7843 53.9376 38.7285 53.9652C38.6859 53.9901 38.6528 54.0284 38.6344 54.0741C38.613 54.1138 38.6003 54.1577 38.5972 54.2027C38.5945 54.2555 38.5945 54.3083 38.5972 54.361V56.7185Z" fill="white"/>
<path d="M43.2086 53.1541H44.3081V56.6346C44.3006 56.7579 44.3175 56.8814 44.3577 56.9982C44.3923 57.0774 44.4815 57.117 44.6227 57.117C44.7638 57.117 44.8554 57.0774 44.8901 56.9982C44.9292 56.8811 44.946 56.7578 44.9396 56.6346V53.1541H46.0417V56.6173C46.0513 56.8027 46.022 56.9882 45.9554 57.1616C45.8889 57.335 45.7866 57.4925 45.6554 57.6241C45.3647 57.8637 44.9996 57.9948 44.6227 57.9948C44.2457 57.9948 43.8806 57.8637 43.5899 57.6241C43.4603 57.4916 43.3595 57.3338 43.2939 57.1605C43.2282 56.9872 43.1992 56.8023 43.2086 56.6173V53.1541Z" fill="white"/>
<path d="M48.9194 53.1541H50.019V56.9982H51.2127V57.916H48.9194V53.1541Z" fill="white"/>
<path d="M58.0282 56.3054V56.6592C58.0229 56.7844 58.0502 56.9088 58.1074 57.0203C58.1397 57.0665 58.1839 57.1031 58.2354 57.1262C58.2869 57.1493 58.3436 57.158 58.3996 57.1514C58.4497 57.1553 58.4999 57.1486 58.5472 57.1316C58.5944 57.1146 58.6374 57.0878 58.6735 57.053C58.7095 57.0181 58.7378 56.976 58.7563 56.9295C58.7749 56.8829 58.7833 56.8329 58.781 56.7829C58.7812 56.697 58.7645 56.612 58.7318 56.5326C58.6991 56.4532 58.651 56.3811 58.5903 56.3203C58.4109 56.1424 58.2152 55.9818 58.0059 55.8404L57.9118 55.7686L57.7656 55.6499C57.6393 55.5509 57.5353 55.4644 57.4561 55.3902C57.3731 55.3174 57.2998 55.2343 57.2381 55.1428C57.1691 55.0465 57.1164 54.9395 57.0821 54.8261C57.0418 54.6914 57.0226 54.5512 57.0252 54.4106C57.0096 54.2255 57.0339 54.0393 57.0962 53.8644C57.1586 53.6895 57.2576 53.5299 57.3867 53.3963C57.6819 53.1627 58.0536 53.0472 58.4294 53.0723C58.8025 53.0427 59.1731 53.1549 59.467 53.3864C59.5818 53.502 59.6711 53.6403 59.7291 53.7924C59.7871 53.9445 59.8126 54.107 59.8038 54.2696V54.7025H58.7761V54.4551C58.7813 54.3246 58.7576 54.1945 58.7067 54.0741C58.6812 54.0242 58.6408 53.9834 58.5912 53.9573C58.5415 53.9312 58.485 53.921 58.4294 53.9282C58.3286 53.923 58.2298 53.9577 58.1545 54.0247C58.1201 54.0588 58.0933 54.0998 58.0759 54.145C58.0584 54.1902 58.0506 54.2385 58.0529 54.2869C58.0607 54.3609 58.0831 54.4327 58.1188 54.4981C58.1545 54.5635 58.2028 54.6212 58.261 54.6678C58.4611 54.848 58.6703 55.0181 58.8875 55.1774L58.9668 55.2368L59.1599 55.3951C59.2813 55.4916 59.3803 55.5757 59.4546 55.6425C59.5339 55.7216 59.6037 55.8095 59.6627 55.9047C59.7339 56.0197 59.7873 56.1448 59.8212 56.2757C59.8637 56.4413 59.8837 56.6119 59.8806 56.7829C59.8792 56.9191 59.8532 57.0541 59.8038 57.1811C59.7475 57.3284 59.6634 57.4636 59.5562 57.5794C59.4241 57.7135 59.2644 57.8173 59.0881 57.8837C58.8647 57.9658 58.6278 58.0052 58.3897 57.9999C58.1638 58.0059 57.9387 57.9699 57.726 57.8936C57.5599 57.8312 57.4094 57.7332 57.2852 57.6066C57.1784 57.4971 57.0943 57.3676 57.0375 57.2257C56.9892 57.095 56.964 56.9568 56.9632 56.8175V56.3054H58.0282Z" fill="white"/>
<path d="M63.3998 53.1541H64.8584L65.7549 57.9209H64.6009L64.4993 57.0724H63.7291L63.6152 57.9209H62.5156L63.3998 53.1541ZM63.8406 56.2264H64.3904L64.1427 53.8937H64.1303L63.8406 56.2264Z" fill="white"/>
<path d="M68.4593 53.1539H70.1929L70.495 55.5138H70.5074L70.817 53.1489H72.5506V57.9158H71.4856V54.2052L70.8715 57.9158H70.1558L69.5391 54.2052H69.5267V57.9158H68.4643L68.4593 53.1539Z" fill="white"/>
<path d="M76.4883 56.3056V56.6593C76.483 56.7845 76.5103 56.909 76.5675 57.0205C76.5996 57.0669 76.6438 57.1036 76.6953 57.1267C76.7468 57.1498 76.8037 57.1584 76.8598 57.1516C76.9098 57.1555 76.9601 57.1487 77.0073 57.1318C77.0545 57.1148 77.0975 57.088 77.1336 57.0531C77.1697 57.0183 77.1979 56.9762 77.2164 56.9296C77.235 56.883 77.2434 56.8331 77.2411 56.783C77.242 56.6968 77.2253 56.6114 77.1921 56.5319C77.1589 56.4524 77.1099 56.3804 77.048 56.3204C76.8695 56.1425 76.6747 55.9818 76.466 55.8405C76.4462 55.8232 76.4115 55.8009 76.3694 55.7688L76.2258 55.65C76.097 55.5511 75.9954 55.4645 75.9162 55.3903C75.8332 55.3176 75.7599 55.2344 75.6983 55.1429C75.6292 55.0466 75.5765 54.9397 75.5422 54.8263C75.5019 54.6915 75.4827 54.5513 75.4853 54.4107C75.4691 54.2256 75.493 54.0393 75.5554 53.8642C75.6178 53.6892 75.7172 53.5297 75.8468 53.3965C76.1418 53.1624 76.5136 53.0468 76.8895 53.0724C77.262 53.0415 77.6323 53.1539 77.9247 53.3866C78.0408 53.5013 78.1311 53.6393 78.1896 53.7916C78.2481 53.9439 78.2735 54.1069 78.264 54.2697V54.7026H77.2362V54.4552C77.2402 54.3248 77.2165 54.195 77.1668 54.0743C77.1407 54.0248 77.1003 53.9844 77.0508 53.9584C77.0013 53.9324 76.9451 53.9219 76.8895 53.9283C76.8395 53.9255 76.7896 53.9326 76.7424 53.9491C76.6952 53.9657 76.6518 53.9914 76.6146 54.0248C76.5802 54.059 76.5535 54.1 76.536 54.1452C76.5185 54.1903 76.5107 54.2386 76.513 54.287C76.5208 54.3611 76.5432 54.4329 76.5789 54.4983C76.6146 54.5637 76.6629 54.6213 76.7211 54.668C76.9213 54.8482 77.1304 55.0183 77.3476 55.1776L77.4269 55.2369L77.6176 55.3952C77.7414 55.4917 77.838 55.5758 77.9148 55.6426C77.9933 55.7223 78.063 55.8102 78.1228 55.9048C78.193 56.0203 78.2464 56.1453 78.2813 56.2759C78.3229 56.4416 78.3421 56.6122 78.3383 56.783C78.3378 56.9191 78.3126 57.0541 78.264 57.1813C78.2076 57.3286 78.1235 57.4638 78.0163 57.5795C77.8856 57.7141 77.7265 57.8181 77.5507 57.8838C77.3273 57.9659 77.0904 58.0054 76.8523 58.0001C76.6264 58.0061 76.4013 57.97 76.1886 57.8937C76.0222 57.8319 75.8716 57.7339 75.7478 57.6067C75.641 57.4972 75.5569 57.3678 75.5001 57.2258C75.4518 57.0951 75.4266 56.957 75.4258 56.8176V56.3056H76.4883Z" fill="white"/>
<path d="M81.1763 53.1541H82.2759V56.6346C82.269 56.758 82.2866 56.8816 82.3279 56.9982C82.3626 57.0774 82.4518 57.117 82.5929 57.117C82.7341 57.117 82.8257 57.0774 82.8579 56.9982C82.8992 56.8816 82.9169 56.758 82.9099 56.6346V53.1541H84.0095V56.6173C84.019 56.8025 83.9898 56.9877 83.9237 57.161C83.8576 57.3344 83.7561 57.4921 83.6256 57.6241C83.335 57.8637 82.9698 57.9948 82.5929 57.9948C82.216 57.9948 81.8509 57.8637 81.5602 57.6241C81.4297 57.4921 81.3282 57.3344 81.2622 57.161C81.1961 56.9877 81.1668 56.8025 81.1763 56.6173V53.1541Z" fill="white"/>
<path d="M86.8873 53.1541H88.0908L88.975 55.9667V53.1541H90.0597V57.9209H88.8635L87.9744 54.9747V57.9209H86.9071L86.8873 53.1541Z" fill="white"/>
<path d="M92.9275 54.4577C92.9143 54.2684 92.9423 54.0784 93.0094 53.9008C93.0765 53.7232 93.1812 53.5621 93.3163 53.4287C93.6023 53.1862 93.9694 53.0607 94.3441 53.0774C94.5291 53.0758 94.7136 53.0957 94.8939 53.1368C95.0548 53.1729 95.2071 53.2402 95.3421 53.3347C95.4735 53.4271 95.5792 53.5514 95.6492 53.6958C95.7277 53.8689 95.7658 54.0575 95.7607 54.2475V54.7719H94.7156V54.2945C94.7216 54.1943 94.6918 54.0952 94.6314 54.0149C94.5971 53.9803 94.5556 53.9536 94.5097 53.9369C94.4639 53.9202 94.415 53.9139 94.3664 53.9185C94.3072 53.9174 94.2489 53.9329 94.198 53.963C94.1547 53.991 94.119 54.0292 94.094 54.0743C94.0696 54.1184 94.052 54.1659 94.042 54.2153C94.0331 54.2618 94.029 54.309 94.0296 54.3563V56.7138C94.0296 56.7608 94.0296 56.8053 94.0296 56.8498C94.0354 56.8967 94.0479 56.9425 94.0667 56.9859C94.086 57.0337 94.1198 57.0744 94.1633 57.1021C94.2164 57.1358 94.2789 57.1514 94.3416 57.1467C94.3898 57.1534 94.4389 57.1488 94.485 57.1332C94.5311 57.1176 94.5729 57.0915 94.6071 57.0568C94.6413 57.0222 94.6669 56.9801 94.6818 56.9339C94.6968 56.8876 94.7007 56.8385 94.6933 56.7905V56.1819H94.307V55.2963H95.7557V57.9209H94.7924V57.535H94.78C94.6951 57.6805 94.5739 57.8015 94.4283 57.8863C94.2755 57.9654 94.1051 58.0045 93.933 58.0001C93.7659 58.0055 93.6002 57.9671 93.4526 57.8888C93.3242 57.8179 93.2166 57.7147 93.1405 57.5895C93.0629 57.4532 93.0077 57.3054 92.9771 57.1516C92.9423 56.9773 92.9249 56.8 92.9251 56.6222L92.9275 54.4577Z" fill="white"/>
<g filter="url(#filter0_d_998_10351)">
<path d="M95.8771 47.1205L95.1564 47.5732L94.5026 47.0339C93.7002 46.3685 92.4644 45.7278 91.236 44.9906C90.0077 44.2535 88.7372 43.3877 87.9596 41.9628V41.9405V41.9257C87.5635 41.074 87.217 40.2001 86.9219 39.3085L86.5727 38.2572H84.1507C84.3835 39.0315 84.5593 39.6054 84.6113 39.7414L85.2082 41.4557V44.0358H77.6126C76.8696 44.6097 76.0945 44.8645 75.5695 45.1119C75.3158 45.2083 75.0805 45.3471 74.8736 45.5225L73.9003 46.5417L72.9716 45.4903C72.5803 45.0787 72.1159 44.7432 71.6021 44.5008C71.3544 44.3648 71.0795 44.2164 70.7947 44.0383H64.8956C64.8683 44.063 64.8461 44.0877 64.8188 44.11C64.2448 44.6055 63.5069 44.87 62.7484 44.8521C62.298 44.846 61.8501 44.782 61.416 44.6616H61.3764L61.3368 44.6468C60.9335 44.5171 60.558 44.3132 60.2298 44.0457H48.278C47.3419 45.0154 45.8015 46.225 43.2878 47.353L41.6731 48.0927C41.9455 46.8311 41.0292 45.6561 41.0292 45.6561C40.7745 45.3559 40.4899 45.0824 40.1797 44.8397C40.0931 44.7631 40.0014 44.6839 39.9098 44.5924H32.817C32.6293 44.8028 32.422 44.995 32.1979 45.1663C31.7596 45.492 31.2841 45.7644 30.7813 45.9777C30.2418 46.2135 29.6845 46.4062 29.1146 46.554L28.9759 46.606C28.9759 46.606 26.96 47.5138 27.0169 49.1193L25.6202 48.0358C21.1624 43.3926 22.1654 38.8212 22.7598 37.5843C22.9456 37.1268 23.1667 36.6843 23.421 36.2609C16.5882 37.7303 4.00247 28.9362 4.00247 28.9362V26.3512C16.8953 29.2949 26.4548 28.5775 26.4548 28.5775H26.5811C27.0491 27.4025 27.6955 25.7723 27.698 25.7699L28.0224 24.956H34.2881C34.2881 24.956 38.7632 24.1966 41.2001 21.9875L39.7686 25.3345C39.521 25.901 39.2907 26.4897 39.0603 27.0809C39.1941 27.0686 39.3328 27.0636 39.4764 27.0636C39.7061 27.0571 39.9358 27.0796 40.1599 27.1304L55.3584 27.1947C55.8802 27.0136 56.4283 26.92 56.9806 26.9177H57.0128C57.5089 26.9086 58.0003 27.0141 58.4488 27.2261C58.8973 27.4381 59.2907 27.7508 59.5983 28.1397C59.7145 28.2843 59.8172 28.4391 59.9054 28.6023L60.0168 28.4613C60.4804 27.9247 61.1125 27.561 61.8098 27.4297C62.0585 27.3799 62.3115 27.3551 62.5652 27.3555C62.9879 27.3534 63.4074 27.428 63.8034 27.5757V27.0809C63.8034 26.7297 63.8034 26.413 63.8034 26.1582L63.8381 25.1267L64.856 24.9337C65.169 24.89 65.4752 24.8069 65.7673 24.6864C66.3881 24.4033 66.9859 24.0725 67.5554 23.6969L69.6084 22.3908L69.5366 24.8224C69.5218 25.2825 69.5168 26.4848 69.5143 27.9764C69.9176 27.6857 70.3722 27.4733 70.8541 27.3506C71.3062 27.2062 71.7789 27.1369 72.2534 27.1452C73.3565 27.1517 74.4416 27.425 75.4159 27.9418L75.2079 27.1997H80.9708L81.0253 27.4248C81.4409 27.2927 81.8745 27.226 82.3106 27.2269C82.6834 27.2282 83.0548 27.2722 83.4176 27.358L83.4795 27.3728L83.539 27.3926C84.1378 27.604 84.6843 27.9415 85.1413 28.3821C85.2286 28.2044 85.3313 28.0347 85.4484 27.875C85.9701 27.2107 86.7324 26.778 87.5708 26.6703C89.8133 26.3342 92.1026 26.8003 94.0345 27.9863C94.2937 28.1443 94.5419 28.3195 94.7775 28.5107H95.7334C95.7334 28.5107 110.308 28.5948 118 26.3141V28.8966C118 28.8966 108.658 35.2838 98.361 36.1619C98.361 36.1619 99.5671 38.601 99.9634 39.6251C100.36 40.6493 101.501 43.3011 95.8771 47.1205Z" fill="#231815"/>
</g>
<path d="M68.3727 38.893C68.2464 38.3463 68.2043 26.6407 68.2563 24.7656C66.4236 25.9283 65.8565 26.0594 65.1012 26.2029C65.069 27.1107 65.1185 29.2332 65.1012 30.2028C64.8191 29.7554 64.4378 29.3788 63.9867 29.1021C63.7119 28.9062 63.3997 28.7689 63.0695 28.6987C62.7393 28.6285 62.3982 28.6268 62.0674 28.6939C60.2521 29.0353 60.1481 31.4422 60.0242 33.7056C59.8633 36.6024 59.3828 40.0557 61.7578 40.8473C63.2215 41.2307 64.2938 40.9289 64.7297 39.1478C64.7463 39.3485 64.8044 39.5435 64.9003 39.7207C64.9962 39.8978 65.1279 40.0531 65.2869 40.1769H69.2494C69.2494 40.1769 68.6426 40.0408 68.3727 38.893ZM64.851 32.8868L64.7594 36.6197C64.6777 38.0693 63.7217 37.8442 63.7217 37.8442C62.9788 37.7007 63.0753 36.6246 63.0753 36.6246L63.1769 32.8572C63.2041 31.1998 63.9793 31.3284 63.9793 31.3284C64.9129 31.3284 64.851 32.8868 64.851 32.8868ZM39.4764 28.3599C38.765 28.3681 38.085 28.654 37.5819 29.1565C37.1478 29.4738 36.7601 29.8502 36.4303 30.2746C37.0444 28.8299 37.7825 26.7199 38.5824 24.8324C36.9726 25.6858 36.2866 25.8046 34.9295 26.1286L33.7507 29.0452C32.7204 29.0452 32.4455 29.0451 31.2865 29.0724C31.7645 27.8998 32.4059 26.2548 32.4059 26.2548H28.8892C28.8892 26.2548 27.9704 28.5628 27.5271 29.671L27.4454 29.8738C26.4548 29.8738 21.1525 29.8887 18.8023 29.7551C15.1271 29.5473 9.67375 28.726 9.67375 28.726C12.2172 29.8516 14.8596 31.0835 18.8568 31.9419C23.4383 33.2084 25.3948 31.3729 25.3948 31.3729C25.3948 31.3729 26.3235 30.428 26.7396 30.7199C26.8461 30.7941 26.9872 30.8411 26.9451 31.0934L26.8064 31.4372C25.6771 33.8318 23.946 38.0693 23.946 38.0693C23.946 38.0693 22.5617 41.4385 26.4052 44.4317C26.8064 43.3457 28.7505 42.7298 28.7505 42.7298C28.7505 42.7298 31.6258 42.0569 32.1781 40.6197C32.1781 40.6197 34.6224 34.9623 35.5561 32.3575C35.982 31.5016 36.7101 31.5288 36.7101 31.5288C36.7101 31.5288 37.3714 31.4991 37.0717 32.496C36.3015 34.4008 35.0905 38.2672 34.0776 40.7186H37.6041C38.627 37.9184 40.0658 33.5646 40.9475 31.2319C41.3264 30.2424 41.1728 28.3599 39.4764 28.3599ZM28.379 41.295C28.379 41.295 26.373 40.8992 27.2374 38.7025L30.0235 32.162H32.3316L28.379 41.295ZM74.143 35.6054C74.1826 36.214 74.3733 37.6487 74.2272 38.2919C74.1034 38.8188 73.9795 38.9746 73.5313 38.9994C72.3896 38.8188 72.3549 34.3884 72.3549 34.3884C74.0885 34.3884 75.4481 34.4032 77.2436 34.3884C77.0925 32.7656 76.8449 30.7693 75.9558 29.8986C74.3089 28.2882 71.9934 28.2734 71.2355 28.5727C69.7719 28.9413 69.2692 30.0717 69.1379 31.4199C68.9423 33.4286 69.1899 35.8306 69.8809 38.334C70.5371 40.6716 72.5431 40.4737 73.9374 42.0643C75.307 40.632 79.1877 41.2802 77.4591 35.6054C76.0796 35.645 75.0469 35.5857 74.143 35.6005V35.6054ZM72.5828 30.0965C72.6854 30.0496 72.7976 30.0272 72.9104 30.0312C73.0232 30.0352 73.1335 30.0654 73.2326 30.1194C73.3316 30.1734 73.4167 30.2498 73.481 30.3425C73.5453 30.4351 73.5871 30.5415 73.6031 30.6531C73.7178 31.3652 73.7856 32.0842 73.8062 32.8052H72.2286C72.1246 31.9122 72.0305 30.4478 72.5828 30.0915V30.0965ZM83.1328 28.5999C81.7682 28.2783 80.5176 28.778 80.2873 29.7576C80.1808 29.3445 80.0694 28.9239 79.9629 28.4737H76.9142C77.7117 31.3383 78.9252 37.4236 79.7177 40.1818H83.373C83.1254 39.4892 81.5057 33.9357 80.9436 31.8701C80.8717 30.6927 81.9218 30.7001 82.3081 31.3383C82.8629 32.8893 83.0511 33.0699 83.5068 34.3933H86.7114C86.0972 32.4341 85.2082 29.2925 83.1254 28.5949L83.1328 28.5999ZM58.573 38.9128L59.0832 30.9969C59.2293 29.5795 58.5606 28.2214 57.0128 28.2214C56.4825 28.2211 55.9579 28.3308 55.4723 28.5438C54.9867 28.7567 54.5507 29.0681 54.192 29.4583C54.192 29.4583 54.3084 28.9487 54.3976 28.4935H47.3419L45.856 34.5591C45.4151 36.1645 44.8654 39.2022 43.7633 39.7143C43.2185 39.2022 43.1565 38.804 43.3671 37.9555L45.7297 28.4292H41.5196C41.5196 28.4292 42.3244 29.0056 42.1635 30.3636C42.0793 31.0736 40.1476 36.4589 39.6522 38.7941C39.308 40.397 41.4106 41.3074 42.1065 42.3463C42.3987 42.7792 42.7083 43.1305 42.7628 43.598C47.5375 41.436 48.3895 39.1453 48.3895 39.1453C48.3895 39.1453 49.2711 33.5918 50.2667 29.8837C50.554 29.2406 50.8685 28.7582 51.4183 28.5603C50.8883 31.9295 49.3702 40.1744 49.3702 40.1744H52.8671C53.3277 37.1614 53.61 35.5164 54.1053 32.0903C54.197 31.6722 54.4496 31.3111 55.0415 31.3803C55.1491 31.3894 55.2537 31.4207 55.3486 31.4723C55.4435 31.5239 55.5267 31.5946 55.5928 31.6799C55.6589 31.7653 55.7066 31.8634 55.7327 31.9681C55.7589 32.0728 55.763 32.1818 55.7448 32.2882C55.3287 34.851 54.9672 37.5251 54.6477 40.1744H59.4992C59.2294 40.0902 58.9938 39.9217 58.8271 39.6937C58.6603 39.4657 58.5713 39.1902 58.573 38.9079V38.9128ZM96.0826 35.3779C95.144 34.616 94.1262 34.0816 92.3555 33.1738C91.2682 32.5232 89.5842 31.9716 89.3415 30.7001C89.2078 29.9926 89.869 29.8615 90.5451 29.9827C91.8403 30.4478 91.9468 31.4941 92.2589 32.1843C93.2693 32.585 94.7181 33.0056 95.1911 32.2338C95.3744 31.9864 95.4264 31.5857 95.2233 31.0761C95.2233 31.0761 95.1936 31.0043 95.1366 30.8955C96.7959 30.9722 96.9321 31.9295 97.2937 32.355C102.2 31.9147 107.16 31.0217 111.772 28.491C107.42 29.3445 99.3888 29.8912 94.2772 29.7724C93.9981 29.5069 93.6918 29.2714 93.3634 29.0699C91.694 28.0433 89.7151 27.6394 87.7763 27.9295C86.1567 28.1769 85.8298 29.624 86.2756 31.1923C87.1324 34.188 91.3153 35.2319 93.5739 37.013C94.1906 37.384 94.8246 38.804 94.0989 39.0909C93.6878 39.3828 93.0885 39.1354 92.5957 38.6753C91.8379 37.9134 91.7933 37.1367 91.3797 36.3599L88.1255 36.3303C88.4036 37.165 88.7286 37.9834 89.0988 38.7817C90.2182 40.8794 93.3857 41.8714 95.3223 43.462C97.0559 42.5789 98.683 41.4113 98.5295 40.1002C98.4552 39.4348 97.4348 36.3253 96.0826 35.3779Z" fill="#FAC109"/>
<defs>
<filter id="filter0_d_998_10351" x="0.00247192" y="17.9875" width="121.998" height="35.1318" filterUnits="userSpaceOnUse" color-interpolation-filters="sRGB">
<feFlood flood-opacity="0" result="BackgroundImageFix"/>
<feColorMatrix in="SourceAlpha" type="matrix" values="0 0 0 0 0 0 0 0 0 0 0 0 0 0 0 0 0 0 127 0" result="hardAlpha"/>
<feOffset/>
<feGaussianBlur stdDeviation="2"/>
<feComposite in2="hardAlpha" operator="out"/>
<feColorMatrix type="matrix" values="0 0 0 0 1 0 0 0 0 1 0 0 0 0 1 0 0 0 0.6 0"/>
<feBlend mode="normal" in2="BackgroundImageFix" result="effect1_dropShadow_998_10351"/>
<feBlend mode="normal" in="SourceGraphic" in2="effect1_dropShadow_998_10351" result="shape"/>
</filter>
</defs>
</svg>
