<svg width="120" height="80" viewBox="0 0 120 80" fill="none" xmlns="http://www.w3.org/2000/svg">
<g clip-path="url(#clip0_2306_2)">
<path d="M80.4567 66.1309C85.5703 60.9294 88.5897 53.9642 88.9207 46.6061L89.7469 46.0117L88.9551 44.8505C88.902 39.1136 87.2053 33.5177 84.074 28.7517L82.2248 25.9428L79.5002 30.9211C79.3526 31.192 79.2051 31.4629 79.0551 31.7312C77.5029 30.342 75.8107 29.1247 74.0067 28.0996L73.5641 27.8488L73.6453 27.2544L77.0879 23.0134L74.5453 21.94C74.4199 21.8873 74.2305 21.8196 73.9649 21.7394V18.3084L77.4666 14.1226L74.8822 13.0316C73.5636 12.4748 72.2156 11.9933 70.8444 11.5895V11.1105C70.8405 8.1635 69.6906 5.33844 67.647 3.25508C65.6034 1.17173 62.833 0.000212632 59.9436 -0.00244141H59.8231C56.9343 0.000877636 54.1648 1.17276 52.1221 3.25612C50.0794 5.33948 48.9304 8.16417 48.9272 11.1105V11.5895C47.556 11.9933 46.2081 12.4748 44.8895 13.0316L42.3075 14.1226L45.8067 18.3084V21.7394C45.5436 21.8196 45.3518 21.8873 45.2288 21.94L42.6788 23.0159L46.1214 27.2569L46.2001 27.8513L45.76 28.1021C43.9549 29.1266 42.2617 30.3439 40.7091 31.7337C40.5591 31.4654 40.4116 31.1945 40.264 30.9236L37.5149 25.9428L35.6681 28.7517C32.536 33.5175 30.8385 39.1134 30.7845 44.8505L29.9927 46.0117L30.8214 46.6061C31.1515 53.9639 34.1701 60.9291 39.2829 66.1309C39.6862 66.5422 40.1239 66.9635 40.5862 67.3849L40.6796 67.4651C40.2867 68.4704 39.8147 69.4417 39.2681 70.3694L38.2083 72.14L43.805 75.6362L44.8649 73.868C45.3477 73.057 45.7869 72.2198 46.1805 71.36C48.1201 72.4145 50.1721 73.2384 52.296 73.8153L53.1198 80.0151H66.6297L67.451 73.8153C69.5751 73.2388 71.6271 72.415 73.5666 71.36C73.9605 72.22 74.4005 73.0573 74.8846 73.868L75.9445 75.6362L81.5313 72.145L80.474 70.3744C79.9295 69.4445 79.4607 68.4706 79.0723 67.4626L79.1633 67.3798C79.6158 66.9635 80.0559 66.5422 80.4567 66.1309ZM77.1223 55.4894C77.1713 54.1424 77.3193 52.8011 77.5649 51.4767L77.7174 51.444C78.0248 51.3788 79.8297 50.8873 81.8977 50.1474C81.2419 53.8019 79.6456 57.213 77.2723 60.0314C77.1133 58.5232 77.0631 57.0051 77.1223 55.4894ZM80.0559 43.8624C80.501 42.8868 81.0174 41.856 81.6469 40.6622L81.8707 40.2484C82.0594 41.1146 82.1981 41.9914 82.2863 42.8742C81.6076 43.2028 80.8526 43.5338 80.0559 43.8624ZM71.4272 64.8769C70.4683 65.4618 69.468 65.9732 68.4346 66.4067L70.1559 53.4705L70.6895 53.3627C70.633 53.9897 70.5912 54.6167 70.569 55.2411C70.4528 58.4772 70.7412 61.7151 71.4272 64.8769ZM71.0879 46.4632L72.5928 35.1546C73.7035 35.9406 74.7526 36.8135 75.7305 37.7654C74.2729 40.4705 73.0621 43.3064 72.1133 46.2374C71.7789 46.3102 71.4346 46.3879 71.0879 46.4632ZM61.7092 68.0319C60.4876 68.1373 59.2595 68.1373 58.0379 68.0319L57.8165 65.9227L58.8493 54.3859C59.1518 54.3859 59.4838 54.401 59.8797 54.401C60.2756 54.401 60.5977 54.401 60.8977 54.3859L61.9305 65.9227L61.7092 68.0319ZM59.8723 47.7498C59.7051 47.7498 59.5329 47.7498 59.3264 47.7498L59.8821 41.1362L60.4354 47.7473C60.2313 47.7498 60.0518 47.7498 59.8723 47.7498ZM47.1542 35.1546L48.6592 46.4632C48.3116 46.3879 47.9698 46.3102 47.6337 46.2299C46.6855 43.3011 45.4746 40.4676 44.0165 37.7654C44.9945 36.8135 46.0435 35.9406 47.1542 35.1546ZM49.178 55.2411C49.1559 54.6192 49.1165 53.9871 49.0575 53.3627L49.5911 53.4705L51.3124 66.4067C50.2791 65.9732 49.2788 65.4618 48.3198 64.8769C49.0058 61.7151 49.2942 58.4772 49.178 55.2411ZM37.4657 42.8742C37.5518 41.9913 37.6897 41.1144 37.8788 40.2484L38.1026 40.6597C38.7321 41.8485 39.2485 42.8868 39.696 43.8624C39.0247 43.589 38.2526 43.2529 37.4657 42.8742ZM42.0296 51.4465L42.1821 51.4792C42.4284 52.8035 42.5772 54.1449 42.6272 55.4919C42.6816 57.0088 42.6265 58.5278 42.4624 60.0364C40.0891 57.218 38.4929 53.8069 37.837 50.1524C39.9173 50.8898 41.7222 51.3813 42.0296 51.4465Z" fill="#223E63"/>
<path d="M79.7657 65.4235C84.8276 60.2834 87.7607 53.3568 87.9591 46.0744L88.3895 45.7684L87.9788 45.1665C87.9835 39.5189 86.3381 33.9979 83.2526 29.3084L82.2935 27.8513L80.3485 31.4076C79.9993 32.0446 79.6452 32.6842 79.2911 33.3137C77.5574 31.6218 75.6187 30.1628 73.5222 28.9723L72.4968 28.393L72.7034 26.8405L75.4747 23.4221L74.1542 22.8654C73.9698 22.7851 73.5419 22.6547 72.9739 22.4917V17.9447L75.8362 14.5213L74.4985 13.957C72.9865 13.3181 71.4347 12.7819 69.8534 12.3519V12.2992C69.8534 12.2992 69.8534 11.4791 69.8534 11.1129C69.8534 8.43031 68.8085 5.85759 66.9487 3.96071C65.0888 2.06383 62.5663 0.998169 59.9361 0.998169H59.8107C58.5084 0.998169 57.2188 1.2598 56.0156 1.76811C54.8123 2.27642 53.7191 3.02147 52.7982 3.96071C51.8773 4.89995 51.1468 6.01499 50.6484 7.24217C50.15 8.46934 49.8935 9.78462 49.8935 11.1129V12.3519C48.3121 12.7819 46.7604 13.3181 45.2484 13.957L43.9082 14.5213L46.7754 17.9522V22.4992C46.2074 22.6622 45.7795 22.7926 45.5951 22.8729L44.2771 23.4297L47.0484 26.8481L47.2549 28.4005L46.2295 28.9799C44.1331 30.1703 42.1944 31.6293 40.4607 33.3212C40.109 32.6917 39.7525 32.0522 39.4033 31.4151L37.4582 27.8588L36.4992 29.3159C33.4163 34.0063 31.7734 39.5272 31.7803 45.174L31.3721 45.7759L31.8 46.0819C31.9951 53.3589 34.9208 60.2821 39.9738 65.4235C40.3672 65.8248 40.7902 66.2311 41.2353 66.6349L41.8377 67.1766C41.3745 68.4704 40.7907 69.7159 40.0943 70.896L39.5459 71.8139L43.4804 74.2567L44.0312 73.3388C44.678 72.2501 45.2435 71.1132 45.723 69.9379C48.0488 71.3248 50.5616 72.3557 53.1812 72.9977L53.9755 79.0018H65.7788L66.573 72.9977C69.1932 72.3553 71.7069 71.3244 74.0337 69.9379C74.5123 71.1132 75.077 72.25 75.723 73.3388L76.2739 74.2567L80.2083 71.8139L79.6599 70.896C78.9633 69.7164 78.3803 68.4708 77.9189 67.1766L78.5189 66.6349C78.9493 66.2311 79.3747 65.8248 79.7657 65.4235ZM37.5713 37.64L38.9631 40.1831C39.9121 41.9384 40.7594 43.749 41.5008 45.6054C39.766 45.0087 38.0721 44.2949 36.4303 43.4685C36.5706 41.4847 36.954 39.5266 37.5713 37.64ZM43.1484 62.2033C39.4992 58.6795 37.3008 54.12 36.6025 48.6225C38.4405 49.3505 40.3192 49.9669 42.2287 50.4684L43.0156 50.6364C43.3483 52.2211 43.5449 53.8323 43.6033 55.4517C43.6838 57.7123 43.5313 59.9752 43.1484 62.2033ZM42.8066 37.5748C44.2605 36.081 45.8757 34.76 47.6213 33.6372L47.9164 33.4491L49.8099 47.7171C48.7918 47.5215 47.8082 47.3049 46.859 47.0675C45.814 43.4886 44.2623 40.2959 42.8066 37.5748ZM47.2058 65.3533C47.9873 62.0591 48.3183 58.6704 48.1894 55.2837C48.1516 54.2205 48.0614 53.16 47.9189 52.1061C48.7599 52.3 49.6058 52.4731 50.4566 52.6252L52.4927 67.924C50.631 67.2982 48.8546 66.4345 47.2058 65.3533ZM59.8107 30.1937H59.9361L61.4927 48.7052C60.7328 48.7429 60.3173 48.7579 59.8746 48.7554C59.432 48.7529 59.014 48.7429 58.2566 48.7052L59.8107 30.1937ZM53.764 43.0773L55.3082 34.5727L55.8443 48.5673C55.3968 48.5288 54.9394 48.4845 54.4722 48.4344L53.764 43.0773ZM54.9173 53.1293L56.1763 53.2823L56.2623 59.8934L54.9173 53.1293ZM61.8788 74.3194H57.8681L57.7919 73.74C58.4804 73.7885 59.1746 73.8111 59.8746 73.8077C60.5746 73.8044 61.2681 73.7818 61.955 73.74L61.8788 74.3194ZM62.5968 68.9473C60.7873 69.1613 58.9596 69.1613 57.15 68.9473L56.8328 65.9377L57.9591 53.3701C58.623 53.3927 59.1197 53.4178 59.8697 53.4178C60.6074 53.4178 61.1164 53.3927 61.7779 53.3701L62.9042 65.9377L62.5968 68.9473ZM63.4845 59.8859L63.5706 53.2748L64.8296 53.1218L63.4845 59.8859ZM65.2771 48.4268C64.8083 48.477 64.3501 48.5213 63.9025 48.5598L64.4386 34.5652L65.9829 43.0698L65.2771 48.4268ZM80.7935 40.1831L82.1829 37.64C82.8015 39.5263 83.1848 41.4846 83.3239 43.4685C81.6823 44.2953 79.9883 45.0092 78.2534 45.6054C78.9946 43.7485 79.8428 41.9379 80.7935 40.1831ZM67.2443 67.919L69.2804 52.6202C70.1312 52.4672 70.9796 52.2942 71.8181 52.1011C71.6756 53.155 71.5854 54.2155 71.5476 55.2787C71.4187 58.6654 71.7497 62.0541 72.5312 65.3483C70.8824 66.4295 69.106 67.2932 67.2443 67.919ZM72.8853 47.0675C71.9386 47.3033 70.9501 47.5215 69.9345 47.7171L71.8329 33.4491L72.1255 33.6372C73.8715 34.7594 75.4868 36.0804 76.9403 37.5748C75.4845 40.2959 73.9329 43.4886 72.8853 47.0675ZM76.6132 62.2033C76.2282 59.9754 76.0749 57.7124 76.1558 55.4517C76.2142 53.8323 76.4109 52.2211 76.7435 50.6364L77.5304 50.4684C79.4407 49.9667 81.3202 49.3503 83.1591 48.6225C82.446 54.12 80.2501 58.6795 76.6132 62.2033Z" fill="#72A3CD"/>
<path d="M86.8673 45.2016C86.8817 39.7544 85.3001 34.427 82.3255 29.9028L81.2189 31.9268C80.7271 32.8146 80.2353 33.705 79.7435 34.5652L79.4632 35.0668C79.296 34.8887 79.1263 34.7081 78.9542 34.5326C77.1738 32.714 75.1535 31.1574 72.9517 29.9079L72.6247 32.7243C74.6665 34.0302 76.5301 35.6055 78.1673 37.4093C76.387 40.6697 74.7247 44.0931 73.6648 47.9428C72.0984 48.3541 70.3845 48.7203 68.6288 49.0112L71.6411 26.3741L73.6943 23.841C73.178 23.6228 69.7599 22.7275 67.4509 22.1857L67.832 16.2894C68.3435 16.4148 68.8525 16.5511 69.3591 16.6982V20.7386C70.1968 20.9577 71.028 21.1976 71.8525 21.4584V17.5309L74.0337 14.9427C72.0948 14.1211 70.0898 13.4724 68.0411 13.004V10.7994V10.7819C68.0039 8.59891 67.1276 6.51815 65.6008 4.98777C64.074 3.45739 62.019 2.59985 59.8783 2.59985C57.7377 2.59985 55.6826 3.45739 54.1559 4.98777C52.6291 6.51815 51.7528 8.59891 51.7156 10.7819V10.7944V13.004C49.6636 13.4719 47.6552 14.1205 45.7132 14.9427L47.8869 17.5409V21.4684C48.7082 21.2051 49.5418 20.9669 50.3804 20.7487V16.7083C50.8836 16.5611 51.3918 16.4249 51.905 16.2995L52.2886 22.2158C49.982 22.7576 46.5615 23.6529 46.0451 23.8711L48.0984 26.4042L51.1107 49.0413C49.3574 48.7504 47.641 48.3842 46.0746 47.9729C45.0197 44.1106 43.3525 40.6998 41.5746 37.4394C43.2058 35.6269 45.0654 34.0431 47.105 32.7293L46.7779 29.9129C44.5765 31.1631 42.5563 32.7196 40.7754 34.5376C40.6033 34.7132 40.4361 34.8937 40.2689 35.0718L39.9861 34.5702C39.4943 33.71 39.0025 32.8146 38.5107 31.9318L37.4041 29.9079C34.4304 34.4323 32.8497 39.7597 32.8648 45.2066C32.8648 45.3044 32.8648 45.4022 32.8648 45.5C32.9209 52.696 35.7583 59.5787 40.7607 64.6536C41.1566 65.0574 41.5623 65.4436 41.9754 65.8198L42.7623 63.2642C38.2426 59.0583 35.8599 53.5281 35.4123 46.9246C37.6999 47.9389 40.0621 48.7683 42.4771 49.405C42.2853 48.6526 41.8771 47.356 41.7049 46.7867C39.5248 46.067 37.4069 45.1644 35.373 44.0881C35.5024 41.0075 36.1946 37.9786 37.4139 35.1571C37.5467 35.3703 37.6795 35.591 37.8099 35.8242C38.0558 36.2506 38.2894 36.6794 38.5279 37.1033L39.8656 39.5511C42.4008 44.3163 44.464 49.1918 44.6902 55.4016C44.9041 61.2678 43.5394 67.2644 41.0361 71.4528L43.1607 72.777C43.9983 71.3784 44.7008 69.9001 45.2582 68.3629C47.9408 70.1585 50.9252 71.4338 54.0615 72.1249L54.8263 77.936H64.923L65.6853 72.1249C68.8216 71.4338 71.806 70.1585 74.4886 68.3629C75.0374 69.9034 75.7317 71.3859 76.5616 72.7895L78.6862 71.4653C76.1853 67.2845 74.8181 61.2879 75.0321 55.4142C75.2583 49.2044 77.3214 44.3288 79.8567 39.5636L81.1944 37.1158C81.4403 36.692 81.6714 36.2631 81.9124 35.8368C82.0427 35.6035 82.1755 35.3828 82.3083 35.1696C83.5276 37.9911 84.2198 41.02 84.3493 44.1006C82.3152 45.1752 80.1973 46.0762 78.0173 46.7942C77.8452 47.3635 77.437 48.6651 77.2452 49.4125C79.6602 48.7758 82.0224 47.9464 84.3099 46.9321C83.8649 53.5357 81.4796 59.0658 76.9599 63.2717L77.7468 65.8274C78.1599 65.4511 78.5681 65.0749 78.9616 64.6611C83.9635 59.5857 86.8015 52.7035 86.8599 45.5076C86.8599 45.3972 86.8673 45.2894 86.8673 45.2016ZM66.1206 21.9023C65.8919 21.8522 65.7001 21.8171 65.5648 21.7945C63.7463 21.4211 61.8968 21.2263 60.0419 21.2126L60.1771 15.3264C62.1282 15.3515 64.0737 15.5453 65.9927 15.9057L66.1206 21.9023ZM65.9288 10.8672V10.8897V12.5977C64.4635 11.2344 63.5549 9.35869 63.3837 7.34343C64.1546 7.68597 64.8767 8.13308 65.5304 8.67267C65.7924 9.37176 65.9274 10.1137 65.9288 10.8621V10.8672ZM63.3861 5.85117C64.1421 6.40153 64.7652 7.12027 65.2083 7.95287C64.6321 7.53279 64.0109 7.18106 63.3566 6.90453C63.3414 6.54897 63.3512 6.19275 63.3861 5.83863V5.85117ZM60.4058 5.32449C60.4116 5.12344 60.4414 4.92385 60.4943 4.7301C61.2211 4.80735 61.9279 5.01986 62.5796 5.3571C62.5777 5.7869 62.5999 6.21647 62.646 6.6437C61.9131 6.40864 61.1516 6.27948 60.3837 6.25998L60.4058 5.32449ZM62.705 7.09514C62.9931 9.12852 63.9016 11.0178 65.3017 12.4949C63.6278 12.2476 61.9397 12.1143 60.2484 12.0961L60.3837 6.66627C61.1734 6.6872 61.9557 6.8275 62.705 7.0826V7.09514ZM57.1673 5.3571C57.8191 5.02018 58.5258 4.80768 59.2525 4.7301C59.3067 4.92359 59.3364 5.12333 59.341 5.32449L59.3632 6.2976C58.5762 6.37789 57.8046 6.57212 57.0714 6.87443C57.1383 6.36738 57.1703 5.85617 57.1673 5.34456V5.3571ZM56.3632 5.8587C56.4044 6.30647 56.4085 6.757 56.3755 7.20549C55.5874 7.61554 54.8563 8.13087 54.2017 8.73787C54.6208 7.57224 55.3739 6.56208 56.3632 5.83863V5.8587ZM53.9902 9.42506C54.6807 8.71896 55.4695 8.12063 56.3312 7.6494C56.0973 9.54385 55.2089 11.2912 53.8255 12.5776V10.8621V10.8446C53.8262 10.3665 53.8815 9.89012 53.9902 9.42506ZM57.005 7.32086C57.76 6.99282 58.5591 6.78231 59.3755 6.69637L59.4984 12.0886C57.8088 12.1068 56.1223 12.24 54.45 12.4873C55.7924 11.0702 56.6823 9.27156 57.0025 7.32838L57.005 7.32086ZM53.7443 15.9032C55.6633 15.5428 57.6088 15.349 59.5599 15.3239L59.6951 21.2101C57.8401 21.2246 55.9906 21.4203 54.1722 21.7945C54.0369 21.8171 53.8476 21.8522 53.6164 21.9023L53.7443 15.9032ZM50.4984 25.5866C51.15 25.396 51.8066 25.2304 52.4656 25.085L53.2796 37.6475L53.555 24.8568C55.605 24.4547 57.6864 24.2424 59.7738 24.2222L59.8746 28.6288L59.973 24.2222C62.0577 24.2397 64.1366 24.4487 66.1845 24.8467L66.4574 37.6375L67.2689 25.0775C67.9279 25.2304 68.5845 25.396 69.2361 25.5791L66.096 49.39C64.0371 49.6452 61.9658 49.7834 59.8919 49.8038C57.8125 49.7907 55.7355 49.6592 53.6705 49.41L50.4984 25.5866ZM46.0549 65.8198C46.9509 62.3987 47.3388 58.8598 47.2058 55.3214C47.148 53.7615 46.9771 52.2081 46.6943 50.674C48.2648 51.0937 49.855 51.4331 51.4648 51.6923L53.823 69.4188C51.0466 68.6933 48.4172 67.4751 46.0549 65.8198ZM62.8205 75.3853H56.9189L56.6017 72.5362C57.6842 72.6617 58.7728 72.7253 59.8624 72.7268C60.9511 72.7252 62.0388 72.6616 63.1206 72.5362L62.8205 75.3853ZM63.5189 69.9254C62.3129 70.0941 61.0969 70.1779 59.8796 70.1762C58.6614 70.178 57.4446 70.0942 56.2378 69.9254L53.8722 52.0359C56.1443 52.2867 58.5443 52.3318 59.8796 52.3318C61.205 52.3318 63.6124 52.2842 65.8845 52.0359L63.5189 69.9254ZM65.9238 69.4238L68.282 51.6973C69.8902 51.4365 71.4812 51.0971 73.055 50.6791C72.7713 52.2113 72.6003 53.7631 72.5435 55.3214C72.408 58.8614 72.7951 62.4022 73.6919 65.8248C71.3292 67.477 68.6997 68.6919 65.9238 69.4138V69.4238Z" fill="#223E63"/>
</g>
<defs>
<clipPath id="clip0_2306_2">
<rect width="59.7468" height="80" fill="white" transform="translate(30)"/>
</clipPath>
</defs>
</svg>
