<svg width="120" height="80" viewBox="0 0 120 80" fill="none" xmlns="http://www.w3.org/2000/svg">
<g clip-path="url(#clip0_385_1660)">
<path d="M93.7047 40.5017C93.7047 46.9299 91.79 53.2138 88.2026 58.5587C84.6153 63.9035 79.5165 68.0694 73.551 70.5293C67.5854 72.9893 61.0211 73.6329 54.6882 72.3789C48.3552 71.1248 42.538 68.0293 37.9721 63.4838C33.4063 58.9384 30.297 53.1472 29.0373 46.8424C27.7776 40.5377 28.4241 34.0027 30.8951 28.0638C33.3661 22.1249 37.5506 17.0488 42.9194 13.4775C48.2883 9.90619 54.6003 8 61.0573 8C69.716 8 78.02 11.4243 84.1425 17.5195C90.2651 23.6148 93.7047 31.8817 93.7047 40.5017Z" fill="#E1002A"/>
<path d="M61.3246 18.4285C56.8998 18.4278 52.5741 19.7335 48.8947 22.1803C45.2152 24.6272 42.3472 28.1053 40.6535 32.1749C38.9597 36.2445 38.5162 40.7227 39.379 45.0433C40.2418 49.3638 42.3723 53.3326 45.5009 56.4477C48.6295 59.5628 52.6157 61.6843 56.9555 62.544C61.2953 63.4036 65.7936 62.9628 69.8817 61.2771C73.9698 59.5915 77.464 56.7369 79.9224 53.0743C82.3808 49.4116 83.6929 45.1054 83.6929 40.7003C83.6934 37.7757 83.1151 34.8796 81.9912 32.1775C80.8673 29.4754 79.2197 27.0201 77.1426 24.9519C75.0655 22.8838 72.5995 21.2432 69.8854 20.1239C67.1713 19.0046 64.2624 18.4285 61.3246 18.4285Z" fill="white"/>
<path d="M31.4889 40.0266L41.5413 30.7366L34.2939 31.3294L34.5984 33.6873L27.1547 40.6801L28.146 46.2346C28.4167 47.9963 29.2964 51.2872 32.5446 51.0177L35.989 50.7381C34.2025 49.6906 33.1841 47.9693 32.6901 45.7394L31.4889 40.0266Z" fill="url(#paint0_linear_385_1660)"/>
<path d="M39.7379 40.8823L36.5642 50.6844L40.3774 50.3745L42.8305 42.8124C42.9941 42.1211 43.3057 41.4731 43.744 40.9127C44.0449 40.5441 44.4687 40.2955 44.9384 40.212C45.0422 40.1949 45.1485 40.1989 45.2507 40.2239C45.353 40.2488 45.4491 40.2941 45.5332 40.3571C45.6173 40.4201 45.6878 40.4994 45.7402 40.5903C45.7927 40.6811 45.8261 40.7816 45.8384 40.8857C45.9805 41.3741 45.7775 41.9973 45.5846 42.5935L43.1384 50.1623L46.9549 49.8524L49.364 42.3947C49.8275 40.9632 50.2945 39.7337 49.858 38.639C49.4215 37.5443 48.4403 37.2512 47.2459 37.3489C46.0096 37.4653 44.8687 38.0605 44.0688 39.0061L44.5222 37.6083L39.5045 38.0158L39.7379 40.8823Z" fill="url(#paint1_linear_385_1660)"/>
<path d="M61.6968 48.7745C59.0949 49.785 57.437 48.1917 57.437 45.6284C57.437 44.0284 58.4521 39.7775 61.9844 37.3084C63.5611 36.207 65.6352 35.5198 68.3488 35.4727C70.3789 35.4727 71.3939 35.6579 72.5105 36.0284C71.7141 36.6203 71.1228 37.4444 70.8187 38.3863L67.6484 48.3197C65.1209 56.094 58.1746 57.3841 54.2396 53.8709L57.322 50.7551C57.4575 51.2477 57.7539 51.6815 58.1644 51.9879C60.0186 53.3353 62.563 52.126 64.0281 47.6764L66.9007 38.6861C66.8228 38.6659 66.7755 38.6187 66.6977 38.6019C65.3815 38.1573 64.045 38.7737 62.9013 40.3568C62.2872 41.2917 61.8716 42.3417 61.6799 43.4423C61.4363 44.5202 61.5513 47.3058 64.2277 45.689L61.6968 48.7745Z" fill="url(#paint2_linear_385_1660)"/>
<path d="M57.8058 36.554L52.7915 36.9649L53.0283 39.8449L49.8546 49.6469L53.6678 49.3337L57.8058 36.554Z" fill="url(#paint3_linear_385_1660)"/>
<path d="M40.9255 23.5282C41.0937 23.6567 41.2226 23.8294 41.2977 24.0267C41.3709 24.2147 41.3839 24.4206 41.3349 24.6162C41.2813 24.8382 41.1784 25.0454 41.0338 25.2225C40.9932 25.2764 40.9323 25.337 40.868 25.4112C40.7708 25.5085 40.6655 25.5975 40.5533 25.6773C40.4038 25.7876 40.2441 25.8835 40.0762 25.9636L39.3556 25.4044C39.5394 25.3472 39.7182 25.2751 39.8901 25.1888C40.0531 25.1085 40.1963 24.9935 40.3097 24.852C40.3513 24.8098 40.3841 24.7597 40.4061 24.7048C40.4282 24.6499 40.4391 24.5912 40.4383 24.532C40.4245 24.4667 40.3915 24.4069 40.3436 24.3602C40.3042 24.3301 40.2581 24.3098 40.2093 24.301C40.1604 24.2922 40.1102 24.2952 40.0627 24.3097C39.9215 24.3506 39.7853 24.4071 39.6567 24.4781C39.4924 24.564 39.3202 24.6339 39.1424 24.6869C38.9763 24.7334 38.8023 24.7449 38.6315 24.7206C38.4454 24.6908 38.2704 24.613 38.124 24.4949C37.9774 24.3769 37.8614 24.2256 37.7856 24.0537C37.7106 23.8784 37.6917 23.6843 37.7315 23.4979C37.7782 23.2728 37.8792 23.0624 38.0258 22.8849C38.1328 22.7487 38.2555 22.6254 38.3913 22.5177C38.4964 22.4297 38.6097 22.3519 38.7296 22.2853C38.8013 22.2512 38.8747 22.2208 38.9496 22.1943L39.6465 22.7299C39.4681 22.7724 39.2946 22.8334 39.1288 22.9118C38.9583 22.986 38.8094 23.1019 38.6958 23.2486C38.6305 23.321 38.5932 23.4141 38.5909 23.5114C38.594 23.5484 38.6049 23.5844 38.623 23.6169C38.6411 23.6494 38.6659 23.6777 38.6958 23.7C38.7237 23.7217 38.756 23.7371 38.7905 23.7452C38.8249 23.7533 38.8607 23.754 38.8954 23.7472C39.0136 23.7254 39.1277 23.6857 39.2338 23.6293C39.4544 23.5295 39.6803 23.4418 39.9105 23.3665C40.0757 23.3106 40.2509 23.2899 40.4248 23.3059C40.609 23.3329 40.7822 23.4098 40.9255 23.5282Z" fill="white"/>
<path d="M43.9503 21.962L42.1706 23.7507L39.5214 21.1401L41.2673 19.3818L41.8018 19.9006L40.7631 20.9481L41.2537 21.4298L42.2383 20.4193L42.7763 20.9448L41.7849 21.9384L42.3466 22.4976L43.4158 21.4231L43.9503 21.962Z" fill="white"/>
<path d="M46.011 17.9805C46.2148 18.2413 46.3549 18.5458 46.4203 18.8698C46.486 19.1859 46.4554 19.5143 46.3324 19.8129C46.1807 20.1438 45.9488 20.4322 45.6577 20.652C45.3666 20.8719 45.0253 21.0164 44.6643 21.0727C44.3408 21.1056 44.0145 21.046 43.7237 20.9009C43.435 20.7515 43.1828 20.5407 42.9852 20.2834C42.7875 20.0261 42.6492 19.7286 42.5801 19.4121C42.5139 19.0963 42.5434 18.7681 42.6647 18.4689C42.8062 18.1295 43.0407 17.8366 43.3414 17.6235C43.565 17.4492 43.8199 17.3189 44.0925 17.2395C44.3298 17.1762 44.5782 17.1658 44.82 17.2092C45.0529 17.2548 45.2747 17.3451 45.473 17.4752C45.6796 17.6122 45.8616 17.7831 46.011 17.9805ZM45.1887 18.6037C45.1114 18.5007 45.019 18.4099 44.9147 18.3342C44.8184 18.2693 44.7104 18.2236 44.5966 18.1995C44.485 18.1771 44.37 18.1771 44.2583 18.1995C44.1354 18.2344 44.0205 18.2927 43.9199 18.3712C43.8232 18.4392 43.7428 18.5276 43.6843 18.6301C43.6258 18.7325 43.5907 18.8466 43.5816 18.9641C43.5853 19.2129 43.6697 19.4539 43.8221 19.6511C43.9745 19.8484 44.1868 19.9914 44.4275 20.0588C44.546 20.0814 44.6681 20.0777 44.7851 20.048C44.902 20.0183 45.0109 19.9633 45.1042 19.887C45.2389 19.7884 45.3432 19.6542 45.4053 19.4997C45.4617 19.3569 45.4712 19.2001 45.4324 19.0517C45.3886 18.885 45.3051 18.7312 45.1887 18.6037Z" fill="white"/>
<path d="M49.8038 16.1178C49.9453 16.3598 50.0308 16.6303 50.0542 16.9093C50.0695 17.1408 50.0265 17.3724 49.929 17.583C49.8402 17.7785 49.7138 17.9547 49.5568 18.1018C49.409 18.2442 49.2429 18.3665 49.0629 18.4655C48.8138 18.5982 48.5416 18.6828 48.2609 18.7148C47.9659 18.7443 47.6686 18.6881 47.4049 18.5531C47.092 18.3831 46.8409 18.1191 46.6876 17.7986L45.7132 15.9965L46.5997 15.5216L47.4354 17.0643C47.5268 17.2494 47.6532 17.4152 47.8076 17.5527C47.9186 17.6555 48.0597 17.7203 48.2102 17.738C48.353 17.7469 48.4953 17.7141 48.6196 17.6436C48.7431 17.5796 48.8454 17.4814 48.914 17.3607C48.983 17.2281 49.0079 17.0771 48.985 16.9295C48.9532 16.7263 48.8832 16.5309 48.7786 16.3536L47.9429 14.794L48.8362 14.3157L49.8038 16.1178Z" fill="white"/>
<path d="M53.6441 16.4784L51.2554 17.3508L49.9764 13.8678L50.9238 13.531L51.8982 16.1786L53.3362 15.6531L53.6441 16.4784Z" fill="white"/>
<path d="M57.7686 14.5044C57.8171 14.706 57.8022 14.9174 57.726 15.1102C57.6497 15.3031 57.5158 15.4679 57.3423 15.5823C57.1531 15.7115 56.9366 15.7957 56.7096 15.8282L56.4592 15.8585C56.3229 15.8693 56.186 15.8693 56.0498 15.8585C55.864 15.8399 55.6805 15.8038 55.5016 15.7508L55.346 14.8548C55.5203 14.9365 55.7015 15.003 55.8874 15.0535C56.0649 15.102 56.251 15.1101 56.4321 15.0771C56.5979 15.0501 56.6994 15.003 56.74 14.9289C56.775 14.8725 56.7904 14.8062 56.784 14.7402C56.7771 14.6915 56.758 14.6453 56.7284 14.6058C56.6988 14.5664 56.6598 14.535 56.6148 14.5146C56.4846 14.4468 56.3457 14.3969 56.202 14.3663C56.0223 14.32 55.8477 14.2557 55.681 14.1743C55.525 14.1011 55.3883 13.9927 55.2817 13.8577C55.1616 13.7132 55.0843 13.5382 55.0584 13.3525C55.022 13.1658 55.036 12.9728 55.099 12.7933C55.1614 12.6121 55.2799 12.4553 55.4374 12.3453C55.6221 12.2107 55.8369 12.1228 56.0633 12.0893C56.2363 12.0581 56.4124 12.048 56.5878 12.059C56.726 12.071 56.8629 12.0947 56.9972 12.1297C57.0778 12.1478 57.1561 12.175 57.2306 12.2106L57.3795 13.0628C57.2192 12.9767 57.0502 12.9079 56.8754 12.8573C56.6962 12.8001 56.506 12.7863 56.3205 12.8169C56.2223 12.8281 56.1312 12.8734 56.0633 12.9449C56.0215 13.006 56.0057 13.0811 56.0193 13.1537C56.0244 13.1895 56.0373 13.2238 56.0572 13.2541C56.0771 13.2844 56.1034 13.3099 56.1343 13.3289C56.2416 13.3881 56.3551 13.4355 56.4727 13.4703C56.7035 13.5388 56.9295 13.622 57.1494 13.7196C57.3094 13.7896 57.4525 13.893 57.5689 14.0228C57.679 14.1618 57.7481 14.3286 57.7686 14.5044Z" fill="white"/>
<path d="M62.0588 15.3565L60.8306 15.4036L59.4772 13.7194L59.5449 15.4508L58.5299 15.4878L58.3945 11.7826L59.4096 11.7455L59.4671 13.4028L60.6242 11.7186L61.7171 11.6748L60.5363 13.4567L62.0588 15.3565Z" fill="white"/>
<path d="M67.4488 16.1413L66.2341 15.9258L65.2765 13.9923L64.9686 15.7035L63.9773 15.5283L64.6269 11.877L65.6217 12.0487L65.3341 13.6824L66.8194 12.261L67.8988 12.453L66.3626 13.9452L67.4488 16.1413Z" fill="white"/>
<path d="M71.1199 17.4079L70.2672 17.1114L69.3097 14.5952L68.633 16.5455L67.6856 16.2087L68.9104 12.7056L69.7563 12.9986L70.7139 15.5047L71.3906 13.5679L72.3481 13.9047L71.1199 17.4079Z" fill="white"/>
<path d="M72.7 18.2131L71.7932 17.7718L73.4376 14.4438L74.3444 14.8885L72.7 18.2131Z" fill="white"/>
<path d="M76.1037 19.941L75.9075 19.904L75.7485 19.8703L75.5488 19.813C75.3983 19.7677 75.2513 19.7114 75.109 19.6446C74.9626 19.5775 74.8212 19.4998 74.6861 19.4122C74.4118 19.242 74.1804 19.0115 74.0094 18.7385C73.8374 18.4671 73.7535 18.1496 73.7691 17.8291C73.7845 17.4579 73.9015 17.098 74.1075 16.7882C74.2575 16.561 74.4411 16.3578 74.6522 16.1853C74.8464 16.0245 75.0799 15.9176 75.3289 15.8754C75.5105 15.8469 75.6955 15.8469 75.8771 15.8754C76.0349 15.8951 76.1888 15.9383 76.3338 16.0034C76.4845 16.0672 76.6294 16.1438 76.7669 16.2324C76.9789 16.3583 77.1744 16.5099 77.3489 16.6838C77.4995 16.8438 77.6418 17.0113 77.7752 17.1857L77.3049 17.9234C77.2286 17.7618 77.138 17.6074 77.0342 17.4619C76.8985 17.2926 76.7335 17.1489 76.547 17.0375C76.3481 16.9001 76.1124 16.825 75.8703 16.8219C75.6754 16.8259 75.486 16.8868 75.3256 16.9971C75.1905 17.0958 75.0757 17.2193 74.9872 17.3608C74.8867 17.5096 74.8251 17.6809 74.8079 17.8594C74.7899 18.0359 74.824 18.2138 74.906 18.3714C75.0016 18.5498 75.1444 18.6989 75.3188 18.8025C75.4381 18.8746 75.5667 18.9302 75.7011 18.9676L75.9346 18.6004L75.5522 18.3579L75.9515 17.7246L77.0816 18.4387L76.1037 19.941Z" fill="white"/>
<path d="M79.1218 22.8379L78.3639 22.1642L79.3214 21.0762L78.1744 20.0657L77.2101 21.1941L76.4489 20.5204L78.9087 17.728L79.6666 18.4017L78.7632 19.4122L79.9102 20.4227L80.8068 19.4122L81.5681 20.0859L79.1218 22.8379Z" fill="white"/>
<path d="M83.72 23.8886L82.9283 22.9522L80.773 24.7644L80.1234 23.9964L82.2753 22.1842L81.4835 21.2512L82.1602 20.6685L84.4035 23.3025L83.72 23.8886Z" fill="white"/>
<path d="M83.9027 27.3042C83.7254 27.4239 83.5179 27.4916 83.3039 27.4996C83.1027 27.5016 82.9052 27.4455 82.7354 27.3379C82.5444 27.2164 82.3817 27.0556 82.2584 26.8663C82.2245 26.8057 82.1772 26.7316 82.1298 26.6407C82.0688 26.5208 82.0189 26.3957 81.9809 26.2668C81.9251 26.0888 81.8854 25.9061 81.8625 25.7211L82.6238 25.236C82.619 25.4286 82.6303 25.6213 82.6576 25.812C82.6856 25.9905 82.7501 26.1613 82.8471 26.3139C82.9452 26.4554 83.0298 26.5329 83.1144 26.5396C83.1795 26.5493 83.2461 26.5375 83.3039 26.5059C83.3456 26.4784 83.3802 26.4415 83.4048 26.3982C83.4295 26.3549 83.4437 26.3064 83.446 26.2567C83.4542 26.1121 83.4428 25.9671 83.4121 25.8255C83.3869 25.6402 83.3779 25.4532 83.3851 25.2663C83.3925 25.0963 83.4363 24.9298 83.5136 24.7779C83.604 24.6116 83.7371 24.4721 83.8994 24.3737C84.0549 24.2669 84.2356 24.2019 84.4238 24.1851C84.6151 24.1737 84.8056 24.2182 84.9719 24.3131C85.1722 24.4291 85.3399 24.5936 85.4591 24.7914C85.5557 24.9363 85.634 25.0924 85.6926 25.2562C85.7403 25.386 85.7744 25.5203 85.7941 25.6571C85.8044 25.7375 85.8101 25.8185 85.811 25.8996L85.0836 26.3745C85.0987 26.1941 85.0987 26.0127 85.0836 25.8322C85.0606 25.6468 84.997 25.4686 84.8975 25.3101C84.8482 25.2241 84.7686 25.1593 84.6742 25.1282C84.6386 25.1193 84.6015 25.1181 84.5653 25.1244C84.5292 25.1308 84.4947 25.1447 84.4644 25.1653C84.433 25.1846 84.4065 25.2107 84.3866 25.2416C84.3667 25.2725 84.3539 25.3074 84.3494 25.3438C84.334 25.4635 84.334 25.5846 84.3494 25.7042C84.3745 25.9403 84.3869 26.1776 84.3866 26.415C84.3794 26.5875 84.3416 26.7574 84.2749 26.9169C84.1882 27.077 84.0596 27.2108 83.9027 27.3042Z" fill="white"/>
<path d="M40.3504 59.8733C40.2474 59.9692 40.1249 60.0421 39.9912 60.0868C39.8576 60.1316 39.7158 60.1472 39.5755 60.1327C39.2762 60.086 39.0069 59.9254 38.8244 59.6847L37.5826 58.1992L40.4518 55.8413L41.4906 57.0842C41.6105 57.2251 41.7106 57.3815 41.7883 57.5491C41.8504 57.675 41.8839 57.813 41.8864 57.9533C41.8896 58.0699 41.8641 58.1856 41.812 58.2901C41.7593 58.3977 41.683 58.4921 41.5887 58.5664C41.4886 58.6495 41.3739 58.7134 41.2503 58.755C41.1408 58.7885 41.0264 58.8033 40.912 58.7988C40.8215 58.7939 40.7329 58.771 40.6515 58.7314C40.7177 58.9381 40.7328 59.1576 40.6954 59.3714C40.6379 59.5714 40.5168 59.7475 40.3504 59.8733ZM39.7379 59.0649C39.9883 58.8628 39.9748 58.6034 39.7109 58.2834L39.4503 57.9668L38.7127 58.5697L38.9766 58.9066C39.2406 59.2097 39.4977 59.2569 39.7379 59.0649ZM40.8308 57.9567C40.8906 57.9204 40.9386 57.8677 40.9692 57.805C40.9998 57.7423 41.0117 57.6722 41.0034 57.603C40.9588 57.4379 40.874 57.2863 40.7564 57.1617L40.621 57L39.9443 57.5693L40.0831 57.7377C40.1813 57.8803 40.3139 57.9962 40.4688 58.0746C40.5342 58.0896 40.6024 58.0865 40.6662 58.0657C40.73 58.045 40.7869 58.0073 40.8308 57.9567Z" fill="white"/>
<path d="M42.8507 63.6359L42.0894 62.942L42.3906 62.201L41.318 61.2275L40.6007 61.5947L39.8361 60.9008L43.4428 59.1526L44.2718 59.9037L42.8507 63.6359ZM42.6579 61.5711L43.2094 60.2237L41.927 60.8974L42.6579 61.5711Z" fill="white"/>
<path d="M45.8587 64.3836C45.7399 64.5606 45.5734 64.7007 45.3782 64.7878C45.19 64.866 44.9825 64.886 44.7827 64.8451C44.5597 64.7994 44.3487 64.7076 44.1635 64.5756L43.9605 64.424C43.8895 64.3533 43.7948 64.2522 43.6865 64.1242C43.5666 63.9811 43.4612 63.8265 43.3718 63.6627L43.8996 62.9217C43.9644 63.1018 44.046 63.2755 44.1432 63.4404C44.2311 63.5992 44.3551 63.7353 44.5053 63.8379C44.6474 63.939 44.759 63.976 44.8436 63.9524C44.9092 63.9395 44.968 63.9036 45.0094 63.8514C45.0379 63.8113 45.0562 63.7649 45.0627 63.7162C45.0692 63.6675 45.0636 63.6179 45.0466 63.5718C44.9982 63.4328 44.9347 63.2996 44.8572 63.1743C44.7612 63.0148 44.6829 62.8454 44.6237 62.6691C44.5661 62.5072 44.5453 62.3346 44.5628 62.1638C44.59 61.978 44.6608 61.8013 44.7696 61.6479C44.8784 61.4946 45.022 61.369 45.1887 61.2813C45.3622 61.1984 45.5567 61.1691 45.747 61.1971C45.9749 61.2354 46.1905 61.3265 46.3763 61.4632C46.519 61.5597 46.6496 61.6728 46.7655 61.8C46.8598 61.9023 46.9416 62.0154 47.0091 62.1369C47.0632 62.2379 47.0971 62.3087 47.1174 62.3558L46.6132 63.0665C46.5616 62.8922 46.4913 62.7239 46.4034 62.5647C46.3187 62.398 46.193 62.2555 46.038 62.1503C46.0011 62.1182 45.9582 62.0936 45.9118 62.078C45.8653 62.0624 45.8162 62.0561 45.7673 62.0594C45.7303 62.0626 45.6945 62.0743 45.6628 62.0936C45.6311 62.1129 45.6044 62.1392 45.5846 62.1705C45.5637 62.2 45.5492 62.2336 45.5422 62.269C45.5352 62.3044 45.5359 62.3409 45.544 62.376C45.5766 62.4929 45.622 62.6059 45.6794 62.7129C45.794 62.9222 45.8935 63.1395 45.9771 63.363C46.0396 63.525 46.0673 63.6983 46.0583 63.8716C46.0437 64.0581 45.9742 64.2361 45.8587 64.3836Z" fill="white"/>
<path d="M49.0967 67.3917L48.0038 66.8157L47.6892 64.6869L46.8737 66.2161L45.9805 65.7445L47.723 62.4705L48.6162 62.942L47.8313 64.4073L49.6854 63.5045L50.6599 64.0166L48.7414 64.9698L49.0967 67.3917Z" fill="white"/>
<path d="M52.0674 68.483L49.6989 67.6072L51.0084 64.1277L53.3362 64.99L53.0757 65.6906L51.6918 65.1786L51.4516 65.8153L52.7712 66.3037L52.5106 67.0043L51.191 66.5193L50.9136 67.2569L52.3313 67.7891L52.0674 68.483Z" fill="white"/>
<path d="M56.8584 66.765L55.6573 66.4955L55.0381 69.2374L54.0501 69.0151L54.6761 66.2766L53.4783 66.0037L53.6779 65.1279L57.0614 65.8892L56.8584 66.765Z" fill="white"/>
<path d="M60.2589 68.8333C60.2511 68.9744 60.2147 69.1126 60.1519 69.2393C60.0891 69.3661 60.0012 69.4789 59.8934 69.571C59.7738 69.6609 59.6374 69.726 59.4921 69.7624C59.3468 69.7989 59.1956 69.8059 59.0475 69.7832L57.119 69.6215L57.4336 65.9163L59.0475 66.051C59.2312 66.0631 59.4123 66.1005 59.5855 66.1622C59.7198 66.2081 59.8422 66.2828 59.9442 66.3811C60.0318 66.4611 60.0984 66.5613 60.1379 66.6729C60.1775 66.7845 60.1888 66.9041 60.1709 67.0211C60.1656 67.1502 60.1321 67.2767 60.0727 67.3916C60.0223 67.4921 59.9521 67.5814 59.8664 67.6544C59.8013 67.7181 59.7227 67.7664 59.6363 67.7958C59.8328 67.8928 60.0016 68.0376 60.1269 68.2169C60.2396 68.4016 60.2861 68.6189 60.2589 68.8333ZM59.2438 68.7019C59.2709 68.3853 59.078 68.2101 58.6585 68.1798L58.249 68.1428L58.1712 69.0859L58.5806 69.123C59.0035 69.1533 59.2201 69.0253 59.2506 68.6885L59.2438 68.7019ZM59.21 67.1525C59.2256 67.0857 59.2221 67.016 59.2 66.9511C59.1779 66.8862 59.138 66.8288 59.0848 66.7853C58.9343 66.7108 58.769 66.6705 58.6009 66.6674L58.3912 66.6472L58.3167 67.5365H58.5333C58.7026 67.5634 58.8761 67.5472 59.0374 67.4893C59.0952 67.4546 59.1423 67.4049 59.1739 67.3456C59.2055 67.2863 59.2203 67.2195 59.2167 67.1525H59.21Z" fill="white"/>
<path d="M64.6912 69.699L63.6762 69.7529L63.3378 69.0253L61.8829 69.1028L61.6528 69.8708L60.6141 69.9247L61.893 66.142L63.0096 66.0847L64.6912 69.699ZM63.0807 68.382L62.519 67.0616L62.096 68.4392L63.0807 68.382Z" fill="white"/>
<path d="M67.8311 69.1029L65.3341 69.5711L64.6574 65.9197L65.6453 65.7412L66.1698 68.51L67.6754 68.2305L67.8311 69.1029Z" fill="white"/>
<path d="M71.0285 68.153L68.5992 68.9008L67.4995 65.3572L68.4638 65.0608L69.3029 67.7555L70.7646 67.3041L71.0285 68.153Z" fill="white"/>
<path d="M75.5184 65.7917C75.4345 65.9227 75.337 66.0447 75.2275 66.1554C75.1241 66.2624 75.0108 66.3594 74.8891 66.4451C74.7633 66.5307 74.6322 66.6083 74.4966 66.6775C74.2585 66.8018 73.9992 66.8806 73.7319 66.91C73.4906 66.9347 73.2468 66.9059 73.018 66.8258C72.7872 66.7481 72.576 66.6217 72.3989 66.4552C72.2093 66.2727 72.0535 66.0583 71.9387 65.822C71.8034 65.5693 71.7206 65.292 71.6951 65.0068C71.6724 64.7628 71.7084 64.5168 71.8 64.2893C71.8874 64.0662 72.0198 63.8633 72.1891 63.6931C72.3656 63.5219 72.5676 63.3787 72.788 63.2687C73.1892 63.0773 73.6231 62.963 74.0669 62.9319L74.5135 63.8077C74.3264 63.7819 74.1374 63.7707 73.9485 63.774C73.7506 63.7841 73.5575 63.8382 73.3834 63.9323C73.2145 64.0168 73.0675 64.139 72.9538 64.2893C72.838 64.4423 72.7683 64.6248 72.7527 64.8156C72.7372 65.0064 72.7764 65.1977 72.8658 65.3672C72.9469 65.5274 73.0685 65.6637 73.2186 65.7629C73.3687 65.8622 73.542 65.9208 73.7218 65.9331C73.9129 65.939 74.1024 65.8973 74.2733 65.8119C74.4117 65.7402 74.5392 65.6495 74.6522 65.5424C74.7533 65.4559 74.842 65.3562 74.9162 65.246C74.9851 65.1493 75.0473 65.048 75.1023 64.9428L75.5184 65.7917Z" fill="white"/>
<path d="M78.5636 64.104L76.4489 65.5187L74.3646 62.4434L75.2037 61.8809L76.7872 64.2185L78.0594 63.3663L78.5636 64.104Z" fill="white"/>
<path d="M80.7121 60.089C80.9029 60.2927 81.0472 60.5352 81.135 60.7997C81.2035 61.0178 81.2151 61.2496 81.1688 61.4734C81.1255 61.6823 81.0453 61.8818 80.932 62.0628C80.8181 62.2352 80.6829 62.3925 80.5294 62.5311C80.3179 62.7196 80.0705 62.864 79.8019 62.9555C79.5238 63.0558 79.2215 63.0687 78.9357 62.9925C78.593 62.8985 78.2888 62.6993 78.0662 62.4233L76.7128 60.8907L77.4707 60.217L78.638 61.5273C78.7716 61.6856 78.9333 61.818 79.1151 61.918C79.2457 61.9909 79.3959 62.0216 79.5448 62.0056C79.6838 61.9821 79.8136 61.9205 79.9194 61.8277C80.0252 61.7349 80.1028 61.6145 80.1437 61.4801C80.1797 61.3348 80.1702 61.182 80.1166 61.0422C80.0356 60.8527 79.921 60.6793 79.7782 60.5302L78.6042 59.2098L79.3621 58.5361L80.7121 60.089Z" fill="white"/>
<path d="M83.7843 57.4481C83.8982 57.533 83.9928 57.6407 84.0622 57.7643C84.1316 57.8879 84.1741 58.0246 84.1869 58.1656C84.1922 58.3161 84.167 58.466 84.113 58.6066C84.0589 58.7472 83.977 58.8756 83.8723 58.9841L82.6339 60.4628L79.7748 58.0847L80.8102 56.8452C80.928 56.7029 81.0646 56.5771 81.2162 56.4713C81.3315 56.3889 81.463 56.3315 81.6019 56.3029C81.713 56.2753 81.8292 56.2753 81.9403 56.3029C82.0549 56.3347 82.1611 56.391 82.2516 56.4679C82.3502 56.5525 82.4327 56.654 82.4952 56.7677C82.5492 56.8657 82.5837 56.9733 82.5967 57.0843C82.6161 57.172 82.6161 57.2628 82.5967 57.3504C82.7885 57.2458 83.0039 57.1913 83.2226 57.1921C83.4333 57.2126 83.6311 57.3027 83.7843 57.4481ZM81.8083 57.3302C81.7602 57.2797 81.6993 57.2431 81.632 57.2241C81.5648 57.2051 81.4936 57.2045 81.426 57.2224C81.2723 57.3025 81.1401 57.418 81.0403 57.5593L80.905 57.7243L81.5817 58.2902L81.7271 58.1252C81.8453 58.0012 81.9322 57.8512 81.9809 57.6873C81.9871 57.6178 81.9743 57.548 81.944 57.4851C81.9136 57.4223 81.8667 57.3688 81.8083 57.3302ZM83.1042 58.1959C82.8572 57.9938 82.6001 58.0477 82.3328 58.3677L82.0689 58.681L82.7997 59.2906L83.067 58.9774C83.3343 58.6608 83.3445 58.3946 83.1042 58.1959Z" fill="white"/>
<path d="M108 34.3308L106.985 32.7813C106.985 32.7813 101.778 30.9455 97.4435 33.4887L97.166 32.6971L95.9006 32.8015L96.9427 29.4567L95.833 27.7927L91.5596 28.1296C91.2043 29.4601 89.2825 34.0883 85.4456 34.5497L85.2358 35.1392C84.4305 34.1725 83.5069 33.8525 82.2482 33.8457L83.2937 30.5683L82.1805 28.8841L73.468 29.6016L73.8063 33.8862L73.309 35.4525C68.0341 33.839 63.2431 34.8832 60.2216 37.1805L59.6396 36.6853L61.7137 34.9607L57.3152 28.6887L51.2824 33.7009L52.9742 36.1464L50.3553 36.3552L50.5787 38.3392C49.408 36.7965 47.5335 36.4899 45.6827 36.692L38.733 37.2579L45.0602 31.4104L43.8184 29.5477L33.0352 30.4302L31.2893 30.575C31.3164 30.7839 31.533 32.3973 31.6277 33.0272C31.6751 33.3843 31.7156 33.7009 31.7393 33.8761L30.5551 34.9876C29.6754 35.8129 25.0975 40.1682 24.0453 41.1619C24.0926 41.364 24.8235 45.4802 24.8235 45.4802L25.3648 48.5623C26.1227 53.1332 28.7788 55.2991 33.2484 54.9824L53.1366 53.4128L51.3433 55.2418C52.5174 57.0708 55.3257 59.907 58.9968 59.907H59.0273C63.6762 59.907 67.2119 57.2359 69.3401 52.1597L83.2835 51.0313L83.9602 48.953C84.28 49.6423 84.7875 50.2286 85.425 50.6454C86.0625 51.0622 86.8046 51.2927 87.5671 51.3109C88.8654 51.3454 90.1359 50.9325 91.1637 50.1421L91.9148 49.1012L92.1585 49.5728C96.9292 51.1021 101.03 49.5997 102.986 48.2254C105.395 46.5412 107.086 43.3985 105.977 40.5994L108 34.3308ZM34.6965 49.0002C34.2648 48.3796 33.9675 47.6765 33.8236 46.9353C33.8236 46.8983 33.1875 44.2608 32.8525 42.7181L36.8586 39.0129L37.0819 41.7244L34.6965 49.0002Z" fill="#A6A6A6"/>
<path d="M23.108 48.478C22.2892 50.1387 21.4163 51.9205 21.3114 52.126L21.7276 53.9382L21.7749 54.1605L21.8223 54.3626L22.2013 56.0232C22.296 56.4443 22.5667 57.6232 22.5667 57.6232L20.4587 57.8792L19.4437 56.7104C19.7279 58.0274 18.8922 59.1491 18.5504 59.4893C18.2617 59.7754 17.9182 60.0008 17.5404 60.1524C17.1625 60.3039 16.758 60.3784 16.3507 60.3715C15.9434 60.3646 15.5416 60.2764 15.1691 60.1121C14.7967 59.9479 14.4611 59.7109 14.1823 59.4152C12.0744 57.3167 13.1199 54.0628 14.5207 53.6889L15.1703 51.7319L11.9763 47.8852L16.3106 48.0401L23.0166 28.106L31.0491 22.9792L30.3724 33.6975L26.3325 41.8827L23.108 48.478Z" fill="#A6A6A6"/>
<path d="M24.9453 43.5366L29.8716 33.5493L30.4671 24.01L23.5073 28.4529L16.7403 48.5926L13.2147 48.468L15.8267 51.6039C15.6203 52.2473 15.2143 53.4599 15.0147 54.0763C14.6694 54.1874 14.3639 54.3956 14.135 54.6759C14.0637 54.7665 13.9993 54.8622 13.9421 54.9622C13.2417 56.1614 13.5598 57.8489 14.5173 58.9504C16.2497 60.9344 19.6163 59.3411 18.855 56.4005C18.9193 56.2692 19.1189 55.7976 19.2204 55.5854L20.7057 57.3134L21.9204 57.1652L20.7565 52.062L23.8456 45.7968" fill="#160A0A"/>
<path d="M18.3102 53.3893L16.8925 56.3366C17.0018 56.6364 17.0489 56.9552 17.0309 57.2736C17.0128 57.5921 16.9301 57.9035 16.7877 58.1892C16.358 58.937 15.4951 58.937 14.8658 58.1892C14.2365 57.4414 14.0741 56.249 14.5072 55.4945C14.5978 55.3156 14.7398 55.1676 14.9151 55.0693C15.0904 54.9709 15.2911 54.9266 15.4918 54.9421L16.6489 51.4221L14.9572 49.4415L17.2512 49.6032L24.0588 29.1233L28.3964 26.3545L27.8821 33.6067L19.1324 51.7623L20.0324 55.3867L18.3102 53.3893ZM16.1718 57.4617C16.2638 57.2627 16.2971 57.0417 16.2677 56.8247C16.2384 56.6076 16.1476 56.4033 16.0061 56.2356C15.7185 55.8987 15.3294 55.8987 15.1264 56.2356C15.0339 56.4342 15.0001 56.655 15.0289 56.8721C15.0576 57.0891 15.1478 57.2936 15.2888 57.4617C15.5764 57.8052 15.9688 57.8019 16.1718 57.4617Z" fill="url(#paint4_linear_385_1660)"/>
<path d="M17.9753 50.4722L16.3715 50.3543L16.0568 49.9838L17.664 50.1017L24.4682 29.6184L27.7976 27.4963L27.757 28.0959L24.7829 29.9856L17.9753 50.4722Z" fill="#EFEFEF"/>
<path d="M15.9012 55.4373L17.0617 51.9207L17.3764 52.2912L16.2192 55.8078L15.9012 55.4373Z" fill="#EFEFEF"/>
<path d="M25.0197 42.9707L25.9941 48.4848C26.5761 51.5433 28.0243 54.7634 33.201 54.3896L40.0966 53.8203L40.5635 52.5134L41.5447 53.6957L47.1546 53.2679L47.5944 52.0182L48.4504 53.1938L54.3276 52.7256L55.9956 47.5483C56.1547 50.398 58.3641 51.9778 61.3585 51.1155C61.1961 51.7555 60.4212 52.867 59.3284 52.867C57.7787 52.867 57.3186 51.1997 57.0682 50.3879L52.1723 55.3361C54.6287 58.7449 57.6603 59.3074 58.9968 59.3074C60.3333 59.3074 66.3593 59.3714 69.3334 50.4182L69.9221 51.5332L75.2951 51.102L75.7586 49.7984L76.6688 50.9774L82.8099 50.4755L83.9805 46.8544C84.0584 48.2557 85.1986 50.7214 87.5806 50.7214C88.7078 50.7414 89.8095 50.3857 90.7103 49.7109L91.9757 47.9627L92.4765 49.017C93.1769 49.374 95.8938 49.6906 97.3352 49.5593C98.9728 49.4077 103.913 48.6532 105.483 43.8162C105.64 43.3457 105.722 42.8535 105.726 42.3576C105.716 41.7636 105.574 41.1792 105.31 40.6465L107.31 34.4217L106.586 33.3236C102.231 32.0571 98.6141 33.2124 97.1119 34.4924L96.7194 33.3674L95.004 33.5055C95.5555 31.7741 96.2423 29.5544 96.2423 29.5544L95.5081 28.4529L92.0231 28.7325C90.4396 33.3842 87.2862 34.9034 85.8448 35.1324L85.3542 36.6179C84.8805 34.7552 83.0636 34.3105 81.3583 34.5598C81.9268 32.7678 82.5865 30.6794 82.5865 30.6794L81.8557 29.5813L74.165 30.2146C74.165 30.2146 74.4425 33.6436 74.4695 33.9939C74.4425 34.0781 74.1548 34.9674 73.7353 36.2912L72.7642 35.9712C71.5902 35.5804 70.4601 35.3581 68.1661 35.3547C67.7533 35.3547 67.3405 35.3918 66.9751 35.4221H66.9547C63.4224 35.7792 60.8205 37.0389 58.9088 39.38L59.5381 37.4364L58.6855 36.7088L60.8915 34.8764L57.2137 29.6487L52.1621 33.8491L54.155 36.7156L51.0896 36.9682L51.5192 40.7442L50.9982 41.8423C50.9474 38.1202 48.6094 37.0423 45.7774 37.3522L37.4439 38.0259C37.4439 38.0259 37.7281 41.4515 37.7586 41.8018C37.6706 42.0646 36.0668 46.9184 35.0112 50.169C34.0841 49.5862 33.4954 48.3298 33.2281 47.0734C33.2281 47.0734 32.4938 43.9711 32.1792 42.5025L44.2583 31.3362L43.5207 30.2348L32.0404 31.1746C32.0404 31.1746 32.345 33.5021 32.4296 34.1421C31.9187 34.6171 28.031 38.2718 26.0009 40.185L24.7558 41.428" fill="#160A0A"/>
<path d="M55.2174 36.3384L53.4715 33.8829L56.943 30.9995L58.6923 33.4551L55.2174 36.3384Z" fill="url(#paint5_linear_385_1660)"/>
<path d="M75.4474 33.9703L70.5751 49.1281L74.4932 48.7913L77.0072 41.0675C77.5248 39.4911 78.1744 38.4806 79.1793 38.3964C80.1842 38.3122 80.3636 39.2418 79.856 40.8351L77.3421 48.606L81.2568 48.2692L84.0042 39.7909C85.0565 36.5539 83.8046 35.2436 81.5647 35.4288C80.2945 35.5503 79.1224 36.1621 78.2996 37.1332L80.3805 30.5918L75.2241 31.0162L75.4474 33.9703Z" fill="url(#paint6_linear_385_1660)"/>
<path d="M30.2404 40.9126L40.5668 31.3699L33.1231 31.9728L33.4378 34.3947L25.781 41.5761L26.796 47.2822C27.0735 49.0944 27.9769 52.4729 31.3231 52.1967L34.8623 51.9104C33.025 50.8325 31.9795 49.0641 31.4788 46.7736L30.2404 40.9126Z" fill="url(#paint7_linear_385_1660)"/>
<path d="M38.7127 41.7884L35.451 51.8465L39.3725 51.5299L41.8898 43.7623C42.0593 43.0533 42.3789 42.3883 42.8271 41.812C43.1358 41.4339 43.5703 41.1782 44.0519 41.0912C44.1576 41.073 44.2659 41.0761 44.3704 41.1003C44.4749 41.1245 44.5734 41.1694 44.6602 41.2322C44.747 41.295 44.8202 41.3745 44.8755 41.466C44.9308 41.5575 44.9672 41.6591 44.9823 41.7649C45.1245 42.2668 44.9181 42.9068 44.7184 43.5198L42.2045 51.2873L46.126 50.9673L48.6027 43.311C49.0797 41.839 49.5568 40.5758 49.1068 39.4474C48.6568 38.319 47.6519 38.0259 46.4237 38.127C45.1574 38.2431 43.9868 38.8475 43.162 39.8112L43.6256 38.3796L38.4725 38.7973L38.7127 41.7884Z" fill="url(#paint8_linear_385_1660)"/>
<path d="M93.3968 43.8229C93.8684 44.2527 94.4241 44.5811 95.0289 44.7874C95.6338 44.9937 96.2749 45.0736 96.9123 45.0221C97.5416 44.9716 98.5769 44.6852 98.9153 43.6747C99.5176 41.8086 94.1412 42.1421 95.3592 38.383C95.8391 36.9275 96.8191 35.6871 98.1269 34.8798C99.2441 34.1737 100.527 33.7697 101.849 33.7076C102.968 33.6179 104.094 33.6985 105.188 33.9468L104.244 36.8436C103.909 36.525 103.508 36.2838 103.069 36.1371C102.63 35.9903 102.163 35.9418 101.703 35.9948C101.25 36.0352 100.323 36.244 100.076 37.0053C99.7984 37.8743 100.478 38.0327 100.956 38.1809C101.669 38.4234 102.495 38.6524 103.036 39.1914C103.74 39.8651 104.16 40.8756 103.713 42.3038C102.505 46.0326 98.8645 47.1476 96.4589 47.3564C95.2511 47.416 94.041 47.3025 92.8656 47.0196L93.3968 43.8229Z" fill="url(#paint9_linear_385_1660)"/>
<path d="M61.2705 49.8961C58.5975 50.9066 56.8956 49.2965 56.8956 46.6624C56.8956 45.0187 57.9344 40.6532 61.5649 38.1168C63.1856 36.985 65.3172 36.281 68.1052 36.2339C70.2029 36.2339 71.245 36.4225 72.3751 36.8031C71.5512 37.4142 70.9406 38.2671 70.6293 39.2419L67.371 49.4481C64.7758 57.4312 57.6197 58.755 53.5967 55.1508L56.7637 51.9475C56.9018 52.4534 57.2054 52.8991 57.6265 53.214C59.5314 54.5849 62.157 53.3555 63.6491 48.7879L66.5995 39.5484C66.5217 39.5282 66.4743 39.481 66.3931 39.4642C65.0397 39.0061 63.6863 39.6427 62.4919 41.2696C61.9743 42.004 61.5716 42.9235 61.2367 44.4359C60.9863 45.5441 61.1081 48.4073 63.8555 46.7433L61.2705 49.8961Z" fill="url(#paint10_linear_385_1660)"/>
<path d="M94.1886 37.514L95.2036 34.3813L92.3852 34.6138L93.9957 29.4702L92.6423 29.5746C90.2739 35.0988 86.552 35.8601 86.552 35.8601L86.0479 37.3961L87.6652 37.2647L85.0599 45.4229C84.3832 47.444 85.8516 49.6301 89.1742 47.7034L91.6104 44.335C89.8746 45.0356 89.3603 43.8802 89.6141 43.0752L91.6205 36.9346L93.1228 36.8099C93.3556 36.781 93.5912 36.8361 93.7867 36.9653C93.9823 37.0945 94.1249 37.2891 94.1886 37.514Z" fill="url(#paint11_linear_385_1660)"/>
<path d="M57.2746 37.342L52.1215 37.7631L52.3651 40.7239L49.1068 50.7954L53.0215 50.4721L57.2746 37.342Z" fill="url(#paint12_linear_385_1660)"/>
<path d="M58.7803 43.7623C60.0017 40.5219 61.7645 38.5649 64.5965 37.4061L64.5017 37.2815C61.4058 38.383 59.5179 40.3939 58.2321 43.8095C57.0378 46.9791 57.8701 49.2191 59.9983 49.5863L60.1269 49.438C58.3099 48.8149 57.6671 46.7265 58.7803 43.7623Z" fill="#EFEFEF"/>
<path d="M67.2593 39.6562L64.3529 48.7307C63.4562 51.4692 62.157 53.0018 60.8476 53.497L60.9152 53.5913C62.3837 53.3151 63.8961 51.7623 64.8976 48.6869L67.7397 39.7977L67.2593 39.6562Z" fill="#EFEFEF"/>
<path d="M55.0482 55.0464L56.9126 53.1635L56.7096 52.8569L54.5035 55.0902C55.1511 55.6458 55.9038 56.0668 56.7173 56.3283C57.5309 56.5898 58.3887 56.6865 59.2404 56.6127L59.3081 56.5251C57.7753 56.4578 56.2122 56.094 55.0482 55.0464Z" fill="#EFEFEF"/>
<path d="M86.3626 45.3184L88.9712 37.1602L88.4468 37.2006L85.8415 45.3622C85.3509 46.8308 86.234 48.5656 88.846 47.1912L88.9408 47.0127C86.322 47.8952 85.9261 46.6388 86.3626 45.3184Z" fill="#EFEFEF"/>
<path d="M92.8758 30.1606C90.7814 35.1121 87.2795 35.9778 87.2795 35.9778L86.9919 36.8401L87.5163 36.7997L87.7464 36.1597C87.7464 36.1597 91.2212 35.2536 93.1972 30.1235L92.8758 30.1606Z" fill="#EFEFEF"/>
<path d="M54.7708 33.812L56.9633 31.9897L56.7874 31.7371L54.2396 33.8558L55.4238 35.5265L55.7723 35.2166L54.7708 33.812Z" fill="#EFEFEF"/>
<path d="M93.5457 45.9417L93.4273 46.5042C96.8108 47.2015 99.054 46.3931 100.462 45.4331L100.394 45.3657C99.054 46.2718 96.239 46.8579 93.5457 45.9417Z" fill="#EFEFEF"/>
<path d="M104.001 35.3884C103.476 35.1815 102.912 35.088 102.348 35.1142C101.784 35.1403 101.232 35.2854 100.729 35.54L100.78 35.6511C101.274 35.4595 101.806 35.3786 102.335 35.4141C102.865 35.4496 103.381 35.6007 103.845 35.8566L104.001 35.3884Z" fill="#EFEFEF"/>
<path d="M97.281 36.426C96.8175 36.8269 95.8498 37.9957 95.8972 39.3026C95.9885 41.7414 100.712 41.5662 99.2807 43.9308L99.4296 43.9611C101.081 41.5157 96.5468 41.4247 96.3844 39.1578C96.2965 37.9149 97.1423 36.7763 97.3419 36.5372L97.281 36.426Z" fill="#EFEFEF"/>
<path d="M40.0458 41.6402L39.7819 39.2588L39.2913 39.3026L39.5451 41.6605C39.491 41.8322 37.427 48.2053 36.4999 51.0482L37.0176 51.0044L40.0458 41.6402Z" fill="#EFEFEF"/>
<path d="M53.6949 40.5758L53.4309 38.1909L52.937 38.2347L53.1941 40.5926C53.1332 40.7677 51.0727 47.1374 50.149 49.977L50.6666 49.9365L53.6949 40.5758Z" fill="#EFEFEF"/>
<path d="M76.7771 33.8187L76.5098 31.4373L76.0226 31.481L76.2729 33.8389C76.2188 34.0141 72.5071 45.4869 71.58 48.323L72.1011 48.2793L76.7771 33.8187Z" fill="#EFEFEF"/>
<path d="M45.5305 40.8149L45.3951 40.953C45.5305 41.0373 46.0278 41.6267 45.4289 43.4928C44.9417 44.9817 43.6526 48.9934 43.1586 50.5025L43.6797 50.4587L45.9365 43.4524C46.4203 42.0006 46.0109 41.1114 45.5305 40.8149Z" fill="#EFEFEF"/>
<path d="M80.6546 38.0933L80.5125 38.2347C80.6546 38.3189 81.1452 38.9084 80.5497 40.7779C80.0591 42.2667 78.77 46.2751 78.2794 47.7875L78.8038 47.7404L81.0572 40.7307C81.5275 39.2823 81.1317 38.3897 80.6546 38.0933Z" fill="#EFEFEF"/>
<path d="M28.1494 47.1744L27.202 41.7412L34.8149 34.5496L34.5307 32.4309L34.0232 32.4713L34.2736 34.4553L26.6336 41.657L27.6825 47.4573C28.1258 49.6232 28.8025 51.0817 30.1863 51.5702L30.572 51.5398C29.2559 50.8998 28.4878 49.2224 28.1494 47.1744Z" fill="#EFEFEF"/>
</g>
<defs>
<linearGradient id="paint0_linear_385_1660" x1="33.4155" y1="49.993" x2="33.4155" y2="27.1654" gradientUnits="userSpaceOnUse">
<stop stop-color="#F5A200"/>
<stop offset="0.4" stop-color="#F08000"/>
<stop offset="1" stop-color="#E1002A"/>
</linearGradient>
<linearGradient id="paint1_linear_385_1660" x1="42.4028" y1="49.1464" x2="42.4028" y2="33.7198" gradientUnits="userSpaceOnUse">
<stop stop-color="#F5A200"/>
<stop offset="0.4" stop-color="#F08000"/>
<stop offset="1" stop-color="#E1002A"/>
</linearGradient>
<linearGradient id="paint2_linear_385_1660" x1="62.5616" y1="50.6257" x2="62.5616" y2="32.5031" gradientUnits="userSpaceOnUse">
<stop stop-color="#F5A200"/>
<stop offset="0.4" stop-color="#F08000"/>
<stop offset="1" stop-color="#E1002A"/>
</linearGradient>
<linearGradient id="paint3_linear_385_1660" x1="52.985" y1="48.9382" x2="52.985" y2="33.1883" gradientUnits="userSpaceOnUse">
<stop stop-color="#F5A200"/>
<stop offset="0.4" stop-color="#F08000"/>
<stop offset="1" stop-color="#E1002A"/>
</linearGradient>
<linearGradient id="paint4_linear_385_1660" x1="13.5869" y1="58.8393" x2="28.9062" y2="28.5661" gradientUnits="userSpaceOnUse">
<stop stop-color="#F5A200"/>
<stop offset="0.4" stop-color="#F08000"/>
<stop offset="1" stop-color="#E1002A"/>
</linearGradient>
<linearGradient id="paint5_linear_385_1660" x1="55.2445" y1="50.1064" x2="55.2445" y2="33.926" gradientUnits="userSpaceOnUse">
<stop stop-color="#F5A200"/>
<stop offset="0.4" stop-color="#F08000"/>
<stop offset="1" stop-color="#E1002A"/>
</linearGradient>
<linearGradient id="paint6_linear_385_1660" x1="76.7256" y1="48.2591" x2="76.7256" y2="29.6918" gradientUnits="userSpaceOnUse">
<stop stop-color="#F5A200"/>
<stop offset="0.4" stop-color="#F08000"/>
<stop offset="1" stop-color="#E1002A"/>
</linearGradient>
<linearGradient id="paint7_linear_385_1660" x1="32.238" y1="51.1895" x2="32.238" y2="27.7394" gradientUnits="userSpaceOnUse">
<stop stop-color="#F5A200"/>
<stop offset="0.4" stop-color="#F08000"/>
<stop offset="1" stop-color="#E1002A"/>
</linearGradient>
<linearGradient id="paint8_linear_385_1660" x1="41.4709" y1="50.3206" x2="41.4709" y2="34.4716" gradientUnits="userSpaceOnUse">
<stop stop-color="#F5A200"/>
<stop offset="0.4" stop-color="#F08000"/>
<stop offset="1" stop-color="#E1002A"/>
</linearGradient>
<linearGradient id="paint9_linear_385_1660" x1="98.3746" y1="46.1956" x2="98.3746" y2="29.803" gradientUnits="userSpaceOnUse">
<stop stop-color="#F5A200"/>
<stop offset="0.4" stop-color="#F08000"/>
<stop offset="1" stop-color="#E1002A"/>
</linearGradient>
<linearGradient id="paint10_linear_385_1660" x1="62.1779" y1="51.8383" x2="62.1779" y2="33.2225" gradientUnits="userSpaceOnUse">
<stop stop-color="#F5A200"/>
<stop offset="0.4" stop-color="#F08000"/>
<stop offset="1" stop-color="#E1002A"/>
</linearGradient>
<linearGradient id="paint11_linear_385_1660" x1="89.3854" y1="47.6043" x2="89.3854" y2="31.3208" gradientUnits="userSpaceOnUse">
<stop stop-color="#F5A200"/>
<stop offset="0.4" stop-color="#F08000"/>
<stop offset="1" stop-color="#E1002A"/>
</linearGradient>
<linearGradient id="paint12_linear_385_1660" x1="52.3414" y1="50.1063" x2="52.3414" y2="33.9278" gradientUnits="userSpaceOnUse">
<stop stop-color="#F5A200"/>
<stop offset="0.4" stop-color="#F08000"/>
<stop offset="1" stop-color="#E1002A"/>
</linearGradient>
<clipPath id="clip0_385_1660">
<rect width="96" height="65" fill="white" transform="translate(12 8)"/>
</clipPath>
</defs>
</svg>
