<svg width="120" height="80" viewBox="0 0 120 80" fill="none" xmlns="http://www.w3.org/2000/svg">
<g clip-path="url(#clip0_388_757)">
<path fill-rule="evenodd" clip-rule="evenodd" d="M31.094 13.6505C31.094 13.6505 46.7394 -0.274102 74.5132 6.95106C79.7069 8.44812 84.6395 10.7068 89.1437 13.6505V24.6976H102.22L100.135 27.531H94.2186V29.9393L99.0782 32.5587C99.7558 32.9307 100.255 33.5513 100.466 34.2839C100.787 35.4897 100.414 41.7168 100.414 41.7168C100.414 41.7168 100.039 43.6058 97.4241 42.7652L90.0366 40.4103C90.0366 40.4103 90.3032 42.8691 89.5034 46.8988C89.5034 46.8988 86.8857 61.1917 72.3066 70.4034C72.3066 70.4034 65.6868 74.1813 60.0273 76.0545C60.0273 76.0545 48.4868 73.6492 37.5436 61.2421C37.5436 61.2421 31.6689 54.0704 30.5448 45.9071L30.1176 42.6078L30.0116 40.9865C30.0116 40.9865 25.6722 41.2509 23.3885 41.9309L19.9935 43.0706L20.1027 27.0524L18.1241 24.7479L30.8884 24.6692L31.1037 13.6505H31.094Z" fill="white"/>
<path d="M60.159 78.0002L59.6419 77.89C59.144 77.7893 47.3401 75.2077 36.0982 62.4638L36.0533 62.4102C35.7995 62.0954 29.8285 54.7286 28.6658 46.1434L28.2611 43.0141C26.8269 43.135 25.4049 43.3677 24.0084 43.7098L18.0567 45.7152L18.1755 27.7295L14 22.8844L28.987 22.7931L29.1829 12.8006L29.7964 12.2528C29.9698 12.1017 34.0843 8.47496 41.7416 5.81472C48.7341 3.3717 60.1815 1.26869 75.0046 5.12526C80.4115 6.67105 85.5448 9.01958 90.2261 12.0891L91.0708 12.6495V22.8088H105.997L101.131 29.4201H97.2571L99.9969 30.8966C100.564 31.2055 101.063 31.6222 101.464 32.1222C101.864 32.6222 102.16 33.1955 102.332 33.8087C102.676 35.1089 102.483 39.3905 102.332 41.8303V41.9563L102.306 42.079C102.201 42.5534 101.997 43.0013 101.708 43.3951C101.418 43.7889 101.049 44.12 100.623 44.3678C99.9005 44.7834 98.6575 45.1517 96.8234 44.5598L91.9734 43.0015C91.8807 44.4287 91.6929 45.8484 91.4113 47.2516C91.3021 47.8403 88.4756 62.4323 73.3665 71.9808L73.2895 72.028C73.0132 72.1854 66.4384 75.9098 60.6633 77.8334L60.159 78.0002ZM39.0404 60.0302C48.1334 70.3186 57.7147 73.451 59.9598 74.0712C65.0379 72.2925 70.8002 69.0719 71.3173 68.7822C84.9328 60.153 87.5955 46.688 87.6212 46.5527C88.3535 42.8787 88.1383 40.6151 88.1351 40.5931L87.846 37.7156L90.6501 38.6034L98.0215 40.9583C98.1829 41.0137 98.3498 41.0528 98.5193 41.0748C98.6639 38.4145 98.7281 35.3639 98.5964 34.7342C98.5241 34.5252 98.3814 34.3464 98.1917 34.2274L98.1275 34.2022H98.15L92.2914 31.054V26.5867H87.2165V14.6675C83.1167 12.1145 78.6749 10.1322 74.0186 8.77719C66.4159 6.80011 54.9042 5.28582 43.2224 9.30609C39.5578 10.5266 36.1096 12.2993 33.0019 14.5605L32.7707 26.5489L22.0202 26.615L21.9207 40.4168L22.8329 40.102C25.3029 39.3684 29.7097 39.0914 29.8992 39.0819L31.8263 38.9655L32.0544 42.4096L32.4719 45.646C33.4837 52.9498 38.6839 59.5831 39.0404 60.0302Z" fill="white"/>
<path fill-rule="evenodd" clip-rule="evenodd" d="M42.8273 17.4756C43.7652 17.2552 44.0318 19.5376 44.4333 18.6184C44.7545 18.228 44.9183 17.4472 45.4996 17.5008C46.8776 17.2867 44.414 19.4212 44.6806 19.9816C44.6581 20.3751 44.7962 21.0268 44.2791 20.9638C44.1217 20.9638 43.8551 20.9449 43.8037 20.7371C43.6849 20.3751 43.8776 19.8745 43.6849 19.5125C43.4344 19.1599 43.1806 18.7789 42.9493 18.4137C42.7341 18.1619 42.2074 17.4189 42.8273 17.4756ZM65.3945 17.4945C65.979 17.6393 65.8474 18.3224 66.114 18.7223C66.2874 19.0623 66.2296 19.8525 66.6407 19.3519C66.8591 19.0025 66.8784 18.505 67.1161 18.1241C67.1643 17.9037 67.19 17.57 67.4887 17.5322C67.8934 17.4032 68.5037 17.5322 68.3944 18.0454C68.3366 19.0119 68.433 19.8777 68.3687 20.7434C68.2499 21.0173 67.6139 21.0929 67.5465 20.7214C67.479 20.3499 67.63 19.8399 67.4469 19.5975C67.1257 19.2165 67.1771 21.3416 66.3709 20.9575C65.8827 20.819 65.9694 20.2806 65.796 19.9469C65.751 19.7738 65.5486 19.6667 65.4748 19.7328C65.4411 19.8344 65.4248 19.9408 65.4266 20.0477C65.4619 20.4979 65.4716 21.1023 64.7842 20.9921C64.4181 20.8284 64.614 20.2964 64.5658 19.9343C64.5658 19.1725 64.5658 18.6089 64.5658 17.973C64.5658 17.337 64.887 17.5165 65.3945 17.4945ZM49.3957 17.4945C49.7169 17.8376 49.4889 18.5743 49.5531 18.9584C49.4696 19.588 49.8486 20.7151 49.0778 20.8819C48.3069 21.0488 47.4172 20.8819 46.5789 20.9544C46.0585 20.7969 46.4086 19.9091 46.309 19.4558C46.3893 18.8828 46.1292 17.9793 46.4696 17.4976C46.5641 17.4592 46.6679 17.4483 46.7686 17.4661C46.8693 17.4839 46.9626 17.5297 47.0374 17.5981C47.1122 17.6664 47.1654 17.7545 47.1906 17.8516C47.2158 17.9488 47.2119 18.051 47.1795 18.1461C47.1795 18.5176 47.1795 19.0528 47.1795 19.4054C47.1249 19.8934 47.1024 20.2995 47.793 20.1956C48.0307 20.1673 48.5895 20.309 48.7309 19.9847C48.7309 19.4495 48.7309 18.8041 48.7309 18.2343C48.6313 17.8156 48.8722 17.3119 49.3957 17.5039V17.4945ZM77.2851 17.4945C77.6674 17.6424 77.4746 18.1934 77.51 18.4389C77.51 19.1221 77.51 19.8651 77.51 20.5577C77.5098 20.643 77.4823 20.7262 77.4315 20.7955C77.3806 20.8649 77.309 20.9169 77.2265 20.9443C77.144 20.9717 77.0549 20.9731 76.9715 20.9484C76.8881 20.9237 76.8147 20.874 76.7616 20.8064C76.6106 20.5545 76.7327 20.1767 76.6973 19.9343C76.6973 19.4936 76.6973 18.8702 76.6973 18.3948C76.6973 17.9195 76.6813 17.3119 77.2851 17.4976V17.4945ZM39.5639 17.5448C40.0907 17.8376 39.3198 18.9962 40.2963 18.8513C40.6689 18.8167 40.9579 18.93 41.2406 18.7726C41.4943 18.3823 41.0093 17.4189 41.8348 17.4787C42.4129 17.4567 42.0725 19.0528 42.156 19.566C42.156 20.3247 42.3198 21.4927 41.3658 20.7749C41.1539 20.2838 41.687 19.4086 40.7235 19.5534C39.0115 19.418 40.1164 20.0823 39.6314 20.863C38.5169 21.4455 38.989 19.7454 38.8991 19.0906C38.989 18.6373 38.6228 17.0946 39.5639 17.548V17.5448ZM52.688 17.4945C53.5359 17.5952 53.4139 18.2185 53.4043 18.9521C53.3336 19.5314 53.5649 20.2869 53.3015 20.8882C53.2539 20.9247 53.1993 20.9514 53.141 20.9669C53.0827 20.9824 53.0219 20.9863 52.962 20.9784C52.9022 20.9705 52.8445 20.9509 52.7925 20.9208C52.7405 20.8907 52.6951 20.8508 52.6591 20.8032C52.5081 20.608 52.5949 20.2806 52.582 20.0477C52.4889 19.566 52.733 18.7349 52.4824 18.335C52.2831 18.2403 52.0587 18.2084 51.84 18.2437C51.551 18.2721 51.1976 18.1367 51.0338 18.4421C50.9375 19.0717 51.2169 20.4475 50.8989 20.8725C49.9353 21.3227 50.1987 20.2051 50.1666 19.6132C50.1955 19.0402 50.1313 18.4704 50.1859 17.74C50.2308 17.3685 50.5906 17.5259 50.8026 17.5008C51.4707 17.5008 52.0841 17.4945 52.688 17.4976V17.4945ZM56.9021 17.6015C57.4063 17.74 57.2233 18.5113 57.2554 18.8608C57.2817 19.4289 57.2656 19.9981 57.2072 20.564C56.9278 21.1086 56.1119 20.8788 55.6012 20.9575C55.1837 20.9071 54.5895 21.0016 54.1751 20.9197C53.8539 20.5262 54.1045 19.8084 54.0274 19.2795C54.0916 18.6782 53.8828 17.9698 54.1398 17.5417C54.2586 17.4189 54.4321 17.5133 54.6087 17.4913C54.9621 17.4913 55.2029 17.4913 55.5434 17.4913C55.9674 17.5448 56.446 17.3969 56.9021 17.6046V17.6015ZM71.449 17.4882C72.2263 17.5291 72.2295 18.2784 72.2135 18.8356C72.1781 19.3015 72.2873 19.9973 72.1364 20.4758C71.9854 21.1055 71.1407 20.9292 70.6332 20.948C70.1867 20.9134 69.7627 21.0299 69.3484 20.8536C68.7285 20.6553 69.0882 18.93 68.9919 18.335C68.9341 17.5889 69.5508 17.422 70.145 17.485C70.5689 17.5102 70.9865 17.4945 71.449 17.4913V17.4882ZM73.3762 17.4882C74.0186 17.6172 75.6663 17.1733 75.9747 17.9226C76.0466 18.0937 76.081 18.2778 76.0754 18.4627C76.0699 18.6477 76.0246 18.8295 75.9425 18.9962C75.8655 19.1976 76.0614 19.3676 76.0999 19.5345C76.1802 19.8934 76.2188 20.479 75.9297 20.7371C75.4383 21.1244 74.7316 20.8977 74.1053 20.9512C73.691 20.8882 72.9426 21.181 72.8751 20.6143C72.8751 19.9406 72.8751 19.333 72.8751 18.6908C72.9105 18.1839 72.692 17.378 73.3762 17.4882V17.4882ZM80.9949 17.5763C81.5891 18.4452 80.192 18.2311 79.6813 18.2469C79.3344 18.1997 78.7177 18.2689 78.9554 18.7317C79.7969 19.2826 81.4799 18.206 81.3161 19.9123C81.4607 20.9134 80.6994 20.9984 79.9382 20.9544C79.4436 20.8442 78.056 21.2975 78.2487 20.4412C78.374 20.0571 79.6459 20.2617 80.0121 20.2397C80.3654 20.3216 80.7412 19.7738 80.2883 19.5912C79.7262 19.4275 78.6599 19.8493 78.2327 19.2763C77.995 18.9615 78.0849 18.3319 78.1459 17.9447C78.2937 17.5071 78.8461 17.4787 79.2251 17.4819C79.6042 17.485 80.0603 17.4819 80.3975 17.5008C80.5549 17.5196 80.8408 17.4158 80.9949 17.5763V17.5763ZM60.9427 17.5322C61.2254 17.8471 61.0198 18.8293 61.0808 19.248C60.9973 19.8462 61.4181 21.3101 60.4192 20.904C59.9534 20.7308 60.538 20.0099 60.0305 19.8903C57.8335 19.7801 59.0477 20.0004 58.4984 20.8851C57.856 21.2282 57.8046 20.5703 57.856 20.1232C57.9588 19.3613 57.6472 18.3035 58.0359 17.7117C58.3346 17.4472 58.7939 17.507 59.1858 17.4976C59.8217 17.5259 60.4641 17.4346 60.9427 17.5322V17.5322ZM62.4844 17.5322C62.8699 17.7841 62.584 18.6467 62.6707 19.0465C62.5551 19.7486 63.0754 21.1905 62.0284 20.9575C61.4887 20.9071 61.8421 19.1599 61.7521 18.6782C61.7489 17.9415 61.5658 17.3119 62.4844 17.5259V17.5322ZM73.7841 18.2563C74.1727 18.2248 74.6096 18.2563 75.0175 18.2563C75.0775 18.2815 75.1298 18.3214 75.1694 18.3722C75.209 18.423 75.2345 18.483 75.2436 18.5463C75.2526 18.6096 75.2449 18.6741 75.221 18.7337C75.1972 18.7932 75.158 18.8456 75.1074 18.886C74.9822 18.9584 74.8601 18.908 74.7124 18.9206C74.1792 18.93 73.1899 19.0087 73.7841 18.2563ZM55.1098 18.2563C55.598 18.2563 56.613 18.0265 56.4331 18.7758C56.3978 19.1945 56.5134 19.7202 56.401 20.0697C56.2083 20.2901 55.8068 20.183 55.5948 20.2051C55.3828 20.2271 54.8336 20.2491 54.8561 19.8903C54.9845 19.4936 54.6505 18.3256 55.1098 18.2563ZM58.9417 18.2563C59.4331 18.2311 60.477 18.0674 60.2265 18.7726C60.3067 19.2134 59.8057 19.1819 59.523 19.1567C59.2957 19.1771 59.0665 19.1665 58.8421 19.1252C58.537 19.056 58.5048 18.2563 58.9417 18.2563ZM69.9073 18.3067C71.9276 18.1745 71.2531 18.3067 71.3398 20.0162C71.3591 20.2208 69.6728 20.2397 69.7692 19.9532C69.8527 19.5786 69.615 18.4893 69.9073 18.3161V18.3067ZM73.7167 19.5912C74.0197 19.5377 74.3286 19.524 74.6353 19.5502C75.0014 19.4778 75.5186 19.651 75.2777 20.054C75.0528 20.3688 74.6577 20.1862 74.3462 20.2366C74.1984 20.2208 73.874 20.2964 73.7263 20.1767C73.6331 20.0508 73.5464 19.7202 73.7199 19.6006L73.7167 19.5912ZM65.478 19.7423C65.478 19.7423 65.4748 19.7517 65.4812 19.7517L65.478 19.7423ZM65.4555 19.843L65.4587 19.8525L65.4555 19.843ZM43.6592 24.6283C45.8176 24.7511 47.809 24.6283 50.0831 24.6755C51.3486 24.7102 52.6816 24.4835 53.7126 25.1069C54.9267 25.7113 54.5188 27.2508 54.5863 28.1449C54.5863 29.1177 54.5863 30.0149 54.5863 31.0035C54.5863 31.992 54.5863 33.2859 54.5863 34.2682C54.8464 37.1425 53.0092 37.2086 50.6612 37.4164C49.6495 37.4951 48.7951 37.4825 47.9022 37.6116C47.0093 37.7407 45.975 37.8729 45.1046 37.429C44.3722 37.0512 44.2534 36.1886 44.3208 35.4771C44.1667 32.4107 44.6228 28.3275 44.1153 25.7176C44.1249 25.4154 43.1196 24.6724 43.6624 24.6378L43.6592 24.6283ZM35.5715 24.707C36.1047 25.2674 35.2246 30.2699 36.0019 30.3738C36.8788 30.2101 37.7299 30.3109 38.5939 30.1723C38.9376 30.0212 38.6678 29.3286 38.7481 29.0169C38.7481 28.2551 38.7481 27.3987 38.7481 26.6148C38.8413 26.1426 38.5522 24.8896 38.9633 24.7102C39.6057 24.6157 40.4729 24.7102 41.0928 24.6787C41.7545 24.6976 42.4836 24.4709 42.3359 25.3839C42.3359 26.6652 42.3359 27.5876 42.3359 28.5951C42.3359 29.7431 42.3359 30.8975 42.3359 32.0581C42.3359 33.2765 42.3359 34.5578 42.3359 35.8013C42.3359 36.2012 42.3359 36.6577 42.3359 37.0606C42.3551 37.9327 42.4515 38.2066 41.5329 38.3199C40.9836 38.4521 40.322 38.4301 39.747 38.5623C38.2599 39.066 38.8734 38.0366 38.7577 37.133C38.7096 35.8139 38.8316 34.4854 38.716 33.1191C38.5714 32.7444 38.0736 33.0435 37.8199 33.0089C37.4376 33.0718 36.943 33.075 36.5351 33.1002C36.2653 33.1663 35.7803 33.0246 35.7514 33.3709C35.6839 35.0237 35.7514 37.3188 35.7257 38.9307C35.6325 39.5603 34.5854 39.299 34.1197 39.532C33.7644 39.6382 33.3981 39.7047 33.0276 39.7303C32.7675 39.7303 32.4655 40.0451 32.2407 39.8342C31.9998 35.7415 32.276 30.4053 32.1443 26.4354C32.0719 26.0584 31.9293 25.6977 31.7236 25.3713C30.8146 24.3733 31.6979 24.7417 32.427 24.6913C33.4645 24.707 34.5437 24.6157 35.5747 24.7165L35.5715 24.707ZM101.982 24.6724C102.281 24.9589 100.813 26.4134 100.588 26.8541C100.119 27.5467 99.9808 27.4995 99.242 27.4491C98.6832 27.4145 97.9348 27.4208 97.3149 27.3956C96.6307 27.3956 96.1104 27.3673 95.5001 27.3326C95.1702 27.2812 94.833 27.2995 94.5108 27.3862C93.8909 27.6317 94.27 28.5667 94.1704 29.0767C94.0804 29.7882 94.4595 30.0684 95.0537 30.2983C95.2755 30.441 95.5086 30.5663 95.7507 30.6729C95.9755 30.8555 96.2549 30.8901 96.4766 31.0916C96.7337 31.1984 96.9809 31.3269 97.2153 31.4757C97.4594 31.5166 97.6168 31.737 97.8577 31.7905C98.7153 32.2879 99.8844 32.735 100.273 33.7172C100.502 34.4409 100.596 35.1993 100.549 35.9556C100.549 36.6891 100.549 37.4699 100.549 38.1342V40.2026C100.549 41.147 100.511 42.4063 99.56 42.8502C98.7795 43.2469 97.7453 42.8754 97.0451 42.6109C96.6874 42.5442 96.3399 42.4331 96.0108 42.2804C95.6793 42.2085 95.3564 42.103 95.0472 41.9656C94.7283 41.9004 94.4195 41.7945 94.1286 41.6507C93.8781 41.5374 93.5633 41.5752 93.3224 41.3863C92.3656 41.1168 91.5569 40.4861 91.0741 39.6327C90.6822 38.8394 90.7529 37.6871 90.7529 36.8371C90.8235 36.4436 90.5152 35.3858 91.0741 35.4078C91.8899 35.5369 92.7379 35.6313 93.4316 35.8108C94.3952 35.8297 94.2089 36.0784 94.225 36.8497C94.241 37.621 94.0162 38.6442 94.8481 38.9779C95.3074 39.0409 95.635 39.2927 96.0943 39.3494C96.9102 39.6642 97.1029 39.1762 97.0258 38.3671C97.0258 37.6431 97.0258 36.8654 97.0258 35.9556C97.0001 35.326 97.196 34.5798 96.5601 34.2367C96.1877 33.9881 95.7906 33.7771 95.3749 33.607C95.2207 33.4213 95.0151 33.4056 94.8256 33.3174C94.5986 33.1622 94.3552 33.0314 94.0997 32.927C93.9552 32.7791 93.7978 32.7791 93.6372 32.6846C93.4718 32.5664 93.2887 32.474 93.0944 32.4107C92.7411 32.1777 92.3845 32.0392 92.0441 31.8188C90.8749 31.249 90.5055 30.3203 90.618 29.1303C90.618 28.4156 90.618 27.6884 90.618 27.0052C90.6333 26.4831 90.5081 25.9663 90.255 25.5067C90.088 25.2485 89.4295 24.6976 89.9338 24.6189C93.0912 24.7511 98.7121 24.6441 101.985 24.6818L101.982 24.6724ZM55.6687 24.6535C58.4149 24.6881 61.6461 24.6881 64.6332 24.6535C65.2082 24.5465 64.8966 26.511 64.9544 26.8919C64.8613 27.1658 64.569 27.0461 64.3313 27.0587C62.9855 27.0902 61.1386 27.021 59.9277 27.0776C59.6258 27.6286 59.9277 28.636 59.8025 29.2814C59.7899 29.325 59.7894 29.3712 59.801 29.4151C59.8127 29.459 59.8361 29.4991 59.8688 29.5312C59.9016 29.5632 59.9424 29.5862 59.9872 29.5976C60.032 29.6091 60.0791 29.6086 60.1237 29.5962C61.3538 29.634 62.9855 29.5742 64.1804 29.6277C64.5754 29.8544 64.2992 30.5722 64.3795 30.9405C64.3121 32.1998 64.7392 32.4548 63.2778 32.3289C62.5712 32.3509 61.6718 32.2942 60.8207 32.3037C60.5187 32.3761 60.0241 32.1557 59.886 32.3603C59.7125 32.7853 59.8506 33.3898 59.8121 33.8715C59.7736 34.3532 59.6901 34.7908 60.31 34.6806C61.5305 34.7089 62.5583 34.6806 63.7178 34.7435C65.0604 34.7278 65.0026 34.6648 64.9705 36.0375C65.054 37.6745 64.8035 37.0512 63.3645 37.133C62.2018 37.1079 61.19 37.0858 60.1526 37.0795C59.3689 37.0795 58.6012 37.111 57.9042 37.1047C57.5509 37.0197 56.1216 37.4195 56.2211 36.7899C56.2211 33.7172 56.2211 29.7882 56.2211 26.3347C56.1798 25.8397 55.9506 25.378 55.5787 25.0407C55.4181 24.8109 55.2993 24.5748 55.6719 24.663L55.6687 24.6535ZM75.1042 24.7448C75.9586 24.8518 76.7295 25.2359 77.0635 26.1615C77.2016 27.106 77.1085 28.6266 77.1085 29.7945C76.768 31.1199 75.9779 30.739 75.6759 31.2364C75.6984 31.5103 76.1256 31.4222 76.2991 31.5827C77.3365 32.2124 77.1053 33.5472 77.1278 34.6932C77.0988 35.8832 77.4136 37.4195 76.0164 37.7847C74.5229 37.9705 72.8912 37.6871 71.6225 37.5581C70.4019 37.4384 69.0882 37.4384 67.9127 37.303C66.66 37.303 67.0454 36.8654 66.9973 35.7888C66.9973 34.0006 66.9973 31.9574 66.9973 30.2258C66.9234 28.6706 67.1611 27.2287 66.8623 25.7585C66.7949 25.3272 65.6482 24.6189 66.5155 24.6504C68.1793 24.7133 69.9715 24.6504 71.6546 24.6755C72.7499 24.7228 73.9062 24.5874 75.1074 24.7543L75.1042 24.7448ZM88.3503 24.6661C88.6715 24.5968 88.7293 25.047 88.7004 25.3304C88.6747 29.3821 88.7261 34.3028 88.6811 38.3577C88.6404 38.7548 88.443 39.1206 88.1309 39.377C87.8189 39.6335 87.417 39.7602 87.0109 39.7303C86.3391 39.7445 85.6695 39.6498 85.0292 39.4501C84.6534 39.3274 84.2615 39.3777 83.8857 39.2423C83.3204 39.0251 82.5816 39.0472 81.9971 38.8551C81.4864 38.7197 81.011 38.767 80.5549 38.5403C79.2701 38.1688 78.5506 37.281 78.5442 35.9556C78.5635 33.6732 78.5442 31.7716 78.5442 29.4892C78.5057 28.3212 78.647 27.0934 78.4575 26.0733C78.3921 25.694 78.1905 25.3501 77.889 25.1037C77.4907 24.6157 77.7316 24.6126 78.2295 24.6661C78.5699 24.6661 79.0035 24.6661 79.3376 24.6661C82.678 24.6661 82.0966 24.1687 82.1223 27.1312V33.7456C82.2444 34.5641 81.6919 36.4908 82.8579 36.5349C83.4135 36.5349 84.8204 37.2653 85.1062 36.5506C85.2154 33.1222 85.0067 28.0788 85.1833 24.7889C85.3664 24.5244 85.7743 24.7574 86.0538 24.6818C86.8375 24.6755 87.6148 24.6944 88.3535 24.6755L88.3503 24.6661ZM28.229 24.6913C29.2311 24.8141 30.1561 25.1761 30.4259 26.2276C30.5374 26.4803 30.5838 26.756 30.5608 27.0304C30.4645 29.124 30.7889 31.7527 30.4099 33.5787C30.3154 33.909 30.1526 34.2166 29.9315 34.4826C29.7105 34.7485 29.436 34.967 29.1251 35.1245C28.9663 35.2384 28.7807 35.311 28.5855 35.3354C28.3373 35.4723 28.0627 35.557 27.7793 35.5841C27.1819 35.6093 26.6776 35.8328 26.1733 35.8989C25.3864 35.9619 24.6733 36.1791 23.8543 36.283C23.6391 36.3334 23.6712 36.5443 23.6744 36.6954C23.6519 38.046 23.6744 39.8185 23.6744 41.0242C23.7644 42.038 23.5973 41.8144 22.7108 42.1765C22.3686 42.2265 22.036 42.3274 21.7248 42.4756C21.3455 42.5287 20.9776 42.6425 20.6359 42.8124C19.7076 43.1272 20.0963 42.1072 20.0224 41.4618C20.0224 40.7 20.0224 39.6737 20.0224 39.0125C20.0224 37.2684 20.0224 35.5495 20.0224 33.7519C20.0224 31.5922 20.0224 29.3853 20.0224 27.2602C20.0224 26.8573 19.5792 26.5897 19.3286 26.2434C18.9721 25.7522 18.3875 25.2989 18.2012 24.7794C20.7323 24.5181 25.062 24.7448 28.2322 24.7007L28.229 24.6913ZM66.1654 24.7385V24.7574C66.1654 24.7574 66.1686 24.7574 66.1686 24.7511L66.1654 24.7385ZM48.1013 26.9958C48.6763 26.7534 49.4182 26.9013 50.0478 26.8478C51.3325 26.6526 50.9182 27.9623 50.9728 28.7367C50.7705 30.4242 51.4193 34.0163 50.6516 35.1528C50.2212 35.3386 49.688 35.2189 49.2319 35.285C48.7662 35.285 48.3904 35.4267 47.9921 35.2252C47.6516 33.6133 47.9921 30.8335 47.8636 29.1743C47.8636 28.7934 47.8636 28.4219 47.8636 27.9875C47.915 27.701 47.7705 27.1784 48.1045 27.0052L48.1013 26.9958ZM70.8677 26.8667C71.3719 26.8384 72.0304 26.9013 72.4736 26.9013C72.6557 26.871 72.8423 26.8807 73.0201 26.9297C73.1978 26.9787 73.3623 27.0658 73.5015 27.1847C73.6235 27.3924 73.5272 27.6789 73.5625 27.9277C73.4822 28.381 73.752 29.7442 73.3698 29.8796C72.7017 30.081 72.0593 29.9079 71.404 29.9268C70.3859 29.9834 70.5786 29.7505 70.5786 28.9571V27.7702C70.6107 27.5152 70.4373 26.9454 70.8709 26.8761L70.8677 26.8667ZM23.8928 27.701C24.4292 27.6191 25.0909 27.6254 25.6305 27.5782C26.472 27.4082 27.0245 27.6443 26.9153 28.5825C26.9153 30.059 26.9153 30.7862 26.9153 32.14C26.8639 32.6972 26.4431 32.7979 25.9131 32.8483C25.2674 32.9966 24.6073 33.0768 23.9442 33.0876C23.4239 33.16 23.8125 29.8732 23.7065 29.2908C23.7065 29.0106 23.7065 28.6612 23.7065 28.3464C23.6873 28.1291 23.5909 27.7828 23.8928 27.701ZM70.7874 32.0109C71.3591 31.9574 71.9019 32.1022 72.4576 32.0896C73.3537 32.0361 73.6653 32.3163 73.5432 33.2639C73.5753 33.7046 73.5432 34.1107 73.5432 34.5043C73.5175 34.8348 73.6685 35.2 73.2895 35.3669C72.8591 35.6093 72.0272 35.3228 71.5389 35.3354C70.5432 35.2661 70.5015 35.3669 70.5754 34.3059C70.5754 33.8369 70.5754 33.4591 70.5754 32.9963C70.6171 32.6657 70.4212 32.1809 70.797 32.0203L70.7874 32.0109Z" fill="#1A3065"/>
<path fill-rule="evenodd" clip-rule="evenodd" d="M59.6066 4.89522C60.159 4.91725 60.6729 4.91411 61.1644 4.97707C61.6558 5.04004 65.0829 5.26671 63.2071 5.45245C62.0011 5.47779 60.7982 5.58297 59.6066 5.76727C59.0027 5.80478 58.4037 5.89754 57.8175 6.04432C57.3365 6.06992 56.8596 6.14483 56.3946 6.26784C55.9964 6.35958 55.5932 6.42895 55.1869 6.47562C54.2449 6.67295 53.3078 6.89233 52.3764 7.1336C52.0553 7.33823 51.5542 7.3099 51.1816 7.47991C50.7223 7.66565 50.218 7.69713 49.7876 7.9364C49.3219 7.97103 48.9204 8.25122 48.4225 8.31733C48.1156 8.46697 47.7923 8.58209 47.4589 8.66049C47.2101 8.79705 46.9415 8.89576 46.6624 8.95327C46.4697 8.9816 46.3669 9.12013 46.1806 9.18939C45.9359 9.23227 45.7023 9.32214 45.4932 9.45383C45.2652 9.57662 44.9472 9.57347 44.7481 9.76866C44.4337 9.85831 44.1332 9.98965 43.8551 10.159C43.6104 10.2195 43.3801 10.3264 43.1774 10.4739C42.8369 10.5179 42.58 10.7887 42.2748 10.8548C41.5939 11.2105 40.9901 11.538 40.3477 11.8528C40.2064 11.9852 40.0361 12.0843 39.8498 12.1424C39.7213 12.218 39.625 12.3471 39.458 12.3848C39.125 12.563 38.8032 12.7607 38.4944 12.9767C37.2152 13.7263 36.0405 14.6353 34.9998 15.681C34.8913 15.7762 34.8098 15.8972 34.763 16.0323C34.7163 16.1675 34.7061 16.3121 34.7332 16.4523C34.7332 16.7829 34.7525 17.1638 34.7332 17.4975C34.7332 18.5648 34.7332 19.7768 34.7332 20.7056C34.7814 21.5965 34.791 21.6091 33.8435 21.5493C33.2011 21.5493 32.5009 21.5493 31.8071 21.5493C31.4859 21.5493 30.8435 21.6248 30.9913 21.1054C30.9913 20.6678 30.9913 20.3215 30.9913 19.8965C30.9913 18.804 30.9913 17.9131 30.9913 16.9088C30.9913 15.8321 30.9913 14.8184 30.9913 13.6693C31.0202 13.3545 31.6818 13.0932 31.9259 12.8319C32.6165 12.3533 33.2717 11.9661 33.9591 11.4939C34.1064 11.4496 34.2394 11.3682 34.3445 11.2578C34.5263 11.1908 34.6955 11.0951 34.8456 10.9744C35.064 10.8296 35.2728 10.8139 35.4527 10.6124C35.6582 10.5022 35.8317 10.499 36.0019 10.2976C36.2131 10.2227 36.4113 10.1165 36.5897 9.98274C36.8169 9.89241 37.0325 9.77617 37.2321 9.63643C37.6692 9.42069 38.1093 9.21079 38.5522 9.00679C38.8236 8.9364 39.0817 8.82373 39.3166 8.67308C39.5536 8.60505 39.7772 8.49864 39.9783 8.35826C40.1068 8.28585 40.2995 8.28899 40.4601 8.21973C40.6824 8.08347 40.9268 7.98551 41.1828 7.9301C41.3461 7.82177 41.5261 7.73992 41.716 7.68768C42.1303 7.6562 42.4065 7.37286 42.7823 7.32879C43.0154 7.25772 43.2429 7.1704 43.4633 7.06749C43.7728 7.01687 44.0734 6.92359 44.3562 6.79045C44.7522 6.73423 45.1376 6.62071 45.4996 6.45358C45.9457 6.39522 46.384 6.28966 46.8069 6.13876C47.2449 6.08959 47.6758 5.99244 48.0917 5.84913C48.5418 5.81228 48.9866 5.72784 49.4182 5.59727C50.1152 5.45245 51.0242 5.40838 51.7148 5.23208C52.5756 5.12189 53.4974 5.11874 54.2844 5.00541C56.0537 4.84899 57.832 4.81217 59.6066 4.89522V4.89522ZM69.4962 7.16193C70.4887 7.28786 71.4233 7.35397 72.4415 7.47675C73.1514 7.63102 73.9865 7.70973 74.7252 7.84825C75.1449 7.96843 75.575 8.05063 76.01 8.09381C76.4668 8.24431 76.9351 8.35905 77.4104 8.43696C77.9211 8.629 78.5667 8.70456 79.0549 8.93753C79.5689 8.98475 80.0474 9.27124 80.587 9.37513C80.8557 9.52305 81.146 9.62925 81.4478 9.68995C81.6277 9.79523 81.8226 9.87374 82.026 9.92292C82.2213 9.96086 82.4049 10.0428 82.5624 10.1622C82.7544 10.2144 82.9432 10.2774 83.1277 10.3511C83.3757 10.4806 83.636 10.5861 83.905 10.6659C84.133 10.8579 84.4317 10.8705 84.6502 11.0311C84.8686 11.1917 85.1673 11.1854 85.405 11.412C85.6105 11.5254 85.8739 11.5348 86.0474 11.7268C86.4681 11.8993 86.8687 12.1157 87.2422 12.3722C87.3386 12.4667 87.4638 12.4383 87.5634 12.5013C87.6623 12.5856 87.77 12.6594 87.8846 12.7217C88.067 12.7974 88.2345 12.904 88.3792 13.0365C88.6619 13.175 89.1501 13.4237 89.224 13.6976C89.224 15.1269 89.224 16.4618 89.224 17.8533C89.224 18.5585 89.224 19.2228 89.224 19.9815C89.2497 22.1349 89.5869 21.4643 86.6705 21.5776C85.6073 21.521 85.36 21.8925 85.4788 20.6709C85.4788 20.0413 85.4788 19.2574 85.4788 18.5365C85.4788 18.0044 85.4788 17.529 85.4788 16.9466C85.5045 16.2162 85.5977 15.8573 84.724 15.4827C84.0376 14.9847 83.3115 14.5414 82.5528 14.1573C82.4179 13.9936 82.2316 14.0125 82.0613 13.8865C81.7159 13.6487 81.3429 13.4522 80.95 13.301C80.6577 13.0711 80.3365 13.0208 80.0185 12.8004C79.7487 12.7343 79.5271 12.5391 79.2509 12.4478C79.0226 12.3733 78.8063 12.2673 78.6085 12.133C78.3498 12.0815 78.1062 11.9739 77.8954 11.8181C77.4811 11.7552 77.1503 11.4656 76.7263 11.4057C76.464 11.2472 76.1727 11.1403 75.8687 11.0909C75.6952 11.0594 75.48 10.8831 75.3002 10.8422C74.8698 10.8422 74.4843 10.5053 74.0347 10.4802C73.8434 10.4219 73.6566 10.3504 73.4758 10.2661C73.2267 10.2255 72.9809 10.1676 72.7402 10.0929C72.2835 9.94453 71.818 9.82362 71.3462 9.73088C70.9824 9.61668 70.608 9.5376 70.2285 9.49476C69.7924 9.34761 69.3392 9.25454 68.8795 9.21772C67.9159 8.97216 67.0037 8.94383 66.053 8.78641C65.4618 8.66231 64.8588 8.60108 64.2542 8.60382C63.3678 8.5377 62.4202 8.48104 61.5498 8.42122C60.6793 8.3614 59.8185 8.40233 58.8614 8.42122C57.6698 8.46529 56.4107 8.62271 55.1644 8.66993C54.522 8.69512 54.7212 8.35511 55.3186 8.32678C55.6745 8.28835 56.0247 8.21019 56.3625 8.09381C56.7447 8.00566 57.1912 7.98047 57.5605 7.89547C58.1515 7.67824 58.8453 7.72232 59.5295 7.58065C60.0916 7.3949 60.7853 7.42009 61.4245 7.36342C61.9224 7.32249 62.4138 7.2249 62.9534 7.19342C65.1367 7.04423 67.3275 7.03371 69.5122 7.16193H69.4962ZM63.8431 39.2832C64.0358 39.2832 64.2703 39.2989 64.4855 39.2989C66.5926 39.4312 68.661 39.4973 70.858 39.6452C71.918 39.7743 72.8205 39.8373 73.964 39.9065C74.9276 40.0136 75.8398 40.1647 76.9061 40.2214C77.6224 40.3221 78.0849 40.448 78.7819 40.4921C79.2292 40.5222 79.6724 40.595 80.1053 40.7093C80.3783 40.744 80.8697 40.7818 80.7894 41.1312C80.7894 42.3716 80.7284 43.5837 80.5999 44.9468C80.4647 45.4646 80.3638 45.9904 80.298 46.521C80.2145 46.9271 80.0346 47.2293 79.9768 47.6354C79.919 48.0415 79.7262 48.2367 79.6556 48.5453C79.6363 48.9042 79.3665 49.1749 79.3151 49.5432C79.2252 49.8581 78.9939 50.0312 78.9939 50.3209C78.9554 50.4972 78.798 50.6357 78.7273 50.7868C78.6561 51.0125 78.5476 51.2252 78.4061 51.4164C78.3495 51.6335 78.2392 51.8335 78.0849 51.9989C77.9939 52.2227 77.8741 52.4343 77.7284 52.6285C77.1137 53.6413 76.4177 54.6046 75.6471 55.5091C75.4319 55.676 74.9147 56.6425 74.7959 55.9562C74.8124 55.7554 74.7895 55.5534 74.7284 55.3611C74.616 54.8669 74.5903 54.3097 74.4875 53.8028C74.3683 53.4433 74.2697 53.0775 74.192 52.7072C74.1213 52.4982 74.0387 52.2933 73.9447 52.0933C73.9205 51.8887 73.8526 51.6913 73.7456 51.514C73.585 51.237 73.5464 50.8844 73.3152 50.6325C73.2349 50.3177 73.0133 50.0753 72.8976 49.7573C71.857 48.136 70.6268 46.6091 68.9758 45.4726C68.1852 44.8886 67.3411 44.3774 66.4544 43.9457C66.2222 43.8814 65.9997 43.7872 65.7928 43.6655C65.4774 43.5825 65.1717 43.4675 64.8806 43.3224C64.5042 43.251 64.1354 43.1456 63.7789 43.0075C63.2862 42.9493 62.7988 42.8545 62.3207 42.7242C60.954 42.5777 59.576 42.5619 58.2061 42.677C57.5991 42.7274 57.0081 42.9446 56.3882 42.9918C56.196 43.0379 56.0088 43.1022 55.8293 43.1838C55.6173 43.2751 55.2993 43.272 55.1098 43.3633C54.7886 43.5963 54.3036 43.5805 53.9567 43.8576C52.5737 44.4566 51.3 45.2734 50.1859 46.2754C48.8144 47.5504 47.5585 49.0143 46.8455 50.6829C46.6963 50.8695 46.587 51.0836 46.5243 51.3125C46.369 51.5693 46.2603 51.8505 46.2031 52.1437C46.0305 52.4277 45.9211 52.7441 45.8819 53.0724C45.8144 53.3715 45.6763 53.5982 45.641 53.8878C45.5607 54.4324 45.4932 54.996 45.3776 55.4619C45.3005 55.698 45.4386 56.4064 45.0564 56.1545C44.0049 54.9628 43.0563 53.6876 42.2203 52.342C42.0693 52.0052 41.8605 51.7376 41.7224 51.3975C41.5233 51.1772 41.4847 50.8309 41.3145 50.6199C41.1378 50.324 41.1218 49.9903 40.8809 49.6912C40.8166 49.402 40.7083 49.124 40.5597 48.8664C40.5311 48.5962 40.4435 48.3353 40.3027 48.1014C40.1806 47.8306 40.2031 47.5189 40.0972 47.2325C39.9759 46.9358 39.896 46.6245 39.8595 46.3069C39.8595 45.9039 39.6571 45.5072 39.6346 45.1767C39.5286 44.7296 39.5447 44.1787 39.4869 43.7411C39.4212 43.0315 39.3976 42.3188 39.4162 41.6066C39.3616 40.7975 39.3327 40.8321 40.2128 40.6842C41.1442 40.4606 42.1207 40.4764 42.9718 40.2623C44.1924 40.1678 45.3262 40.001 46.4343 39.894C48.1945 39.8121 49.5435 39.5477 51.4353 39.5351C55.4856 39.2517 59.4749 39.1699 63.8592 39.2769L63.8431 39.2832ZM36.1818 41.3862C36.3199 41.4177 36.3263 41.7388 36.3199 41.8301C36.3199 42.0127 36.2974 42.1859 36.2974 42.3685C36.2974 43.1209 36.2974 43.7977 36.3745 44.4935C36.5576 45.3939 36.5993 46.4202 36.9045 47.3773C36.9045 47.8495 37.2257 48.3028 37.2513 48.8003C37.306 49.0106 37.3892 49.2129 37.4987 49.4016C37.5725 49.5621 37.5726 49.7857 37.6432 49.9399C37.7885 50.1801 37.8967 50.44 37.9644 50.7112C38.1087 50.9429 38.217 51.1944 38.2856 51.4574C38.4157 51.6707 38.5233 51.8964 38.6068 52.1311C38.7644 52.3691 38.8967 52.6223 39.0019 52.8867C39.9258 54.4684 40.9807 55.973 42.156 57.3855C45.2399 60.7938 48.943 63.6109 53.0767 65.6936C53.2517 65.7622 53.4143 65.8579 53.5584 65.9769C53.7046 66.0094 53.8453 66.0624 53.976 66.1344C54.204 66.3579 54.5252 66.3264 54.7565 66.5153C54.9279 66.6111 55.1115 66.6841 55.3025 66.7325C55.4406 66.7892 55.4856 66.8773 55.6237 66.912C55.9449 66.9592 56.2147 67.1985 56.5391 67.2709C56.7646 67.2889 56.9788 67.3746 57.1526 67.5164C57.3325 67.6014 57.5413 67.5825 57.7243 67.6707C58.1708 67.9131 58.6494 67.9131 59.1151 68.1303C59.9308 68.3525 60.8001 68.2879 61.5723 67.9477C61.8905 67.9047 62.199 67.8089 62.4845 67.6644C62.7221 67.5699 63.0112 67.5857 63.1911 67.3999C63.3711 67.3226 63.5615 67.2707 63.7564 67.2457C63.9334 67.1456 64.1181 67.0593 64.3088 66.9875C64.5851 66.9466 64.7425 66.7546 64.9866 66.6947C65.2307 66.6349 65.4362 66.4681 65.6804 66.3799C65.812 66.3169 65.9534 66.3516 66.0754 66.232C66.2326 66.0982 66.4253 66.0109 66.6311 65.9801C66.8315 65.8276 67.0561 65.7084 67.296 65.6275C67.4726 65.4197 67.7681 65.4229 67.9641 65.2749C71.873 63.0963 75.3676 60.4928 78.3419 57.0014C79.1866 56.0097 79.8804 54.9456 80.6513 53.8532C80.7162 53.6356 80.8255 53.4332 80.9725 53.2581C81.0517 53.0879 81.1474 52.9256 81.2583 52.7733C81.333 52.549 81.4412 52.3368 81.5795 52.1437C81.6228 51.9589 81.7073 51.7858 81.8269 51.6368C81.932 51.3076 82.0742 50.9908 82.2508 50.6923C82.2942 50.4333 82.3891 50.1851 82.5303 49.962C82.6106 49.7888 82.6202 49.5369 82.7134 49.3323C82.8468 49.1238 82.9293 48.8878 82.9543 48.6429C83.0062 48.3921 83.0848 48.1473 83.1887 47.9125C83.258 47.4548 83.36 47.0024 83.4939 46.5587C83.5616 46.2189 83.6056 45.875 83.6255 45.5293C83.7315 45.0477 83.8045 44.5596 83.844 44.0685C83.8857 43.42 83.8986 42.7714 83.8889 42.1103C83.8215 41.1973 83.9339 41.3264 84.7176 41.4397C85.0966 41.4901 85.3793 41.6097 85.7551 41.6916C86.1921 41.7142 86.6242 41.7936 87.0399 41.9277C87.5184 42.0536 88.1416 42.0599 88.6105 42.2614C89.0794 42.4629 89.86 42.3055 90.1233 42.7935C90.1095 43.0316 90.0773 43.2684 90.027 43.5018C89.9947 43.9887 89.9335 44.4732 89.8439 44.9531C89.7227 45.4097 89.639 45.875 89.5934 46.3447C89.4413 46.8221 89.3338 47.3121 89.2722 47.8086C89.1392 48.0956 89.0494 48.3999 89.0056 48.7121C88.8931 49.1843 88.6844 49.5307 88.649 49.9966C88.4795 50.2591 88.3699 50.5544 88.3279 50.8624C88.2692 51.0217 88.1938 51.1747 88.103 51.3188C88.0516 51.4731 88.0388 51.6337 87.9874 51.7753C87.841 51.998 87.7426 52.2476 87.6983 52.5089C87.6244 52.6852 87.5409 52.7891 87.4478 52.9685C87.4244 53.1381 87.3676 53.3017 87.2808 53.4502C87.1485 53.642 87.0517 53.8551 86.9949 54.0798C86.7893 54.2939 86.7893 54.5898 86.6319 54.8197C86.4982 54.9762 86.4075 55.1637 86.3686 55.3643C86.2218 55.5288 86.1124 55.722 86.0474 55.931C85.7262 56.4504 85.3889 57.0392 85.0645 57.6153C82.7423 61.2583 79.8356 64.5102 76.4565 67.2457C75.4383 68.102 74.4554 68.8198 73.3441 69.6005C73.0229 69.8209 72.7017 70.0413 72.4094 70.2302C72.2933 70.3342 72.1623 70.4211 72.0208 70.4883C71.9021 70.615 71.746 70.702 71.5743 70.7371C71.4057 70.8892 71.2139 71.0145 71.0058 71.1085C70.8956 71.2167 70.7616 71.2986 70.6139 71.3478C70.3838 71.5002 70.1446 71.639 69.8977 71.7634C69.7418 71.8985 69.5576 71.9984 69.358 72.0562C69.196 72.1896 69.0126 72.296 68.8152 72.371C68.6578 72.456 68.5294 72.6102 68.3334 72.6323C68.1453 72.7561 67.9452 72.8616 67.736 72.9471C67.3763 73.158 66.9555 73.3343 66.5926 73.5516C66.2938 73.5705 66.1333 73.8097 65.8281 73.8664C65.584 73.8916 65.4523 74.1056 65.2371 74.156C64.9159 74.2032 64.6686 74.4708 64.3538 74.5212C64.1579 74.5212 64.0005 74.7164 63.7821 74.7825C63.5964 74.8026 63.4169 74.8605 63.2553 74.9525C63.0237 75.0732 62.7762 75.1622 62.5198 75.217C62.25 75.4373 61.8999 75.431 61.6012 75.5601C61.3282 75.7039 61.0313 75.7988 60.7243 75.8403C60.4963 75.919 60.3164 76.089 60.0594 76.067C59.7382 76.067 59.5295 75.8151 59.189 75.7773C58.8485 75.7396 58.5306 75.4972 58.2254 75.4625C57.9903 75.416 57.7667 75.3251 57.567 75.1949C57.3283 75.1575 57.0999 75.0729 56.8957 74.9462C56.7316 74.8697 56.5576 74.8157 56.3786 74.7857C56.234 74.7636 56.112 74.622 55.9481 74.5621C55.6822 74.494 55.4279 74.3879 55.1933 74.2473C54.9608 74.1832 54.7428 74.0763 54.5509 73.9325C54.2593 73.8269 53.975 73.7028 53.6998 73.561C53.5211 73.5084 53.3543 73.4229 53.2083 73.3091C53.0606 73.2241 52.8871 73.2273 52.7779 73.1171C46.7684 70.12 40.8648 65.5614 36.7888 60.0583C35.7229 58.634 34.7766 57.1274 33.9591 55.5532C33.7985 55.4115 33.7696 55.166 33.6732 54.996C33.5216 54.771 33.4007 54.5276 33.3135 54.2719C33.14 54.0956 33.1079 53.7933 32.9923 53.6107C32.7803 53.4218 32.7867 53.0881 32.6711 52.8835C32.4398 52.6096 32.4623 52.1752 32.2086 51.8666C32.093 51.5896 32.1251 51.2968 31.9067 51.0607C31.8405 50.8765 31.7973 50.6852 31.7782 50.4909C31.7268 50.3618 31.6112 50.2107 31.5501 50.0438C31.4585 49.6007 31.3329 49.165 31.1743 48.7404C31.1259 48.4156 31.0352 48.0982 30.9045 47.796C30.8578 47.3522 30.7564 46.9157 30.6026 46.4958C30.5159 46.1967 30.5255 45.8409 30.4581 45.4663C30.2826 44.9111 30.1864 44.3347 30.1722 43.7537C30.1947 43.3885 29.9088 42.9887 30.1208 42.6675C30.4611 42.4735 30.8451 42.3653 31.2386 42.3527C31.5823 42.296 31.8232 42.1449 32.1861 42.0977C32.6753 42.0485 33.1576 41.9483 33.6251 41.7986C33.9838 41.7757 34.3396 41.7209 34.6882 41.6349C35.0309 41.5209 35.3871 41.4511 35.7482 41.4271L36.1304 41.3925C36.1467 41.3863 36.1644 41.3841 36.1818 41.3862ZM90.0848 43.1964C90.0848 43.1964 90.0912 43.1964 90.0976 43.1964H90.0848ZM61.3795 44.4557C61.8317 44.5404 62.2886 44.5983 62.7478 44.6289C63.1782 44.7044 63.5476 44.8807 64.0326 44.9248C64.2533 44.9867 64.4682 45.0667 64.675 45.1641C64.896 45.2019 65.1117 45.2653 65.3174 45.353C65.5711 45.5828 65.8988 45.4946 66.1429 45.715C66.917 46.0487 66.3549 46.1432 65.9084 46.1747C65.6354 46.3069 65.3303 46.4013 65.0476 46.5619C62.7511 47.944 64.4951 48.6492 62.1279 48.136C60.6986 48.0541 61.0327 48.0825 61.0616 46.7697C61.0616 46.3856 61.0873 45.948 61.0905 45.5356C61.1515 45.2365 60.9267 44.4337 61.3924 44.4557H61.3795ZM58.9353 44.4557C59.2147 44.7013 59.0509 45.2806 59.1151 45.715C59.1151 46.3447 59.1151 47.0908 59.1922 47.7802C59.1215 48.2273 58.5498 48.0353 58.2286 48.0951C57.8689 48.1549 57.4224 48.2588 56.976 48.2934C56.7062 48.3753 56.5745 48.136 56.5616 47.9062C56.446 47.7362 56.2854 47.5504 56.1762 47.3804C55.8394 47.0251 55.4534 46.7178 55.0295 46.4674C54.8141 46.4235 54.6105 46.3356 54.4321 46.2093C54.1109 46.0991 53.1184 46.1148 54.0178 45.7213C54.2201 45.5387 54.4963 45.5482 54.7276 45.4317C55.0906 45.1798 55.6141 45.1672 56.0124 44.9563C56.507 44.8713 56.9053 44.7328 57.4578 44.61C57.9717 44.5974 58.4824 44.4904 58.9481 44.4683L58.9353 44.4557ZM80.5003 45.4663C80.5003 45.4663 80.5067 45.4789 80.5132 45.4789L80.5003 45.4663ZM51.9717 47.1475C52.4885 47.1321 53.004 47.2067 53.4942 47.3678C53.7588 47.3892 54.0101 47.4904 54.2137 47.6575C54.5349 47.7645 55.3925 48.476 54.8272 48.7153C54.506 48.9419 54.037 48.901 53.7223 49.0584C53.4718 49.1898 53.2002 49.2782 52.9193 49.3197C52.7501 49.4539 52.549 49.5439 52.3347 49.581C52.0617 49.6534 51.8336 49.8612 51.551 49.9242C51.3498 50.0527 51.1342 50.1584 50.9086 50.239C50.707 50.3669 50.4915 50.4725 50.2662 50.5538C50.0771 50.716 49.8594 50.8429 49.6238 50.9285C49.0617 51.3566 48.5317 51.6116 47.9953 52.0933C47.6741 52.3294 47.353 52.6442 47.0639 52.8583C46.6688 52.8867 47.0831 52.2916 47.1891 52.1594C47.9249 50.6823 48.9359 49.353 50.1698 48.2399C50.4364 47.9534 50.7512 47.7677 51.0339 47.5001C51.3775 47.3301 51.5574 47.0845 51.9846 47.16L51.9717 47.1475ZM68.6739 47.2073C69.7052 47.9182 70.6166 48.7828 71.3751 49.7699C71.7783 50.2145 72.1335 50.6988 72.4351 51.215C72.5764 51.3346 72.5989 51.5298 72.6696 51.6431C72.8268 51.8569 72.9553 52.0897 73.0518 52.3357C73.2252 52.4648 73.4019 52.9842 73.0839 52.9055C72.7853 52.6204 72.4712 52.3513 72.1428 52.0996C71.8422 51.833 71.5126 51.5997 71.16 51.4038C70.8866 51.1755 70.5856 50.9809 70.2638 50.8246C70.1096 50.7585 69.9747 50.6105 69.8334 50.5412C69.6768 50.5029 69.5322 50.4272 69.4126 50.3209C69.1495 50.2128 68.895 50.0855 68.6514 49.9399C68.4016 49.8663 68.1629 49.7605 67.9416 49.6251C67.6744 49.5663 67.4207 49.4596 67.1932 49.3103C66.7821 49.2851 66.5508 49.0584 66.1589 48.9734C65.7671 48.8884 64.781 48.7216 65.3238 48.1423C65.5048 47.9304 65.7306 47.7596 65.9855 47.6417C66.1846 47.4151 66.5123 47.4339 66.7692 47.3458C67.1835 47.212 67.6179 47.1482 68.054 47.1569C68.311 47.1947 68.5229 47.0939 68.6932 47.2199L68.6739 47.2073ZM59.1794 49.6944C59.4299 49.8014 59.2629 50.1131 59.3175 50.2736C59.34 50.7301 59.3625 51.1425 59.3849 51.6211C59.4331 52.9717 59.4556 54.4797 59.5006 55.8775C59.6387 58.6259 59.8218 61.752 59.8218 64.9632C59.6451 65.3158 58.9642 64.8814 58.659 64.7775C58.4519 64.7525 58.2502 64.6951 58.0616 64.6075C57.8882 64.4343 57.628 64.4438 57.3967 64.3777C57.147 64.2222 56.8754 64.1034 56.5905 64.0251C56.3496 63.8236 56.0027 63.811 55.7201 63.6315C55.5691 63.493 55.3186 63.4804 55.1709 63.3797C54.9813 63.1813 54.6987 63.1845 54.4867 63.0491C54.3227 62.9209 54.1301 62.8324 53.9246 62.7909C53.7331 62.6391 53.5156 62.5218 53.2822 62.4446C53.103 62.3073 52.9052 62.195 52.6944 62.1109C52.537 61.9441 52.3251 61.9189 52.1613 61.7961C51.8286 61.5968 51.5069 61.3803 51.1977 61.1476C51.127 60.9713 51.3775 60.8328 51.3486 60.6502C51.4257 60.4077 51.4482 60.137 51.5285 59.8883C51.6713 59.6073 51.7885 59.3144 51.8786 59.0131C52.0649 58.8399 52.081 58.5377 52.1998 58.3331C52.3238 58.1649 52.4253 57.9819 52.5017 57.7884C52.6155 57.634 52.7083 57.4657 52.7779 57.2879C53.3143 56.5354 53.8122 55.7452 54.3486 54.9834C54.8657 54.3034 55.3379 53.5824 55.7908 52.8804C55.891 52.731 55.977 52.5729 56.0477 52.4081C56.1583 52.2966 56.2351 52.1571 56.2693 52.0052C56.3593 51.7533 56.5295 51.6431 56.5616 51.3755C56.7029 50.9127 56.9021 50.6042 56.9021 50.0816C57.0113 49.707 57.4449 49.8486 57.6922 49.7668C58.1837 49.7133 58.6751 49.5779 59.1794 49.6849V49.6944ZM62.189 49.7227C62.406 49.7375 62.621 49.7722 62.8314 49.8266C63.0241 49.8266 63.2489 49.8549 63.2939 50.1036C63.2778 50.3492 63.3207 50.595 63.4191 50.8214C63.5926 51.2024 63.6119 51.555 63.8817 51.917C63.982 52.1756 64.109 52.4235 64.2607 52.6568C64.3249 52.8741 64.553 53.0157 64.5819 53.2204C65.5455 54.6685 66.7146 56.1167 67.5401 57.6279C67.7778 57.8388 67.7746 58.1536 67.9994 58.3803C68.0773 58.6241 68.1851 58.8578 68.3206 59.0761C68.433 59.2555 68.4426 59.5357 68.5358 59.6837C68.6863 59.9874 68.782 60.3144 68.8184 60.6502C68.8409 60.9304 69.1814 61.1287 68.7895 61.3081C68.6386 61.3931 68.5326 61.5537 68.3302 61.623C68.1413 61.7656 67.9339 61.8831 67.7135 61.9724C67.5783 62.0891 67.4255 62.1847 67.2606 62.2558C67.1202 62.3073 66.9914 62.3854 66.8816 62.4856C66.6804 62.5448 66.495 62.6469 66.3388 62.7847C66.2007 62.8665 66.0465 62.8602 65.9116 62.9452C65.7767 63.0302 65.6611 63.1467 65.4973 63.1687C65.1144 63.3798 64.7221 63.5741 64.3217 63.7512C64.0005 63.7921 63.7018 64.0439 63.3774 64.1352C63.1878 64.1785 63.0095 64.2599 62.8538 64.3745C62.6708 64.4501 62.4973 64.4343 62.3367 64.513C62.0907 64.678 61.8094 64.7857 61.5145 64.8278C61.1933 64.9569 60.689 65.2466 60.4128 65.0828C60.2586 64.8877 60.3935 64.5477 60.3646 64.3115C60.3935 63.8897 60.3935 63.3671 60.4095 62.961C60.4288 60.9807 60.4995 59.0162 60.6055 57.4295C60.7115 55.8428 60.7372 53.9665 60.7886 52.0776C60.7886 51.3598 60.8721 50.6986 60.8592 49.9683C60.8849 49.4236 61.8196 49.7196 62.1858 49.7133L62.189 49.7227ZM55.1612 50.2673C55.3025 50.4279 55.1965 50.6357 55.0873 50.7868C54.9781 50.9379 54.9524 51.2874 54.8593 51.5298C54.7233 51.74 54.6153 51.9664 54.5381 52.2035C54.3389 52.3766 54.3357 52.6379 54.1591 52.8331C53.9118 53.2141 53.6612 53.6391 53.3946 53.9728C53.022 54.6528 52.3765 55.3612 52.0585 56.0821C51.8871 56.3422 51.75 56.6225 51.6505 56.9164C51.4257 57.184 51.4546 57.4673 51.3293 57.7538C51.1975 58.0171 51.1169 58.3021 51.0917 58.5944C50.9719 58.9655 50.889 59.3472 50.8443 59.734C50.7512 60.0772 50.9054 60.5085 50.703 60.8391C50.5392 60.8674 50.4236 60.6344 50.2309 60.5652C48.9976 59.6893 47.8178 58.7432 46.6977 57.7318C46.3765 57.3792 45.8337 57.0423 45.7149 56.6173C45.8238 56.3923 45.8975 56.1524 45.9333 55.9058C46.0457 55.4336 46.0393 54.9456 46.2737 54.5363C46.9617 53.8762 47.7235 53.2943 48.5446 52.8017C48.7052 52.7427 48.8533 52.6552 48.9814 52.5435C49.1549 52.4365 49.3026 52.427 49.4407 52.2822C49.6752 52.1468 49.9129 52.1185 50.0831 51.9453C50.4846 51.8194 50.8251 51.5329 51.2266 51.4857C51.4506 51.3137 51.7182 51.2048 52.0007 51.1709C52.249 51.0036 52.5339 50.8958 52.8325 50.8561C53.1815 50.7041 53.5467 50.5911 53.9214 50.5192C54.2115 50.3826 54.5232 50.2953 54.8432 50.261C54.9075 50.2547 55.0648 50.1729 55.158 50.2579L55.1612 50.2673ZM65.7607 50.3366C65.9437 50.3807 66.1782 50.5066 66.3581 50.5507C66.6384 50.5858 66.9114 50.6633 67.1675 50.7805C67.3923 50.9064 67.7232 50.8907 67.9448 51.0166C68.1825 51.2181 68.4459 51.1709 68.7221 51.3094C68.942 51.4494 69.1825 51.5556 69.4351 51.6242C69.6741 51.7691 69.9282 51.8883 70.1931 51.98C70.3621 52.104 70.5495 52.2017 70.7488 52.2696C70.9027 52.3873 71.0724 52.4837 71.2531 52.5561C71.6128 52.8363 72.1332 53.0378 72.5058 53.3746C72.8207 53.5609 73.1146 53.7793 73.3826 54.0263C73.716 54.2351 73.9726 54.5429 74.115 54.9047C74.2209 55.3612 74.2852 55.9058 74.3558 56.2993C74.3558 56.4347 74.5678 56.5732 74.5068 56.7306C74.1653 57.1809 73.767 57.5871 73.3216 57.9395C72.8334 58.4023 72.3098 58.8399 71.7863 59.2524C71.2788 59.5955 70.7809 60.074 70.2317 60.37C70.0518 60.4896 69.7114 60.8863 69.5219 60.8202C69.3548 60.6281 69.448 60.2472 69.4094 60.0457C69.3872 59.6933 69.328 59.3441 69.2328 59.0036C69.1268 58.7203 69.1429 58.4779 69.0626 58.1883C69.0272 58.0088 68.8859 57.8734 68.857 57.694C68.8023 57.4168 68.6932 57.1527 68.5358 56.9164C68.4555 56.7243 68.4458 56.4914 68.266 56.334C68.0259 55.8554 67.7578 55.3907 67.463 54.9424C67.3249 54.7971 67.2111 54.6314 67.1257 54.4513C66.989 54.2999 66.8803 54.1263 66.8045 53.9382C66.5926 53.7272 66.4833 53.4439 66.2842 53.233C66.2135 53.1165 66.2135 52.978 66.0851 52.8835C65.9309 52.7324 65.8956 52.4963 65.7992 52.3578C65.6193 52.2255 65.5872 51.9044 65.478 51.7281C65.2789 51.5487 65.2821 51.2181 65.1761 51.0009C64.7842 50.2422 64.9962 50.1099 65.7703 50.3272L65.7607 50.3366ZM74.661 54.7095C74.661 54.7095 74.6706 54.7032 74.6706 54.7L74.661 54.7095Z" fill="#DF2528"/>
</g>
<defs>
<clipPath id="clip0_388_757">
<rect width="92" height="75" fill="white" transform="translate(14 3)"/>
</clipPath>
</defs>
</svg>
