<svg width="120" height="80" viewBox="0 0 120 80" fill="none" xmlns="http://www.w3.org/2000/svg">
<g clip-path="url(#clip0_869_4692)">
<path d="M60.3057 12.2311L58.3869 9.87939L61.1716 6.43539H59.6513C59.3548 6.4181 59.0586 6.47206 58.7872 6.59275C58.5159 6.71344 58.2774 6.89736 58.0917 7.12911L56.6157 8.92983V4H55.1397C54.974 4 54.815 4.06583 54.6979 4.18301C54.5807 4.30019 54.5148 4.45912 54.5148 4.62484V13.8646H55.9908C56.1565 13.8646 56.3155 13.7987 56.4327 13.6816C56.5499 13.5644 56.6157 13.4055 56.6157 13.2397V10.7797L57.8063 12.2557L58.8198 13.5005C58.9064 13.6175 59.0191 13.7127 59.1489 13.7785C59.2787 13.8442 59.4221 13.8788 59.5677 13.8793H61.6193L60.3057 12.2311Z" fill="white"/>
<path d="M64.0744 13.8646C63.8189 13.8787 63.5633 13.839 63.3241 13.7479C63.085 13.6568 62.8677 13.5165 62.6863 13.3361C62.5049 13.1556 62.3635 12.939 62.2712 12.7003C62.1789 12.4617 62.1379 12.2063 62.1507 11.9507V4.62486C62.1507 4.54239 62.167 4.46073 62.1987 4.3846C62.2304 4.30847 62.2769 4.23937 62.3354 4.18128C62.3939 4.12319 62.4634 4.07727 62.5398 4.04616C62.6162 4.01505 62.698 3.99937 62.7804 4.00002H64.2564V11.5571C64.2564 11.7059 64.3155 11.8485 64.4207 11.9537C64.5259 12.0589 64.6685 12.118 64.8173 12.118H66.2933V13.2398C66.2933 13.4055 66.2275 13.5644 66.1103 13.6816C65.9931 13.7988 65.8342 13.8646 65.6685 13.8646H64.0744Z" fill="white"/>
<path d="M66.623 5.89429L66.495 6.03205C66.0488 6.34742 65.5036 6.49072 64.96 6.43549H59.6169C59.3192 6.41667 59.0215 6.47252 58.7508 6.59796C58.4802 6.72341 58.2452 6.91447 58.0671 7.1538L57.8998 7.36045L56.8371 8.66424C57.2629 8.34488 57.7808 8.17224 58.3131 8.17224H64.9895C65.8013 8.17224 66.5787 7.93116 66.6426 7.32601C66.6449 7.29982 66.6449 7.27347 66.6426 7.24728L66.623 5.89429Z" fill="#D92628"/>
<path d="M105.407 22.937L112 17.9039H99.7001L98.4356 21.2003L97.2056 17.9039H91.6706V19.2224C90.5992 18.4652 89.3394 18.0185 88.0302 17.9317C86.7211 17.8449 85.4133 18.1213 84.2513 18.7304C83.603 17.681 82.6933 16.818 81.6113 16.2257C80.5294 15.6334 79.3121 15.3322 78.0788 15.3515C76.8455 15.3708 75.6383 15.7101 74.5754 16.336C73.5125 16.9619 72.6303 17.8531 72.0153 18.9223C70.8591 18.2238 69.5281 17.8688 68.1777 17.8989H51.7597C50.6751 17.897 49.6098 18.1858 48.6748 18.7353V17.8989H36.5913C35.9549 17.0905 35.1446 16.4357 34.2204 15.9835C33.2962 15.5312 32.282 15.2929 31.2532 15.2864C29.5964 15.2928 27.9996 15.9073 26.7661 17.0133C23.637 13.3775 16.9261 12.3787 13.4821 13.8645C12.4819 14.2548 11.6203 14.9339 11.007 15.8152C10.3937 16.6966 10.0565 17.7405 10.0382 18.8141C10.0382 18.8682 9.60519 22.4696 14.0283 24.8263C15.6466 25.6174 17.3266 26.2755 19.0516 26.7943C20.0995 27.1534 21.9199 27.6553 21.7723 27.9751C21.1622 28.7918 16.7047 27.8521 16.7047 27.8521L8.98035 40.1521C12.6393 39.4835 16.2403 38.5294 19.7502 37.2985C19.0362 38.5119 18.8082 39.9507 19.1122 41.3254C19.4162 42.7001 20.2295 43.9087 21.3886 44.708C24.1585 46.9367 29.3836 48.3291 36.0895 48.826C37.3719 54.2583 40.3787 59.1293 44.6601 62.7102C47.2032 64.8627 50.1531 66.4819 53.3344 67.4716C56.5158 68.4613 59.8636 68.8014 63.179 68.4715C66.4558 68.1507 69.6346 67.1738 72.5261 65.5991C75.4177 64.0245 77.9629 61.8841 80.0102 59.3056C82.1341 56.646 83.7066 53.5897 84.6359 50.3154C85.5651 47.0411 85.8324 43.6145 85.4222 40.2357L86.3275 39.8175C90.667 37.7363 95.6263 34.6613 97.0531 30.9615H108.945L105.397 28.3933L105.407 22.937ZM25.3442 38.9762C25.2114 37.5494 27.9863 34.6761 37.4917 31.0255H38.1903C36.3639 34.6015 35.4049 38.5573 35.3909 42.5727C30.9973 42.184 27.6763 41.3378 26.0872 40.0635C25.7056 39.8134 25.4385 39.4225 25.3442 38.9762ZM84.0004 34.2431C83.3092 32.3623 82.4028 30.5677 81.2993 28.8951L81.501 28.7967C82.1397 29.8298 83.0318 30.6826 84.0927 31.2741C85.1535 31.8657 86.3478 32.1764 87.5624 32.1768H87.7346C86.5434 32.951 85.3006 33.643 84.0151 34.2481" fill="#231915"/>
<path d="M46.1754 42.7055L47.1299 42.6562C45.9282 38.9027 45.61 34.9222 46.2 31.0254H45.6047C44.9111 34.9119 45.1063 38.905 46.1754 42.7055Z" fill="white"/>
<path d="M79.287 29.7169C78.2672 32.3857 77.0588 34.9785 75.6708 37.4757C76.3251 37.2691 76.9697 37.0526 77.5945 36.8361C78.5519 34.885 79.3403 32.8555 79.9512 30.7698C80.7726 32.1605 81.447 33.6329 81.9635 35.1633L82.4259 34.9665L82.7359 34.8239C82.0337 32.9122 81.0984 31.0945 79.9512 29.4119C79.6936 29.4778 79.4324 29.5287 79.1689 29.5644L79.287 29.7366" fill="white"/>
<path d="M41.2948 31.0254H39.7794C37.8092 34.5948 36.7718 38.6038 36.7635 42.6808C37.3096 42.7153 37.8705 42.7448 38.4412 42.7694C38.3225 38.6697 39.3081 34.6135 41.2948 31.0254Z" fill="white"/>
<path d="M58.8149 41.3821L59.4053 41.2886C59.5283 40.8901 59.6562 40.4915 59.794 40.093L58.6132 40.6391C58.5246 40.9097 58.4459 41.1803 58.3672 41.4509L58.8149 41.3821Z" fill="white"/>
<path d="M82.1996 49.4017C75.6511 54.6759 67.3757 58.6169 61.8801 54.8678C63.3304 53.9021 64.7144 52.8403 66.0227 51.6895C68.4909 49.6305 70.7264 47.3075 72.6893 44.7622C71.8955 44.9786 71.0903 45.1886 70.2736 45.3919C67.4249 48.5851 64.2134 51.435 60.7042 53.8838C59.115 52.2897 58.4065 50.1791 58.3573 47.7535L57.3733 47.8913C57.4471 50.3513 58.1753 52.6292 59.9711 54.3512C58.8116 55.1102 57.6054 55.7954 56.3598 56.4029C54.7185 55.056 53.2436 53.5184 51.9663 51.8224C51.2092 50.8271 50.5078 49.7907 49.8654 48.7178L48.7633 48.8015C49.4176 49.922 50.1492 50.9955 50.9527 52.0142C52.3118 53.7581 53.8486 55.3558 55.5382 56.7817C54.7052 57.1551 53.8529 57.4836 52.9847 57.7657C47.8581 52.5161 44.4682 54.0265 39.8631 49.0229H39.5974C40.8997 50.7744 42.5496 52.2383 44.4436 53.3229C46.5395 54.4152 49.7916 55.5419 52.109 58.0363C48.5961 59.0203 46.1607 58.7251 45.1127 58.4988C42.482 55.8453 40.5367 52.5914 39.4449 49.018C38.7954 49.018 38.1509 48.9737 37.5212 48.9442C38.7926 53.9246 41.5981 58.3791 45.5408 61.6771C47.9241 63.7024 50.6897 65.2287 53.6736 66.1658C56.6576 67.1029 59.7993 67.4316 62.9126 67.1325C66.0258 66.8333 69.0475 65.9125 71.7984 64.4244C74.5494 62.9363 76.9737 60.9113 78.9278 58.4693C82.907 53.4979 84.7699 47.1601 84.1135 40.8262L83.1541 41.2296C83.3262 43.9823 83.0029 46.7435 82.1996 49.382M54.2344 64.1174C51.4893 63.2247 48.9419 61.8115 46.7314 59.9551C46.569 59.8223 46.4116 59.6845 46.2394 59.5467C47.3415 59.9551 49.0782 60.1568 51.7153 59.4975C52.1778 59.409 52.66 59.2958 53.1569 59.1482C53.7686 59.8019 54.1904 60.6101 54.3768 61.4857C54.5632 62.3614 54.5072 63.2713 54.2147 64.1174M55.061 64.3732C55.4644 63.7779 56.045 61.6131 53.9244 58.8087C54.2098 58.7054 54.5099 58.5873 54.815 58.4643C55.4841 58.2233 56.2614 57.933 56.7288 57.7165C63.9907 63.1285 70.7557 62.2823 72.5613 61.928C69.9726 63.5249 67.0809 64.568 64.0689 64.9914C61.0568 65.4148 57.9897 65.2093 55.061 64.388M78.1849 56.9441C76.6492 58.8785 74.7999 60.5416 72.7139 61.864C67.3016 62.0804 61.9704 60.4954 57.5554 57.3573C58.7841 56.7524 59.9798 56.0823 61.1371 55.35C68.7139 60.762 78.9819 52.4324 82.1258 49.5739C81.2857 52.2579 79.9508 54.761 78.1898 56.9539" fill="white"/>
<path d="M104.315 22.4451L108.202 19.0011H100.443C100.443 19.0011 99.1441 22.3861 98.4159 24.295C97.6976 22.3861 96.4479 19.0011 96.4479 19.0011H92.7776V22.0023C92.3437 21.2508 91.7524 20.6021 91.0443 20.1006C90.3361 19.599 89.5279 19.2566 88.675 19.0968C87.8221 18.9369 86.9447 18.9635 86.103 19.1746C85.2613 19.3857 84.4752 19.7763 83.7986 20.3197C83.3481 19.1441 82.5408 18.1391 81.49 17.4458C80.4391 16.7525 79.1976 16.4056 77.9395 16.4539C76.6815 16.5022 75.4702 16.9433 74.4756 17.7151C73.4811 18.487 72.7532 19.5509 72.3941 20.7576C71.5675 19.6801 70.0374 18.9962 68.158 18.9962H56.0843L60.5861 22.9322V24.2606L58.4804 25.4266L54.1212 23.5472L55.2578 26.4057H52.3058C51.8173 26.3513 51.3661 26.1187 51.0384 25.7524C50.7108 25.3862 50.5296 24.912 50.5296 24.4205C50.5296 23.9291 50.7108 23.4549 51.0384 23.0886C51.3661 22.7223 51.8173 22.4897 52.3058 22.4353H54.9429V18.9913H51.7597C50.936 18.9908 50.1248 19.1918 49.3967 19.5769C48.6686 19.962 48.0458 20.5193 47.5826 21.2004V18.9913H41.1226V22.209C40.3945 20.7969 39.4548 18.9913 39.4548 18.9913H36.1042V19.0749C35.6194 18.2937 34.9529 17.6412 34.1614 17.1732C33.3699 16.7052 32.477 16.4355 31.5588 16.3872C30.6406 16.3389 29.7243 16.5133 28.888 16.8957C28.0518 17.278 27.3204 17.8569 26.7563 18.5829C23.9125 14.4206 16.9802 13.535 13.9249 14.8585C13.1356 15.1991 12.4574 15.7537 11.967 16.4598C11.4766 17.1658 11.1936 17.995 11.1501 18.8535C11.1009 20.0048 11.4797 22.1893 14.5694 23.8522C16.1314 24.627 17.7558 25.2689 19.4255 25.771C21.2016 26.3762 22.6382 26.8485 22.835 27.6505C23.4304 30.0711 17.2754 29.0724 17.2754 29.0724L11.6716 38.0907C11.6716 38.0907 22.1462 36.472 26.0626 32.9542C26.6571 32.4125 27.1303 31.751 27.4508 31.0132C27.7713 30.2754 27.932 29.4782 27.9223 28.6738C27.9226 28.2559 27.8814 27.8389 27.7993 27.4291C28.785 28.1935 29.9959 28.6104 31.2433 28.6148C32.2131 28.608 33.1655 28.3575 34.0132 27.8863C34.8609 27.4152 35.5765 26.7386 36.0944 25.9186V29.9284H39.5384V27.3996C40.0796 28.4475 40.8373 29.9284 40.8373 29.9284H47.5629V27.6505C48.0208 28.3419 48.6407 28.9108 49.3687 29.3079C50.0968 29.7049 50.9108 29.9179 51.74 29.9284H54.3722L52.9601 31.6504L57.4915 31.1584L58.6526 34.7992L60.5123 31.065H60.5665V33.83L56.9995 39.8816L59.0708 38.9714C59.489 38.7844 69.3732 34.4351 70.9033 33.6922C71.7643 33.274 74.3867 31.9948 74.3867 29.0871C74.3867 27.1782 73.0927 26.1351 71.7545 25.6087C71.9551 25.4242 72.1364 25.2197 72.2957 24.9986L72.6548 24.8707C73.022 25.7173 73.5791 26.468 74.283 27.0647C74.9869 27.6614 75.8187 28.0881 76.714 28.3116C77.6093 28.5352 78.544 28.5497 79.4458 28.354C80.3476 28.1583 81.1922 27.7577 81.9143 27.1831C82.3221 28.2416 83.0203 29.1636 83.9288 29.843C84.8372 30.5224 85.9189 30.9316 87.0496 31.0236C88.1803 31.1156 89.3139 30.8867 90.3203 30.3631C91.3266 29.8395 92.1647 29.0425 92.7383 28.0638V29.8792H105.742L104.315 28.5262V22.4451ZM25.4771 23.4832C24.5683 22.6881 23.514 22.0766 22.3726 21.6825C20.07 20.8658 18.4366 20.364 17.7871 19.6604C17.3788 19.2225 17.7871 17.8548 20.1044 18.9273C21.2065 19.4193 21.2213 20.7969 21.2213 20.7969H25.6493C25.4876 21.3484 25.4031 21.9197 25.3983 22.4943C25.4014 22.824 25.4293 23.1529 25.482 23.4783M31.2581 24.787C30.7971 24.8186 30.3372 24.7108 29.9383 24.4775C29.5394 24.2443 29.2199 23.8964 29.0214 23.4791C28.8229 23.0618 28.7545 22.5945 28.8251 22.1378C28.8958 21.6812 29.1022 21.2563 29.4176 20.9185C29.7329 20.5808 30.1426 20.3457 30.5933 20.2439C31.0441 20.1421 31.515 20.1783 31.9449 20.3477C32.3748 20.5171 32.7438 20.812 33.0039 21.194C33.2639 21.5759 33.4031 22.0273 33.4032 22.4894C33.4218 23.0781 33.2066 23.6503 32.8046 24.0808C32.4027 24.5113 31.8467 24.7652 31.2581 24.787ZM65.3733 23.3111H67.3413C67.3413 23.3111 68.0251 23.3848 68.0251 23.803C68.0316 23.8289 68.0316 23.8559 68.0251 23.8818C67.3003 24.1343 66.5639 24.4033 65.8161 24.6886C65.6832 24.7155 65.5482 24.7304 65.4126 24.7329L65.3733 23.3111ZM67.976 30.0219C67.3905 30.2827 66.2195 30.7402 65.3733 31.0551V28.9789H68.281C68.714 28.9789 69.1469 29.5004 67.976 30.0219ZM78.1997 20.241C78.5352 20.2417 78.8663 20.3176 79.1685 20.4632C79.4708 20.6088 79.7366 20.8204 79.9463 21.0823C78.7114 21.2201 77.4322 21.4119 76.1136 21.6678C76.2772 21.2475 76.5638 20.8864 76.9361 20.6318C77.3083 20.3772 77.7487 20.241 78.1997 20.241ZM78.1997 24.7083C77.8352 24.7073 77.4765 24.6171 77.1549 24.4456C76.8333 24.274 76.5586 24.0264 76.3547 23.7243C77.6862 23.3605 79.0362 23.0682 80.3989 22.8486C80.3067 23.3651 80.0359 23.8328 79.634 24.17C79.232 24.5072 78.7244 24.6925 78.1997 24.6936M87.5477 27.2569C87.1045 27.2579 86.671 27.1273 86.3021 26.8817C85.9332 26.6361 85.6455 26.2865 85.4755 25.8772C85.3055 25.468 85.2607 25.0175 85.3469 24.5828C85.4332 24.1481 85.6465 23.7487 85.9598 23.4354C86.2732 23.122 86.6725 22.9087 87.1072 22.8225C87.5419 22.7363 87.9924 22.781 88.4017 22.951C88.811 23.1211 89.1605 23.4088 89.4061 23.7777C89.6517 24.1465 89.7823 24.58 89.7813 25.0232C89.7813 25.6156 89.546 26.1838 89.1271 26.6027C88.7082 27.0215 88.1401 27.2569 87.5477 27.2569Z" fill="white"/>
<path d="M61.8997 26.3024C62.8444 25.8842 63.7694 25.4906 64.6845 25.1265H64.6353V22.5927H67.3216C67.7053 22.5927 68.6008 22.8584 68.7188 23.6406C69.9538 23.2274 71.1542 22.8633 72.3301 22.5484C72.2514 20.8559 70.5048 19.7292 68.1777 19.7292H58.0277L61.3143 22.5927V23.8522L63.2823 22.7747L61.8997 26.3024Z" fill="#D92628"/>
<path d="M68.2761 28.2605C68.6893 28.2605 69.5995 28.3294 69.5995 29.2003C69.5995 30.0711 68.955 30.386 68.2761 30.6763C67.2921 31.1338 64.6353 32.0883 64.6353 32.0883V28.5262C63.9071 28.9198 63.1593 29.3282 62.4213 29.7661L63.7054 31.7685L61.3143 31.2765V34.0809L58.7952 38.3564C58.7952 38.3564 69.0731 33.8349 70.6032 33.092C71.72 32.5459 73.6782 31.4389 73.6782 29.156C73.6782 26.6074 70.8295 26.0859 69.9833 25.9924C68.4187 26.6484 66.8 27.4176 65.1273 28.2999L68.2761 28.2605Z" fill="#D92628"/>
<path d="M31.2531 17.1167C30.4013 17.1231 29.5649 17.3448 28.8217 17.7611C28.0785 18.1774 27.4526 18.7749 27.0022 19.498L26.9137 19.6554L26.7956 19.867V19.8965L26.7119 20.0392C26.3331 20.8037 26.1377 21.646 26.1412 22.4992C26.1913 23.4999 26.5338 24.464 27.1263 25.2721C27.7189 26.0801 28.5354 26.6966 29.4749 27.0452C30.4143 27.3937 31.4354 27.4591 32.4116 27.2331C33.3878 27.0071 34.2762 26.4998 34.967 25.7738C35.6577 25.0479 36.1203 24.1354 36.2975 23.1491C36.4747 22.1629 36.3588 21.1464 35.964 20.2254C35.5692 19.3044 34.9129 18.5195 34.0764 17.9678C33.2399 17.4161 32.26 17.1219 31.258 17.1216M31.258 25.5348C30.6509 25.5653 30.0485 25.4131 29.5287 25.0978C29.0089 24.7826 28.5956 24.3188 28.342 23.7663C28.0885 23.2138 28.0064 22.5979 28.1063 21.9983C28.2062 21.3987 28.4836 20.8427 28.9026 20.4023C29.3216 19.9619 29.863 19.6572 30.457 19.5275C31.0509 19.3978 31.67 19.4492 32.2345 19.6749C32.7989 19.9006 33.2828 20.2904 33.6235 20.7938C33.9643 21.2972 34.1463 21.8913 34.1461 22.4992C34.1572 22.8885 34.0911 23.2762 33.9518 23.6398C33.8124 24.0035 33.6024 24.336 33.334 24.6182C33.0655 24.9004 32.7439 25.1266 32.3876 25.284C32.0313 25.4413 31.6474 25.5265 31.258 25.5348Z" fill="#D92628"/>
<path d="M14.2201 15.5374C11.6322 16.7133 10.3874 20.7673 14.9187 23.2077C18.9236 25.3626 22.9875 25.5004 23.5435 27.4536C24.5816 31.0796 17.6395 29.9136 17.6395 29.9136L13.4772 36.8016C13.4772 36.8016 21.7723 35.8176 25.5558 32.408C28.4093 29.8447 27.6221 24.3245 22.1118 22.3811C19.8978 21.6037 17.8806 20.8657 17.2656 20.2606C16.38 19.3848 16.6604 18.3369 17.61 17.9875C19.086 17.4365 21.4672 18.3319 21.8953 20.0293C21.8953 20.0736 26.3233 20.0736 26.6923 20.0293C26.7218 19.9654 26.7513 19.9113 26.7808 19.8522C24.6209 15.257 17.4328 14.0712 14.2053 15.5226" fill="#D92628"/>
<path d="M41.8606 25.2348L39.007 19.7244H36.8422V29.1904H38.8201V24.3393L41.3096 29.1904H43.6318V19.7244H41.8606V25.2348Z" fill="#D92628"/>
<path d="M46.8446 19.7292H44.3748V29.1953H46.8446V19.7292Z" fill="#D92628"/>
<path d="M55.548 27.1388H52.3107C51.6231 27.0881 50.9801 26.7792 50.5108 26.2741C50.0415 25.769 49.7807 25.105 49.7807 24.4156C49.7807 23.7261 50.0415 23.0622 50.5108 22.557C50.9801 22.0519 51.6231 21.743 52.3107 21.6924H54.2098V19.7244H51.7498C51.1494 19.737 50.5574 19.869 50.0085 20.1127C49.4596 20.3563 48.9647 20.7068 48.5526 21.1437C48.1405 21.5805 47.8194 22.095 47.6081 22.6571C47.3968 23.2193 47.2995 23.8179 47.3218 24.418C47.3218 27.0798 49.2898 29.1904 51.7498 29.1904H54.9871L55.9072 28.0687L55.548 27.1388Z" fill="#D92628"/>
<path d="M101.137 29.1806H103.597V29.0576C102.821 28.3476 102 27.6902 101.137 27.0896V29.1806Z" fill="#D92628"/>
<path d="M103.587 22.1301L106.283 19.739H100.945L99.1194 24.4966C100.739 25.4264 102.239 26.5499 103.587 27.8422V22.1301Z" fill="#D92628"/>
<path d="M95.9313 19.7292H93.4713V22.0908C94.8003 22.4806 96.0966 22.9741 97.3483 23.5668L95.9313 19.7292Z" fill="#D92628"/>
<path d="M98.406 26.3465L97.9731 25.2001C96.5376 24.4801 95.0368 23.8985 93.491 23.4634V29.1804H95.5327V24.9345L97.363 29.1804H99.7984L100.782 26.8483C100.108 26.3892 99.41 25.9655 98.6914 25.579L98.406 26.3465Z" fill="#D92628"/>
<path d="M78.1948 19.5177C78.7141 19.5165 79.2246 19.6524 79.6746 19.9115C80.1247 20.1707 80.4984 20.544 80.7581 20.9937C81.6043 20.915 82.4309 20.8658 83.2181 20.8412C82.8278 19.6528 82.0296 18.6408 80.9648 17.9842C79.9001 17.3277 78.6374 17.0691 77.4002 17.2541C76.1631 17.4391 75.0313 18.0557 74.2051 18.995C73.379 19.9342 72.9117 21.1355 72.8861 22.3861C73.7028 22.1795 74.5097 21.9876 75.2969 21.8203C75.4419 21.1617 75.808 20.5726 76.3343 20.151C76.8607 19.7294 77.5155 19.5007 78.1898 19.503" fill="#D92628"/>
<path d="M90.5243 25.0478C90.5208 25.5692 90.3794 26.0804 90.1143 26.5294C89.8492 26.9784 89.4698 27.3491 89.0149 27.604C88.56 27.8588 88.0457 27.9885 87.5244 27.98C87.003 27.9716 86.4932 27.8252 86.0468 27.5557C85.6004 27.2863 85.2334 26.9034 84.983 26.446C84.7326 25.9886 84.6078 25.4731 84.6213 24.9519C84.6348 24.4306 84.7862 23.9223 85.06 23.4785C85.3337 23.0348 85.7202 22.6714 86.1799 22.4255C84.4948 22.4076 82.8107 22.5162 81.1418 22.7502C81.0915 23.3825 80.8388 23.9817 80.4212 24.4591C80.0037 24.9365 79.4434 25.2668 78.8235 25.4009C78.2036 25.5351 77.5569 25.466 76.9794 25.2039C76.4018 24.9418 75.924 24.5006 75.6167 23.9458C74.8754 24.159 74.121 24.3968 73.3535 24.6592C73.7234 25.4883 74.3001 26.2085 75.0284 26.7507C75.7566 27.2929 76.612 27.6389 77.5124 27.7555C78.4128 27.872 79.3281 27.7553 80.1704 27.4164C81.0127 27.0775 81.7538 26.5279 82.3226 25.8203C82.4283 26.5572 82.6879 27.2637 83.0845 27.8937C83.4812 28.5238 84.0061 29.0632 84.625 29.477C85.2439 29.8908 85.9431 30.1696 86.6769 30.2954C87.4107 30.4211 88.1627 30.391 88.8841 30.2069C89.6055 30.0228 90.2801 29.6889 90.8639 29.227C91.4477 28.765 91.9277 28.1852 92.2727 27.5255C92.6177 26.8657 92.8199 26.1408 92.8662 25.3977C92.9125 24.6546 92.8019 23.9101 92.5415 23.2127C91.4638 22.95 90.3712 22.7529 89.2697 22.6223C89.6596 22.8951 89.9777 23.2582 90.197 23.6805C90.4163 24.1028 90.5303 24.5719 90.5292 25.0478" fill="#D92628"/>
<path d="M91.5968 21.6037C90.7155 20.5672 89.4691 19.9097 88.116 19.7677C86.7629 19.6257 85.4072 20.0101 84.33 20.8411C86.773 20.8252 89.2102 21.081 91.5968 21.6037Z" fill="#D92628"/>
<path d="M91.4541 30.9861C91.3508 31.0501 91.2474 31.1239 91.1392 31.1829C87.2032 35.6109 74.4358 40.3932 59.0313 42.8384C40.1238 45.8347 24.4045 44.1668 23.9174 39.109C23.7206 37.0918 26.4364 34.2481 35.0071 30.5827V28.9443C33.5207 29.4068 32.0689 29.9741 30.6627 30.6417C29.8361 31.0419 29.0506 31.4453 28.306 31.852C27.9562 32.592 27.4391 33.2405 26.7956 33.7462C25.3908 34.7794 23.868 35.6415 22.2593 36.3145C20.9703 37.7462 20.3258 39.1681 20.4586 40.526C21.0736 46.922 38.4806 49.382 59.3266 46.0856C77.5945 43.1877 92.4529 36.8114 95.454 30.9861H91.4541Z" fill="#BEC1C4"/>
<path d="M58.9625 45.6182C37.0637 48.3783 33.2752 45.8199 33.1424 45.2098C32.8226 43.6896 40.975 45.7953 58.7264 43.1533C73.9094 40.895 87.5083 34.6761 86.6916 36.6835C86.4456 37.2886 76.6794 43.3845 58.9625 45.6182Z" fill="#BEC1C4"/>
<path d="M58.9773 45.5839C37.6491 48.2751 33.723 45.82 33.595 45.2149C33.2752 43.7389 41.3686 45.7659 58.7411 43.1829C73.6339 40.964 86.9228 34.8829 86.1848 36.841C85.9634 37.4314 76.3448 43.3896 58.9773 45.5839Z" fill="#C1C3C5"/>
<path d="M58.997 45.5444C38.2395 48.1766 34.1756 45.8199 34.0428 45.2147C33.7328 43.788 41.7573 45.7363 58.7559 43.2074C73.3584 41.0328 86.3078 35.0894 85.6731 37.0033C85.4763 37.5789 75.966 43.3993 58.997 45.5444Z" fill="#C3C5C7"/>
<path d="M59.0166 45.5099C38.8447 48.0732 34.6282 45.8198 34.4954 45.2196C34.1854 43.8371 42.1509 45.7116 58.7706 43.2516C73.078 41.1163 85.747 35.3206 85.1664 37.1853C84.9893 37.7511 75.6118 43.414 59.0166 45.5492" fill="#C5C6C8"/>
<path d="M59.0363 45.4755C39.4105 47.9749 35.0759 45.8199 34.9283 45.2197C34.6282 43.8863 42.5297 45.6821 58.7706 43.2517C72.7877 41.1558 85.1418 35.5027 84.6448 37.3182C84.4923 37.8692 75.2378 43.3894 59.0215 45.4657" fill="#C7C9CA"/>
<path d="M59.0511 45.4411C40.0009 47.8716 35.5286 45.8199 35.3908 45.2246C35.1006 43.9307 42.9332 45.6527 58.8002 43.2861C72.522 41.2345 84.5662 35.7241 84.148 37.4855C84.02 38.0316 74.8984 43.3895 59.056 45.4411" fill="#C9C9CC"/>
<path d="M59.0707 45.4066C40.5863 47.7681 35.9763 45.8248 35.8435 45.2245C35.5532 43.9798 43.3268 45.628 58.8198 43.3106C72.2465 41.3033 83.9806 35.9306 83.6412 37.6477C83.5329 38.184 74.5392 43.409 59.0707 45.4066Z" fill="#CBCCCE"/>
<path d="M59.0905 45.3722C41.1718 47.6698 36.429 45.8248 36.2912 45.2295C36.0108 44.029 43.7155 45.5985 58.8346 43.3353C71.9661 41.3673 83.7347 36.2505 83.1295 37.8102C83.159 38.3464 74.185 43.414 59.0905 45.3722Z" fill="#CCCECF"/>
<path d="M59.1101 45.3379C41.7622 47.5666 36.8816 45.8299 36.7389 45.2296C36.4683 44.0784 44.1189 45.5691 58.8493 43.365C71.6905 41.4363 83.1934 36.477 82.6227 37.953C82.6867 38.4794 73.8258 43.3994 59.1101 45.333" fill="#CECFD1"/>
<path d="M59.1298 45.2985C42.3477 47.4682 37.3293 45.8249 37.1916 45.2345C36.9259 44.1226 44.4978 45.5445 58.8641 43.3895C71.4101 41.5052 82.6572 36.6983 82.1111 38.1301C82.2193 38.6516 73.4716 43.4191 59.1298 45.2985Z" fill="#D0D2D3"/>
<path d="M59.1445 45.2541C42.9332 47.355 37.7819 45.815 37.6393 45.2246C37.3785 44.1619 44.8913 45.5051 58.8788 43.4042C71.1345 41.5642 82.116 36.9148 81.6043 38.2825C81.747 38.7745 73.1124 43.4141 59.1445 45.2541Z" fill="#D3D4D4"/>
<path d="M59.1642 45.254C43.5235 47.2909 38.2346 45.8494 38.087 45.254C37.836 44.2356 45.28 45.5 58.8936 43.4583C70.859 41.6575 81.5747 37.1607 81.0975 38.4694C81.2795 38.9614 72.7335 43.4435 59.1642 45.2442" fill="#D4D4D7"/>
<path d="M59.1987 45.195C44.1238 47.163 38.6971 45.8248 38.5347 45.2393C38.2887 44.2553 45.6687 45.4607 58.9035 43.4681C70.5737 41.7068 81.0434 37.3723 80.581 38.617C80.8024 39.109 72.3941 43.4337 59.179 45.195" fill="#D5D7D8"/>
<path d="M59.1987 45.1606C44.6945 47.0598 39.13 45.8298 38.9824 45.2443C38.7463 44.3144 46.0574 45.4312 58.9232 43.4928C70.2982 41.7757 80.4924 37.5888 80.0791 38.7745C80.3399 39.2665 72.0448 43.4386 59.2036 45.1705" fill="#D9D9D9"/>
<path d="M59.1987 45.1262C45.2652 46.9613 39.5679 45.8297 39.4154 45.2492C39.189 44.3636 46.4362 45.4017 58.9231 43.5222C70.003 41.8445 79.9413 37.82 79.5477 38.9368C79.8478 39.4288 71.6758 43.4386 59.1987 45.1262Z" fill="#DAD9DB"/>
<path d="M59.238 45.0918C45.8704 46.8581 40.0501 45.8298 39.8877 45.2493C39.6712 44.4129 46.8495 45.3772 58.9576 43.547C69.7471 41.9135 79.4198 38.0464 79.0607 39.119C79.4001 39.5765 71.3314 43.4633 59.238 45.1115" fill="#DCDDDD"/>
<path d="M59.2577 45.0574C46.4657 46.7597 40.4879 45.8298 40.3354 45.2542C40.1287 44.4571 47.2234 45.3476 58.9723 43.5715C69.4667 41.9774 78.8786 38.2678 78.5539 39.2616C78.9278 39.7093 70.9722 43.4485 59.2577 45.0574Z" fill="#DEDEDE"/>
<path d="M59.2774 45.0179C47.0512 46.6809 40.9406 45.8297 40.7831 45.2541C40.5863 44.5062 47.6318 45.318 58.9871 43.601C69.1912 42.0463 78.3423 38.494 78.0422 39.419C78.4604 39.8618 70.6179 43.478 59.2774 45.0179Z" fill="#E1E0E0"/>
<path d="M59.2921 44.9835C47.6366 46.5825 41.3883 45.8298 41.2357 45.2591C41.0439 44.5506 48.0204 45.2935 59.0018 43.6256C68.9156 42.1152 77.8011 38.7056 77.5354 39.5814C77.9881 40.0143 70.2637 43.4829 59.2921 44.9934" fill="#E1E2E2"/>
<path d="M59.3118 44.949C48.2221 46.4791 41.8409 45.8297 41.6835 45.2589C41.5015 44.5997 48.414 45.2589 59.0215 43.6501C68.6352 42.1741 77.2648 38.9417 77.0238 39.7436C77.5158 40.1618 69.9045 43.4877 59.3118 44.949Z" fill="#E4E4E4"/>
<path d="M59.3315 44.9146C48.8126 46.3906 42.2936 45.8347 42.1362 45.264C41.9787 44.6932 48.8027 45.2344 59.0363 43.6748C68.3843 42.2529 76.7483 39.1681 76.517 39.9061C77.0484 40.3144 69.5503 43.4928 59.3315 44.9146Z" fill="#E6E5E5"/>
<path d="M59.3512 44.8801C49.398 46.2774 42.7462 45.8346 42.5838 45.2639C42.4215 44.6931 49.1963 45.2097 59.0511 43.7042C68.0793 42.3168 76.1825 39.3894 76.0053 40.0634C76.581 40.4669 69.1912 43.5074 59.3512 44.8801Z" fill="#E9E8E7"/>
<path d="M59.3659 44.8458C49.9835 46.1791 43.1939 45.8298 43.0316 45.2689C42.8692 44.708 49.585 45.1803 59.0658 43.7289C67.8037 42.3858 75.6462 39.6158 75.4986 40.2259C76.1087 40.6195 68.8369 43.4977 59.3659 44.8458Z" fill="#EAE9EA"/>
<path d="M59.3856 44.8113C50.5739 46.0757 43.6416 45.8346 43.4842 45.2688C43.3415 44.7768 49.9786 45.1508 59.0806 43.7535C67.5233 42.4546 75.105 39.8421 74.9918 40.3882C75.6412 40.772 68.4777 43.5026 59.3856 44.8162" fill="#EBEAEC"/>
<path d="M59.4053 44.7621C51.1594 45.9626 44.0992 45.8248 43.9319 45.2541C43.7991 44.8162 50.3673 45.1065 59.0953 43.7781C67.2477 42.5186 74.5687 40.0586 74.4801 40.5408C75.1689 40.9147 68.1235 43.4928 59.4053 44.767" fill="#EEEDEE"/>
<path d="M59.425 44.7621C51.7449 45.8937 44.5518 45.8593 44.3796 45.2984C44.2616 44.9097 50.7756 45.1213 59.1396 43.8224C67.0116 42.6022 74.0521 40.3046 73.998 40.7228C74.7261 41.0869 67.7889 43.5223 59.4496 44.7523" fill="#F1EFEF"/>
<path d="M59.4397 44.7031C52.3353 45.7658 45.0045 45.8347 44.8323 45.2787C44.724 44.9294 51.1495 45.0672 59.1298 43.8322C66.6918 42.6564 73.4863 40.5112 73.4617 40.8802C74.2292 41.2345 67.4101 43.5223 59.4397 44.7129" fill="#F2F1F0"/>
<path d="M59.4594 44.6686C52.9207 45.6526 45.4571 45.8346 45.28 45.2787C45.1816 44.9785 51.5431 45.0425 59.1445 43.8568C66.4163 42.7252 72.95 40.7375 72.9549 41.0327C73.7618 41.3771 67.051 43.4927 59.4594 44.6686Z" fill="#F5F5F5"/>
<path d="M59.4791 44.6343C53.5063 45.5593 45.9147 45.8348 45.7032 45.2837C45.6195 45.023 51.9122 45.0131 59.1347 43.8865C66.1113 42.7942 72.3843 40.964 72.4187 41.1903C73.26 41.5298 66.6672 43.5175 59.4496 44.6343" fill="#F6F6F6"/>
<path d="M59.4988 44.5997C54.0868 45.441 46.3673 45.8346 46.1803 45.2835C46.1065 45.072 52.3254 44.9834 59.174 43.9109C65.8603 42.858 71.8725 41.1852 71.9365 41.3525C72.8221 41.6772 66.3375 43.5025 59.4988 44.5997Z" fill="#FAFAFA"/>
<path d="M59.5136 44.5654C54.6821 45.3427 46.8249 45.8347 46.6281 45.2886C46.5642 45.1164 52.7191 44.959 59.1888 43.9356C65.5848 42.9516 71.3314 41.4116 71.4298 41.515C72.3498 41.8298 65.9784 43.483 59.5136 44.5654Z" fill="#FBFCFC"/>
<path d="M59.5332 44.526C55.2676 45.2394 47.2874 45.8298 47.0758 45.2886C47.0266 45.1607 53.1077 44.9294 59.2085 43.9651C65.3093 43.0008 70.7902 41.633 70.9181 41.6773C71.9021 41.9824 65.6242 43.5125 59.5332 44.526Z" fill="white"/>
<path d="M45.6048 31.0205H41.2948C39.308 34.6103 38.3224 38.6682 38.4412 42.7694C40.8225 42.8629 43.4252 42.8383 46.1755 42.7055C45.1088 38.903 44.9137 34.9088 45.6048 31.0205Z" fill="url(#paint0_radial_869_4692)"/>
<path d="M39.4646 49.018C40.5575 52.5923 42.5026 55.8476 45.1324 58.5037C46.1804 58.7251 48.6158 58.9957 52.1287 58.0117C49.8113 55.5173 46.5592 54.3906 44.4633 53.2984C42.5693 52.2137 40.9195 50.7498 39.6171 48.9983H39.8828C44.4879 54.0019 47.8778 52.4915 53.0044 57.7411C53.8725 57.459 54.7249 57.1306 55.5579 56.7571C53.8687 55.3324 52.3334 53.7345 50.9774 51.9897C50.1706 50.9721 49.4374 49.8985 48.7831 48.7769L49.8901 48.6933C50.529 49.7672 51.2288 50.8037 51.986 51.7978C53.2633 53.4938 54.7382 55.0315 56.3795 56.3783C57.6241 55.7708 58.8301 55.0872 59.9908 54.3316C58.195 52.6046 57.4668 50.3365 57.393 47.8667C51.4592 48.7473 45.4623 49.1324 39.4646 49.018Z" fill="url(#paint1_radial_869_4692)"/>
<path d="M50.6182 32.9541L52.0942 31.0205H51.7842C50.6955 31.0143 49.629 30.7115 48.6994 30.1448V31.0205H46.2394C45.6486 34.919 45.9668 38.9012 47.1693 42.6563C49.3784 42.5284 51.6711 42.3267 54.0081 42.0512L58.0228 36.1226L56.9798 32.2505L50.6182 32.9541Z" fill="url(#paint2_radial_869_4692)"/>
<path d="M70.2735 45.4016C66.8296 46.2577 63.2527 46.9908 59.5627 47.5762L58.3524 47.7632C58.4016 50.1888 59.1101 52.2994 60.6992 53.8935C64.2102 51.445 67.4233 48.5951 70.2735 45.4016Z" fill="url(#paint3_radial_869_4692)"/>
<path d="M53.1766 59.168C52.6846 59.3156 52.1926 59.4287 51.735 59.5173C49.0979 60.1766 47.3612 59.9748 46.2591 59.5665L46.7265 59.9748C48.9394 61.8304 51.4882 63.2434 54.2344 64.1372C54.874 62.4742 54.4115 60.6194 53.1766 59.168Z" fill="url(#paint4_radial_869_4692)"/>
<path d="M77.5945 36.8361C79.1459 36.3014 80.6022 35.7439 81.9634 35.1633C81.4479 33.6341 80.7735 32.1632 79.9511 30.7747C79.3392 32.8584 78.5508 34.8862 77.5945 36.8361Z" fill="url(#paint5_radial_869_4692)"/>
<path d="M72.6843 44.7769H72.6892V44.772L72.6843 44.7769Z" fill="url(#paint6_radial_869_4692)"/>
<path d="M83.1541 41.2493C79.7415 42.6346 76.2465 43.8077 72.6893 44.7621C70.7258 47.3041 68.4904 49.6237 66.0227 51.6796C64.7144 52.8304 63.3304 53.8923 61.8801 54.858C67.3757 58.607 75.656 54.6661 82.1996 49.3919C83.0018 46.7565 83.3251 43.9987 83.1541 41.2493Z" fill="url(#paint7_radial_869_4692)"/>
<path d="M72.7385 61.8493C74.8245 60.5268 76.6738 58.8637 78.2095 56.9293C79.9705 54.7364 81.3054 52.2333 82.1455 49.5493C79.0016 52.4078 68.7336 60.7226 61.1568 55.3254C59.9994 56.0577 58.8038 56.7278 57.5751 57.3327C61.9902 60.4754 67.3234 62.0639 72.7385 61.8493Z" fill="url(#paint8_radial_869_4692)"/>
<path d="M56.7387 57.7361C56.2713 57.9526 55.489 58.2281 54.8248 58.4839C54.5197 58.6069 54.2196 58.725 53.9343 58.8283C56.0646 61.6327 55.4742 63.7975 55.0708 64.3928C57.9995 65.2142 61.0666 65.4196 64.0787 64.9962C67.0908 64.5728 69.9824 63.5298 72.5712 61.9328C70.7754 62.3018 64.0104 63.1382 56.7387 57.7361Z" fill="url(#paint9_radial_869_4692)"/>
<path d="M59.4053 41.2886L58.8149 41.387L59.4053 41.2886Z" fill="url(#paint10_radial_869_4692)"/>
<path d="M78.1898 29.6134C77.2686 29.6147 76.3561 29.4358 75.5035 29.0869V29.1164C75.5035 31.5026 74.121 33.3821 71.4002 34.7055C70.5638 35.1139 64.65 37.8494 59.794 40.0929C59.6562 40.4915 59.5283 40.89 59.4053 41.2836C64.9121 40.4095 70.3482 39.1368 75.6708 37.4755C77.0587 34.9783 78.2672 32.3855 79.287 29.7167L79.1689 29.5445C78.8445 29.59 78.5173 29.613 78.1898 29.6134Z" fill="url(#paint11_radial_869_4692)"/>
<path d="M58.6132 40.6392L56.1532 41.7757C56.8912 41.6773 57.6292 41.569 58.377 41.451C58.4459 41.1804 58.5246 40.9098 58.6132 40.6392Z" fill="url(#paint12_radial_869_4692)"/>
<path d="M32.7882 57.4853C32.7489 57.3614 32.7355 57.2308 32.7488 57.1015C32.7501 57.0671 32.761 57.0337 32.7801 57.0051C32.7992 56.9764 32.8258 56.9536 32.8571 56.9391L33.231 56.7522C33.2179 56.9172 33.2312 57.0833 33.2703 57.2442C33.3007 57.4138 33.352 57.5791 33.4228 57.7362C33.4869 57.8863 33.5972 58.0122 33.7377 58.0953C33.7995 58.1294 33.8689 58.1472 33.9394 58.1472C34.01 58.1472 34.0794 58.1294 34.1412 58.0953C34.2526 58.0295 34.3408 57.9308 34.3937 57.8127C34.4466 57.6946 34.4615 57.563 34.4364 57.4361V56.9441C34.42 56.7354 34.4608 56.5261 34.5544 56.3389C34.6562 56.1596 34.8133 56.0181 35.0022 55.9355C35.1161 55.8679 35.2461 55.8323 35.3786 55.8323C35.511 55.8323 35.641 55.8679 35.7549 55.9355C36.0287 56.1162 36.2441 56.3726 36.3748 56.6735C36.4634 56.8571 36.5323 56.99 36.5815 57.072C36.6201 57.1435 36.6759 57.2044 36.7438 57.2491L36.3453 57.4508C36.3272 57.4607 36.3069 57.4659 36.2863 57.4659C36.2656 57.4659 36.2453 57.4607 36.2272 57.4508C36.1802 57.4175 36.1414 57.3737 36.1141 57.3229C36.0511 57.2143 35.9936 57.1027 35.9419 56.9883C35.7156 56.5308 35.4942 56.3586 35.2728 56.4668C35.1788 56.5085 35.1023 56.5816 35.0563 56.6735C35.0143 56.778 34.9974 56.8909 35.0071 57.0031V57.4361C35.0287 57.6799 34.995 57.9254 34.9087 58.1544C34.8075 58.3652 34.6324 58.5315 34.4167 58.6218C34.2876 58.692 34.143 58.7287 33.996 58.7287C33.8491 58.7287 33.7045 58.692 33.5754 58.6218C33.2939 58.4546 33.0719 58.2034 32.9407 57.9035C32.8753 57.7698 32.8242 57.6296 32.7882 57.4853Z" fill="white"/>
<path d="M34.2691 60.1076C34.2642 59.8818 34.3372 59.6612 34.4757 59.4828C34.6957 59.2174 34.9605 58.9926 35.258 58.8186L36.793 57.8641C36.8079 57.8515 36.8251 57.842 36.8437 57.836C36.8623 57.8301 36.8819 57.828 36.9013 57.8297C36.9308 57.8297 36.9554 57.8543 36.9849 57.8985L37.2408 58.3118L35.6516 59.2958C35.4431 59.4186 35.2499 59.5656 35.0759 59.7337C34.9735 59.8319 34.9032 59.9588 34.8742 60.0978C34.8746 60.2246 34.9102 60.3488 34.9771 60.4565C35.044 60.5643 35.1396 60.6513 35.2531 60.7079C35.3887 60.7536 35.5356 60.7536 35.6713 60.7079C35.9017 60.6302 36.1203 60.5209 36.3207 60.3831L37.408 59.7042C37.5458 59.6205 37.6491 59.5615 37.7229 59.5271C37.7771 59.4971 37.8382 59.4818 37.9 59.4828C37.9245 59.4857 37.9479 59.4944 37.9685 59.5081C37.989 59.5217 38.006 59.54 38.0181 59.5615L38.2789 59.9797C38.094 60.0246 37.9189 60.103 37.7623 60.2109L36.5815 60.9489C36.296 61.1416 35.9774 61.28 35.6418 61.3573C35.4219 61.4124 35.1893 61.3807 34.9923 61.2687C34.7902 61.1478 34.6212 60.9788 34.5003 60.7767C34.3701 60.5758 34.2907 60.3461 34.2691 60.1076Z" fill="white"/>
<path d="M36.0993 62.966C36.1 62.9112 36.1211 62.8586 36.1583 62.8184L38.2297 60.3092L38.269 60.2649C38.3379 60.2157 38.392 60.2157 38.4363 60.2649L38.7217 60.6093L37.2457 62.4002L36.7979 62.8922L36.6897 63.0103L37.408 62.5773L39.3268 61.5048C39.376 61.4752 39.4154 61.4654 39.4449 61.4802C39.489 61.5048 39.5276 61.5383 39.5581 61.5786L39.9369 62.0361C39.9687 62.0715 39.9923 62.1135 40.0058 62.1591C40.0048 62.2071 39.9855 62.2529 39.9517 62.287L38.5347 63.9795L37.9935 64.6044L38.702 64.1812L40.5765 63.1382C40.6034 63.1255 40.6328 63.1189 40.6626 63.1189C40.6924 63.1189 40.7218 63.1255 40.7487 63.1382C40.8041 63.1648 40.8528 63.2035 40.8914 63.2514L41.1571 63.5712C41.094 63.5565 41.0283 63.5565 40.9652 63.5712C40.8969 63.5943 40.831 63.6239 40.7684 63.6597L38.087 65.1357C38.0422 65.1658 37.9878 65.1781 37.9345 65.1702C37.8858 65.1507 37.8433 65.1184 37.8115 65.0767L37.4769 64.6782C37.4398 64.6369 37.4159 64.5855 37.408 64.5306C37.4082 64.478 37.4274 64.4273 37.4622 64.3879L39.3416 62.1198L36.7684 63.5466C36.7206 63.5733 36.6653 63.5837 36.611 63.5761C36.5603 63.5603 36.5168 63.5272 36.488 63.4826L36.1682 63.1038C36.135 63.0637 36.1114 63.0166 36.0993 62.966Z" fill="white"/>
<path d="M39.3219 66.0706C39.4268 65.6 39.6701 65.1717 40.0205 64.8406C40.3216 64.463 40.7271 64.1824 41.1866 64.0337C41.3844 64.0217 41.5827 64.0498 41.7695 64.1161C41.9563 64.1824 42.1278 64.2857 42.2739 64.4198C42.4199 64.5539 42.5374 64.716 42.6194 64.8965C42.7014 65.077 42.7462 65.2721 42.7511 65.4703C42.612 65.9277 42.3718 66.3478 42.0481 66.6996C41.7244 67.0513 41.3257 67.3257 40.8815 67.5023C40.6833 67.5362 40.4798 67.5187 40.2903 67.4515C40.1008 67.3843 39.9317 67.2697 39.7991 67.1185C39.6374 66.9985 39.5088 66.8394 39.4254 66.6561C39.3419 66.4728 39.3063 66.2714 39.3219 66.0706ZM40.542 66.9217C40.6987 66.9333 40.8547 66.8917 40.9848 66.8036C41.2083 66.6568 41.4103 66.4796 41.5851 66.2772C41.7779 66.086 41.9435 65.8691 42.0771 65.6327C42.1559 65.4958 42.1838 65.3355 42.1558 65.1801C42.1126 65.0404 42.0307 64.9159 41.9196 64.8209C41.8145 64.7189 41.6835 64.6475 41.5408 64.6143C41.384 64.6015 41.2276 64.6432 41.098 64.7323C40.8747 64.8813 40.6727 65.0601 40.4977 65.2637C40.3052 65.4552 40.1397 65.672 40.0057 65.9082C39.9288 66.044 39.9011 66.2021 39.927 66.3559C39.9719 66.4974 40.0554 66.6235 40.1681 66.72C40.2735 66.8142 40.4029 66.8772 40.542 66.902V66.9217Z" fill="white"/>
<path d="M43.8729 65.8689L44.2025 66.105C44.2523 66.1348 44.2897 66.1816 44.3077 66.2367C44.3258 66.2919 44.3234 66.3517 44.3009 66.4052L43.558 69.2735L43.8926 68.7815L44.9258 67.3498C44.9954 67.2502 45.071 67.1549 45.1521 67.0644C45.1899 67.0158 45.2388 66.977 45.2948 66.9513C45.3177 66.9456 45.3416 66.9453 45.3647 66.9504C45.3877 66.9555 45.4093 66.9659 45.4276 66.9808L45.8015 67.2514C45.6558 67.3719 45.5282 67.5127 45.4227 67.6696L43.8434 69.8541C43.8244 69.8913 43.797 69.9235 43.7633 69.9481C43.7296 69.9728 43.6905 69.9891 43.6493 69.9958C43.6081 70.0025 43.5659 69.9994 43.5261 69.9868C43.4863 69.9741 43.45 69.9522 43.4202 69.9229L43.1005 69.6966C43.0552 69.6652 43.0208 69.6205 43.0021 69.5687C42.987 69.5173 42.987 69.4627 43.0021 69.4113L43.745 66.4937C43.6367 66.6561 43.5186 66.8381 43.3858 67.03L42.1066 68.8012C42.0975 68.8175 42.0848 68.8316 42.0694 68.8423C42.054 68.853 42.0364 68.86 42.0179 68.8629C41.9994 68.8657 41.9805 68.8643 41.9626 68.8587C41.9447 68.8531 41.9283 68.8436 41.9147 68.8307L41.5507 68.5699L43.4498 65.9427C43.469 65.9059 43.4964 65.874 43.53 65.8495C43.5635 65.825 43.6022 65.8085 43.6431 65.8014C43.684 65.7943 43.726 65.7966 43.7659 65.8083C43.8057 65.82 43.8423 65.8407 43.8729 65.8689Z" fill="white"/>
<path d="M47.5777 68.2993L48.0057 68.5158L47.2579 69.9918L48.7634 69.1455C48.8332 69.0977 48.915 69.0705 48.9996 69.0668C49.0671 69.0597 49.1352 69.0717 49.1963 69.1013L49.6883 69.3473C49.6197 69.3546 49.5521 69.3695 49.4866 69.3915C49.4374 69.3915 49.3538 69.4555 49.2505 69.5145L47.7991 70.346L48.0746 72.5551L47.5826 72.3042C47.5397 72.2864 47.5023 72.2575 47.4743 72.2205C47.4534 72.1717 47.4386 72.1205 47.4301 72.068L47.2087 70.1295L46.4756 71.6055C46.4686 71.6235 46.4576 71.6397 46.4435 71.6529C46.4294 71.6661 46.4124 71.6758 46.3939 71.6815C46.3755 71.6872 46.356 71.6886 46.3369 71.6857C46.3178 71.6828 46.2996 71.6755 46.2837 71.6646L45.8606 71.453L47.3907 68.378C47.3947 68.3585 47.4035 68.3402 47.4161 68.3247C47.4288 68.3093 47.4451 68.2972 47.4635 68.2894C47.4819 68.2817 47.5019 68.2785 47.5218 68.2802C47.5417 68.282 47.5609 68.2885 47.5777 68.2993Z" fill="white"/>
<path d="M49.3833 69.8099L49.526 69.4409C49.5653 69.3523 49.6244 69.3228 49.708 69.3573L51.4398 70.0313C51.5491 70.0769 51.6607 70.1163 51.7744 70.1494C51.8506 70.1654 51.9294 70.1654 52.0056 70.1494L51.8482 70.5528C51.8405 70.5747 51.8275 70.5942 51.8103 70.6097C51.7931 70.6252 51.7723 70.6361 51.7498 70.6414C51.6899 70.6549 51.6277 70.6549 51.5678 70.6414L51.2233 70.5184L50.874 70.3855L49.8507 73.0719C49.8457 73.0908 49.8364 73.1084 49.8236 73.1232C49.8107 73.138 49.7947 73.1497 49.7766 73.1573C49.7585 73.1649 49.7389 73.1682 49.7194 73.1671C49.6998 73.1659 49.6808 73.1603 49.6637 73.1506L49.2258 72.9784L50.323 70.1641L49.3833 69.8099Z" fill="white"/>
<path d="M53.2946 74.341L52.7239 74.1737L53.516 70.7297C53.6636 70.7297 53.8408 70.7642 54.0474 70.7986L54.5394 70.8872C54.8691 70.938 55.1732 71.0952 55.4053 71.3349C55.4901 71.4529 55.5458 71.5893 55.568 71.7329C55.5903 71.8765 55.5783 72.0233 55.5332 72.1615C55.5054 72.3205 55.4338 72.4687 55.3266 72.5895C55.2291 72.6896 55.1118 72.7683 54.9822 72.8207C55.1141 72.9157 55.2151 73.0475 55.2725 73.1996C55.3273 73.3579 55.3359 73.5286 55.2971 73.6916C55.2757 73.841 55.2202 73.9835 55.1348 74.1081C55.0495 74.2327 54.9367 74.3359 54.8051 74.4099C54.4947 74.5467 54.1456 74.5677 53.8211 74.4689C53.7128 74.4542 53.5357 74.4099 53.2946 74.341ZM54.4016 73.9376C54.4766 73.904 54.5421 73.8522 54.5919 73.7869C54.6418 73.7216 54.6744 73.6448 54.687 73.5636C54.713 73.492 54.7199 73.4149 54.7069 73.3398C54.694 73.2648 54.6617 73.1944 54.6132 73.1356C54.4922 73.0212 54.3397 72.9458 54.1753 72.9191L53.6833 72.8011L53.4472 73.8293C53.5988 73.8805 53.7532 73.9233 53.9096 73.9572C54.0735 74.0006 54.2466 73.9938 54.4066 73.9376H54.4016ZM54.6722 72.373C54.7395 72.3405 54.7979 72.2923 54.8425 72.2323C54.8871 72.1723 54.9164 72.1024 54.9281 72.0286C54.9667 71.8935 54.9508 71.7487 54.8838 71.6252C54.7628 71.4973 54.601 71.4155 54.4262 71.3939L54.2786 71.3644H54.1507L54.0031 71.3398L53.7768 72.3238L54.1556 72.4124C54.3294 72.4536 54.5116 72.4399 54.6772 72.373H54.6722Z" fill="white"/>
<path d="M58.1408 75.1184C58.0634 75.1125 57.9881 75.0908 57.9195 75.0545C57.895 75.0369 57.8748 75.0141 57.8603 74.9877C57.8459 74.9613 57.8375 74.932 57.8358 74.902L57.7079 74.1443L56.5369 74.0016L56.2171 74.7298C56.2013 74.7683 56.1758 74.8021 56.1433 74.8282C56.1304 74.8408 56.1149 74.8504 56.0979 74.8563C56.0809 74.8623 56.0629 74.8644 56.0449 74.8626L55.5825 74.8085L57.0585 71.5859C57.0805 71.5319 57.116 71.4844 57.1618 71.4481C57.2179 71.431 57.2778 71.431 57.334 71.4481L57.6095 71.4826C57.6647 71.4843 57.718 71.5032 57.762 71.5367C57.7991 71.5818 57.8229 71.6363 57.8309 71.6941L58.4852 75.1726L58.1408 75.1184ZM57.3684 72.1025L56.7386 73.5145L57.6046 73.6228L57.3684 72.1025Z" fill="white"/>
<path d="M59.42 75.1824C59.2928 75.1564 59.1712 75.1081 59.0609 75.0397C59.0322 75.021 59.0087 74.9955 58.9924 74.9654C58.9761 74.9354 58.9675 74.9017 58.9674 74.8675V74.4493C59.1058 74.5351 59.2569 74.5982 59.4151 74.6363C59.5743 74.6876 59.74 74.7157 59.9071 74.7199C60.0696 74.7351 60.2325 74.6953 60.3696 74.6068C60.4273 74.5678 60.4743 74.515 60.5061 74.453C60.5379 74.3911 60.5536 74.3221 60.5516 74.2525C60.5516 74.0115 60.404 73.8196 60.099 73.6818L59.6611 73.4752C59.4636 73.3973 59.2927 73.2641 59.1691 73.0914C59.0568 72.9195 59.0033 72.7158 59.0166 72.5109C59.014 72.3781 59.0469 72.2471 59.1117 72.1312C59.1766 72.0153 59.2711 71.9188 59.3856 71.8516C59.6741 71.6937 60.0024 71.6236 60.3302 71.6499C60.5319 71.6499 60.6796 71.6499 60.778 71.6499C60.8587 71.6495 60.9381 71.6292 61.0092 71.5908V72.0385C61.011 72.0591 61.0068 72.0798 60.9972 72.0981C60.9876 72.1164 60.973 72.1316 60.9551 72.1419C60.9049 72.1679 60.8492 72.1814 60.7927 72.1812H60.4139C59.9219 72.1812 59.6513 72.2845 59.6463 72.5305C59.6387 72.6319 59.6665 72.7328 59.7251 72.8159C59.798 72.9037 59.8907 72.9728 59.9957 73.0176L60.3893 73.1997C60.6157 73.2943 60.8188 73.4369 60.9846 73.6179C61.1233 73.8101 61.1879 74.046 61.1666 74.2821C61.1729 74.4291 61.1425 74.5753 61.078 74.7076C61.0136 74.8399 60.9172 74.954 60.7976 75.0397C60.5175 75.2115 60.1905 75.2906 59.8628 75.2661C59.7125 75.255 59.564 75.2269 59.42 75.1824Z" fill="white"/>
<path d="M61.7571 71.6449L62.2491 71.6105L62.3721 73.2734L63.2281 71.7974C63.2654 71.7223 63.3213 71.6579 63.3905 71.6105C63.4454 71.5701 63.5098 71.5447 63.5775 71.5367L64.1285 71.4973C64.0735 71.5385 64.0239 71.5865 63.9809 71.64C63.9273 71.7125 63.878 71.788 63.8333 71.8663L62.9969 73.298L64.3696 75.0495L63.8136 75.0889C63.7685 75.1008 63.721 75.1008 63.6758 75.0889C63.6328 75.0588 63.5947 75.0223 63.5627 74.9807L62.377 73.4309L62.4951 75.0594C62.499 75.0783 62.4985 75.0979 62.4934 75.1166C62.4884 75.1353 62.479 75.1525 62.4661 75.1669C62.4531 75.1813 62.437 75.1924 62.4189 75.1994C62.4009 75.2063 62.3815 75.209 62.3622 75.207L61.8702 75.2414L61.6242 71.8368C61.6242 71.704 61.6587 71.6498 61.7571 71.6449Z" fill="white"/>
<path d="M64.9107 74.6118L64.4187 71.7336C64.4058 71.6922 64.4026 71.6483 64.4095 71.6054C64.4164 71.5625 64.4331 71.5219 64.4584 71.4866C64.4837 71.4513 64.5168 71.4223 64.5552 71.402C64.5935 71.3817 64.6361 71.3706 64.6795 71.3695L65.8111 71.1727C66.0565 71.1485 66.2952 71.0784 66.5147 70.9661L66.5885 71.3843C66.5925 71.4092 66.5896 71.4349 66.5801 71.4583C66.5705 71.4817 66.5547 71.5021 66.5343 71.5171C66.4701 71.5641 66.3961 71.596 66.3178 71.6106C66.1671 71.6513 66.0144 71.6842 65.8603 71.709L65.1764 71.8271C65.1452 71.8275 65.1153 71.8398 65.0928 71.8615C65.0928 71.8615 65.0928 71.9058 65.0928 71.9501L65.2355 72.7668L66.6327 72.5257L66.6967 72.8996C66.6967 72.998 66.6721 73.0521 66.5737 73.0669L65.324 73.2883L65.4815 74.1887C65.4815 74.2329 65.4815 74.2575 65.5208 74.2674C65.5514 74.276 65.5837 74.276 65.6143 74.2674L66.5196 74.1099C66.7116 74.088 66.8973 74.0278 67.0657 73.9328L67.1395 74.3756C67.1458 74.3965 67.1458 74.4188 67.1397 74.4397C67.1336 74.4607 67.1216 74.4794 67.1051 74.4937C67.0569 74.5297 67.0015 74.5549 66.9427 74.5675C66.8247 74.6 66.7048 74.6247 66.5835 74.6413L65.2994 74.8676C65.257 74.8854 65.2109 74.8924 65.1651 74.8881C65.1194 74.8839 65.0754 74.8684 65.037 74.8432C64.9986 74.8179 64.967 74.7836 64.945 74.7432C64.923 74.7029 64.9112 74.6577 64.9107 74.6118Z" fill="white"/>
<path d="M66.8 71.5367L66.6967 71.1579C66.6967 71.0644 66.6967 71.0103 66.7853 70.9857L68.5811 70.4937C68.6962 70.462 68.8095 70.4242 68.9206 70.3805C68.9934 70.3547 69.0603 70.3145 69.1173 70.2625L69.2305 70.6806C69.2413 70.7002 69.2469 70.7222 69.2469 70.7446C69.2469 70.767 69.2413 70.789 69.2305 70.8086C69.1862 70.8529 69.1323 70.8865 69.0731 70.907L68.7287 71.0152L68.3646 71.1136L69.1272 73.8934C69.1351 73.9114 69.1386 73.9311 69.1374 73.9507C69.1361 73.9703 69.1302 73.9894 69.1201 74.0062C69.11 74.0231 69.0959 74.0373 69.0792 74.0476C69.0625 74.058 69.0435 74.0641 69.0239 74.0656L68.5712 74.1886L67.7693 71.276L66.8 71.5367Z" fill="white"/>
<path d="M71.2576 73.3818L70.6918 73.5589L69.4224 70.2576C69.5553 70.1838 69.7127 70.1051 69.9144 70.0165C70.1161 69.9279 70.2539 69.8591 70.372 69.8197C70.6772 69.6698 71.0247 69.6298 71.356 69.7065C71.489 69.764 71.6068 69.8517 71.6999 69.9628C71.793 70.0738 71.8589 70.2051 71.8922 70.3461C71.9611 70.5004 71.985 70.6709 71.9611 70.8381C71.9326 70.9755 71.8774 71.1058 71.7988 71.2219C71.9608 71.2256 72.1183 71.277 72.2514 71.3695C72.3918 71.4719 72.498 71.6142 72.5565 71.7779C72.6227 71.9152 72.6571 72.0657 72.6571 72.2182C72.6571 72.3707 72.6227 72.5212 72.5565 72.6585C72.3752 72.9358 72.1043 73.1425 71.7889 73.244C71.6659 73.244 71.4987 73.2981 71.2576 73.3818ZM71.2969 70.9808C71.334 70.9156 71.3535 70.8418 71.3535 70.7668C71.3535 70.6918 71.334 70.618 71.2969 70.5528C71.2786 70.4847 71.2458 70.4213 71.2008 70.367C71.1558 70.3127 71.0997 70.2686 71.0362 70.2379C70.8698 70.2005 70.6955 70.2232 70.5442 70.3019L70.4015 70.3609L70.2834 70.415L70.1456 70.479L70.5048 71.4089L70.864 71.2711C71.0351 71.222 71.1865 71.1205 71.2969 70.9808ZM71.9513 72.4273C71.9939 72.3576 72.0184 72.2783 72.0227 72.1967C72.027 72.1151 72.0109 72.0337 71.9759 71.9599C71.9575 71.8853 71.9202 71.8167 71.8677 71.7607C71.8151 71.7047 71.749 71.6632 71.6758 71.6401C71.5086 71.6139 71.3373 71.6379 71.1838 71.709L70.6918 71.8959L71.0706 72.8799C71.2258 72.8375 71.3786 72.7866 71.5282 72.7274C71.6964 72.6727 71.844 72.568 71.9513 72.4273Z" fill="white"/>
<path d="M75.7003 71.33C75.6319 71.3678 75.5566 71.3912 75.4789 71.3989C75.4488 71.3976 75.4193 71.3894 75.3929 71.3749C75.3665 71.3604 75.3437 71.34 75.3264 71.3153L74.795 70.7593L73.7421 71.2956L73.8848 72.0779C73.8971 72.1196 73.8971 72.164 73.8848 72.2058C73.8815 72.2225 73.8745 72.2383 73.8643 72.2519C73.8541 72.2655 73.8409 72.2767 73.8258 72.2845L73.4125 72.4961L72.8221 69.0127C72.8056 68.9565 72.8056 68.8967 72.8221 68.8405C72.8569 68.7941 72.9025 68.757 72.9549 68.7323L73.2058 68.6044C73.2515 68.5761 73.3047 68.5624 73.3584 68.565C73.4143 68.5841 73.4649 68.6161 73.506 68.6585L75.966 71.1824L75.7003 71.33ZM73.3781 69.2538L73.6536 70.7741L74.4309 70.3756L73.3781 69.2538Z" fill="white"/>
<path d="M76.3793 70.5625L74.7163 67.95C74.7028 67.9357 74.693 67.9183 74.6875 67.8995C74.6821 67.8806 74.6813 67.8606 74.6851 67.8414C74.689 67.8221 74.6974 67.804 74.7097 67.7887C74.7219 67.7733 74.7377 67.7611 74.7557 67.7531L75.1591 67.4973L76.7237 69.9573C76.7276 69.9718 76.7353 69.985 76.7461 69.9954C76.7568 70.0059 76.7702 70.0133 76.7848 70.0168C76.7994 70.0203 76.8147 70.0199 76.829 70.0155C76.8434 70.0111 76.8562 70.0029 76.8663 69.9917L77.5945 69.5293C77.7636 69.4346 77.9124 69.3075 78.0324 69.1553L78.2685 69.5342C78.28 69.5518 78.286 69.5723 78.286 69.5932C78.286 69.6142 78.28 69.6347 78.2685 69.6523C78.2382 69.7067 78.1962 69.7537 78.1455 69.79C78.0816 69.8392 77.9783 69.9081 77.8405 69.9967L76.8024 70.6559C76.7701 70.6824 76.7323 70.7012 76.6917 70.711C76.6511 70.7207 76.6089 70.721 76.5681 70.712C76.5274 70.703 76.4892 70.6849 76.4565 70.659C76.4237 70.6331 76.3973 70.6001 76.3793 70.5625Z" fill="white"/>
<path d="M78.6671 69.0521L76.7778 66.5921C76.7625 66.5801 76.7501 66.5648 76.7415 66.5474C76.733 66.5299 76.7286 66.5107 76.7286 66.4912C76.7286 66.4718 76.733 66.4526 76.7415 66.4351C76.7501 66.4176 76.7625 66.4023 76.7778 66.3904L77.1566 66.1001L78.9328 68.4076C78.9501 68.4318 78.974 68.4505 79.0016 68.4617C79.0294 68.4589 79.0555 68.4468 79.0755 68.4273L79.7642 67.9008C79.9237 67.7936 80.0594 67.6545 80.1628 67.4925L80.4383 67.8467C80.4474 67.865 80.4521 67.8852 80.4521 67.9057C80.4521 67.9262 80.4474 67.9464 80.4383 67.9648C80.4087 68.0197 80.3705 68.0695 80.3251 68.1124C80.2661 68.1665 80.1726 68.2452 80.0447 68.3436L79.0607 69.0964C79.0026 69.1426 78.9285 69.1639 78.8547 69.1556C78.781 69.1473 78.7135 69.1101 78.6671 69.0521Z" fill="white"/>
<path d="M81.9831 66.1543C81.5107 66.0528 81.0831 65.8028 80.763 65.4409C80.5438 65.2318 80.3638 64.9852 80.2316 64.7127C80.1094 64.459 80.0682 64.1739 80.1136 63.896C80.1707 63.5826 80.3278 63.296 80.5613 63.0793C80.6843 62.9513 80.7827 62.8431 80.8565 62.7496C80.92 62.679 80.97 62.5973 81.0041 62.5085L81.319 62.8185C81.3367 62.8342 81.3501 62.8542 81.3579 62.8766C81.3656 62.8991 81.3675 62.9231 81.3632 62.9464C81.3436 63.013 81.3082 63.0737 81.2599 63.1235C81.2009 63.199 81.1025 63.3072 80.9647 63.4483C80.8674 63.5384 80.7936 63.651 80.7499 63.7762C80.7061 63.9014 80.6937 64.0355 80.7138 64.1666C80.7808 64.4866 80.9542 64.7745 81.2058 64.9833C81.8224 65.5803 82.3292 65.6721 82.7261 65.2588C82.935 65.0649 83.1024 64.8305 83.2181 64.57L83.5133 64.8554C83.5378 64.8776 83.555 64.9068 83.5625 64.939C83.5748 64.969 83.5748 65.0025 83.5625 65.0325C83.5136 65.1397 83.4542 65.2419 83.3853 65.3375C83.3098 65.4516 83.2242 65.5587 83.1295 65.6573C82.9938 65.8278 82.8183 65.9623 82.6184 66.049C82.4185 66.1356 82.2003 66.1718 81.9831 66.1543Z" fill="white"/>
<path d="M83.8823 64.2355L81.4764 62.2675C81.4611 62.256 81.4487 62.2412 81.4402 62.2241C81.4316 62.207 81.4272 62.1882 81.4272 62.1691C81.4272 62.15 81.4316 62.1312 81.4402 62.1141C81.4487 62.097 81.4611 62.0822 81.4764 62.0707L81.7765 61.6968L84.0446 63.527C84.0537 63.5381 84.0649 63.5474 84.0776 63.5541C84.0902 63.5609 84.1041 63.565 84.1184 63.5664C84.1184 63.5664 84.1627 63.5664 84.1873 63.5172L84.7285 62.8431C84.8608 62.702 84.9615 62.5343 85.0237 62.3511L85.373 62.6365C85.3909 62.6478 85.4051 62.664 85.4138 62.6833C85.4225 62.7025 85.4255 62.7239 85.4222 62.7447C85.4101 62.8052 85.3849 62.8623 85.3484 62.912C85.2805 63.0131 85.2065 63.11 85.127 63.2023L84.3546 64.1863C84.3336 64.2289 84.3022 64.2654 84.2633 64.2925C84.2244 64.3197 84.1792 64.3365 84.132 64.3414C84.0848 64.3463 84.0372 64.3392 83.9935 64.3206C83.9498 64.3021 83.9115 64.2728 83.8823 64.2355Z" fill="white"/>
<path d="M86.0963 61.7163C85.8969 61.8217 85.6656 61.8497 85.4468 61.795C85.1111 61.7123 84.794 61.5671 84.512 61.367L82.9967 60.383C82.9573 60.3535 82.9278 60.3289 82.9229 60.2994C82.9142 60.2835 82.9097 60.2657 82.9097 60.2477C82.9097 60.2297 82.9142 60.2119 82.9229 60.196L83.1886 59.7877L84.758 60.811C84.9597 60.9462 85.1759 61.0584 85.4025 61.1456C85.5383 61.191 85.685 61.191 85.8207 61.1456C85.938 61.098 86.0365 61.0133 86.1012 60.9045C86.1774 60.8008 86.2156 60.6739 86.2094 60.5454C86.1863 60.4051 86.1191 60.2759 86.0175 60.1764C85.8467 60.0025 85.655 59.8505 85.4468 59.7237L84.3988 59.03C84.266 58.9464 84.1676 58.8726 84.1037 58.8234C84.0522 58.7852 84.0115 58.7344 83.9856 58.6758C83.9752 58.6552 83.9698 58.6324 83.9698 58.6093C83.9698 58.5863 83.9752 58.5635 83.9856 58.5429L84.2562 58.1296C84.3752 58.2777 84.5203 58.4027 84.6842 58.4986L85.8503 59.2514C86.1464 59.4297 86.4067 59.6616 86.6178 59.9353C86.7578 60.1124 86.8279 60.3347 86.8146 60.5601C86.7796 60.7917 86.6921 61.0121 86.5587 61.2046C86.4494 61.4109 86.2905 61.5868 86.0963 61.7163Z" fill="white"/>
<path d="M88.0397 58.7153C87.9167 58.9317 87.8134 59.1039 87.7396 59.2073L84.5809 57.6181C84.6301 57.4754 84.6941 57.3131 84.7728 57.1261C84.8515 56.9392 84.9204 56.7817 84.9745 56.6735C85.1007 56.3651 85.3257 56.1072 85.6141 55.9404C85.8288 55.8734 86.0588 55.8727 86.2739 55.9386C86.4889 56.0044 86.6791 56.1337 86.8195 56.3094C86.8894 56.4309 86.9361 56.5644 86.9573 56.703C87.0798 56.5952 87.2328 56.5281 87.3952 56.5111C87.5648 56.4931 87.7359 56.5257 87.8872 56.6046C88.0289 56.6625 88.1552 56.7527 88.256 56.868C88.3568 56.9833 88.4293 57.1205 88.4677 57.2688C88.5227 57.5973 88.4618 57.9347 88.2955 58.2233L88.0397 58.7153ZM86.4554 56.9096C86.4404 56.8362 86.4074 56.7676 86.3593 56.71C86.3112 56.6525 86.2496 56.6078 86.1799 56.58C86.1211 56.5434 86.0551 56.5197 85.9865 56.5103C85.9178 56.501 85.8479 56.5063 85.7814 56.5259C85.6633 56.5652 85.5551 56.6932 85.4468 56.9096C85.4222 56.9588 85.4025 57.008 85.3829 57.0523C85.364 57.0906 85.3476 57.13 85.3337 57.1704L85.2746 57.3081L86.1652 57.7559L86.3373 57.4115C86.4259 57.2597 86.467 57.0849 86.4554 56.9096ZM87.9314 57.5443C87.9164 57.4639 87.8815 57.3884 87.83 57.3249C87.7784 57.2613 87.7118 57.2116 87.6362 57.1802C87.572 57.1382 87.4982 57.1131 87.4217 57.107C87.3452 57.101 87.2684 57.1143 87.1983 57.1458C87.0589 57.2367 86.9494 57.3668 86.8835 57.5197L86.6473 58.0117L87.592 58.5037C87.6779 58.3677 87.7551 58.2264 87.8232 58.0806C87.9094 57.9195 87.9405 57.7346 87.9117 57.5541L87.9314 57.5443Z" fill="white"/>
</g>
<defs>
<radialGradient id="paint0_radial_869_4692" cx="0" cy="0" r="1" gradientUnits="userSpaceOnUse" gradientTransform="translate(50.913 62.169) scale(32.3356 33.0564)">
<stop stop-color="#D92628"/>
<stop offset="0.37" stop-color="#D92828"/>
<stop offset="0.54" stop-color="#DA3029"/>
<stop offset="0.67" stop-color="#DC3D2A"/>
<stop offset="0.79" stop-color="#DF4F2B"/>
<stop offset="0.88" stop-color="#E3672C"/>
<stop offset="0.97" stop-color="#E7842E"/>
<stop offset="1" stop-color="#E98E2F"/>
</radialGradient>
<radialGradient id="paint1_radial_869_4692" cx="0" cy="0" r="1" gradientUnits="userSpaceOnUse" gradientTransform="translate(58.1587 60.6329) scale(32.2186 32.9395)">
<stop stop-color="#D92628"/>
<stop offset="0.37" stop-color="#D92828"/>
<stop offset="0.54" stop-color="#DA3029"/>
<stop offset="0.67" stop-color="#DC3D2A"/>
<stop offset="0.79" stop-color="#DF4F2B"/>
<stop offset="0.88" stop-color="#E3672C"/>
<stop offset="0.97" stop-color="#E7842E"/>
<stop offset="1" stop-color="#E98E2F"/>
</radialGradient>
<radialGradient id="paint2_radial_869_4692" cx="0" cy="0" r="1" gradientUnits="userSpaceOnUse" gradientTransform="translate(58.994 60.7174) scale(32.2154 32.9363)">
<stop stop-color="#D92628"/>
<stop offset="0.37" stop-color="#D92828"/>
<stop offset="0.54" stop-color="#DA3029"/>
<stop offset="0.67" stop-color="#DC3D2A"/>
<stop offset="0.79" stop-color="#DF4F2B"/>
<stop offset="0.88" stop-color="#E3672C"/>
<stop offset="0.97" stop-color="#E7842E"/>
<stop offset="1" stop-color="#E98E2F"/>
</radialGradient>
<radialGradient id="paint3_radial_869_4692" cx="0" cy="0" r="1" gradientUnits="userSpaceOnUse" gradientTransform="translate(49.16 62.472) scale(32.2154 32.933)">
<stop stop-color="#D92628"/>
<stop offset="0.37" stop-color="#D92828"/>
<stop offset="0.54" stop-color="#DA3029"/>
<stop offset="0.67" stop-color="#DC3D2A"/>
<stop offset="0.79" stop-color="#DF4F2B"/>
<stop offset="0.88" stop-color="#E3672C"/>
<stop offset="0.97" stop-color="#E7842E"/>
<stop offset="1" stop-color="#E98E2F"/>
</radialGradient>
<radialGradient id="paint4_radial_869_4692" cx="0" cy="0" r="1" gradientUnits="userSpaceOnUse" gradientTransform="translate(50.2691 62.8024) scale(32.2381 32.9558)">
<stop stop-color="#D92628"/>
<stop offset="0.37" stop-color="#D92828"/>
<stop offset="0.54" stop-color="#DA3029"/>
<stop offset="0.67" stop-color="#DC3D2A"/>
<stop offset="0.79" stop-color="#DF4F2B"/>
<stop offset="0.88" stop-color="#E3672C"/>
<stop offset="0.97" stop-color="#E7842E"/>
<stop offset="1" stop-color="#E98E2F"/>
</radialGradient>
<radialGradient id="paint5_radial_869_4692" cx="0" cy="0" r="1" gradientUnits="userSpaceOnUse" gradientTransform="translate(66.4527 62.0874) scale(32.2154 32.9363)">
<stop stop-color="#D92628"/>
<stop offset="0.37" stop-color="#D92828"/>
<stop offset="0.54" stop-color="#DA3029"/>
<stop offset="0.67" stop-color="#DC3D2A"/>
<stop offset="0.79" stop-color="#DF4F2B"/>
<stop offset="0.88" stop-color="#E3672C"/>
<stop offset="0.97" stop-color="#E7842E"/>
<stop offset="1" stop-color="#E98E2F"/>
</radialGradient>
<radialGradient id="paint6_radial_869_4692" cx="0" cy="0" r="1" gradientUnits="userSpaceOnUse" gradientTransform="translate(65.6978 44.3449) scale(0)">
<stop stop-color="#D92628"/>
<stop offset="0.37" stop-color="#D92828"/>
<stop offset="0.54" stop-color="#DA3029"/>
<stop offset="0.67" stop-color="#DC3D2A"/>
<stop offset="0.79" stop-color="#DF4F2B"/>
<stop offset="0.88" stop-color="#E3672C"/>
<stop offset="0.97" stop-color="#E7842E"/>
<stop offset="1" stop-color="#E98E2F"/>
</radialGradient>
<radialGradient id="paint7_radial_869_4692" cx="0" cy="0" r="1" gradientUnits="userSpaceOnUse" gradientTransform="translate(51.0226 60.8436) scale(32.2771 32.998)">
<stop stop-color="#D92628"/>
<stop offset="0.37" stop-color="#D92828"/>
<stop offset="0.54" stop-color="#DA3029"/>
<stop offset="0.67" stop-color="#DC3D2A"/>
<stop offset="0.79" stop-color="#DF4F2B"/>
<stop offset="0.88" stop-color="#E3672C"/>
<stop offset="0.97" stop-color="#E7842E"/>
<stop offset="1" stop-color="#E98E2F"/>
</radialGradient>
<radialGradient id="paint8_radial_869_4692" cx="0" cy="0" r="1" gradientUnits="userSpaceOnUse" gradientTransform="translate(49.341 62.17) scale(32.2154 32.933)">
<stop stop-color="#D92628"/>
<stop offset="0.37" stop-color="#D92828"/>
<stop offset="0.54" stop-color="#DA3029"/>
<stop offset="0.67" stop-color="#DC3D2A"/>
<stop offset="0.79" stop-color="#DF4F2B"/>
<stop offset="0.88" stop-color="#E3672C"/>
<stop offset="0.97" stop-color="#E7842E"/>
<stop offset="1" stop-color="#E98E2F"/>
</radialGradient>
<radialGradient id="paint9_radial_869_4692" cx="0" cy="0" r="1" gradientUnits="userSpaceOnUse" gradientTransform="translate(67.3963 61.8353) scale(32.2122 32.933)">
<stop stop-color="#D92628"/>
<stop offset="0.37" stop-color="#D92828"/>
<stop offset="0.54" stop-color="#DA3029"/>
<stop offset="0.67" stop-color="#DC3D2A"/>
<stop offset="0.79" stop-color="#DF4F2B"/>
<stop offset="0.88" stop-color="#E3672C"/>
<stop offset="0.97" stop-color="#E7842E"/>
<stop offset="1" stop-color="#E98E2F"/>
</radialGradient>
<radialGradient id="paint10_radial_869_4692" cx="0" cy="0" r="1" gradientUnits="userSpaceOnUse" gradientTransform="translate(52.1256 62.4943) scale(32.2157 32.9325)">
<stop stop-color="#D92628"/>
<stop offset="0.37" stop-color="#D92828"/>
<stop offset="0.54" stop-color="#DA3029"/>
<stop offset="0.67" stop-color="#DC3D2A"/>
<stop offset="0.79" stop-color="#DF4F2B"/>
<stop offset="0.88" stop-color="#E3672C"/>
<stop offset="0.97" stop-color="#E7842E"/>
<stop offset="1" stop-color="#E98E2F"/>
</radialGradient>
<radialGradient id="paint11_radial_869_4692" cx="0" cy="0" r="1" gradientUnits="userSpaceOnUse" gradientTransform="translate(52.1257 62.4945) scale(32.2154 32.933)">
<stop stop-color="#D92628"/>
<stop offset="0.37" stop-color="#D92828"/>
<stop offset="0.54" stop-color="#DA3029"/>
<stop offset="0.67" stop-color="#DC3D2A"/>
<stop offset="0.79" stop-color="#DF4F2B"/>
<stop offset="0.88" stop-color="#E3672C"/>
<stop offset="0.97" stop-color="#E7842E"/>
<stop offset="1" stop-color="#E98E2F"/>
</radialGradient>
<radialGradient id="paint12_radial_869_4692" cx="0" cy="0" r="1" gradientUnits="userSpaceOnUse" gradientTransform="translate(59.8157 61.7405) scale(32.3925 32.3924)">
<stop stop-color="#D92628"/>
<stop offset="0.37" stop-color="#D92828"/>
<stop offset="0.54" stop-color="#DA3029"/>
<stop offset="0.67" stop-color="#DC3D2A"/>
<stop offset="0.79" stop-color="#DF4F2B"/>
<stop offset="0.88" stop-color="#E3672C"/>
<stop offset="0.97" stop-color="#E7842E"/>
<stop offset="1" stop-color="#E98E2F"/>
</radialGradient>
<clipPath id="clip0_869_4692">
<rect width="103" height="71.2513" fill="white" transform="translate(9 4)"/>
</clipPath>
</defs>
</svg>
