<svg width="120" height="80" viewBox="0 0 120 80" fill="none" xmlns="http://www.w3.org/2000/svg">
<g clip-path="url(#clip0_869_5057)">
<path d="M51.6645 46.7602C49.2593 45.5544 47.1371 43.8536 45.4377 41.7697C43.7383 39.6858 42.5002 37.266 41.805 34.6698C41.4182 33.297 41.1765 31.8875 41.0838 30.4644C41.0838 30.1385 41.0838 29.9387 41.0838 29.5865C41.0838 29.1345 41.1154 28.6298 41.147 28.183C41.5285 23.0726 43.8796 18.309 47.7059 14.894C49.3518 13.4545 51.2318 12.306 53.2647 11.4982C55.3386 10.6586 57.5407 10.1786 59.7763 10.0789L60.1448 10.0474H60.5869H61.0239C61.166 10.0474 61.3081 10.0474 61.4502 10.0789C65.1497 10.2673 68.7238 11.4795 71.773 13.5799C71.9098 13.6745 72.0467 13.7533 72.1783 13.8532C72.4257 14.0372 72.6415 14.2054 72.8784 14.3789C72.9889 14.4735 73.0995 14.5839 73.21 14.6785C74.9454 16.1729 76.403 17.9613 77.516 19.9615C77.516 19.9615 74.884 17.575 70.4727 18.8418C70.4727 18.8418 78.4161 21.8749 79.6953 26.3011C79.6953 26.3011 76.7474 22.327 72.3257 22.7318C72.3257 22.7318 79.4373 29.2186 79.3531 34.6487L78.7583 38.3652L76.5422 36.5937L77.437 39.2536L51.6645 46.7602Z" fill="white"/>
<path d="M78.7688 38.3704C77.6634 30.1279 72.0993 27.1789 69.62 26.4272C73.7522 28.7664 76.0947 32.6984 76.3947 35.4267C75.4314 33.2662 73.7627 31.4473 71.057 30.9112C72.2397 31.588 73.2519 32.5256 74.0164 33.6525C74.7809 34.7795 75.2775 36.0659 75.4683 37.4137C72.91 33.0717 67.4564 31.4473 62.7873 32.3305C62.7873 32.3305 65.1508 30.8849 67.1511 30.948C67.009 29.802 63.8138 29.9702 60.8343 29.1186C58.3023 28.3932 57.8075 27.0895 57.6759 26.2853C58.076 26.9003 59.3236 27.4102 60.6817 27.2578C61.8977 27.1158 63.1663 26.3746 63.2242 24.6294C63.2242 24.6294 64.7297 23.9303 65.0613 23.2627C64.6823 23.5886 60.1553 24.682 57.3338 24.8817C56.3231 24.8817 56.0915 23.9355 54.7018 24.2351C54.7365 23.8496 54.8613 23.4776 55.066 23.1489C55.2708 22.8203 55.5499 22.5442 55.8809 22.3427C59.8184 19.7144 66.2036 22.2429 70.6938 25.2917C70.6938 25.2917 66.6721 21.2073 61.8082 20.2926C56.4863 19.2886 53.112 22.0694 53.57 24.682C51.4223 25.2076 49.1956 27.2525 49.8852 29.4708C50.2782 30.8121 51.1839 31.945 52.4067 32.6248C51.1433 30.601 55.1439 28.8505 60.429 30.6273C58.6024 30.2488 52.7594 30.2278 53.4068 32.6669C54.3122 32.0151 56.5652 32.4829 57.1864 34.533C58.276 38.0287 55.9704 44.0477 51.2433 46.7181C55.3031 48.9183 60.0115 49.6129 64.5349 48.6788L65.872 48.3266C65.5088 47.3226 64.8192 46.5499 62.4872 45.8297C67.9618 45.488 69.62 50.8341 69.62 50.8341C70.679 50.3861 71.5672 49.6122 72.1551 48.6251C72.7431 47.638 73.0002 46.4892 72.8889 45.3461L75.6788 47.9744C76.4684 46.2502 76.6 42.5758 75.2735 40.1524L77.5476 42.7387C77.7434 40.8665 77.513 38.9743 76.8738 37.2034L78.7688 38.3704Z" fill="#440404"/>
<path d="M58.8182 25.7227C59.7499 25.5902 60.6689 25.381 61.566 25.0972C61.4033 25.4075 61.1644 25.6716 60.8716 25.8647C60.5788 26.0577 60.2418 26.1735 59.8921 26.2011L58.8182 25.7227Z" fill="white"/>
<path d="M67.1512 30.9427C65.1508 30.8796 62.7873 32.3252 62.7873 32.3252C67.4565 31.4421 72.9152 33.0664 75.4683 37.4085C75.2775 36.0607 74.7809 34.7742 74.0164 33.6473C73.2519 32.5204 72.2397 31.5827 71.057 30.9059C73.7891 31.4316 75.4314 33.2609 76.3948 35.4214C76.0947 32.6932 73.7628 28.7612 69.6253 26.4272C70.9324 26.847 72.1587 27.4851 73.2522 28.3144C72.5016 27.1952 71.6275 26.1637 70.6465 25.2392L70.4201 25.0868L70.2833 24.9974C69.72 24.6294 69.1304 24.2667 68.5198 23.9461C64.0612 22.0536 61.1028 21.7382 59.0446 21.959C57.2917 22.1483 55.8125 22.8737 55.544 24.2141C56.2652 24.3456 56.5968 24.8975 57.3549 24.8923C60.1764 24.6925 64.7245 23.5991 65.0824 23.2732C64.7508 23.9408 63.2453 24.6399 63.2453 24.6399C63.1874 26.3904 61.9187 27.1316 60.7028 27.2683C59.3446 27.4207 58.0971 26.9108 57.697 26.2958C57.8128 27.1001 58.3076 28.3985 60.8554 29.1292C63.8296 29.9702 66.988 29.802 67.1512 30.9427Z" fill="#BC1137"/>
<path d="M63.3032 44.5576C68.2882 44.3578 70.557 46.0399 70.4675 48.8102C73.9944 44.8519 68.1039 42.7124 63.3032 44.5576Z" fill="#BC1137"/>
<path d="M62.303 35.9365C69.3147 36.3413 71.4518 40.247 71.4518 40.247C71.4518 40.247 66.4774 39.0117 61.9451 43.8163C68.5093 40.8568 72.9995 42.9962 75.0577 45.2829C74.4313 38.076 69.2673 36.0942 69.2673 36.0942C69.2673 36.0942 72.1362 36.0942 75.5841 38.9643C73.0205 33.7497 65.2719 33.5973 62.303 35.9365Z" fill="#BC1137"/>
<path d="M52.4224 32.6405C52.4224 31.7416 53.2226 31.5366 53.7964 31.4314C55.0913 30.2697 59.0077 30.3486 60.4448 30.6429C55.1597 28.8662 51.1591 30.6167 52.4224 32.6405Z" fill="#BC1137"/>
<path d="M74.1049 23.904C76.9317 24.2457 78.7267 25.2182 79.8058 26.5324C78.7056 21.139 74.6418 19.3044 70.6254 18.8576C72.91 18.5684 75.5104 18.7735 77.6265 20.0193C76.4133 17.8379 74.7947 15.9075 72.8573 14.3315C70.7044 16.2345 69.1304 19.0889 68.1882 22.1272C70.4726 23.6475 72.4245 25.6146 73.9259 27.9096C75.5525 29.2448 77.9897 31.1688 79.3636 34.6014C79.511 34.0757 79.6374 33.5501 79.7374 32.9823C80.2532 29.0135 78.3161 25.3286 74.1049 23.904Z" fill="#FFD200"/>
<path d="M53.7279 21.591C54.9808 20.0981 57.1443 19.2465 59.671 19.2465H60.1448V10.0105C55.8574 10.0997 51.7203 11.6044 48.3797 14.2895C50.5198 16.676 52.1354 19.4838 53.1226 22.532C53.2845 22.1945 53.4879 21.8784 53.7279 21.591Z" fill="#FFD200"/>
<path d="M67.388 21.6436C68.3145 18.685 69.9518 15.9978 72.1572 13.8164C68.9231 11.4255 65.0258 10.0957 61.0028 10.0105V19.3149C61.3292 19.3517 61.6555 19.399 61.9819 19.4673C63.8906 19.8939 65.7167 20.629 67.388 21.6436Z" fill="#FFD200"/>
<path d="M49.4694 26.7373C50.2124 25.5289 51.3391 24.6036 52.6699 24.109C51.76 20.6796 50.052 17.5132 47.6849 14.8677C45.6005 16.6918 43.9308 18.9399 42.7877 21.4613C41.6447 23.9826 41.0548 26.7189 41.0575 29.4866C41.0575 29.4866 41.0575 29.5339 41.0575 29.5602H49.0482C48.9242 29.0856 48.8976 28.5909 48.97 28.1058C49.0424 27.6207 49.2122 27.1552 49.4694 26.7373Z" fill="#FFD200"/>
<path d="M54.4386 33.2398C54.1707 33.2365 53.9061 33.2984 53.6676 33.4202C53.4291 33.542 53.224 33.7201 53.0699 33.939C51.4491 33.2638 50.1363 32.0127 49.3851 30.4275H41.068C41.2132 33.4351 42.0557 36.368 43.5291 38.9951C45.0025 41.6222 47.0666 43.8719 49.5588 45.5668C52.1329 44.0844 57.5812 40.247 56.402 34.7958C56.3058 34.3495 56.0574 33.9504 55.6994 33.6667C55.3413 33.3829 54.8956 33.232 54.4386 33.2398Z" fill="#FFD200"/>
<path d="M54.2806 27.1789C55.0313 26.8823 55.8563 26.829 56.6389 27.0264C56.4665 26.8213 56.3504 26.575 56.302 26.3115C55.5694 26.4382 54.8769 26.7354 54.2806 27.1789Z" fill="#FFD200"/>
<path d="M55.902 22.3374C55.571 22.5388 55.2919 22.8149 55.0871 23.1436C54.8823 23.4722 54.7576 23.8443 54.7228 24.2298C54.9915 24.1631 55.271 24.1523 55.544 24.1982C55.8125 22.8578 57.2917 22.1324 59.0446 21.9431C61.0975 21.7223 64.0559 22.0377 68.5198 23.9301C64.3138 21.5751 59.2288 20.1033 55.902 22.3374Z" fill="#FFD200"/>
<path d="M109.005 57.9201L107.263 53.8041H61.1976L55.7704 54.4349L52.6435 53.7988H45.2739L42.0208 56.5008L41.9787 53.7988H32.1929L29.6135 56.322L28.5344 53.8041H13.653L15.4376 57.242L13.6741 60.396L15.8955 63.0243L11 65.3688L12.7424 69.4848H22.6756L29.7451 68.7857L31.8507 66.2993L36.6357 68.7436H36.662L41.168 69.5321L46.3267 68.4808L46.99 66.9564L56.281 69.4585H73.6154L78.4635 68.4072L79.0531 67.0878L91.613 70.0052L92.1762 69.4796H101.778L106.468 64.0599L104.789 59.9649L109.005 57.9201Z" fill="#440404"/>
<path d="M25.1075 59.9807H19.5803L18.9171 59.1922L19.8646 57.51H25.6708L25.0496 59.4708L29.1608 57.4995L27.9554 54.6504H15.048L16.3956 57.2419L16.4167 57.2367L14.7059 60.2698L16.8641 62.8193H22.3966L22.7387 63.6341L20.8753 65.7841L15.5849 65.742L16.2061 63.7813L12.0949 65.7525L13.3004 68.6017H22.6177L26.7131 63.8864L25.1075 59.9807Z" fill="#FFD200"/>
<path d="M103.852 59.9807H98.3246L97.6613 59.1922L98.6088 57.51H104.415L103.794 59.4708L107.905 57.4995L106.7 54.6504H93.7923L95.1399 57.2419L95.1609 57.2367L93.4501 60.2698L95.6136 62.8193H101.141L101.483 63.6341L99.6195 65.7841L94.3292 65.742L94.9503 63.7813L90.8444 65.7525L92.0446 68.6017H101.367L105.457 63.8864L103.852 59.9807Z" fill="#FFD200"/>
<path d="M73.9417 57.547L76.4684 54.6453L62.2556 54.6505L63.4084 57.2105L58.2339 68.6018H69.8095L72.3941 65.7054H63.5032L67.088 57.547H73.9417Z" fill="#FFD200"/>
<path d="M72.0309 62.9088L73.3679 60.0071H68.7777L65.5246 62.9088H72.0309Z" fill="#FFD200"/>
<path d="M60.8186 54.6453L55.9336 55.3602L52.2698 59.4131L48.6113 62.3095H51.4065L53.9859 67.8396L57.876 68.8278L54.6544 61.4947L60.8186 54.6453Z" fill="#FFD200"/>
<path d="M45.3687 54.6505L46.6426 57.1054L41.3996 68.6018L45.7056 67.7292L51.5855 54.6453L45.3687 54.6505Z" fill="#FFD200"/>
<path d="M92.8869 54.6453L77.4844 54.6505L78.753 57.1054L73.5101 68.6018L77.8371 67.6609L82.422 57.3945H87.7597L86.0858 60.1858H84.0486L80.7955 63.0823H84.7224L86.7122 67.8343L91.2498 68.9014L88.2177 61.7891L91.0129 58.6929L92.8869 54.6453Z" fill="#FFD200"/>
<path d="M33.3825 54.6504L34.4669 56.7426L24.1495 68.6017L29.3082 67.9498L37.3727 58.6402V62.4671H35.7408L32.4877 65.3688H37.3727V67.9866L41.1417 68.6017V54.6504H33.3825Z" fill="#FFD200"/>
<path d="M33.2825 47.4225H29.145V40.4731H27.1447V49.1046H33.2825V47.4225Z" fill="white"/>
<path d="M37.778 49.2359C38.9574 49.2728 40.1238 48.9817 41.147 48.3948V44.1895H37.6727V45.8033H39.3046V47.312C38.8394 47.4663 38.3524 47.5443 37.8622 47.5432C36.0672 47.5432 35.4671 46.6286 35.4671 44.7782C35.4671 42.9279 36.0356 41.9711 37.8359 41.9711C38.2247 41.9387 38.6155 42.005 38.9717 42.164C39.3279 42.3231 39.638 42.5696 39.8731 42.8806L41.1154 41.7398C40.3626 40.657 39.0098 40.3311 37.7885 40.3311C34.9933 40.3311 33.5247 41.8555 33.5247 44.7572C33.5247 47.6589 34.8512 49.2201 37.778 49.2201" fill="white"/>
</g>
<defs>
<clipPath id="clip0_869_5057">
<rect width="98" height="60" fill="white" transform="translate(11 10)"/>
</clipPath>
</defs>
</svg>
