<svg width="120" height="80" viewBox="0 0 120 80" fill="none" xmlns="http://www.w3.org/2000/svg">
<g clip-path="url(#clip0_2425_287)">
<path d="M45.1383 3.03394V5.16433C45.1421 5.28836 45.1187 5.41173 45.0698 5.52577C45.0208 5.6398 44.9475 5.74174 44.855 5.82441C44.6247 6.00143 44.3372 6.08718 44.0477 6.06521C43.9854 6.06844 43.923 6.06844 43.8607 6.06521L43.7332 6.04821L43.5859 6.01988L43.4075 5.98022V5.3768C43.619 5.41319 43.8331 5.43214 44.0477 5.43346C44.1978 5.43346 44.2941 5.39946 44.3309 5.33147C44.3778 5.22658 44.3982 5.1118 44.3904 4.99718V3.03394H45.1383Z" fill="white"/>
<path d="M47.141 3.03394H47.8803V5.17283C47.8809 5.29307 47.8559 5.41206 47.8071 5.52194C47.7582 5.63182 47.6867 5.73008 47.597 5.81025C47.3567 6.00134 47.0535 6.09535 46.7472 6.07371C46.4408 6.09705 46.1369 6.00285 45.8974 5.81025C45.8078 5.73008 45.7362 5.63182 45.6874 5.52194C45.6386 5.41206 45.6136 5.29307 45.6141 5.17283V3.03394H46.3535V5.18699C46.351 5.22948 46.3599 5.27187 46.3793 5.30974C46.3987 5.34761 46.428 5.37957 46.464 5.4023C46.552 5.44598 46.6489 5.46871 46.7472 5.46871C46.8455 5.46871 46.9425 5.44598 47.0305 5.4023C47.0672 5.38016 47.0972 5.34839 47.1172 5.31044C47.1371 5.27249 47.1463 5.2298 47.1438 5.18699L47.141 3.03394Z" fill="white"/>
<path d="M50.6167 3.03394V6.02272H49.9821L49.2258 4.79321L49.0728 4.39659H49.0389L49.0559 4.8782V6.01138H48.3732V3.03394H49.0105L49.7867 4.33144L49.9227 4.66006H49.9567L49.9397 4.17845V3.04527L50.6167 3.03394Z" fill="white"/>
<path d="M52.1775 6.06245C51.8861 6.08134 51.5976 5.99487 51.3645 5.81881C51.2712 5.73552 51.1975 5.63267 51.1485 5.51759C51.0996 5.40251 51.0766 5.27804 51.0813 5.15306V3.91223C51.0762 3.78678 51.0989 3.66176 51.1479 3.54616C51.1969 3.43056 51.2709 3.32724 51.3645 3.24365C51.5969 3.0662 51.8859 2.97957 52.1775 3.00001C52.4696 3.00565 52.7606 3.03693 53.0472 3.0935V3.70259C52.76 3.64988 52.4693 3.61863 52.1775 3.6091C52.1185 3.60298 52.0588 3.60913 52.0023 3.62717C51.9457 3.64521 51.8935 3.67474 51.8489 3.71392C51.7807 3.79863 51.7464 3.90564 51.7526 4.01421V5.03975C51.7445 5.09732 51.7499 5.156 51.7685 5.21111C51.787 5.26622 51.8181 5.31625 51.8594 5.35723C51.9006 5.39821 51.9508 5.429 52.0061 5.44716C52.0613 5.46532 52.12 5.47036 52.1775 5.46186C52.3101 5.4613 52.4425 5.45278 52.5741 5.43636V4.52415H53.2001V5.92363C52.8675 6.01768 52.5232 6.06441 52.1775 6.06245Z" fill="white"/>
<path d="M54.1944 6.02555V3.03394H54.9196V6.02272L54.1944 6.02555ZM55.7864 4.50708L56.503 3.03677H55.7156L55.0074 4.56091L55.741 6.02555H56.5909L55.7864 4.50708Z" fill="white"/>
<path d="M59.7351 6.02555H59.0156L58.6559 4.81304L58.3018 6.02555H57.5823L56.707 3.03394H57.4803L57.8457 4.39659L57.9392 5.11333H57.9647L58.078 4.39659L58.2989 3.5807L58.1403 3.03394H58.9136L59.2791 4.39659L59.3725 5.11333H59.398L59.5113 4.39659L59.8824 3.03394H60.6076L59.7351 6.02555Z" fill="white"/>
<path d="M62.109 3.03394L62.9786 6.02272H62.2109L62.0608 5.47029H61.3809L61.2308 6.02272H60.5028L61.3809 3.03394H62.109ZM61.5424 4.8952H61.9022L61.8398 4.66006L61.7435 3.94332H61.718L61.6076 4.66006L61.5424 4.8952Z" fill="white"/>
<path d="M65.5139 3.03394V6.02272H64.8765L64.123 4.79321L63.9672 4.39659H63.9304L63.9474 4.8782V6.01138H63.2647V3.03394H63.9021L64.6782 4.33144L64.8142 4.66006H64.8482L64.8312 4.17845V3.04527L65.5139 3.03394Z" fill="white"/>
<path d="M68.0718 3.03394V5.16433C68.0777 5.28706 68.057 5.40963 68.011 5.52359C67.9651 5.63755 67.8949 5.74018 67.8055 5.82441C67.575 6.00095 67.2877 6.08664 66.9982 6.06521C66.9359 6.06844 66.8735 6.06844 66.8112 6.06521L66.6837 6.04821L66.5336 6.01988L66.358 5.98022V5.3768C66.5695 5.41319 66.7836 5.43214 66.9982 5.43346C67.1483 5.43346 67.2446 5.39946 67.2814 5.33147C67.3283 5.22658 67.3487 5.1118 67.3409 4.99718V3.03394H68.0718Z" fill="white"/>
<path d="M69.9159 3.03394L70.7855 6.02272H70.0178L69.8677 5.47029H69.1992L69.0491 6.02272H68.321L69.1907 3.03394H69.9159ZM69.3493 4.8952H69.7091L69.6496 4.66006L69.5504 3.94332H69.5249L69.4145 4.66006L69.3493 4.8952Z" fill="white"/>
<path d="M73.3208 3.03394V6.02272H72.6862L71.9299 4.79321L71.7769 4.39659H71.7429L71.76 4.8782V6.01138H71.0773V3.03394H71.7118L72.4879 4.33144L72.6239 4.66006H72.6579L72.6409 4.17845V3.04527L73.3208 3.03394Z" fill="white"/>
<path d="M74.8816 6.06243C74.591 6.08139 74.3034 5.99489 74.0714 5.81879C73.9782 5.7355 73.9044 5.63265 73.8554 5.51757C73.8065 5.40249 73.7835 5.27802 73.7882 5.15304V3.91221C73.7831 3.78676 73.8058 3.66174 73.8548 3.54614C73.9038 3.43054 73.9778 3.32722 74.0714 3.24363C74.3042 3.06711 74.5929 2.98059 74.8844 2.99999C75.1765 3.00548 75.4675 3.03677 75.7541 3.09348V3.70257C75.4669 3.64972 75.1762 3.61847 74.8844 3.60908C74.8281 3.59791 74.7699 3.6005 74.7148 3.61662C74.6597 3.63274 74.6093 3.66192 74.5679 3.70168C74.5265 3.74144 74.4952 3.79061 74.4769 3.84501C74.4585 3.89942 74.4535 3.95746 74.4624 4.01419V5.03973C74.4544 5.09703 74.4597 5.15541 74.4781 5.21028C74.4965 5.26514 74.5274 5.315 74.5683 5.35591C74.6092 5.39683 74.659 5.42769 74.7139 5.44607C74.7688 5.46445 74.8271 5.46985 74.8844 5.46184C75.017 5.46137 75.1495 5.45285 75.281 5.43634V4.52413H75.9099V5.92361C75.5754 6.01819 75.2292 6.06492 74.8816 6.06243Z" fill="white"/>
<path d="M38.4134 13.8616L39.2632 16.4113H37.5862L36.8101 13.8616H36.6005V16.4113H34.9943V8.3855H38.0423L39.1272 9.42803V13.1534L38.4134 13.8616ZM36.6061 9.79348V12.5641H37.3936C37.5154 12.5641 37.5494 12.5188 37.5494 12.397V9.9578C37.5494 9.85864 37.5041 9.79348 37.3936 9.79348H36.6061Z" fill="white"/>
<path d="M79.9861 13.8616L80.8359 16.4113H79.1731L78.397 13.8616H78.1845V16.4113H76.5784V8.3855H79.6264L80.7141 9.42803V13.1534L79.9861 13.8616ZM78.1788 9.79348V12.5641H78.9663C79.0881 12.5641 79.1221 12.5188 79.1221 12.397V9.9578C79.1221 9.85864 79.0768 9.79348 78.9663 9.79348H78.1788Z" fill="white"/>
<path d="M39.8213 8.3855H42.9372L43.2205 9.8813H41.4671V11.7879H42.7984V13.1732H41.4671V14.9325H43.1525L42.8693 16.4283H39.8099L39.8213 8.3855Z" fill="white"/>
<path d="M46.6283 16.4226H43.7786V8.3855H46.9342L47.886 9.36004V15.1818L46.6283 16.4226ZM45.3762 9.79348V15.0146H46.1297C46.2628 15.0146 46.2855 14.9693 46.2855 14.8475V9.94646C46.2855 9.84731 46.2515 9.79348 46.141 9.79348H45.3762Z" fill="white"/>
<path d="M54.1009 13.0967V15.1818L52.8488 16.4226H49.9312V8.3855H53.0698L54.0216 9.36004V11.5669L53.4692 12.3885L54.1009 13.0967ZM51.5288 9.79348V11.8984H52.2823C52.3098 11.9003 52.3374 11.896 52.3631 11.886C52.3888 11.876 52.4119 11.8604 52.4309 11.8403C52.4498 11.8203 52.4641 11.7963 52.4727 11.7701C52.4813 11.7439 52.484 11.7161 52.4806 11.6887V9.94646C52.4806 9.84731 52.4494 9.79348 52.3389 9.79348H51.5288ZM52.5032 13.3517C52.5032 13.1732 52.4041 13.1194 52.2596 13.1194H51.5288V15.0146H52.3389C52.4721 15.0146 52.5032 14.9693 52.5032 14.8475V13.3517Z" fill="white"/>
<path d="M57.7806 16.4226H55.9195L54.7666 15.2894V9.42803L55.8515 8.3855H57.8344L58.9193 9.42803V15.2809L57.7806 16.4226ZM56.5285 9.79348C56.4181 9.79348 56.3841 9.84731 56.3841 9.94646V14.8475C56.3841 14.9693 56.4067 15.0146 56.5399 15.0146H57.1489C57.282 15.0146 57.3047 14.9693 57.3047 14.8475V9.94646C57.3047 9.84731 57.2707 9.79348 57.1602 9.79348H56.5285Z" fill="white"/>
<path d="M62.6103 16.4226H60.7464L59.5935 15.2894V9.42803L60.6813 8.3855H62.6642L63.7519 9.42803V15.2809L62.6103 16.4226ZM61.3554 9.79348C61.245 9.79348 61.211 9.84731 61.211 9.94646V14.8475C61.211 14.9693 61.2336 15.0146 61.3668 15.0146H61.9786C62.1089 15.0146 62.1316 14.9693 62.1316 14.8475V9.94646C62.1316 9.84731 62.1004 9.79348 61.9871 9.79348H61.3554Z" fill="white"/>
<path d="M66.8169 16.4226H64.834L64.5507 14.9268H66.2787C66.4232 14.9268 66.4685 14.8815 66.4685 14.7597V13.295C66.4685 13.0741 66.3892 13.0627 66.1682 13.0627H65.3354L64.4374 12.1533V9.42803L65.5252 8.3855H67.7432L68.0265 9.8813H66.1965C66.0634 9.8813 65.9954 9.93797 65.9954 10.0598V11.5329C65.9954 11.7001 66.0747 11.7454 66.239 11.7454H67.2475L68.0463 12.5641V15.2158L66.8169 16.4226Z" fill="white"/>
<path d="M83.7593 16.4226H81.7764L81.4931 14.9324H83.2239C83.3684 14.9324 83.4137 14.8871 83.4137 14.7653V13.3006C83.4137 13.0797 83.3344 13.0683 83.1134 13.0683H82.2806L81.3826 12.159V9.43364L82.4704 8.39111H84.6884L84.9717 9.88692H83.1559C83.0228 9.88692 82.9548 9.94358 82.9548 10.0654V11.5329C82.9548 11.7 83.0341 11.7453 83.1984 11.7453H84.2068L85.0057 12.5641V15.2157L83.7593 16.4226Z" fill="white"/>
<path d="M71.7713 8.3855L72.1707 9.8813H71.0943V16.4226H69.4542V9.8813H68.3806L68.7998 8.3855H71.7713Z" fill="white"/>
<path d="M72.6154 8.3855H75.7314L76.0147 9.8813H74.2641V11.7879H75.5926V13.1732H74.2641V14.9325H75.9495L75.6662 16.4283H72.6069L72.6154 8.3855Z" fill="white"/>
<path d="M60.2932 32.7038V47.2284L63.8199 48.7525L60.2932 78.0001L80.8246 64.7163V49.3984L76.924 47.7242L80.8246 43.5285V35.4631L84.6091 29.1541H65.3468C64.9232 30.161 64.2245 31.0281 63.3306 31.656C62.4368 32.2839 61.384 32.647 60.2932 32.7038ZM68.0945 35.4631H73.0234V46.0215L68.0945 43.8288V35.4631ZM68.0945 50.6053L73.0234 52.764L72.8137 60.617L67.8962 63.7786L68.0945 50.6053Z" fill="white"/>
<path d="M54.6419 29.1541H35.3796L39.1641 35.4631V64.7163L46.9653 69.7646V53.1351L51.8942 55.2684V72.9517L59.6955 78.0001V50.9112L54.7638 48.7582L58.8287 32.6103C57.9027 32.4173 57.0377 32.0017 56.3083 31.3996C55.5788 30.7974 55.0069 30.0267 54.6419 29.1541ZM49.0247 46.251L46.9653 45.353V35.4631H51.3334L49.0247 46.251Z" fill="#CF1D24"/>
<path d="M84.9972 19.7229H35V26.0319H54.2624C54.4698 24.6597 55.1624 23.4074 56.2144 22.5024C57.2664 21.5974 58.6081 21.0997 59.9957 21.0997C61.3834 21.0997 62.7251 21.5974 63.7771 22.5024C64.8291 23.4074 65.5217 24.6597 65.7291 26.0319H84.9915L84.9972 19.7229Z" fill="#CF1D24"/>
<path d="M65.2051 26.0491C64.8816 25.2924 64.405 24.6109 63.8054 24.0473C63.2058 23.4837 62.4961 23.0502 61.7209 22.7742C62.054 22.5926 62.4199 22.479 62.7973 22.4399C63.4312 22.8368 63.9736 23.3637 64.3887 23.9859C64.8038 24.6081 65.0821 25.3114 65.2051 26.0491ZM61.0778 23.9697C61.2651 24.2778 61.4713 24.574 61.6954 24.8564C62.8086 26.3352 64.4884 28.5648 62.6925 31.4487C61.9541 31.8902 61.1184 32.1431 60.2592 32.1853V23.0207C60.4691 23.0312 60.6782 23.0548 60.8852 23.0915C60.8435 23.3978 60.9117 23.709 61.0778 23.9697ZM58.3018 24.8564C58.5258 24.574 58.7321 24.2778 58.9193 23.9697C59.0847 23.7087 59.152 23.3975 59.1091 23.0915C59.3171 23.055 59.5271 23.0314 59.738 23.0207V32.1853C58.8778 32.1433 58.0412 31.8903 57.3018 31.4487C55.5088 28.5648 57.1857 26.3352 58.3018 24.8479V24.8564ZM57.9137 22.0575C58.492 21.8103 59.1098 21.6683 59.738 21.6382V22.4881C59.4476 22.5007 59.1586 22.5367 58.874 22.5957C58.609 22.332 58.2769 22.1459 57.9137 22.0575ZM60.2592 22.4994V21.6495C60.8873 21.6799 61.5051 21.8219 62.0835 22.0688C61.719 22.1604 61.3868 22.3506 61.1232 22.6184C60.8351 22.5551 60.5424 22.5153 60.2479 22.4994H60.2592ZM57.1942 22.4399C57.5735 22.4783 57.9414 22.5919 58.2763 22.7742C57.5007 23.0502 56.7906 23.4836 56.1905 24.0472C55.5905 24.6108 55.1134 25.2923 54.7892 26.0491C54.9126 25.3118 55.1907 24.609 55.6053 23.9869C56.0198 23.3649 56.5613 22.8376 57.1942 22.4399ZM54.8006 27.8226C55.166 25.5562 56.6702 23.7856 58.5992 23.202C58.6091 23.3794 58.5614 23.5553 58.4633 23.7034C58.2914 23.9904 58.1022 24.2667 57.8967 24.5306C56.8883 25.8678 55.2821 28.0039 56.3614 30.715C55.5482 29.9449 55.0014 28.9358 54.8006 27.8339V27.8226ZM63.6471 30.7263C64.7292 28.0152 63.123 25.8791 62.1146 24.542C61.9054 24.2775 61.7115 24.0013 61.5339 23.7147C61.4384 23.5656 61.3918 23.3903 61.4008 23.2133C63.3298 23.7969 64.834 25.5618 65.1994 27.8339C65.0041 28.9391 64.4601 29.9527 63.6471 30.7263Z" fill="#CF1D24"/>
</g>
<defs>
<clipPath id="clip0_2425_287">
<rect width="50" height="75" fill="white" transform="translate(35 3)"/>
</clipPath>
</defs>
</svg>
