<svg width="120" height="80" viewBox="0 0 120 80" fill="none" xmlns="http://www.w3.org/2000/svg">
<g clip-path="url(#clip0_388_822)">
<path d="M33.8598 61.9979L31.656 44.3861H31.6074L27.3498 61.9979H17L26.2611 23.6199H36.6191L32.6738 39.9552L32.5501 40.063L32.5724 39.9552H32.7245L42.3586 23.6199H53.268L40.5259 42.1402L44.976 61.9979H33.8598Z" fill="white"/>
<path d="M82.6855 61.9817L91.9426 23.6199H102.282L95.2229 52.9024H102.998L100.806 61.9817H82.6855Z" fill="white"/>
<path d="M56.4997 27.6077L48.23 61.878C63.5287 52.3882 72.6499 36.941 56.4997 27.6077Z" fill="white"/>
<path d="M70.434 23.6077H64.3153C79.0037 35.5182 72.7188 52.6544 49.5173 61.9817H61.1627C74.2211 61.9817 79.4376 58.3008 80.8142 51.063C82.1219 44.2256 78.7868 42.6239 74.8273 41.8902L74.9165 41.5162C80.4493 41.5487 83.3261 37.6808 84.2081 33.1138C85.5705 26.0447 81.7042 23.6077 70.434 23.6077Z" fill="white"/>
<path d="M55.7232 25.2176C57.2251 25.22 58.6939 24.7757 59.9438 23.9409C61.1937 23.1061 62.1685 21.9183 62.7449 20.5279C63.3212 19.1375 63.4731 17.607 63.1814 16.13C62.8898 14.6529 62.1676 13.2959 61.1063 12.2305C60.045 11.1651 58.6924 10.4393 57.2195 10.1449C55.7466 9.85053 54.2197 10.0008 52.832 10.5767C51.4444 11.1526 50.2583 12.1283 49.4239 13.3803C48.5896 14.6322 48.1444 16.1042 48.1448 17.6098C48.1459 19.6254 48.9444 21.5583 50.3651 22.9845C51.7858 24.4107 53.7127 25.2138 55.7232 25.2176Z" fill="white"/>
<path d="M33.8598 61.9979L31.656 44.3861H31.6074L27.3498 61.9979H17L26.2611 23.6199H36.6191L32.6738 39.9552L32.5501 40.063L32.5724 39.9552H32.7245L42.3586 23.6199H53.268L40.5259 42.1402L44.976 61.9979H33.8598Z" fill="white"/>
<path d="M82.6855 61.9817L91.9426 23.6199H102.282L95.2229 52.9024H102.998L100.806 61.9817H82.6855Z" fill="white"/>
<path d="M56.4997 27.6077L48.23 61.878C63.5287 52.3882 72.6499 36.941 56.4997 27.6077Z" fill="white"/>
<path d="M70.434 23.6077H64.3153C79.0037 35.5182 72.7188 52.6544 49.5173 61.9817H61.1627C74.2211 61.9817 79.4376 58.3008 80.8142 51.063C82.1219 44.2256 78.7868 42.6239 74.8273 41.8902L74.9165 41.5162C80.4493 41.5487 83.3261 37.6808 84.2081 33.1138C85.5705 26.0447 81.7042 23.6077 70.434 23.6077Z" fill="white"/>
<path d="M55.7232 25.2176C57.2251 25.22 58.6939 24.7757 59.9438 23.9409C61.1937 23.1061 62.1685 21.9183 62.7449 20.5279C63.3212 19.1375 63.4731 17.607 63.1814 16.13C62.8898 14.6529 62.1676 13.2959 61.1063 12.2305C60.045 11.1651 58.6924 10.4393 57.2195 10.1449C55.7466 9.85053 54.2197 10.0008 52.832 10.5767C51.4444 11.1526 50.2583 12.1283 49.4239 13.3803C48.5896 14.6322 48.1444 16.1042 48.1448 17.6098C48.1459 19.6254 48.9444 21.5583 50.3651 22.9845C51.7858 24.4107 53.7127 25.2138 55.7232 25.2176Z" fill="white"/>
</g>
<defs>
<clipPath id="clip0_388_822">
<rect width="86" height="52" fill="white" transform="translate(17 10)"/>
</clipPath>
</defs>
</svg>
