<svg width="130" height="50" viewBox="0 0 130 50" fill="none" xmlns="http://www.w3.org/2000/svg">
<path d="M13.6892 31.711C17.4294 31.516 20.4078 28.1361 21.9916 25.7419C19.5492 20.8745 20.5621 15.6944 23.9548 12.3254C22.4839 15.3723 23.7046 22.1525 25.5367 22.8192C30.7675 23.1081 34.7414 26.7315 35.7342 31.3452C32.7129 28.1111 31.2798 26.7576 26.0777 27.3134C19.9537 32.814 18.3671 32.3598 13.6892 31.711Z" fill="#072767"/>
<path d="M15.0849 5.72935C7.54108 7.84766 6.19138 10.7703 2.78564 13.8309C9.25792 1.34657 22.1033 -0.430929 28.9352 3.05372C18.1305 4.70772 9.5074 13.1395 13.1264 27.3853C6.08159 16.8079 14.0055 7.12071 15.0849 5.72935Z" fill="#0470B5"/>
<path d="M3.68248 37.4645C-2.32468 30.3275 -0.813646 16.0215 6.98118 10.5882C3.19021 19.5874 3.63565 26.085 11.9141 31.5055C4.9944 29.9988 3.6148 25.994 2.27611 23.944C2.27611 23.944 0.70959 31.3214 3.68248 37.4645Z" fill="#58B2A3"/>
<path d="M45.8719 27.1579C47.9925 19.6617 46.1875 16.9923 45.3383 12.5095C52.6779 24.5107 47.4963 36.3197 40.9366 40.287C45.1585 30.2712 42.4221 18.5639 28.2998 14.1905C41.061 13.7465 45.2407 25.5167 45.8719 27.1579Z" fill="#E33C11"/>
<path d="M24.4314 0.913526C33.683 -0.534504 45.2601 8.10795 45.9444 17.5418C40.1222 9.68535 34.2823 6.72402 25.3451 10.9895C30.2036 5.86966 34.3716 6.75333 36.8302 6.66656C36.8302 6.66656 31.2649 1.53925 24.4314 0.913526Z" fill="#9B488E"/>
<path d="M12.4393 42.8544C18.1372 48.2026 21.3552 47.8555 25.7467 49.1921C11.6366 50.0703 3.51631 40.026 3.02759 32.4134C9.99528 40.7807 21.7039 43.8139 32.1654 33.426C26.6313 44.8555 14.1955 43.0619 12.4393 42.8544Z" fill="#8FC443"/>
<path d="M45.5735 36.0211C42.6494 44.8582 29.6234 51.1463 20.8594 47.4463C30.5548 45.8857 35.8726 42.0755 36.1291 32.2305C38.4992 38.8609 35.8057 42.1412 34.7609 44.3537C34.7609 44.3537 41.8943 41.775 45.5731 36.0211H45.5735Z" fill="#F9AC1D"/>
<path d="M85.3093 9.93375C97.0245 10.1639 96.8701 26.6522 85.4829 26.8897C73.2172 26.8379 73.9801 10.0065 85.3093 9.93375ZM85.3353 13.2687C79.6455 13.3069 79.9588 23.6323 85.3944 23.6524C90.9229 23.753 90.31 13.2565 85.3353 13.2687ZM60.5265 12.3615C60.522 11.1229 59.187 10.2611 59.187 10.2611H65.3216L65.3949 16.9565L70.2441 11.2421C70.9028 10.5982 71.5432 10.4277 72.1985 10.4228H76.0107L69.7311 17.9219L76.3915 26.553L70.981 26.5008L65.4761 19.2591L65.3231 26.5203H60.6844L60.527 12.3615H60.5265ZM96.0678 14.9201C95.1469 12.7245 94.7332 12.1128 94.0328 11.4141L92.8792 10.3344C92.8792 10.3344 96.9852 10.3466 99.0379 10.3979L101.083 15.8118C101.083 15.8118 103.221 21.1265 103.336 21.0058L106.733 12.7763C107.474 10.8782 107.699 10.4751 108.61 10.4531H112.248L105.863 26.5271H100.668L96.0678 14.9201ZM120.82 9.93375C132.535 10.1639 132.38 26.6522 120.993 26.8897C108.728 26.8379 109.49 10.0065 120.82 9.93375ZM120.846 13.2687C115.156 13.3069 115.469 23.6323 120.905 23.6524C126.433 23.753 125.82 13.2565 120.846 13.2687Z" fill="#072767"/>
<path d="M62.4239 33.8307L64.2729 36.3756H63.4729L61.9837 34.324L61.1773 35.2236V36.3762H60.5261V31.847H61.1773V34.2931L63.3671 31.8345H64.2355L62.4239 33.8307Z" fill="#072767"/>
<path d="M66.7671 31.7906C68.02 31.7906 69.0379 32.8382 69.0379 34.1077C69.0379 35.3773 68.0206 36.4248 66.7671 36.4248C65.5135 36.4248 64.4905 35.3836 64.4905 34.1077C64.4905 32.8319 65.5141 31.7906 66.7671 31.7906ZM68.3924 34.1077C68.3924 33.1835 67.6481 32.438 66.7671 32.438C65.886 32.438 65.1353 33.1835 65.1353 34.1077C65.1353 35.0319 65.8733 35.7838 66.7671 35.7838C67.6608 35.7838 68.3924 35.0382 68.3924 34.1077Z" fill="#072767"/>
<path d="M69.7375 31.8403H71.6486C72.4302 31.8403 73.063 32.4688 73.063 33.3006C73.0446 34.0027 72.6101 34.5022 72.0457 34.6992L73.2803 36.3752H72.4923L71.3135 34.7854H70.3703V36.3752H69.7375V31.8403ZM72.436 33.3068C72.436 32.8507 72.0636 32.4814 71.5986 32.4814H70.3703V34.1511H71.5986C72.0641 34.1511 72.436 33.7692 72.436 33.3068Z" fill="#072767"/>
<path d="M77.0333 32.4626H74.6073V33.7259H76.8344V34.3607H74.6073V35.7473H77.0333V36.3758H73.9624V31.841H77.0333V32.4632V32.4626Z" fill="#072767"/>
<path d="M81.9832 36.3752H81.2946L80.786 35.149H78.6703L78.1617 36.3752H77.4731L79.3779 31.8403H80.079L81.9838 36.3752H81.9832ZM80.5003 34.4714L79.7313 32.6292L78.956 34.4714H80.5009H80.5003Z" fill="#072767"/>
<path d="M86.6671 36.3752H85.8728L83.2733 32.7702V36.3752H82.6221V31.8403H83.3974L86.0217 35.439V31.8403H86.6671V36.3752Z" fill="#072767"/>
<path d="M91.5306 36.3752H90.8294L88.9062 31.8403H89.6011L91.1892 35.5806L92.7278 31.8403H93.3853L91.5306 36.3752Z" fill="#072767"/>
<path d="M95.7685 31.7906C97.0215 31.7906 98.0394 32.8382 98.0394 34.1077C98.0394 35.3773 97.0221 36.4248 95.7685 36.4248C94.515 36.4248 93.4919 35.3836 93.4919 34.1077C93.4919 32.8319 94.5156 31.7906 95.7685 31.7906ZM97.3939 34.1077C97.3939 33.1835 96.6496 32.438 95.7685 32.438C94.8874 32.438 94.1368 33.1835 94.1368 34.1077C94.1368 35.0319 94.8748 35.7838 95.7685 35.7838C96.6623 35.7838 97.3939 35.0382 97.3939 34.1077Z" fill="#072767"/>
<path d="M99.3726 35.7467H101.637V36.3752H98.7278V31.8403H99.3732V35.7467H99.3726Z" fill="#072767"/>
<path d="M103.033 35.7467H105.297V36.3752H102.388V31.8403H103.033V35.7467H103.033Z" fill="#072767"/>
<path d="M109.056 32.4626H106.63V33.7259H108.857V34.3607H106.63V35.7473H109.056V36.3758H105.985V31.841H109.056V32.4632V32.4626Z" fill="#072767"/>
<path d="M112.022 34.6067V36.3752H111.389V34.6067L109.571 31.8403H110.334L111.705 33.9291L113.083 31.8403H113.839L112.022 34.6067Z" fill="#072767"/>
<path d="M114.484 31.8403H116.457C117.152 31.8403 117.71 32.3764 117.71 33.0728C117.71 33.461 117.518 33.7755 117.233 34.0033C117.58 34.2191 117.816 34.6381 117.816 35.1124C117.816 35.8146 117.252 36.3757 116.557 36.3757H114.485V31.8409L114.484 31.8403ZM115.135 33.7259H116.438C116.792 33.7133 117.065 33.461 117.065 33.1099C117.065 32.7588 116.767 32.4751 116.407 32.4751H115.135V33.7259ZM115.135 35.7164H116.494C116.854 35.7164 117.145 35.4327 117.145 35.0571C117.145 34.6626 116.854 34.3606 116.494 34.3606H115.135V35.7164Z" fill="#072767"/>
<path d="M122.784 36.3752H122.096L121.587 35.149H119.472L118.963 36.3752H118.274L120.179 31.8403H120.88L122.785 36.3752H122.784ZM121.302 34.4714L120.533 32.6292L119.757 34.4714H121.302H121.302Z" fill="#072767"/>
<path d="M124.075 35.7467H126.34V36.3752H123.43V31.8403H124.076V35.7467H124.075Z" fill="#072767"/>
<path d="M127.736 35.7467H130V36.3752H127.091V31.8403H127.736V35.7467H127.736Z" fill="#072767"/>
<path d="M63.5274 39.8563H61.164V41.1812H63.1986V41.816H61.164V43.7695H60.5186V39.2346H63.5274V39.8568V39.8563Z" fill="#072767"/>
<path d="M67.2872 39.8563H64.8612V41.1196H67.0883V41.7544H64.8612V43.141H67.2872V43.7695H64.2163V39.2346H67.2872V39.8568V39.8563Z" fill="#072767"/>
<path d="M68.1001 39.2339H69.4714C70.7244 39.2339 71.748 40.2506 71.748 41.5013C71.748 42.7521 70.7244 43.7688 69.4714 43.7688H68.1001V39.2339ZM71.0968 41.5013C71.0968 40.608 70.3589 39.8807 69.4651 39.8807H68.7519V43.122H69.4651C70.3583 43.122 71.0968 42.3947 71.0968 41.5013Z" fill="#072767"/>
<path d="M75.4327 39.8563H73.0067V41.1196H75.2338V41.7544H73.0067V43.141H75.4327V43.7695H72.3618V39.2346H75.4327V39.8568V39.8563Z" fill="#072767"/>
<path d="M76.2454 39.2339H78.1564C78.9381 39.2339 79.5709 39.8624 79.5709 40.6942C79.5525 41.3963 79.118 41.8958 78.5536 42.0927L79.7881 43.7688H79.0001L77.8213 42.1789H76.8782V43.7688H76.2454V39.2339ZM78.9438 40.7004C78.9438 40.2443 78.5714 39.875 78.1064 39.875H76.8782V41.5447H78.1064C78.5719 41.5447 78.9438 41.1628 78.9438 40.7004Z" fill="#072767"/>
<path d="M84.8811 43.7695H84.1926L83.6839 42.5433H81.5683L81.0596 43.7695H80.3711L82.2758 39.2346H82.977L84.8817 43.7695H84.8811ZM83.3983 41.8657L82.6293 40.0235L81.8539 41.8657H83.3989H83.3983Z" fill="#072767"/>
<path d="M88.2059 39.8561H86.9092V43.7688H86.2581V39.8561H84.9614V39.2339H88.2059V39.8561Z" fill="#072767"/>
<path d="M89.7131 39.2339V43.7688H89.0676V39.2339H89.7131Z" fill="#072767"/>
<path d="M92.8149 39.1851C94.0679 39.1851 95.0857 40.2326 95.0857 41.5022C95.0857 42.7718 94.0684 43.8193 92.8149 43.8193C91.5614 43.8193 90.5383 42.7781 90.5383 41.5022C90.5383 40.2264 91.562 39.1851 92.8149 39.1851ZM94.4403 41.5022C94.4403 40.578 93.696 39.8325 92.8149 39.8325C91.9338 39.8325 91.1832 40.578 91.1832 41.5022C91.1832 42.4264 91.9212 43.1782 92.8149 43.1782C93.7086 43.1782 94.4403 42.4327 94.4403 41.5022Z" fill="#072767"/>
<path d="M99.8126 43.7695H99.0183L96.4188 40.1645V43.7695H95.7676V39.2346H96.5429L99.1672 42.8333V39.2346H99.8126V43.7695Z" fill="#072767"/>
</svg>
